<svg width="176" height="176" viewBox="0 0 176 176" fill="none" xmlns="http://www.w3.org/2000/svg">
<path d="M88 0L104.503 10.3586L123.793 7.608L134.656 23.7835L153.397 29.1165L156.742 48.312L171.693 60.8065L166.941 79.7029L175.518 97.1985L163.491 112.529L164.21 132L146.988 141.113L139.725 159.193L120.285 160.514L106.296 174.077L88 167.376L69.7038 174.077L55.7149 160.514L36.2749 159.193L29.0121 141.113L11.7898 132L12.5089 112.529L0.482071 97.1985L9.05883 79.7029L4.30703 60.8065L19.2584 48.312L22.6033 29.1165L41.344 23.7835L52.2072 7.608L71.4968 10.3586L88 0Z" fill="#1783FF"/>
<path d="M57.5577 76.5028C61.9018 76.5028 65.7851 77.5189 69.2076 79.5512C72.6302 81.5836 75.2958 84.4026 77.2046 88.0083C79.1133 91.614 80.0677 95.6787 80.0677 100.202C80.0677 104.791 79.0146 108.889 76.9084 112.494C74.868 116.1 72.0049 118.919 68.3191 120.952C64.6332 122.984 60.4208 124 55.6819 124C49.495 124 44.1966 122.328 39.7868 118.985C35.4427 115.641 32.5138 111.216 31 105.709L40.774 104.037C42.2879 107.512 44.2624 110.167 46.6977 112.003C49.1988 113.773 52.1277 114.658 55.4845 114.658C59.6968 114.658 63.0865 113.314 65.6534 110.626C68.2862 107.938 69.6025 104.464 69.6025 100.202C69.6025 95.9409 68.3191 92.4991 65.7521 89.8767C63.251 87.1888 59.993 85.8449 55.9781 85.8449C53.0821 85.8449 50.4823 86.5332 48.1786 87.91C45.9408 89.2211 44.1637 90.9257 42.8473 93.0235H32.9746L37.0224 53.6884H77.0071V63.0305H45.6117L43.8346 81.0263C47.5863 78.0106 52.1606 76.5028 57.5577 76.5028Z" fill="white"/>
<path d="M116.751 123.803C111.42 123.803 106.681 122.328 102.534 119.378C98.3878 116.428 95.1627 112.265 92.8591 106.889C90.5554 101.513 89.4036 95.3509 89.4036 88.4017C89.4036 81.4524 90.5554 75.2899 92.8591 69.9141C95.1627 64.5383 98.3878 60.3753 102.534 57.4252C106.681 54.4751 111.42 53 116.751 53C122.082 53 126.821 54.4751 130.968 57.4252C135.115 60.3753 138.307 64.5383 140.545 69.9141C142.848 75.2899 144 81.4524 144 88.4017C144 95.3509 142.848 101.513 140.545 106.889C138.307 112.265 135.115 116.428 130.968 119.378C126.821 122.328 122.082 123.803 116.751 123.803ZM116.751 114.461C120.042 114.461 122.938 113.379 125.439 111.216C128.006 109.053 129.981 106.004 131.363 102.071C132.745 98.1371 133.436 93.5808 133.436 88.4017C133.436 83.157 132.745 78.5679 131.363 74.6343C129.981 70.7008 128.006 67.6851 125.439 65.5873C122.938 63.4238 120.042 62.3421 116.751 62.3421C113.394 62.3421 110.465 63.4238 107.964 65.5873C105.463 67.6851 103.522 70.7008 102.139 74.6343C100.757 78.5679 100.066 83.157 100.066 88.4017C100.066 93.5808 100.757 98.1371 102.139 102.071C103.522 106.004 105.463 109.053 107.964 111.216C110.465 113.379 113.394 114.461 116.751 114.461Z" fill="white"/>
</svg>
