<svg width="72" height="72" viewBox="0 0 72 72" fill="none" xmlns="http://www.w3.org/2000/svg">
<path d="M0 33.8824C0 17.9101 0 9.92391 4.96196 4.96196C9.92391 0 17.9101 0 33.8824 0H38.1177C54.0899 0 62.0761 0 67.038 4.96196C72 9.92391 72 17.9101 72 33.8824V38.1177C72 54.0899 72 62.0761 67.038 67.038C62.0761 72 54.0899 72 38.1176 72H33.8824C17.9101 72 9.92391 72 4.96196 67.038C0 62.0761 0 54.0899 0 38.1176V33.8824Z" fill="#005FF9"/>
<path d="M42.7488 36.0345C42.7488 39.7292 39.7593 42.766 36.0098 42.766C32.2602 42.766 29.2707 39.7798 29.2707 36.0345C29.2707 32.2892 32.2602 29.3031 36.0098 29.3031C39.7593 29.3031 42.7488 32.2892 42.7488 36.0345ZM36.0604 13.7145C23.7477 13.7145 13.7151 23.7358 13.7151 36.0345C13.7151 48.3333 23.7477 58.3545 36.0604 58.3545C40.57 58.3545 44.9276 57.0386 48.6265 54.4574L48.6772 54.4068L45.6877 50.9145H45.637C42.7995 52.7366 39.4553 53.7488 36.0604 53.7488C26.2812 53.7488 18.326 45.8027 18.326 36.0345C18.326 26.2664 26.2812 18.3203 36.0604 18.3203C45.8397 18.3203 53.7948 26.2664 53.7948 36.0345C53.7948 37.2998 53.6428 38.5651 53.3895 39.8305C52.8321 42.108 51.2107 42.8166 49.9946 42.766C48.7785 42.6647 47.3598 41.8043 47.3598 39.6786V38.0084V35.9839C47.3598 29.7586 42.2928 24.6974 36.0604 24.6974C29.828 24.6974 24.7611 29.7586 24.7611 35.9839C24.7611 42.2092 29.828 47.2705 36.0604 47.2705C39.1006 47.2705 41.9381 46.1064 44.0662 43.93C45.333 45.8533 47.3598 47.068 49.6399 47.2705C49.8426 47.2705 50.0453 47.2705 50.2479 47.2705C51.8694 47.2705 53.4908 46.7137 54.7575 45.7521C56.075 44.7398 57.0883 43.2721 57.6457 41.5007C57.747 41.197 57.8991 40.539 57.8991 40.539C58.2031 39.1219 58.3551 37.7047 58.3551 35.9839C58.3551 23.7358 48.3225 13.7145 36.0604 13.7145Z" fill="#FF9E00"/>
<rect x="2" y="2" width="68" height="68" rx="16" fill="#005FF9"/>
<path fill-rule="evenodd" clip-rule="evenodd" d="M52.9026 42.8239C52.9026 37.6767 48.7239 33.498 43.5767 33.498H24.9252C19.7783 33.498 15.5996 37.6767 15.5996 42.8239C15.5996 47.9709 19.7783 52.1495 24.9252 52.1495H43.5767C48.7239 52.1495 52.9026 47.9709 52.9026 42.8239Z" fill="#F3C03A"/>
<path fill-rule="evenodd" clip-rule="evenodd" d="M24.9252 33.498C30.0724 33.498 34.2511 37.6767 34.2511 42.8239C34.2511 47.9709 30.0724 52.1495 24.9252 52.1495C19.7783 52.1495 15.5996 47.9709 15.5996 42.8239C15.5996 37.6767 19.7783 33.498 24.9252 33.498Z" fill="#F3C03A"/>
<path fill-rule="evenodd" clip-rule="evenodd" d="M34.45 19C41.4171 19 47.0738 24.6564 47.0738 31.6238C47.0738 38.5912 41.4171 44.2476 34.45 44.2476C27.4826 44.2476 21.8262 38.5912 21.8262 31.6238C21.8262 24.6564 27.4826 19 34.45 19Z" fill="#F3A23A"/>
<mask id="mask0_268_4286" style="mask-type:alpha" maskUnits="userSpaceOnUse" x="21" y="19" width="27" height="26">
<path d="M34.45 19C41.4171 19 47.0738 24.6564 47.0738 31.6238C47.0738 38.5912 41.4171 44.2476 34.45 44.2476C27.4826 44.2476 21.8262 38.5912 21.8262 31.6238C21.8262 24.6564 27.4826 19 34.45 19Z" fill="white"/>
</mask>
<g mask="url(#mask0_268_4286)">
<path fill-rule="evenodd" clip-rule="evenodd" d="M24.9252 33.498C30.0724 33.498 34.2511 37.6767 34.2511 42.8239C34.2511 47.9709 30.0724 52.1495 24.9252 52.1495C19.7783 52.1495 15.5996 47.9709 15.5996 42.8239C15.5996 37.6767 19.7783 33.498 24.9252 33.498Z" fill="#FFCF38"/>
</g>
<path fill-rule="evenodd" clip-rule="evenodd" d="M43.5766 26.5046C50.6539 26.5046 56.3996 32.2503 56.3996 39.3273C56.3996 46.4046 50.6539 52.1503 43.5766 52.1503C36.4996 52.1503 30.7539 46.4046 30.7539 39.3273C30.7539 32.2503 36.4996 26.5046 43.5766 26.5046Z" fill="#F3823A"/>
<mask id="mask1_268_4286" style="mask-type:alpha" maskUnits="userSpaceOnUse" x="30" y="26" width="27" height="27">
<path d="M43.5766 26.5046C50.6539 26.5046 56.3996 32.2503 56.3996 39.3273C56.3996 46.4046 50.6539 52.1503 43.5766 52.1503C36.4996 52.1503 30.7539 46.4046 30.7539 39.3273C30.7539 32.2503 36.4996 26.5046 43.5766 26.5046Z" fill="white"/>
</mask>
<g mask="url(#mask1_268_4286)">
<path fill-rule="evenodd" clip-rule="evenodd" d="M34.45 19.0005C41.4171 19.0005 47.0738 24.6569 47.0738 31.6243C47.0738 38.5917 41.4171 44.2481 34.45 44.2481C27.4826 44.2481 21.8262 38.5917 21.8262 31.6243C21.8262 24.6569 27.4826 19.0005 34.45 19.0005Z" fill="#F26C32"/>
</g>
</svg>
