<svg width="605" height="640" viewBox="0 0 605 640" fill="none" xmlns="http://www.w3.org/2000/svg">
<path d="M164.577 641.309C170.705 614.352 124.081 505.53 122.681 495.791C121.281 486.052 107.077 448.696 101.959 450.843C96.8413 452.991 106.417 471.176 105.18 475.138C103.943 479.101 63.2718 453.054 59.8181 456.068C56.3645 459.082 70.267 470.41 70.267 470.41C70.267 470.41 47.0333 456.966 47.0333 463.314C39.0648 463.145 48.1072 470.611 48.1072 470.611C48.1072 470.611 42.0412 471.459 45.3002 475.094C66.0849 498.328 92.9669 501.154 99.1772 514.139C106.97 530.466 105.658 640.129 128.69 640.254C138.335 640.304 164.577 641.309 164.577 641.309Z" fill="#FF8481"/>
<path d="M185.423 602.16C200.054 650.85 227.105 610.562 230.194 590.292C211.181 532.427 190.364 486.506 182.17 469.609C175.168 455.166 162.201 431.6 152.757 417.835C150.71 414.859 146.968 416.868 148.814 421.747C154.252 436.102 156.977 439.832 155.778 439.75C153.511 439.6 137.166 420.95 131.414 418.331C127.477 416.535 123.169 416.309 122.397 419.097C121.059 419.845 116.745 417.785 115.546 419.097C111.954 423.041 127.904 438.224 127.904 438.224C127.904 438.224 111.954 430.319 110.221 433.496C107.326 438.796 146.403 460.968 145.681 465.464C145.178 468.573 120.425 460.384 120.155 465.464C119.797 472.051 148.783 475.957 156.663 483.103C164.067 489.816 181.027 595.642 185.423 602.16Z" fill="#FF8481"/>
<path d="M209.217 533.392C209.217 533.392 192.747 557.253 172.797 549.561C172.069 550.026 168.402 552.393 168.571 558.246C168.885 571.997 179.836 639.306 182.386 640.794C184.935 642.282 253.412 639.475 253.412 639.475C253.412 639.475 225.5 529.756 209.217 533.392Z" fill="#FFEF5F"/>
<path d="M150.948 576.244C150.948 576.244 126.458 597.431 108.085 586.436C107.287 586.768 103.652 589.739 102.798 596.589C101.944 603.44 97.7742 639.534 100.028 641.43C102.283 643.327 175.883 642.115 175.883 642.115C175.883 642.115 156.719 569.965 150.948 576.244Z" fill="#FFEF5F"/>
<path d="M373.182 629.11C384.485 621.732 412.114 484.139 414.864 470.456C417.615 456.773 421.91 432.736 417.646 432.516C412.999 432.277 407.794 457.633 404.208 456.911C397.339 455.486 386.827 418.576 380.347 420.032C377.025 420.78 378.695 426.117 382.858 436.761C384.843 441.866 387.518 447.542 386.72 448.064C385.584 448.773 370.042 422.23 366.105 423.781C362.168 425.332 364.749 429.433 364.749 429.433C364.749 429.433 359.267 428.679 361.527 433.351C365.245 441.05 372.108 452.679 372.108 452.679C372.108 452.679 358.362 437.847 358.978 444.202C359.593 450.556 387.204 479.41 383.882 493.181C380.56 506.951 333.867 585.111 333.113 595.101C332.36 605.092 360.567 637.342 373.182 629.11Z" fill="#FF8481"/>
<path d="M378.168 506.083C376.642 504.199 368.121 509.587 367.254 519.835C367.254 519.835 358.055 522.554 351.556 540.871C345.057 559.187 305.271 641.215 305.271 641.215L396.949 642.238C396.949 642.238 403.329 616.072 408.02 579.394C412.711 542.717 414.23 528.896 408.786 525.718C408.786 525.718 411.926 523.389 410.576 515.948C409.992 512.695 406.588 510.811 406.23 511.828C405.565 513.75 386.614 516.67 378.168 506.083Z" fill="#231F20"/>
<path d="M300.411 447.297C300.411 447.297 321.24 497.293 337.987 485.186C354.734 473.08 317.214 405.627 317.214 405.627L300.411 447.297Z" fill="#231F20"/>
<path d="M74.3407 209.41C74.3407 209.41 60.4194 262.715 81.1476 267.23C102.705 271.934 110.177 224.43 106.786 210.867C103.395 197.303 74.3407 209.41 74.3407 209.41Z" fill="#231F20"/>
<path d="M100.904 170.898C96.3953 168.738 87.4534 164.581 87.4534 164.581C87.4534 164.581 84.3138 183.481 84.4519 183.852C84.5901 184.222 98.2163 210.759 98.2163 210.759L103.723 209.007L100.904 170.898Z" fill="#FFA9A9"/>
<path d="M99.2392 169.121C99.2392 169.121 119.27 279.638 75.4341 263.814C75.4341 266.953 82.5863 270.721 176.224 306.695C184.287 309.797 189.04 317.414 189.832 326.017C195.521 387.555 196.249 454.926 268.952 449.093L254.126 278.018L175.973 203.808L99.2392 169.121Z" fill="#811AC7"/>
<path d="M189.135 242.447C189.059 242.448 188.986 242.421 188.928 242.371C174.241 229.109 104.232 199.138 103.529 198.837C103.49 198.821 103.455 198.797 103.426 198.768C103.396 198.739 103.373 198.703 103.357 198.665C103.341 198.626 103.333 198.585 103.334 198.543C103.334 198.502 103.343 198.46 103.359 198.422C103.394 198.346 103.456 198.287 103.533 198.257C103.611 198.226 103.697 198.227 103.774 198.259C103.949 198.334 121.651 205.901 140.941 215.012C166.862 227.257 183.145 236.306 189.349 241.9C189.378 241.93 189.402 241.964 189.418 242.003C189.434 242.041 189.442 242.082 189.442 242.123C189.442 242.165 189.434 242.206 189.418 242.244C189.402 242.282 189.378 242.317 189.349 242.346C189.322 242.376 189.289 242.401 189.252 242.418C189.215 242.435 189.176 242.445 189.135 242.447Z" fill="#231F20"/>
<path d="M354.588 233.574C354.763 226.88 352.076 133.16 352.076 125.7C352.076 115.691 352.17 102.36 350.368 96.0367C346.324 81.8265 335.36 60.0496 332.704 56.9916C329.891 53.7452 327.63 55.6604 329.25 61.3872C330.871 67.1139 334.726 76.4576 332.327 77.0856C330.795 77.4435 320.001 66.0841 307.047 55.8362C302.777 52.4579 298.155 53.1235 302.237 57.7577C308.171 64.4892 315.869 71.7041 315.222 72.8282C314.576 73.9522 304.937 65.8015 299.166 61.789C291.863 56.7153 290.551 59.6038 290.789 60.7467C291.267 63.0323 294.287 65.6634 293.929 66.0402C293.571 66.4169 288.868 65.4122 289.464 67.6037C291.292 74.3038 310.494 85.6004 310.142 86.4795C309.722 87.5407 295.7 76.5581 294.519 79.4403C292.196 85.0918 326.18 102.586 324.66 116.909C314.349 215.276 313.615 226.032 315.737 250.98C317.86 275.928 354.588 233.574 354.588 233.574Z" fill="#FFA9A9"/>
<path d="M359.09 248.171C359.09 248.171 357.922 229.471 355.587 228.705C353.251 227.939 302.677 242.344 305.609 281.044C307.411 305.062 308.454 322.356 308.454 322.356L378.217 283.625L359.09 248.171Z" fill="#231F20"/>
<path d="M370.576 253.084C370.576 253.084 367.556 252.788 375.305 247.319C383.053 241.85 379.832 236.833 380.956 236.267C382.08 235.702 381.98 224.437 389.873 223.935C395.129 223.608 397.998 227.018 400.799 228.173C404.862 229.844 406.727 224.054 412.648 227.181C418.124 230.07 416.215 235.709 418.086 237.856C421.05 241.31 425.797 238.522 428.761 242.302C432.742 247.325 427.668 252.073 428.045 253.762C428.422 255.451 436.867 263.89 432.359 270.835C427.85 277.78 394.645 301.799 394.645 301.799L375.499 284.537L370.576 253.084Z" fill="#FFEF5F"/>
<path d="M414.966 266.251C412.178 264.819 380.303 284.31 374.545 288.643C364.844 295.946 360.599 269.347 350.056 273.303C310.144 288.329 305.887 324.825 284.65 345.836C246.151 383.926 283.582 407.662 283.582 407.662C283.582 407.662 315.362 422.105 330.376 438.626C341.98 482.336 337.962 485.187 337.962 485.187C337.962 485.187 343.381 491.379 367.751 433.74C381.81 400.491 391.142 373.458 393.283 366.639C395.273 360.316 418.714 358.187 419.028 352.586C419.028 352.586 406.112 355.569 403.33 327.789C399.361 288.078 417.754 267.676 414.966 266.251Z" fill="#0077FF"/>
<path d="M331.084 283.744C326.062 293.135 318.948 301.245 310.293 307.449L309.835 308.171H328.591C329.131 307.619 329.665 307.054 330.193 306.482C338.763 297.073 345.161 285.896 348.937 273.741C342.546 276.222 336.536 279.589 331.084 283.744Z" fill="#2929B2"/>
<path d="M326.331 358.625L326.212 358.512L326.331 358.406C337.295 347.831 349.992 331.141 354.08 308.171H337.59C333.703 325.571 323.776 338.437 315.116 346.77C310.524 351.208 305.472 355.144 300.046 358.512C305.47 361.883 310.522 365.819 315.116 370.255C323.763 378.588 333.703 391.46 337.584 408.854H354.074C349.954 385.909 337.264 369.194 326.331 358.625Z" fill="#2929B2"/>
<path d="M328.593 408.854H309.252C323.243 418.273 335.946 435.347 339.833 459.196H352.53C349.283 435.962 339.035 420.182 330.194 410.549C329.667 409.972 329.133 409.413 328.593 408.854Z" fill="#2929B2"/>
<path d="M330.101 438.588C330.101 438.588 309.473 450.029 286.013 454.023C254.472 459.398 215.006 444.692 219.408 376.667C221.449 345.158 226.077 330.288 221.016 313.208C215.76 295.557 161.814 250.276 154.85 233.561C154.85 233.561 173.217 254.163 197.073 220.079C209.418 202.44 220.419 163.106 220.419 163.106C220.419 163.106 291.847 258.553 298.108 288.474C304.368 318.395 304.387 403.581 304.625 409.835C305.285 426.318 329.379 425.364 330.101 438.588Z" fill="#FF0084"/>
<path d="M304.625 409.836C304.55 407.846 304.493 397.83 304.255 384.148C301.925 396.618 297.611 454.577 267.238 454.652C273.487 455.313 279.797 455.102 285.988 454.024C309.448 450.031 330.075 438.59 330.075 438.59C329.378 425.365 305.285 426.32 304.625 409.836Z" fill="#811AC7"/>
<path d="M221.287 163.966C223.579 155.357 167.611 182.917 159.121 204.405C150.631 225.893 152.44 236.963 161.941 239.638C181.557 245.145 205.306 223.99 221.287 163.966Z" fill="#231F20"/>
<path d="M207.181 166.246L185.341 204.833C185.341 204.833 194.371 212.952 199.012 218.315C208.531 203.671 215.338 186.428 221.284 163.967C222.094 160.997 215.922 162.366 207.181 166.246Z" fill="#FFA9A9"/>
<path d="M84.7201 155.199C84.7201 155.199 83.4078 154.282 78.0766 149.434C70.0327 142.119 50.1586 104.518 37.8322 95.6706C25.5058 86.8229 7.87328 87.6706 3.47144 103.689C-0.930391 119.708 4.26893 140.518 10.3034 159.532C16.3379 178.546 30.6862 190.301 32.3942 204.228C34.1022 218.156 28.2561 233.93 41.8133 235.474C55.3704 237.019 64.5885 232.247 80.6323 223.807C89.0843 219.361 96.72 218.784 98.9115 215.701C102.233 211.022 93.7436 204.178 91.2696 177.528C98.1392 162.747 99.238 149.039 84.7201 155.199Z" fill="#FF0084"/>
<path d="M84.7211 155.199C84.7211 155.199 83.145 153.944 78.134 148.744C70.2283 140.581 64.6146 130.534 55.6853 117.31C55.6853 118.409 57.5691 121.178 58.197 122.509C75.1513 158.502 91.8545 158.113 91.2705 177.529C98.1401 162.747 99.239 149.039 84.7211 155.199Z" fill="white"/>
<path d="M48.2371 184.781C39.1257 154.401 45.4616 144.449 52.4254 135.444C59.3892 126.439 59.0878 122.345 59.0878 122.345C59.0878 122.345 53.4363 106.546 43.0942 97.7867C27.76 84.8198 7.87328 87.6706 3.47144 103.689C-0.930391 119.708 4.26893 140.518 10.3034 159.532C16.3379 178.546 30.6862 190.301 32.3942 204.228C34.1022 218.156 28.2561 233.93 41.8133 235.474C51.7975 236.611 59.3955 234.325 69.1222 229.685C67.5712 220.372 58.1522 217.817 48.2371 184.781Z" fill="#2929B2"/>
<path d="M414.964 266.25C418.945 260.599 426.135 350.319 417.174 355.279C401.444 364.001 396.578 292.435 414.964 266.25Z" fill="#231F20"/>
<path d="M552.533 148.349C550.316 147.244 527.026 162.867 521.996 168.644C516.966 174.421 478.398 210.508 458.756 229.365C442.141 245.321 418.449 260.806 413.03 268.542C407.611 276.278 403.203 301 402.983 317.672C402.795 331.593 404.98 339.65 405.438 341.22C412.39 335.047 467.077 271.625 472.188 265.836C482.725 253.867 521.896 208.204 530.768 202.345C544.583 193.152 580.541 199.202 581.903 194.831C582.651 192.445 573.006 191.095 569.269 190.31C560.428 188.426 561.885 187.057 571.517 187.384C585.822 187.868 588.582 186.991 588.752 184.385C588.865 182.621 586.481 182.816 586.864 181.868C588.127 181.239 589.753 181.28 589.771 178.084C589.771 173.626 565.828 175.849 563.894 174.317C561.96 172.784 588.666 167.686 586.23 161.796C584.773 158.273 543.597 168.738 541.28 167.193C538.963 165.649 560.269 152.217 552.533 148.349Z" fill="#FFA9A9"/>
<path d="M294.255 642.515C294.255 642.515 292.315 557.995 293.772 533.738C294.959 513.945 302.4 498.938 305.225 492.639C307.693 487.132 312.817 487.321 311.869 493.205C309.985 504.803 306.883 524.513 315.134 519.66C328.635 511.716 347.674 497.807 353.501 494.894C359.328 491.98 356.138 497.952 356.138 497.952C356.138 497.952 359.504 496.168 361.338 498.473C362.33 499.729 362.255 502.448 362.255 502.448C362.255 502.448 363.033 503.459 360.088 508.149C347.09 528.871 324.704 544.871 322.644 554.497C319.756 567.967 350.104 642.515 350.104 642.515H294.255Z" fill="#FFA9A9"/>
<path d="M399.637 592.983C399.637 592.983 451.191 499.916 464.007 467.006C472.384 445.481 468.296 413.538 475.184 413.732C478.864 413.839 478.776 442.134 484.12 438.73C489.464 435.327 519.002 414.561 524.829 413.104C527.743 412.376 528.471 414.304 527.033 416.734C525.595 419.164 522.01 422.09 522.462 422.385C523.41 423.013 534.951 414.574 537.287 417.99C539.02 420.501 532.892 425.563 533.03 426.033C533.168 426.504 540.364 424.03 540 427.71C539.504 432.633 530.349 437.701 530.976 438.963C531.529 440.074 533.802 437.299 534.292 440.702C534.782 444.105 508.12 462.203 501.319 467.075C494.518 471.948 492.735 471.056 486.098 491.402C476.974 519.351 462.764 589.09 460.352 597.831C457.941 606.571 388.498 617.265 399.637 592.983Z" fill="#FF8481"/>
<path d="M207.595 640.909C207.595 640.909 244.543 545.833 244.411 529.212C244.285 513.319 207.834 492.911 205.812 486.223C204.926 483.303 206.05 482.23 206.05 482.23C206.05 482.23 204.06 479.988 199.909 475.228C198.421 473.52 198.182 471.04 201.454 469.922C201.58 468.503 200.606 466.544 201.906 465.081C203.997 462.732 206.44 463.542 216.204 470.462C227.344 478.361 231.438 481.671 232.48 480.591C234.364 478.638 216.273 460.333 222.063 458.613C227.852 456.892 251.996 489.545 257.064 491.975C262.131 494.405 252.624 467.379 258.119 467.379C265.146 467.379 272.982 503.944 271.469 532.056C270.163 556.332 261.422 640.94 261.422 640.94L207.595 640.909Z" fill="#FFA9A9"/>
<path d="M223.074 150.302C223.074 150.302 221.19 148.676 222.308 145.36C224.644 138.541 234.351 95.5712 230.665 80.8523C226.979 66.1335 211.827 57.2545 198.138 66.6233C184.449 75.9921 174.069 83.0689 166.371 101.467C158.672 119.866 154.56 131.828 147.859 146.547C142.051 159.3 127.188 181.335 143.012 190.189C157.417 198.251 163.966 198.258 175.325 201.579C180.311 203.036 186.346 212.129 194.71 210.038C202.421 208.11 216.612 167.658 217.102 166.578C218.509 163.508 223.689 165.712 226.251 163.256C227.846 161.737 226.59 155.363 223.074 150.302Z" fill="#FF0084"/>
<path d="M198.139 66.6235C184.425 75.9923 174.071 83.0692 166.372 101.468C158.674 119.866 154.931 135.546 148.231 150.258C142.423 163.012 127.189 181.335 143.013 190.189C157.418 198.252 163.967 198.258 175.326 201.58C176.076 201.809 176.807 202.097 177.512 202.44C185.191 198 181.461 187.928 187.791 168.644C204.168 118.774 224.601 111.339 229.122 109.512C229.461 109.373 229.63 108.978 229.882 108.708C234.962 97.9199 234.974 88.1617 233.467 82.1336C229.787 67.4147 211.86 57.2547 198.139 66.6235Z" fill="#2929B2"/>
<path d="M203.676 59.6469C185.334 56.7332 175.419 80.6513 166.371 101.467C158.408 119.753 150.848 135.546 144.148 150.258C138.572 162.497 128.161 179.514 141.222 189.046C153.014 194.634 162.572 185.146 175.363 168.129C197.968 137.988 217.723 96.4063 221.623 87.5712C225.522 78.7361 229.158 63.697 203.676 59.6469Z" fill="white"/>
<path d="M223.074 150.302C223.074 150.302 221.19 148.676 222.308 145.36C222.936 143.514 224.116 139.012 225.448 133.14C221.372 143.935 214.145 156.129 221.68 164.657C223.363 164.531 225.115 164.393 226.302 163.256C227.846 161.737 226.591 155.363 223.074 150.302Z" fill="white"/>
<path d="M203.676 59.6469C185.334 56.7332 175.419 80.6513 166.371 101.467C158.408 119.753 150.848 135.546 144.148 150.258C138.572 162.497 128.161 179.514 141.222 189.046C153.014 194.634 162.572 185.146 175.363 168.129C197.968 137.988 217.723 96.4063 221.623 87.5712C225.522 78.7361 229.158 63.697 203.676 59.6469Z" fill="white"/>
<path d="M204.832 56.5684C186.622 52.7631 175.438 80.6497 166.371 101.466C158.408 119.751 150.848 135.544 144.148 150.256C138.572 162.495 128.161 179.512 141.222 189.044C153.014 194.633 162.572 185.145 175.363 168.128C197.968 137.987 217.723 96.4047 221.623 87.5696C225.522 78.7345 226.144 61.0267 204.832 56.5684Z" fill="#EFECEC"/>
<path d="M42.2784 235.263C52.8152 234.126 42.7431 203.156 36.7023 162.849C32.3759 133.964 30.3225 108.376 23.2708 97.3678C19.5032 91.4841 16.1248 90.4291 12.7277 91.7917C4.56453 95.0696 -4.58445 106.718 4.15643 140.852C16.5393 189.178 24.2001 237.203 42.2784 235.263Z" fill="#EFECEC"/>
<path d="M293.151 439.223C285.773 439.223 279.732 436.504 275.355 431.116C260.348 412.674 266.294 369.271 270.633 337.554C272.517 323.77 274.15 311.865 273.34 306.22C270.69 287.67 212.21 195.828 211.62 194.905C211.575 194.835 211.56 194.75 211.577 194.669C211.595 194.588 211.644 194.517 211.714 194.472C211.784 194.427 211.869 194.412 211.95 194.43C212.031 194.447 212.102 194.496 212.147 194.566C212.298 194.799 227.092 218.013 242.031 243.231C262.125 277.14 272.844 298.276 273.961 306.132C274.784 311.865 273.227 323.237 271.255 337.635C266.928 369.214 261.007 412.46 275.839 430.695C291.261 449.659 321.967 428.297 322.306 428.077C322.34 428.053 322.378 428.036 322.418 428.026C322.459 428.017 322.501 428.016 322.542 428.023C322.582 428.03 322.622 428.045 322.657 428.067C322.692 428.089 322.722 428.118 322.746 428.152C322.792 428.22 322.811 428.303 322.797 428.384C322.782 428.465 322.737 428.538 322.67 428.586C317.229 432.242 311.313 435.139 305.088 437.195C301.235 438.474 297.21 439.158 293.151 439.223Z" fill="#231F20"/>
<path d="M170.508 249.089C167.074 249.089 165.328 248.122 165.177 248.035C165.107 247.991 165.056 247.923 165.035 247.844C165.014 247.764 165.025 247.68 165.064 247.608C165.107 247.536 165.177 247.484 165.258 247.463C165.339 247.442 165.425 247.453 165.497 247.494C165.573 247.538 173.234 251.733 188.97 241.843C202.426 233.404 211.349 216.625 216.467 204.041C222.589 188.971 225.258 174.999 225.082 170.309C225.081 170.267 225.087 170.226 225.101 170.187C225.116 170.149 225.137 170.113 225.165 170.083C225.193 170.052 225.227 170.028 225.265 170.011C225.302 169.993 225.343 169.984 225.384 169.982C225.468 169.98 225.549 170.012 225.61 170.069C225.671 170.127 225.707 170.206 225.71 170.29C225.861 175.175 223.274 188.952 217.045 204.274C211.896 216.952 202.904 233.849 189.303 242.377C180.681 247.802 174.471 249.089 170.508 249.089Z" fill="#231F20"/>
<path d="M226.234 163.344C223.05 166.321 219.954 158.478 217.104 166.578C219.289 162.49 221.97 168.682 226.234 163.344Z" fill="#2929B2"/>
<path d="M91.277 272.158C90.282 272.156 89.2888 272.074 88.3068 271.914C88.2255 271.9 88.1529 271.854 88.1048 271.787C88.0566 271.72 88.0367 271.637 88.0494 271.556C88.0555 271.515 88.0696 271.476 88.091 271.44C88.1123 271.405 88.1404 271.374 88.1737 271.35C88.2069 271.325 88.2446 271.307 88.2847 271.297C88.3248 271.288 88.3665 271.286 88.4073 271.292C93.7071 272.146 98.2094 270.664 101.795 266.965C118.015 250.118 112.106 189.729 108.985 174.131C108.977 174.091 108.976 174.05 108.984 174.01C108.992 173.97 109.008 173.932 109.031 173.898C109.054 173.864 109.083 173.835 109.117 173.812C109.151 173.79 109.19 173.775 109.23 173.767C109.27 173.758 109.312 173.757 109.353 173.765C109.394 173.772 109.433 173.788 109.467 173.811C109.502 173.833 109.531 173.863 109.554 173.898C109.577 173.932 109.593 173.971 109.6 174.012C110.8 180.002 113.28 198.759 113.305 218.489C113.305 235.543 111.421 257.873 102.247 267.399C100.853 268.915 99.1563 270.122 97.2667 270.942C95.3772 271.762 93.3367 272.176 91.277 272.158Z" fill="#231F20"/>
<path d="M354.59 278.76C355.55 279.447 356.349 280.335 356.93 281.363C357.512 282.39 357.862 283.533 357.955 284.71C358.049 285.887 357.885 287.07 357.474 288.177C357.063 289.284 356.415 290.287 355.575 291.118C349.126 297.818 342.715 301.793 347.211 302.364C354.389 303.268 378.815 286.936 388.95 279.25C385.729 270.371 354.59 278.76 354.59 278.76Z" fill="#FFA9A9"/>
<path d="M351.078 295.939C367.341 294.859 391.203 280.548 387.441 277.641L375.988 275.211C366.205 275.619 354.581 278.759 354.581 278.759C355.542 279.445 356.341 280.334 356.922 281.361C357.504 282.389 357.853 283.531 357.947 284.708C358.041 285.885 357.877 287.069 357.466 288.176C357.055 289.282 356.407 290.286 355.567 291.116C353.916 292.831 352.377 294.457 351.078 295.939Z" fill="#FF8481"/>
<path d="M405.673 240.486C401.51 231.211 388.191 230.841 364.06 240.053C339.759 249.334 336.889 263.431 347.156 275.186C355.52 284.762 366.201 285.233 379.08 280.077C379.08 280.077 385.636 282.037 388.901 279.349C394.176 275.004 388.097 274.269 387.997 271.186C387.909 268.486 412.474 255.632 405.673 240.486Z" fill="#FFA9A9"/>
<path d="M347.155 275.186C354.119 283.161 363.55 285.233 373.666 282.571C386.093 278.376 384.134 270.219 382.589 265.993C380.078 259.174 367.519 240.756 364.078 240.047C339.758 249.334 336.888 263.462 347.155 275.186Z" fill="#FFEF5F"/>
<path d="M409.302 276.883C405.716 287.865 403.148 305.083 402.972 317.699C402.784 331.62 404.969 339.676 405.427 341.246C406.997 339.852 411.01 335.532 416.328 329.617C405.986 322.383 406.08 294.094 409.302 276.883Z" fill="#FF8481"/>
<path d="M361.718 244.076C357.379 245.376 350.365 252.107 354.773 259.241C359.181 266.374 369.718 266.255 373.724 263.636C376.864 261.614 375.47 258.814 370.252 251.542C366.145 245.841 365.341 242.99 361.718 244.076Z" fill="#FFA9A9"/>
<path d="M362.753 246.081C360.197 246.596 354.376 252.204 357.308 256.951C360.241 261.698 367.92 261.937 371.751 259.538C373.848 258.226 371.167 255.475 367.638 251.061C364.837 247.569 364.046 245.824 362.753 246.081Z" fill="white"/>
<path d="M385.686 250.346C383.802 250.873 383.3 251.784 384.562 253.272C385.347 254.195 386.446 254.308 387.877 253.354C389.309 252.399 388.373 249.605 385.686 250.346Z" fill="#2929B2"/>
<path d="M375.669 237.678C373.924 238.249 373.465 238.751 374.759 239.957C375.162 240.392 375.719 240.653 376.311 240.687C376.903 240.721 377.485 240.525 377.936 240.139C379.23 239.222 378.137 236.861 375.669 237.678Z" fill="#2929B2"/>
<path d="M394.721 253.473C395.644 250.132 394.338 241.41 390.244 243.338C389.459 243.709 389.899 246.384 390.502 248.211C391.104 250.038 391.318 251.608 392.272 253.385C392.988 254.723 394.42 254.578 394.721 253.473Z" fill="#FFEF5F"/>
<path d="M386.917 236.003C387.086 235.475 386.188 234.659 385.071 233.943C384.127 233.467 383.049 233.325 382.014 233.54C380.979 233.754 380.047 234.312 379.369 235.123C382.113 237.334 385.988 238.973 386.917 236.003Z" fill="#FFEF5F"/>
<path d="M374.387 248.738C375.888 248.927 374.871 247.005 376.126 245.498C378.067 243.156 382.613 243.96 382.557 243.087C382.5 242.214 376.987 242.202 374.462 243.37C373.125 243.998 372.17 248.45 374.387 248.738Z" fill="#FF8481"/>
<path d="M381.415 263.369C383.701 268.706 389.691 269.906 396.008 263.915C402.325 257.925 392.416 276.223 389.691 273.962C386.966 271.702 384.799 274.107 381.327 277.981C377.961 281.673 381.415 263.369 381.415 263.369Z" fill="#FFEF5F"/>
<path d="M454.168 488.559C452.837 486.506 443.926 490.135 442.055 500.251C442.055 500.251 434.181 503.623 425.948 521.224C417.716 538.825 365.61 642.008 365.61 642.008L461.904 641.725C461.904 641.725 470.13 601.104 478.387 565.048C486.645 528.992 489.734 515.441 484.623 511.743C484.623 511.743 488.704 509.162 488.095 501.626C487.831 498.33 484.466 497.287 484.014 498.267C483.16 500.113 461.552 499.912 454.168 488.559Z" fill="#2929B2"/>
<path d="M446.614 503.233H446.519C446.48 503.221 446.444 503.201 446.413 503.175C446.382 503.149 446.356 503.117 446.337 503.081C446.319 503.044 446.307 503.005 446.304 502.964C446.301 502.923 446.306 502.883 446.318 502.844C449.144 494.021 454.274 491.704 454.482 491.61C454.519 491.593 454.56 491.583 454.602 491.582C454.644 491.58 454.685 491.588 454.724 491.603C454.763 491.618 454.798 491.641 454.827 491.67C454.857 491.7 454.88 491.735 454.896 491.773C454.928 491.849 454.928 491.934 454.898 492.011C454.867 492.087 454.808 492.148 454.733 492.181C454.683 492.181 449.64 494.505 446.909 503.032C446.886 503.092 446.845 503.143 446.792 503.179C446.74 503.215 446.677 503.234 446.614 503.233Z" fill="#231F20"/>
<path d="M449.785 505.965H449.69C449.651 505.953 449.614 505.933 449.582 505.906C449.551 505.879 449.525 505.847 449.506 505.81C449.487 505.773 449.476 505.732 449.473 505.691C449.47 505.65 449.476 505.608 449.49 505.569C452.315 496.778 457.445 494.436 457.653 494.341C457.728 494.307 457.815 494.305 457.892 494.334C457.97 494.364 458.033 494.423 458.067 494.498C458.084 494.536 458.093 494.577 458.094 494.619C458.094 494.66 458.087 494.701 458.072 494.74C458.057 494.778 458.034 494.813 458.005 494.843C457.976 494.873 457.942 494.896 457.904 494.913C457.854 494.913 452.811 497.236 450.08 505.764C450.056 505.823 450.015 505.873 449.963 505.909C449.91 505.945 449.848 505.964 449.785 505.965Z" fill="#231F20"/>
<path d="M444.679 500.765H444.585C444.506 500.739 444.44 500.683 444.401 500.609C444.362 500.536 444.354 500.449 444.378 500.37C447.203 491.547 452.333 489.23 452.541 489.136C452.617 489.104 452.702 489.104 452.778 489.134C452.854 489.165 452.916 489.224 452.949 489.299C452.967 489.336 452.977 489.377 452.978 489.418C452.98 489.46 452.973 489.501 452.959 489.54C452.944 489.578 452.922 489.614 452.893 489.643C452.864 489.673 452.83 489.697 452.792 489.713C452.742 489.713 447.699 492.031 444.968 500.558C444.946 500.618 444.907 500.669 444.856 500.706C444.804 500.743 444.742 500.764 444.679 500.765Z" fill="#231F20"/>
<path d="M455.179 507.85C455.15 507.856 455.12 507.856 455.091 507.85C455.051 507.84 455.014 507.822 454.981 507.797C454.949 507.772 454.921 507.74 454.901 507.705C454.881 507.669 454.869 507.629 454.865 507.588C454.861 507.547 454.865 507.506 454.877 507.467C456.109 503.551 457.907 499.836 460.215 496.44C460.264 496.373 460.337 496.328 460.419 496.314C460.501 496.3 460.586 496.318 460.654 496.365C460.688 496.389 460.717 496.419 460.739 496.454C460.762 496.489 460.777 496.528 460.784 496.569C460.791 496.61 460.789 496.652 460.78 496.692C460.771 496.733 460.754 496.771 460.73 496.805C458.458 500.138 456.689 503.788 455.48 507.637C455.46 507.7 455.419 507.755 455.365 507.794C455.311 507.832 455.245 507.852 455.179 507.85Z" fill="#231F20"/>
<path d="M459.316 509.702H459.228C459.148 509.679 459.081 509.625 459.041 509.552C459.001 509.479 458.991 509.393 459.015 509.313C460.249 505.405 462.047 501.699 464.352 498.312C464.376 498.278 464.406 498.249 464.441 498.226C464.476 498.204 464.515 498.189 464.556 498.182C464.597 498.175 464.639 498.176 464.679 498.186C464.72 498.195 464.758 498.212 464.792 498.236C464.826 498.26 464.855 498.29 464.877 498.325C464.899 498.36 464.914 498.399 464.921 498.44C464.928 498.481 464.927 498.523 464.918 498.563C464.908 498.604 464.891 498.642 464.867 498.676C462.597 502.01 460.828 505.66 459.618 509.508C459.594 509.568 459.552 509.619 459.498 509.653C459.444 509.688 459.38 509.706 459.316 509.702Z" fill="#231F20"/>
<path d="M464.644 510.442C464.591 510.441 464.54 510.429 464.493 510.404C464.457 510.385 464.425 510.359 464.399 510.327C464.373 510.296 464.354 510.259 464.342 510.22C464.33 510.181 464.326 510.14 464.331 510.099C464.335 510.059 464.348 510.019 464.367 509.984C466.251 506.442 468.606 499.51 468.625 499.44C468.637 499.401 468.658 499.364 468.685 499.332C468.713 499.3 468.746 499.274 468.783 499.255C468.821 499.237 468.862 499.226 468.903 499.223C468.945 499.22 468.987 499.226 469.027 499.24C469.105 499.268 469.169 499.326 469.206 499.401C469.242 499.476 469.248 499.562 469.221 499.641C469.221 499.71 466.823 506.687 464.92 510.272C464.894 510.323 464.854 510.366 464.805 510.396C464.757 510.425 464.701 510.441 464.644 510.442Z" fill="#231F20"/>
<path d="M474.104 511.791C474.051 511.791 473.999 511.778 473.953 511.753C473.881 511.712 473.827 511.644 473.804 511.565C473.78 511.485 473.789 511.4 473.827 511.326C476.245 506.93 476.967 500.582 476.967 500.519C476.971 500.478 476.983 500.438 477.002 500.401C477.022 500.364 477.049 500.332 477.081 500.306C477.113 500.28 477.15 500.26 477.19 500.248C477.229 500.236 477.271 500.232 477.312 500.237C477.395 500.246 477.47 500.288 477.522 500.352C477.573 500.417 477.597 500.5 477.589 500.582C477.589 500.852 476.879 507.119 474.399 511.627C474.371 511.68 474.328 511.724 474.276 511.753C474.223 511.782 474.163 511.795 474.104 511.791Z" fill="#231F20"/>
<path d="M470.131 511.527C470.079 511.527 470.027 511.514 469.98 511.489C469.908 511.448 469.855 511.381 469.831 511.301C469.808 511.222 469.816 511.136 469.855 511.062C472.272 506.667 472.963 500.319 472.995 500.256C472.998 500.215 473.009 500.175 473.028 500.138C473.047 500.102 473.073 500.069 473.104 500.043C473.136 500.016 473.173 499.997 473.212 499.985C473.251 499.973 473.293 499.969 473.334 499.973C473.375 499.977 473.415 499.989 473.452 500.009C473.488 500.028 473.521 500.055 473.547 500.087C473.573 500.119 473.593 500.156 473.605 500.196C473.617 500.236 473.621 500.277 473.616 500.319C473.616 500.582 472.907 506.855 470.426 511.364C470.398 511.416 470.355 511.46 470.303 511.488C470.25 511.517 470.191 511.531 470.131 511.527Z" fill="#231F20"/>
<path d="M480.972 512.125C480.898 512.123 480.827 512.097 480.771 512.049C480.739 512.023 480.713 511.991 480.693 511.955C480.674 511.918 480.663 511.878 480.659 511.837C480.656 511.796 480.66 511.755 480.673 511.716C480.686 511.677 480.706 511.641 480.733 511.61C482.059 510.084 482.976 508.247 483.4 506.27C483.824 504.294 483.74 502.242 483.157 500.307C483.128 500.229 483.131 500.144 483.165 500.068C483.2 499.993 483.262 499.934 483.339 499.905C483.378 499.89 483.419 499.882 483.461 499.883C483.502 499.884 483.543 499.894 483.581 499.911C483.619 499.927 483.653 499.952 483.682 499.982C483.71 500.012 483.733 500.048 483.747 500.087C484.369 502.126 484.464 504.289 484.025 506.375C483.586 508.461 482.626 510.402 481.235 512.018C481.203 512.055 481.162 512.084 481.116 512.103C481.071 512.121 481.021 512.129 480.972 512.125Z" fill="#231F20"/>
<path d="M483.616 511.781C483.542 511.78 483.471 511.754 483.415 511.705C483.383 511.679 483.357 511.647 483.338 511.611C483.319 511.574 483.307 511.534 483.303 511.493C483.3 511.452 483.305 511.411 483.317 511.372C483.33 511.333 483.35 511.297 483.377 511.266C484.701 509.739 485.618 507.902 486.042 505.926C486.466 503.95 486.383 501.899 485.801 499.963C485.786 499.924 485.779 499.883 485.78 499.841C485.781 499.8 485.79 499.759 485.807 499.721C485.824 499.683 485.848 499.649 485.878 499.62C485.909 499.592 485.944 499.569 485.983 499.555C486.062 499.527 486.148 499.53 486.223 499.566C486.299 499.601 486.357 499.665 486.385 499.743C487.01 501.782 487.107 503.946 486.668 506.032C486.229 508.119 485.267 510.06 483.873 511.674C483.842 511.711 483.802 511.74 483.757 511.758C483.713 511.777 483.664 511.784 483.616 511.781Z" fill="#231F20"/>
<path d="M477.98 512.222C477.906 512.22 477.835 512.194 477.779 512.146C477.747 512.12 477.72 512.088 477.701 512.052C477.682 512.015 477.67 511.975 477.667 511.934C477.663 511.893 477.668 511.852 477.681 511.813C477.694 511.774 477.714 511.738 477.741 511.707C479.067 510.181 479.984 508.344 480.408 506.367C480.832 504.391 480.748 502.339 480.165 500.404C480.136 500.325 480.14 500.239 480.176 500.164C480.211 500.088 480.275 500.03 480.353 500.002C480.431 499.973 480.516 499.976 480.591 500.01C480.667 500.045 480.725 500.107 480.755 500.184C481.378 502.223 481.474 504.386 481.035 506.473C480.596 508.559 479.635 510.5 478.243 512.115C478.211 512.152 478.17 512.181 478.124 512.2C478.078 512.218 478.029 512.226 477.98 512.222Z" fill="#231F20"/>
<path d="M525.835 598.385C525.835 598.385 529.602 594.95 528.233 611.095C527.425 621.385 527.425 631.723 528.233 642.014L461.904 641.725L459.531 625.87L525.835 598.385Z" fill="#FF0084"/>
<path d="M525.796 603.175C525.997 609.693 473.276 640.374 461.219 630.471C445.797 617.793 525.125 581.725 525.796 603.175Z" fill="#231F20"/>
<path d="M476.087 631.057C479.585 614.436 500.979 533.476 505.958 516.051C511.29 497.382 522.85 469.313 527.729 469.546C532.394 469.765 519.415 495.247 523.139 496.44C526.467 497.508 548.79 469.552 554.994 467.712C559.747 466.305 555.584 473.659 555.584 473.659C555.584 473.659 563.829 467.756 564.463 474.048C568.074 474.362 564.306 482.06 564.306 482.06C564.306 482.06 567.603 485.828 556.771 496.503C552.633 500.578 529.28 520.741 527.735 536.251C524.282 570.876 526.046 594.693 525.77 603.083C525.531 610.084 494.831 628.414 476.087 631.057Z" fill="#FFA9A9"/>
<path d="M279.721 610.762C277.021 610.762 275.131 610.034 274.214 608.583C271.181 603.773 278.823 593.714 292.424 584.678C292.563 584.587 292.732 584.554 292.894 584.587C293.056 584.62 293.199 584.716 293.291 584.854C293.382 584.991 293.416 585.159 293.384 585.322C293.352 585.484 293.258 585.627 293.121 585.72C282.114 593.054 272.437 603.365 275.313 607.918C276.519 609.801 280.456 610.04 286.12 608.502C292.098 606.875 299.307 603.516 306.402 599.032C313.498 594.549 319.639 589.5 323.683 584.803C327.507 580.357 329.014 576.709 327.809 574.8C327.488 574.32 327.031 573.946 326.496 573.726C326.421 573.693 326.353 573.645 326.296 573.585C326.239 573.526 326.194 573.455 326.164 573.378C326.134 573.301 326.12 573.219 326.122 573.137C326.124 573.054 326.142 572.973 326.176 572.898C326.209 572.822 326.257 572.754 326.317 572.697C326.377 572.64 326.447 572.595 326.524 572.566C326.601 572.536 326.683 572.522 326.766 572.524C326.848 572.526 326.929 572.544 327.005 572.577C327.776 572.891 328.433 573.432 328.889 574.128C330.433 576.571 328.926 580.659 324.65 585.626C320.531 590.411 314.295 595.554 307.068 600.068C299.84 604.583 292.537 608.031 286.44 609.688C284.257 610.338 281.998 610.699 279.721 610.762Z" fill="white"/>
<path d="M404.195 456.909C401.608 456.369 398.506 450.8 395.298 444.137C397.514 453.374 398.776 459.27 400.214 460.715C402.726 463.195 406.199 457.876 408.02 451.428C406.638 454.768 405.345 457.142 404.195 456.909Z" fill="#E85353"/>
<path d="M332.317 525.857L331.927 525.367C332.706 524.739 351.042 510.064 356.31 510.862C356.559 510.883 356.8 510.958 357.017 511.081C357.234 511.205 357.421 511.374 357.566 511.578L357.045 511.929C356.951 511.801 356.831 511.694 356.692 511.616C356.553 511.538 356.4 511.491 356.241 511.477C351.218 510.717 332.505 525.706 332.317 525.857Z" fill="#FF8481"/>
<path d="M387.562 358.513C391.292 359.595 394.958 360.884 398.544 362.375C406.08 358.953 418.833 356.723 419.065 352.585C419.065 352.585 414.519 353.634 410.274 348.692C408.558 349.747 406.779 350.75 404.937 351.7C399.375 354.518 393.557 356.799 387.562 358.513Z" fill="#2929B2"/>
<path d="M378.996 358.515C389.542 349.621 397.826 338.35 403.166 325.63C402.679 319.817 402.666 313.975 403.128 308.16H388.937C384.78 325.064 375.072 338.804 359.932 349.146C354.408 352.896 348.491 356.033 342.287 358.502C348.488 360.971 354.401 364.11 359.92 367.865C370.419 375.029 378.293 383.839 383.53 394.2C387.153 384.549 389.897 376.769 391.63 371.67C387.872 366.871 383.639 362.464 378.996 358.515Z" fill="#2929B2"/>
<path d="M377.916 408.854H354.99C359.323 410.891 363.424 413.387 367.223 416.301C369.225 417.856 371.129 419.534 372.924 421.325C374.683 417.004 376.353 412.835 377.916 408.854Z" fill="#2929B2"/>
<path d="M382.489 283.367C378.561 290.078 373.378 295.971 367.224 300.724C363.425 303.64 359.322 306.137 354.986 308.171H381.66C392.335 298.325 399.801 285.791 404.071 270.702C397.29 274.306 388.794 279.399 382.489 283.367Z" fill="#2929B2"/>
<path d="M533.972 270.728C536.082 280.581 553.061 270.728 549.143 263.381C545.224 256.035 532.502 263.871 533.972 270.728Z" fill="white"/>
<path d="M532.503 312.334C535.015 318.82 563.341 300.585 560.409 294.714C557.476 288.842 529.074 303.524 532.503 312.334Z" fill="#FFEF5F"/>
<path d="M536.413 358.356C541.744 362.35 549.142 353.458 545.204 350.52C541.267 347.581 532.501 355.418 536.413 358.356Z" fill="#00DC7F"/>
<path d="M453.685 137.078C461.339 144.701 492.359 102.805 487.461 100.827C482.563 98.8491 470.815 95.9292 478.162 92.5006C485.508 89.0721 499.21 75.3705 493.86 72.4067C488.51 69.4428 465.465 88.5572 457.628 94.9245C449.791 101.292 464.975 107.163 467.424 109.122C469.873 111.081 451.725 135.119 453.685 137.078Z" fill="#FF0084"/>
<path d="M393.465 119.942C402.256 119.358 402.256 134.629 395.914 136.098C389.572 137.568 386.124 120.431 393.465 119.942Z" fill="white"/>
<path d="M401.3 32.8036C405.928 33.1301 398.361 68.0497 393.463 67.0701C388.566 66.0905 394.443 32.3138 401.3 32.8036Z" fill="#00DC7F"/>
<path d="M334.721 7.83699C340.649 8.37702 339.117 18.1163 333.742 17.6265C328.367 17.1367 329.334 7.3472 334.721 7.83699Z" fill="white"/>
<path d="M239.254 0C244.729 0 266.18 30.3545 258.839 33.783C251.499 37.2115 250.048 36.7155 254.444 47.4908C258.839 58.2662 261.784 69.5189 259.342 70.9882C256.899 72.4576 244.654 50.8943 239.756 46.4987C234.858 42.1031 238.777 31.8113 244.654 26.4047C250.532 20.9982 241.715 11.2275 239.266 7.80525C236.817 4.38299 236.315 0 239.254 0Z" fill="#FFEF5F"/>
<path d="M3.29044 333.879C0.703343 342.501 39.0325 368.146 43.4344 360.805C47.8362 353.464 6.22918 324.083 3.29044 333.879Z" fill="#00DC7F"/>
<path d="M77.2182 336.812C87.0705 337.911 83.5791 350.03 76.2386 348.077C68.898 346.124 72.8101 336.303 77.2182 336.812Z" fill="#FFEF5F"/>
<path d="M1.82094 399.971C-0.100546 406.507 30.2162 417.101 33.155 411.719C36.0937 406.338 4.26989 391.644 1.82094 399.971Z" fill="#FF0084"/>
<path d="M78.9247 485.858H78.8556C69.5999 483.667 62.2907 479.146 56.4195 475.516C53.2233 473.538 50.4603 471.83 48.0553 470.913C47.9788 470.881 47.9174 470.821 47.8836 470.745C47.8497 470.669 47.8461 470.584 47.8733 470.505C47.9053 470.429 47.9657 470.368 48.0418 470.335C48.118 470.302 48.2038 470.3 48.2814 470.329C50.7429 471.265 53.5247 472.986 56.746 474.982C62.5858 478.593 69.8447 483.083 79.0001 485.249C79.0807 485.269 79.1504 485.319 79.1939 485.39C79.2374 485.46 79.2513 485.545 79.2324 485.626C79.2142 485.693 79.1741 485.753 79.1184 485.795C79.0627 485.837 78.9945 485.859 78.9247 485.858Z" fill="#E85353"/>
<path d="M510.117 449.263C510.05 449.263 509.985 449.241 509.931 449.202C509.877 449.162 509.837 449.107 509.816 449.043C509.803 449.003 509.799 448.961 509.803 448.92C509.807 448.878 509.819 448.837 509.839 448.801C509.859 448.764 509.886 448.731 509.919 448.705C509.951 448.679 509.989 448.659 510.029 448.648C514.199 447.392 525.652 442.042 530.808 438.701C530.878 438.656 530.962 438.641 531.044 438.659C531.125 438.676 531.196 438.726 531.241 438.795C531.264 438.83 531.28 438.868 531.288 438.909C531.295 438.95 531.295 438.992 531.286 439.032C531.277 439.073 531.26 439.111 531.236 439.145C531.212 439.178 531.182 439.207 531.147 439.229C525.954 442.594 514.412 447.988 510.211 449.276C510.179 449.278 510.147 449.273 510.117 449.263Z" fill="#E85353"/>
</svg>
