<svg width="579" height="724" viewBox="0 0 579 724" fill="none" xmlns="http://www.w3.org/2000/svg">
<path d="M578.77 -56.7869C564.171 -54.2474 549.795 -50.5559 535.778 -45.7469C506.451 -35.4956 480.452 -20.0158 459.216 2.95512C449.294 13.7341 440.747 25.7009 433.769 38.5823C433.493 39.1539 433.091 39.6557 432.594 40.0493V38.4167C432.594 23.7021 432.594 8.99532 432.641 -5.74298C432.684 -6.81648 433.071 -7.84769 433.745 -8.68432C456.85 -36.1264 485.712 -55.3357 518.989 -68.1972C537.692 -75.3159 557.077 -80.4927 576.838 -83.6455C577.485 -83.748 578.132 -83.8818 578.77 -84.0001V-56.7869Z" fill="#0061F1"/>
<path d="M578.77 127.666C574.259 128.455 569.717 129.101 565.238 130.032C546.336 133.905 528.008 140.183 510.701 148.713C478.549 164.516 451.714 189.367 433.492 220.212C433.327 220.488 433.137 220.756 432.767 221.324C432.688 220.536 432.601 220.094 432.601 219.637C432.601 207.485 432.601 195.333 432.554 183.181C432.554 181.478 433.508 180.548 434.423 179.475C457.07 152.908 484.891 133.596 517.175 120.585C536.574 112.867 556.801 107.421 577.453 104.356C577.899 104.268 578.339 104.152 578.77 104.009V127.666Z" fill="#0061F1"/>
<path d="M578.769 311.727C519.926 320.771 470.452 346.526 432.6 393.792V391.624C432.6 383.218 432.6 374.812 432.6 366.39C432.575 365.78 432.681 365.172 432.913 364.607C433.144 364.042 433.495 363.534 433.941 363.117C462.763 333.586 497.255 313.493 536.573 301.444C549.883 297.415 563.48 294.407 577.247 292.446C577.76 292.375 578.288 292.391 578.824 292.367L578.769 311.727Z" fill="#0061F1"/>
<path d="M578.769 496.18C572.24 497.205 565.671 498.01 559.189 499.287C532.183 504.744 506.044 513.849 481.491 526.351C464.687 534.796 448.766 544.653 434.177 556.616C433.775 556.947 433.389 557.255 432.884 557.609C432.774 557.42 432.608 557.27 432.6 557.121C432.6 551.214 432.537 545.292 432.6 539.393C432.75 538.539 433.232 537.78 433.941 537.28C445.786 528.574 458.315 520.839 471.406 514.151C500.708 498.897 532.174 488.219 564.709 482.491C569.361 481.702 574.046 481.103 578.714 480.409L578.769 496.18Z" fill="#0061F1"/>
<path d="M578.768 680.626C572.389 681.32 565.978 681.817 559.622 682.732C532.187 686.771 505.023 692.478 478.281 699.82C463.346 703.873 448.568 708.431 434.122 713.951L432.616 714.511C432.616 710.505 432.568 706.665 432.679 702.832C432.679 702.391 433.515 701.76 434.082 701.579C444.223 698.235 454.317 694.734 464.545 691.682C490.177 684.095 516.248 678.078 542.613 673.663C554.615 671.629 566.751 670.399 578.824 668.806L578.768 680.626Z" fill="#0061F1"/>
<path d="M146.218 -40.9753V-75.3569C204.99 -62.4875 253.25 -33.2238 289.611 15.3283C325.885 -33.1843 374.153 -62.4559 432.909 -75.3569V-40.9834C364.674 -23.9898 318.046 18.2697 289.611 81.8281C276.158 51.7049 257.973 24.7674 232.834 2.89256C207.694 -18.9823 178.446 -32.9714 146.218 -40.9753Z" fill="#0061F1"/>
<path d="M289.578 256.18C274.768 227.791 255.74 202.597 230.9 182.054C206.061 161.512 177.759 147.886 146.279 140.505V110.697C205.422 123.022 252.917 153.658 289.609 201.674C326.254 153.697 373.71 123.062 432.9 110.697V140.426C366.826 156.316 320.884 197.077 289.578 256.18Z" fill="#0061F1"/>
<path d="M289.61 380.82C328.644 337.819 375.28 308.067 432.877 296.696V321.843C372.086 335.698 326.042 371.002 289.61 420.311C253.336 371.104 207.189 335.682 146.209 321.811V296.664C203.837 308.019 250.497 337.748 289.61 380.82Z" fill="#0061F1"/>
<path d="M432.89 482.901V503.293C378.573 514.593 332.024 540.987 289.623 575.542C247.277 541.034 200.665 514.585 146.254 503.277V482.506C154.305 484.375 162.278 485.953 170.092 488.09C199.143 496.023 226.199 508.592 251.993 523.977C264.293 531.276 276.142 539.308 287.478 548.029C289.174 549.338 290.136 549.196 291.752 547.973C319.723 526.777 349.878 509.428 382.658 496.772C398.596 490.505 415.135 485.888 432.015 482.995C432.283 482.972 432.543 482.956 432.89 482.901Z" fill="#0061F1"/>
<path d="M146.209 685.041V669.073C148.859 669.42 151.421 669.687 153.968 670.09C183.248 674.703 211.881 682.108 240.19 690.75C256.214 695.647 272.025 701.246 287.962 706.443C289.109 706.768 290.329 706.732 291.455 706.34C325.363 694.165 359.84 683.771 395.025 675.957C406.728 673.362 418.588 671.525 430.385 669.356C431.173 669.214 431.962 669.199 432.987 669.104V679.198C432.987 680.704 432.987 682.218 432.987 683.724C432.987 684.733 432.79 685.23 431.639 685.388C404.946 689.102 378.939 695.844 353.081 703.233C331.916 709.281 310.972 716.047 290.39 723.886C289.802 724.059 289.173 724.034 288.6 723.815C253.373 710.573 217.277 699.771 180.567 691.484C169.448 688.976 158.148 687.312 146.927 685.254C146.683 685.197 146.444 685.126 146.209 685.041Z" fill="#0061F1"/>
<path d="M0.055603 -56.7869C14.6582 -54.2485 29.0367 -50.5569 43.0562 -45.7469C72.3829 -35.4956 98.382 -20.0158 119.618 2.95512C129.537 13.7361 138.084 25.7026 145.065 38.5823C145.341 39.1539 145.742 39.6557 146.24 40.0493V38.4167C146.24 23.7021 146.24 8.99532 146.193 -5.74298C146.15 -6.81648 145.763 -7.84769 145.089 -8.68432C121.984 -36.1264 93.1222 -55.3357 59.8368 -68.1972C41.1373 -75.3168 21.7548 -80.4937 1.99549 -83.6455C1.34887 -83.748 0.702228 -83.8818 0.055603 -84.0001L0.055603 -56.7869Z" fill="#0061F1"/>
<path d="M0.055603 127.666C4.57409 128.455 9.10837 129.101 13.5874 130.032C32.4924 133.904 50.8234 140.182 68.1326 148.713C100.283 164.518 127.117 189.368 145.341 220.212C145.507 220.488 145.688 220.756 146.067 221.324C146.145 220.536 146.232 220.094 146.232 219.637C146.232 207.485 146.232 195.333 146.279 183.181C146.279 181.478 145.325 180.548 144.411 179.475C121.763 152.908 93.9423 133.596 61.6584 120.585C42.2581 112.878 22.0308 107.443 1.38039 104.388C0.932179 104.299 0.489774 104.183 0.055603 104.041L0.055603 127.666Z" fill="#0061F1"/>
<path d="M0.0559394 311.726C58.9067 320.771 108.397 346.525 146.24 393.823V391.655C146.24 383.249 146.24 374.842 146.24 366.421C146.27 365.811 146.166 365.202 145.935 364.637C145.705 364.072 145.355 363.564 144.908 363.148C116.086 333.616 81.5937 313.524 42.2758 301.474C28.9659 297.446 15.3685 294.438 1.60155 292.477C1.08898 292.406 0.560639 292.421 0.0244141 292.398L0.0559394 311.726Z" fill="#0061F1"/>
<path d="M0.0556641 496.18C6.59288 497.205 13.1617 498.01 19.6437 499.287C46.6506 504.742 72.7895 513.847 97.3411 526.351C114.153 534.796 130.074 544.653 144.655 556.616C145.057 556.947 145.444 557.255 145.948 557.609C146.059 557.42 146.224 557.27 146.224 557.121C146.224 551.214 146.295 545.292 146.224 539.393C146.074 538.539 145.592 537.78 144.884 537.28C133.039 528.574 120.51 520.839 107.419 514.151C78.1166 498.897 46.6508 488.219 14.1158 482.491C9.46328 481.702 4.77918 481.103 0.102976 480.409L0.0556641 496.18Z" fill="#0061F1"/>
<path d="M0.0552054 680.626C6.44259 681.32 12.8537 681.817 19.2095 682.732C46.6448 686.771 73.8086 692.478 100.55 699.82C115.486 703.873 130.263 708.431 144.71 713.951L146.216 714.511C146.216 710.505 146.263 706.665 146.153 702.832C146.153 702.391 145.317 701.76 144.749 701.579C134.608 698.235 124.515 694.734 114.287 691.682C88.6545 684.095 62.5835 678.078 36.2189 673.663C24.2169 671.629 12.0808 670.399 0 668.806L0.0552054 680.626Z" fill="#0061F1"/>
</svg>
