<svg width="607" height="598" viewBox="0 0 607 598" fill="none" xmlns="http://www.w3.org/2000/svg">
<g clip-path="url(#clip0_260_4021)">
<path d="M166.408 153.172C132.011 123.203 122.582 97.1247 132.201 79.8293C137.677 69.9847 144.364 70.7218 144.364 62.8985C144.364 55.0751 137.13 45.4604 143.287 32.6275C147.962 22.8781 154.539 23.2506 158.556 18.9703C162.573 14.6901 164.586 4.14796 175.83 0.668263C186.21 -2.5023 193.262 6.73197 203.127 9.33976C212.232 11.7177 222.731 4.98024 232.588 11.0677C243.57 17.8606 239.521 29.2984 246.851 35.7743C251.217 39.6266 259.046 34.8628 268.95 45.286C274.933 51.6271 273.823 63.3503 273.705 70.4207C273.554 80.5982 302.832 78.783 293.958 110.417C285.083 142.052 146.345 123.805 146.345 123.805L166.408 153.172Z" fill="#212121"/>
<path d="M184.863 96.1383C229.149 86.5791 375.708 158.067 407.831 106.815C439.954 55.563 513.218 39.4883 541.997 49.1347C575.927 60.525 507.624 77.9789 534.24 207.75C541.323 242.301 633.057 374.427 504.303 411.863C345.827 457.923 232.62 401.915 202.232 416.682C171.845 431.449 123.208 486.149 79.7858 445.32C36.3634 404.491 23.3446 381.909 2.505 379.309C-18.3346 376.709 184.863 96.1383 184.863 96.1383Z" fill="#8024C0"/>
<path d="M158.801 94.8083C159.918 100.167 189.11 87.3733 204.284 93.334C248.713 110.772 326.445 109.068 381.611 84.2899C436.776 59.512 526.568 26.5857 547.289 48.7638C549.329 50.9822 550.814 53.6523 551.624 56.5554C522.813 40.877 501.585 134.773 466.11 217.565C419.153 327.131 289.124 277.013 231.898 125.618C227.025 112.714 216.376 98.7318 203.285 97.8758C177.699 96.1795 144.57 119.943 153.365 94.8321C153.429 94.4357 158.73 94.4199 158.801 94.8083Z" fill="#FF3985"/>
<path d="M372.047 155.12C369.947 144.049 368.646 132.841 368.156 121.583C367.858 115.073 368.051 108.549 368.735 102.068L355.494 106.586C354.757 102.694 354.083 98.5807 353.513 94.348C359.852 92.5645 366.064 90.5274 372.031 88.2446C372.546 92.4377 373.156 96.5119 373.83 100.324L389.534 94.9662C387.95 100.126 386.809 108.52 387.276 120.854C387.693 130.25 388.736 139.608 390.398 148.866L406.111 143.5C404.526 148.66 403.377 157.046 403.853 169.395C404.265 178.789 405.303 188.144 406.959 197.399L422.664 192.041C421.079 197.201 419.938 205.587 420.406 217.929C420.817 227.325 421.855 236.683 423.512 245.941L439.217 240.574C437.965 244.609 437.014 250.617 436.84 258.932C431.155 263.723 424.799 267.655 417.973 270.6C417.91 269.466 417.846 268.325 417.807 267.199C417.508 260.686 417.702 254.16 418.385 247.676L405.144 252.195C403.044 241.124 401.744 229.916 401.254 218.658C400.956 212.145 401.149 205.619 401.832 199.135L388.584 203.661C386.493 192.584 385.198 181.371 384.709 170.109C384.413 163.596 384.609 157.069 385.295 150.586L372.047 155.12Z" fill="#8024C0"/>
<path d="M289.766 183.203L271.288 189.545C269.309 176.253 269.363 162.737 271.446 149.461C272.323 144.173 273.667 138.974 275.464 133.925L302.904 124.532C290.353 137.23 287.231 161.224 289.766 183.203Z" fill="#8024C0"/>
<path d="M273.641 104.539C272.138 114.513 271.994 124.646 273.213 134.659L254.743 140.961C252.919 128.616 252.825 116.077 254.466 103.707C260.694 104.198 267.104 104.483 273.641 104.539Z" fill="#8024C0"/>
<path d="M288.015 197.967C288.868 192.683 290.194 187.486 291.977 182.44L319.425 173.071C306.866 185.753 303.744 209.762 306.287 231.726L299.806 233.937C295.257 229.525 290.783 224.785 286.383 219.717C286.279 212.433 286.825 205.154 288.015 197.967Z" fill="#8024C0"/>
<path d="M305.978 239.659C306.688 236.709 307.555 233.798 308.577 230.94L336.017 221.627C328.616 229.117 324.488 240.539 322.879 253.15C316.986 248.988 311.343 244.484 305.978 239.659Z" fill="#8024C0"/>
<path d="M371.944 263.537L395.438 255.516C391.706 261.397 389.892 269.601 389.06 276.56C382.669 276.597 376.294 275.946 370.042 274.618C370.461 270.891 371.096 267.191 371.944 263.537Z" fill="#8024C0"/>
<path d="M447.83 183.442L437.41 181.516C435.357 172.44 434.668 166.63 433.21 156.183C432.166 149.134 431.52 142.031 431.277 134.909L422.259 137.984C420.215 128.908 418.115 118.089 416.649 107.65C415.608 100.597 414.963 93.492 414.716 86.3673L405.707 89.4427C404.708 85.0119 403.694 80.153 402.743 75.1356C408.623 72.6942 414.684 70.2371 420.865 67.8591C421.84 73.3442 422.893 78.5677 423.931 83.2522L433.931 79.8359C433.622 85.3131 433.931 94.6504 436.364 110.115C437.592 117.883 439.066 125.349 440.484 131.786L450.492 128.369C450.175 133.846 450.492 143.184 452.917 158.648C454.145 166.416 455.619 173.883 457.045 180.327L451.118 182.348L467.045 176.911C466.736 182.388 467.045 191.717 469.477 207.19C469.565 207.752 469.66 208.307 469.747 208.87C468.542 211.787 467.322 214.693 466.086 217.589C463.623 223.353 460.766 228.941 457.536 234.314L455.373 235.051C453.321 225.975 451.229 215.156 449.763 204.716C448.718 197.667 448.073 190.564 447.83 183.442Z" fill="#8024C0"/>
<path d="M322.134 101.079C322.324 106.566 322.8 112.04 323.561 117.478L345.747 109.901C340.906 117.534 339.329 129.091 338.838 136.74C338.279 146.517 338.704 156.327 340.105 166.02L362.292 158.442C357.443 166.067 355.866 177.624 355.367 185.281C354.808 195.059 355.233 204.868 356.635 214.561L378.821 206.975C373.98 214.609 372.403 226.165 371.912 233.814C371.349 243.592 371.774 253.402 373.179 263.094L354.772 269.38C352.757 257.223 352.1 244.88 352.815 232.578C353.155 226.657 353.995 220.776 355.327 214.997L338.275 220.839C336.252 208.683 335.593 196.339 336.31 184.036C336.656 178.119 337.499 172.24 338.83 166.464L321.714 172.297C319.698 160.143 319.042 147.802 319.757 135.503C320.096 129.583 320.931 123.702 322.253 117.922L305.146 123.764C304.042 117.019 303.338 110.214 303.038 103.385C309.417 102.822 315.795 102.054 322.134 101.079Z" fill="#8024C0"/>
<path d="M516.728 87.9037L505.635 55.342L501.601 43.5079C508.056 42.3501 514.587 41.6666 521.141 41.4629L523.764 49.1594L529.39 65.6463C525.103 71.2503 520.951 78.8359 516.728 87.9037Z" fill="#8024C0"/>
<path d="M476.903 119.332L472.323 120.917C470.144 113.062 467.568 103.431 465.239 93.6899C463.083 84.741 461.443 77.084 460.35 70.8222L455.77 72.4075C454.462 67.7071 453.028 62.3726 451.578 56.7607C457.735 54.7157 463.86 52.7975 469.874 51.0537C471.269 56.4833 472.655 61.6434 473.915 66.209L478.67 64.5762C479.612 70.5765 481.482 79.9851 485.127 94.5856C486.934 101.83 488.796 108.798 490.436 114.75L495.191 113.118C495.864 117.406 497.021 123.422 498.947 131.848C495.175 141.993 491.284 152.686 487.219 163.656C485.444 157.077 483.527 149.698 481.728 142.255C479.636 133.251 478.004 125.594 476.903 119.332Z" fill="#8024C0"/>
<path d="M194.236 199.927C188.84 204.469 186.003 211.024 191.962 222.914C191.962 222.914 118.627 249.808 116.155 225.752C116.155 225.752 113.318 194.228 108.778 185.422C104.238 176.616 143.413 168.681 143.413 168.681L194.236 199.927Z" fill="#2929B2"/>
<path d="M111.536 193.625C121.044 189.797 133.849 181.871 133.849 181.871L151.02 191.382C151.02 191.382 116.948 203.747 116.155 225.767C116.155 225.767 113.913 201.29 111.536 193.625Z" fill="#1A1A66"/>
<path d="M186.907 63.3849C192.747 57.7888 199.585 41.1909 190.623 28.3581C183.056 17.5623 172.612 21.4145 168.762 23.5626C160.125 28.3581 156.289 39.8672 156.289 39.8672L182.707 66.2701L186.907 63.3849Z" fill="#8024C0"/>
<path d="M188.184 95.8795C198.635 94.6905 232.557 102.054 233.864 122.758C235.172 143.462 215.576 198.788 201.979 203.663C181.377 211.042 139.238 182.959 135.95 181.976C132.662 180.993 101.458 205.636 86.6718 194.785C71.886 183.934 74.5167 154.361 91.6004 131.374C108.684 108.387 129.857 89.8316 160.086 95.4197C160.086 95.4118 150.403 100.152 188.184 95.8795Z" fill="#2929B2"/>
<path d="M162.708 148.469C169.475 141.7 170.338 121.892 153.27 117.374C136.203 112.856 103.129 148.461 119.198 163.411C130.022 173.279 152.399 160.391 152.399 160.391L162.708 148.469Z" fill="#00EAFF"/>
<path d="M144.951 122.955C147.375 123.843 161.535 144.507 155.703 145.07C141.005 146.496 139.523 149.104 139.063 152.996C138.12 160.811 140.648 167.731 137.193 166.566C134.721 165.734 124.563 141.954 131.773 139.616C135.189 138.499 145.244 139.545 144.967 136.874C144.42 130.873 141.591 121.758 144.951 122.955Z" fill="white"/>
<path d="M186.059 74.7253C181.875 79.1879 191.606 96.0632 197.771 96.2138C179.625 99.4636 167.826 100.375 161.773 99.7886C157.51 99.3685 158.825 95.6193 158.825 95.6193C158.825 95.6193 160.354 86.6466 153.072 80.9475C139.602 70.4133 186.059 74.7253 186.059 74.7253Z" fill="#FF8481"/>
<path d="M158.952 95.5538C158.754 89.3078 157.193 84.4568 153.58 81.6588C147.455 76.8633 153.097 75.6585 161.781 74.8579L174.396 80.0339C180.996 79.6296 168.001 93.5405 158.952 95.5538Z" fill="#E85353"/>
<path d="M179.15 29.3284C170.949 23.9623 162.859 28.2504 152.098 41.4162C140.212 55.9929 134.951 75.0796 154.332 82.4116C168.057 87.5954 184.094 75.9912 184.094 75.9912C184.094 75.9912 195.584 71.6554 191.289 65.8216C188.389 61.8584 183.278 65.4808 184.839 59.6152C186.4 53.7497 189.316 35.9787 179.15 29.3284Z" fill="#FF8481"/>
<path d="M174.022 324.807C137.232 301.392 120.648 284.723 118.77 259.136C118.77 259.136 106.94 292.221 151.115 414.882C151.115 414.882 185.187 448.173 190.108 465.809C190.108 465.809 201.011 473.015 204.164 445.296C206.256 426.827 204.117 386.957 194.498 357.424C189.68 342.625 179.22 328.112 174.022 324.807Z" fill="#212121"/>
<path d="M155.64 311.425C155.64 311.425 155.64 278.238 212.414 250.947C212.414 250.947 235.853 273.442 248.388 325.075C260.923 376.707 259.038 386.695 264.87 400.376C264.87 400.376 253.705 407.272 247.81 410.22C241.914 413.169 231.59 450.788 231.59 450.788L155.64 311.425Z" fill="#2929B2"/>
<path d="M263.84 396.645C255.076 386.063 241.241 383.622 235.544 385.762C229.847 387.902 215.306 403.589 221.281 429.516C227.256 455.443 269.164 544.235 274.901 557.797C280.638 571.359 278.11 587.775 284.576 597.897H353.426C371.548 584.771 323.03 571.066 316.565 558.74C292.714 513.322 276.177 411.523 263.84 396.645Z" fill="#FF3985"/>
<path d="M142.035 389.67C146.345 412.498 186.083 548.008 175.727 558.36C165.37 568.712 108.913 578.129 107.97 583.78C107.028 589.432 105.07 597.897 121.148 597.897H216.305C218.785 597.897 220.346 595.797 220.615 593.332C221.368 586.467 220.576 570.345 219.926 555.42C219.276 540.359 210.481 438.656 203.397 426.869C188.342 400.514 142.035 389.67 142.035 389.67Z" fill="#FF3985"/>
<path d="M143.715 164.313C140.601 167.175 136.655 171.843 135.712 183.614C135.712 183.614 122.645 175.688 116.148 170.369C106.639 162.601 99.7375 160.635 96.8057 161.167C95.6785 161.391 94.522 161.429 93.3826 161.278C92.0356 160.421 93.6679 159.122 99.0086 157.259C102.97 155.856 105.348 153.24 113.271 154.088C116.164 153.613 118.232 151.996 120.744 152.463C128.271 153.906 134.531 163.949 143.715 164.313Z" fill="#FF8481"/>
<path d="M191.963 222.929C191.963 222.929 194.554 224.348 196.598 228.589C196.598 228.589 160.569 251.028 133.208 247.136C118.858 245.091 116.616 239.646 116.069 234.613C115.778 231.67 115.808 228.704 116.156 225.767C116.156 225.767 119.389 233.773 133.905 235.191C157.138 237.482 191.963 222.929 191.963 222.929Z" fill="#FF3985"/>
<path d="M95.4591 222.772H95.6968C84.5401 241.906 56.6482 366.24 55.0556 373.437C53.4629 380.634 14.5174 359.701 2.51281 379.327C-8.59637 377.924 43.9623 297.534 95.4591 222.772Z" fill="#FF3985"/>
<path d="M148.826 51.6405C144.135 59.5669 150.355 70.1725 164.23 65.1154C173.16 61.8735 171.131 58.8456 163.762 55.8494C153.311 51.6167 150.379 49.0486 148.826 51.6405Z" fill="white"/>
<path d="M172.113 44.7791C170.655 46.2217 170.671 47.3076 172.581 48.0131C173.761 48.457 174.807 48.0131 175.639 46.4278C176.471 44.8425 174.174 42.7341 172.113 44.7791Z" fill="#212121"/>
<path d="M158.065 38.5311C156.79 39.9261 156.647 40.9565 158.414 41.3925C159.5 41.662 160.633 41.0754 161.33 39.6011C162.027 38.1268 159.872 36.5891 158.065 38.5311Z" fill="#212121"/>
<path d="M183.587 43.0696C182.795 39.9625 177.834 33.5579 175.41 36.9267C174.942 37.5766 176.503 39.5345 177.787 40.7313C179.071 41.9282 179.974 43.1093 181.543 44.108C182.731 44.8689 183.817 44.0763 183.587 43.0696Z" fill="#212121"/>
<path d="M157.85 33.0946C160.354 34.886 168.009 36.4633 167.66 32.4605C167.596 31.6678 165.227 31.2477 163.524 31.1923C161.82 31.1368 160.441 30.8277 158.674 31.0813C157.343 31.2636 157.026 32.5001 157.85 33.0946Z" fill="#212121"/>
<path d="M163.825 50.0373C164.99 49.2447 162.383 48.4521 162.708 46.6369C163.39 42.8877 166.67 41.7305 166.115 41.1518C165.561 40.5732 161.694 43.9023 160.632 46.2406C160.07 47.4771 162.082 51.2105 163.825 50.0373Z" fill="#E85353"/>
<path d="M219.189 121.836C202.85 112.998 187.002 144.632 206.035 152.749C221.487 159.359 234.711 130.246 219.189 121.836Z" fill="#2929B2"/>
<path d="M135.442 238.872C135.553 234.417 135.617 232.198 134.531 230.787C133.446 229.376 131.647 229.32 128.049 229.202H127.384C123.786 229.106 121.988 229.059 120.831 230.414C119.674 231.77 119.619 233.989 119.5 238.444V239.236C119.381 243.691 119.317 245.91 120.403 247.321C121.489 248.732 123.287 248.78 126.885 248.907H127.55C131.148 249.002 132.946 249.049 134.103 247.702C135.26 246.354 135.316 244.119 135.434 239.672L135.442 238.872Z" fill="white"/>
<path d="M123.591 235.006C123.619 235.01 123.644 235.023 123.663 235.043C123.682 235.063 123.693 235.089 123.694 235.117C123.8 235.922 123.972 236.718 124.209 237.495C124.438 238.364 124.848 239.174 125.414 239.873C125.747 240.251 126.182 240.526 126.666 240.665L126.523 235.069C126.52 235.054 126.52 235.037 126.523 235.021C126.527 235.006 126.534 234.991 126.543 234.978C126.553 234.965 126.566 234.955 126.58 234.947C126.594 234.94 126.61 234.935 126.626 234.935H128.013C128.076 234.935 128.124 234.99 128.124 235.061L128.211 238.486C128.578 238.373 128.916 238.181 129.201 237.923C129.653 237.475 130.002 236.934 130.224 236.338C130.415 235.879 130.566 235.404 130.675 234.919C130.678 234.894 130.689 234.87 130.706 234.852C130.723 234.833 130.746 234.821 130.77 234.816H132.157C132.175 234.817 132.193 234.823 132.209 234.832C132.225 234.842 132.239 234.854 132.249 234.869C132.26 234.884 132.267 234.902 132.27 234.92C132.273 234.938 132.273 234.956 132.268 234.974C132.134 235.751 131.916 236.511 131.618 237.241C131.31 238.03 130.853 238.751 130.271 239.365C130.958 239.821 131.537 240.421 131.967 241.125C132.322 241.694 132.602 242.307 132.799 242.948C132.799 243.035 132.799 243.13 132.704 243.13H131.317C131.295 243.133 131.273 243.127 131.256 243.114C131.238 243.1 131.226 243.081 131.222 243.059C131.099 242.784 130.953 242.518 130.786 242.267C130.506 241.833 130.137 241.463 129.704 241.182C129.272 240.901 128.784 240.714 128.274 240.634L128.338 243.107C128.339 243.138 128.329 243.168 128.31 243.192C128.291 243.217 128.265 243.234 128.235 243.241H127.839C123.702 243.352 122.197 237.859 122.086 235.196C122.082 235.18 122.082 235.164 122.086 235.148C122.089 235.132 122.096 235.118 122.106 235.105C122.116 235.092 122.128 235.081 122.143 235.074C122.157 235.066 122.173 235.062 122.189 235.061L123.591 235.006Z" fill="#0077FF"/>
<path d="M173.548 143.32C174.864 143.526 189.57 149.827 189.396 152.348C189.221 154.868 175.973 150.992 175.973 150.992C175.973 150.992 191.947 160.456 190.719 162.28C189.491 164.103 188.231 163.865 188.231 163.865C188.017 165.095 187.491 166.25 186.702 167.218C185.299 169.088 178.897 165.886 178.897 165.886C178.897 165.886 178.992 167.265 176.52 168.224C174.047 169.183 166.48 162.494 159.618 163.413C153.572 164.206 143.469 164.356 143.469 164.356C143.469 164.356 162.051 141.576 173.548 143.32Z" fill="#FF8481"/>
<path d="M201.812 202.736C183.136 210.282 155.561 192.519 135.68 183.412" stroke="#212121" stroke-width="2.02004" stroke-miterlimit="10" stroke-linecap="round"/>
<path d="M128.057 113.037C119.214 121.415 101.797 134.28 105.45 154.563" stroke="#212121" stroke-width="1.01002" stroke-miterlimit="10"/>
<path d="M80.4835 268.991C77.3933 265.432 74.3505 261.715 71.4742 257.894C75.238 252.346 79.0493 246.702 82.8844 241.082C83.3282 241.716 83.7878 242.358 84.2632 243.016C85.119 244.2 85.9932 245.37 86.886 246.528C84.8416 253.273 82.6784 260.89 80.4835 268.991Z" fill="#8024C0"/>
<path d="M53.6363 284.598C58.4163 292.492 63.9236 299.923 70.0862 306.792L58.2955 322.296C52.4291 316.013 47.0416 309.299 42.1785 302.21C45.8657 296.482 49.685 290.611 53.6363 284.598Z" fill="#8024C0"/>
<path d="M24.5802 330.072C28.3392 336.835 32.7613 343.208 37.7812 349.096L25.8955 364.6C21.4028 359.607 17.2769 354.296 13.5502 348.707C16.7514 343.064 20.4598 336.818 24.5802 330.072Z" fill="#8024C0"/>
<path d="M60.2695 350.555C57.3853 362.975 55.436 371.679 55.0556 373.422C54.7783 374.667 53.3758 375.063 51.1888 375.008C48.7032 370.923 46.4749 366.688 44.517 362.325C42.3044 357.45 40.5329 352.386 39.2239 347.194L56.8068 324.152C55.2221 332.348 56.7593 341.455 60.2695 350.555Z" fill="#8024C0"/>
<path d="M353.427 597.896H284.909C283.238 597.896 282.754 596.034 282.833 594.655C315.226 594.171 332.215 590.081 342.46 589.376C352.705 588.67 356.961 587.41 357.42 591.365C357.579 593.553 356.422 595.756 353.427 597.896Z" fill="#212121"/>
<path d="M170.283 594.084C181.012 594.544 209.855 594.678 220.663 592.8L220.615 593.331C220.346 595.796 218.785 597.897 216.305 597.897H121.148C116.124 597.897 108.66 597.746 107.368 590.557C115.102 590.105 141.734 592.848 170.283 594.084Z" fill="#212121"/>
<path d="M277.485 179.88C272.153 198.023 284.316 238.305 302.691 375.171C344.743 465.603 376.477 465.231 376.477 465.231L372.333 362.338L414.242 431.504C414.242 431.504 442.903 403.936 462.134 390.611C462.134 390.611 460.628 391.047 443.909 357.733C425.074 320.185 421.176 266.817 392.642 221.747C379.576 201.091 390.352 184.374 411.2 172.152C431.556 160.206 387.301 140.779 353.57 144.861C312.073 149.886 277.485 179.88 277.485 179.88Z" fill="#00EAFF"/>
<path d="M392.65 221.75C391.459 219.888 390.417 217.935 389.536 215.908L368.34 232.902C368.34 232.902 387.817 268.46 390.21 274.27C392.603 280.08 398.07 281.451 404.908 277.686C409.932 274.928 413.838 272.931 415.558 272.027C409.853 254.922 402.824 237.817 392.65 221.75Z" fill="white"/>
<path d="M381.018 205.102C355.4 199.744 338.285 184.834 335.06 181.505L325.013 166.144C315.758 167.65 310.75 170.971 301.709 175.568C293.39 178.9 284.783 181.461 275.996 183.217C274.839 190.715 277.042 202.502 279.419 221.945C296.788 161.388 360.052 213.488 381.018 205.102Z" fill="#00EAFF"/>
<path d="M396.928 410.835C389.797 389.379 412.713 361.101 424.209 357.65C438.004 357.649 455.818 374.937 455.818 374.937C455.818 374.937 523.076 545.101 527.675 552.001C532.273 558.901 600.101 580.751 603.55 585.351C606.999 589.951 605.849 598.001 605.849 598.001H488.588C488.588 598.001 481.69 573.851 478.241 563.501C474.792 553.151 396.928 410.835 396.928 410.835Z" fill="#2929B2"/>
<path d="M301.321 373.305C318.444 377.356 375.416 411.178 379.243 435.369C388.451 493.573 392.021 591.1 392.021 591.1L262.399 598.003C262.399 598.003 255.18 588.008 269.8 582.943C284.419 577.878 329.886 563.698 336.304 547.94C342.722 532.182 301.321 373.305 301.321 373.305Z" fill="#2929B2"/>
<path d="M392.182 585.609C389.655 585.466 385.724 585.926 380.011 587.194C335.448 597.102 288.214 583.389 263.072 587.582L262.43 587.487C258.365 592.417 262.43 597.997 262.43 597.997H387.349C392.547 597.997 392.707 596.85 392.547 593.242C392.46 591.276 392.333 588.692 392.182 585.609Z" fill="#00EAFF"/>
<path d="M391.826 52.7383C387.491 62.3609 380.059 77.9601 391.826 79.8466C403.592 81.7331 461.919 77.9205 446.912 128.356C431.904 178.792 409.67 212.614 373.878 203.895C349.148 197.847 318.824 167.235 318.824 167.235C318.824 167.235 272.018 193.289 256.479 181.043C240.941 168.797 245.869 142.013 266.115 115.642C286.36 89.2711 299.078 82.6763 324.03 84.0872C348.982 85.4981 347.975 54.1254 347.975 54.1254L391.826 52.7383Z" fill="#00EAFF"/>
<path d="M447.403 102.152C438.354 79.3314 401.009 81.313 391.849 79.8466C380.083 77.9601 387.515 62.3609 391.849 52.7383L347.999 54.1254C347.999 54.1254 349.005 85.4982 324.053 84.0873C307.984 83.1757 296.986 85.6012 285.789 94.4788C304.387 92.7667 325.226 101.613 333.332 120.977C333.301 120.961 399.86 70.2319 447.403 102.152Z" fill="#2929B2"/>
<path d="M302.493 129.141C306.692 120.263 314.561 99.4008 342.904 101.62C371.248 103.84 367.555 124.258 360.741 138.462C350.052 143.709 300.948 136.687 300.948 136.687L302.493 129.141Z" fill="white"/>
<path d="M324.402 110.418C327.706 109.831 357.119 123.821 350.931 128.268C335.321 139.46 335.361 143.368 337.365 148.037C341.407 157.437 348.784 163.556 344.124 164.508C340.796 165.189 313.856 145.08 320.416 137.716C323.53 134.221 335.472 128.855 333.467 126.009C328.974 119.644 319.878 111.21 324.402 110.418Z" fill="#00EAFF"/>
<path d="M381.683 61.7205C380.296 63.3057 375.653 65.6837 367.309 67.9823L346.786 64.8117C344.988 72.6193 340.495 82.123 329.306 83.8351C385.787 86.8789 383.061 60.1114 381.683 61.7205Z" fill="#1A1A66"/>
<path d="M344.837 27.6309C355.431 13.9182 365.257 3.05904 381.96 7.14114C402.007 12.0872 406.008 29.1021 396.618 48.2999C387.229 67.4977 366.953 81.8079 347.967 75.2052C318.102 61.976 337.587 37.0237 344.837 27.6309Z" fill="#2929B2"/>
<path d="M351.784 22.9995C350.436 25.6987 352.379 29.542 358.681 28.7515C361.782 28.3626 363.9 25.9103 364.429 24.1494C365.135 21.8031 364.969 18.9003 361.026 18.2314C356.382 17.4475 353.507 19.5495 351.784 22.9995Z" fill="#FF8481"/>
<path d="M371.334 28.6099C372.57 26.8423 377.075 22.9968 380.573 25.8277C384.072 28.6586 385.974 33.8722 381.673 37.95C376.821 42.55 367.574 33.9862 371.334 28.6099Z" fill="#FF8481"/>
<path d="M336.838 39.0986C341.145 33.7171 355.17 29.8965 357.531 29.8965C361.778 29.4288 365.67 31.05 369.027 35.6482C374.923 43.7252 381.191 53.5404 377.372 66.1592C376.136 70.2413 360.98 81.6486 341.145 71.9613C323.042 60.9486 336.838 39.0986 336.838 39.0986Z" fill="#FF8481"/>
<path d="M427.752 107.577C450.034 113.276 437.855 155.381 413.711 146.757C394.116 139.75 406.572 102.155 427.752 107.577Z" fill="#00EAFF"/>
<path d="M374.668 30.9893C372.814 32.8282 372.838 34.2074 375.262 35.1031C376.76 35.6659 378.099 35.1031 379.153 33.0502C380.207 30.9972 377.291 28.3894 374.668 30.9893Z" fill="#212121"/>
<path d="M356.628 23.2655C355.044 25.0252 354.766 26.9909 357.064 26.8958C358.879 26.8166 359.893 26.4916 360.781 24.6209C361.668 22.7503 358.918 20.7608 356.628 23.2655Z" fill="#212121"/>
<path d="M343.974 43.3229C339.888 46.1643 342.957 53.7672 348.329 56.1869C357.574 60.3521 368.574 52.3305 365.661 50.7654C354.975 45.0334 346.424 41.6216 343.974 43.3229Z" fill="white"/>
<path d="M358.189 14.807C360.994 13.2614 369.108 12.5718 368.252 16.6618C368.086 17.4545 365.59 17.6209 363.823 17.4545C362.056 17.288 360.59 17.4545 358.791 16.9789C357.436 16.638 357.262 15.3223 358.189 14.807Z" fill="#1A1A66"/>
<path d="M387.467 26.9482C386.92 23.7777 382.388 17.0323 379.726 20.2504C379.219 20.8686 380.645 22.9295 381.865 24.2136C383.085 25.4977 383.894 26.7263 385.383 27.836C386.516 28.6762 387.649 27.9945 387.467 26.9482Z" fill="#1A1A66"/>
<path d="M357.893 41.1394C359.723 40.5132 356.538 38.4682 357.6 36.2012C359.834 31.4454 362.684 32.0174 362.13 31.0504C361.575 30.0834 357.211 32.1905 354.977 34.9409C353.764 36.3994 355.143 42.0668 357.893 41.1394Z" fill="#E85353"/>
<path d="M340.566 138.715C350.399 142.718 361.517 145.913 370.201 148.671C371.872 149.203 373.682 149.091 375.275 148.358C376.868 147.625 378.131 146.323 378.814 144.708C383.426 133.658 391.247 115.681 399.369 103.284" stroke="white" stroke-width="1.01002" stroke-miterlimit="10" stroke-linecap="round"/>
<path d="M275.631 183.965C287.66 182.697 322.794 165.497 322.794 165.497" stroke="white" stroke-width="1.01002" stroke-miterlimit="10"/>
<path d="M327.176 134.058C327.176 134.058 372.341 118.514 378.815 144.671C378.815 144.671 378.023 151.591 365.638 147.319L327.176 134.058Z" fill="#FF3985"/>
<path d="M331.105 292.172C331.105 292.172 385.05 384.388 392.459 398.283" stroke="#8024C0" stroke-width="1.01002" stroke-miterlimit="10"/>
<path d="M304.482 105.732C296.37 115.175 289.938 125.939 285.465 137.557" stroke="white" stroke-width="1.01002" stroke-miterlimit="10" stroke-linecap="round"/>
<path d="M387.626 209.295C387.626 209.295 363.586 234.573 318.436 242.784C283.571 249.126 280.402 229.912 280.402 229.912C280.402 229.912 278.944 245.701 284.284 252.233C284.284 252.233 288.104 262.727 317.406 259.367C357.611 254.73 387.975 222.976 389.576 215.771C390.748 210.619 387.626 209.295 387.626 209.295Z" fill="#2929B2"/>
<path d="M294.759 249.632C294.592 243.441 294.513 240.35 296.217 238.376C297.92 236.402 300.749 236.339 306.399 236.188H307.445C313.094 236.046 315.915 235.966 317.746 237.845C319.576 239.724 319.631 242.815 319.798 249.005V250.147C319.956 256.337 320.043 259.429 318.332 261.402C316.62 263.376 313.807 263.439 308.15 263.59H307.112C301.462 263.733 298.633 263.812 296.811 261.933C294.988 260.055 294.925 256.964 294.759 250.773V249.632Z" fill="white"/>
<path d="M300.221 245.271C300.263 245.27 300.303 245.286 300.334 245.314C300.365 245.342 300.384 245.38 300.388 245.421C300.552 246.534 300.817 247.63 301.18 248.695C301.558 249.91 302.202 251.026 303.066 251.96C303.602 252.516 304.283 252.912 305.031 253.102L304.825 245.318C304.824 245.295 304.827 245.272 304.835 245.251C304.843 245.229 304.855 245.209 304.87 245.193C304.886 245.176 304.905 245.162 304.925 245.152C304.946 245.142 304.969 245.137 304.991 245.136L307.171 245.08C307.194 245.079 307.217 245.083 307.239 245.091C307.26 245.1 307.28 245.113 307.296 245.129C307.313 245.145 307.326 245.165 307.334 245.187C307.342 245.208 307.346 245.232 307.345 245.255L307.472 250.011C308.047 249.854 308.586 249.585 309.056 249.218C309.736 248.624 310.277 247.888 310.641 247.062C310.942 246.426 311.18 245.762 311.354 245.08C311.36 245.044 311.378 245.01 311.405 244.986C311.433 244.961 311.468 244.947 311.505 244.946L313.692 244.89C313.718 244.892 313.744 244.899 313.767 244.912C313.79 244.924 313.81 244.942 313.826 244.963C313.842 244.984 313.853 245.008 313.859 245.034C313.864 245.06 313.864 245.086 313.858 245.112C313.636 246.205 313.291 247.268 312.828 248.283C312.322 249.403 311.597 250.411 310.697 251.247C311.753 251.855 312.662 252.689 313.359 253.688C313.909 254.469 314.347 255.322 314.659 256.225C314.668 256.251 314.672 256.279 314.67 256.307C314.667 256.334 314.658 256.361 314.643 256.385C314.629 256.408 314.609 256.428 314.586 256.443C314.562 256.458 314.536 256.468 314.508 256.471L312.321 256.526C312.289 256.528 312.257 256.52 312.23 256.503C312.203 256.486 312.182 256.461 312.17 256.431C311.985 256.028 311.76 255.646 311.497 255.29C311.022 254.667 310.427 254.146 309.746 253.759C309.065 253.372 308.313 253.127 307.535 253.038L307.622 256.471C307.624 256.493 307.622 256.516 307.615 256.537C307.608 256.559 307.597 256.579 307.582 256.596C307.567 256.613 307.549 256.627 307.529 256.637C307.508 256.646 307.486 256.652 307.464 256.653H306.846C300.356 256.827 298.011 249.194 297.844 245.493C297.842 245.445 297.858 245.399 297.889 245.364C297.92 245.328 297.964 245.306 298.011 245.302L300.221 245.271Z" fill="#0077FF"/>
<path d="M340.527 138.404C340.527 138.404 310.171 122.377 295.837 124.929C281.502 127.481 273.079 138.404 273.079 138.404C273.079 138.404 281.003 138.15 296.74 150.087C315.812 164.553 335.471 182.261 335.471 182.261L340.527 138.404Z" fill="#FF3985"/>
<path d="M390.804 48.8367C390.804 48.8367 400.962 48.5355 397.578 55.0034C394.195 61.4714 385.598 61.4396 385.598 61.4396L390.804 48.8367Z" fill="#2929B2"/>
<path d="M158.801 94.8084C159.918 100.167 189.11 87.3734 204.284 93.3341C216.352 98.0899 230.876 101.395 246.732 103.226C247.263 105.687 247.529 108.199 247.524 110.717C247.524 120.561 243.396 129.669 236.431 137.096C234.846 133.333 233.325 129.502 231.867 125.602C226.993 112.698 216.344 98.7161 203.254 97.8601C177.668 96.1638 144.538 119.927 153.334 94.8163C153.429 94.4359 158.73 94.42 158.801 94.8084Z" fill="#FF3985"/>
<path d="M224.791 112.248C219.831 105.296 213.302 99.6763 205.861 98.1862C205.956 96.799 206.067 95.4199 206.21 94.0486C212.313 96.2961 218.561 98.1313 224.91 99.5416C224.633 103.771 224.593 108.013 224.791 112.248Z" fill="#8024C0"/>
</g>
<defs>
<clipPath id="clip0_260_4021">
<rect width="607" height="598" fill="white" transform="matrix(-1 0 0 1 607 0)"/>
</clipPath>
</defs>
</svg>
