<svg width="524" height="763" viewBox="0 0 524 763" fill="none" xmlns="http://www.w3.org/2000/svg">
<path d="M411.683 461.41C411.683 461.41 417.449 488.76 410.846 487.814C404.242 486.868 396.74 467.678 396.74 467.678L411.683 461.41Z" fill="#231F20"/>
<path d="M511.877 441.321C511.877 441.321 514.383 439.89 511.808 434.399C519.687 432.392 517.758 430.723 517.274 429.169C516.19 425.724 479.807 400.543 477.124 396.982C474.295 393.221 469.437 370.94 469.437 370.94C469.437 370.94 463.595 367.187 458.137 367.771C452.679 368.356 437.382 353.158 445.891 373.97C454.401 394.782 455.815 402.212 457.545 407.157C460.251 414.848 469.291 419.317 476.67 424.032C480.083 426.216 482.29 432.43 485.895 439.321C488.063 443.459 493.582 443.313 492.106 437.591C490.63 431.869 488.539 421.063 490.507 421.932C495.442 424.124 507.803 445.582 511.877 441.321Z" fill="#FF8481"/>
<path d="M323.466 107.706C322.621 105.475 318.554 77.6105 317.739 70.5809C316.432 59.4211 322.013 43.616 325.357 33.9483C326.841 29.6567 325.726 25.5804 321.083 31.1565C317.001 36.0634 315.264 40.6934 313.68 38.8475C312.097 37.0017 315.902 9.42921 312.612 7.48337C309.322 5.53753 306.985 17.974 306.985 17.974C306.985 17.974 307.7 1.47665 305.317 1.31513C302.934 1.15362 301.742 3.46094 301.742 3.46094C301.742 3.46094 301.519 -1.26137 299.359 0.299912C297.199 1.8612 297.13 7.68334 297.13 7.68334C297.13 7.68334 295.3 4.46847 293.771 6.76041C292.241 9.05235 292.741 36.1403 292.103 50.138C291.465 64.1358 300.059 122.396 300.059 122.396L323.466 107.706Z" fill="#FF8481"/>
<path d="M290.473 23.4577C290.473 20.512 293.686 16.6819 296.169 21.1504C296.25 21.2896 296.37 21.4019 296.514 21.4732C296.658 21.5445 296.82 21.5716 296.979 21.551C297.138 21.5304 297.288 21.4632 297.409 21.3577C297.531 21.2522 297.618 21.1132 297.661 20.9581C300.735 10.6674 305.832 18.397 306.493 24.196C309.568 51.0686 305.294 62.8821 299.329 62.3129C283.793 60.8363 298.229 74.0187 298.229 74.0187L284.877 34.7328L290.473 23.4577Z" fill="#E85353"/>
<path d="M440.641 507.887C439.905 507.89 439.177 507.736 438.506 507.433C437.835 507.131 437.236 506.687 436.751 506.134C431.416 500.358 433.369 482.145 433.453 481.368L433.569 480.307L434.161 481.199C434.676 481.968 446.768 500.588 443.839 506.218C443.544 506.753 443.104 507.194 442.569 507.489C442.034 507.785 441.427 507.923 440.818 507.887H440.641ZM434.115 482.568C433.776 486.66 432.954 500.888 437.312 505.641C437.738 506.145 438.273 506.545 438.876 506.812C439.48 507.078 440.136 507.204 440.795 507.18C441.266 507.218 441.739 507.12 442.157 506.898C442.576 506.675 442.922 506.338 443.155 505.926C445.53 501.311 436.559 486.468 434.091 482.568H434.115Z" fill="white"/>
<path d="M433.038 511.21C432.581 511.207 432.127 511.131 431.693 510.987C430.959 510.766 430.284 510.383 429.717 509.867C429.15 509.35 428.707 508.713 428.419 508.003C425.267 500.804 433.031 484.222 433.4 483.522L433.861 482.553L434.115 483.591C434.345 484.507 439.696 506.041 435.083 510.402C434.536 510.932 433.8 511.222 433.038 511.21ZM433.63 484.868C431.97 488.629 426.543 501.788 429.126 507.695C429.367 508.306 429.745 508.855 430.229 509.299C430.714 509.742 431.294 510.07 431.924 510.256C432.357 510.445 432.834 510.508 433.301 510.435C433.768 510.363 434.205 510.16 434.561 509.849C438.289 506.341 434.668 489.383 433.63 484.891V484.868Z" fill="white"/>
<path d="M384.786 198.137C384.786 198.137 417.887 197.845 420.562 201.652C423.237 205.459 419.524 213.412 419.524 213.412L382.373 212.773L384.786 198.137Z" fill="#231F20"/>
<path d="M133.871 300.09C129.259 306.051 112.908 342.729 102.354 351.766C97.0576 356.304 67.1239 395.098 64.2105 393.113C61.2971 391.129 42.8327 396.721 42.8327 396.721L40.7341 404.142L54.1712 433.176C54.1712 433.176 79.9538 402.258 82.9902 404.85C86.0266 407.442 71.5671 388.837 89.0399 389.137C104.33 389.391 161.729 325.501 161.66 326.57L147.477 298.782L133.871 300.09Z" fill="#FF8481"/>
<path d="M395.756 556.064C401.644 559.541 445.96 584.383 454.601 592.612C475.156 612.186 495.55 659.724 503.076 664.139C516.013 671.83 522.24 661.063 523.708 645.627C525.176 630.191 498.256 569.624 489.362 567.732C480.468 565.84 478.738 568.316 478.738 568.316L411.03 517.363L395.756 556.064Z" fill="#FF8481"/>
<path d="M389.153 485.237C389.153 485.237 425.92 480.799 433.945 482.73C470.475 480.261 492.79 513.586 501.538 512.494C523.108 509.795 471.405 462.002 459.605 450.712C448.743 440.314 440.241 450.389 429.917 451.935C424.167 452.796 391.743 449.828 391.743 449.828L389.153 485.237Z" fill="#FF8481"/>
<path d="M297.968 358.342C297.968 358.342 270.955 380.977 247.371 410.58C213.771 452.766 218.575 475.623 227.254 489.467C238.308 507.157 293.471 513.556 318.27 509.733C361.433 503.081 398.039 487.137 410.846 487.814C399.407 470.278 407.655 453.135 411.83 451.212C407.317 449.143 399.215 447.143 399.215 447.143C399.215 447.143 383.38 431.538 368.797 427.593C354.215 423.647 297.968 358.342 297.968 358.342Z" fill="#231F20"/>
<path d="M406.848 397.99C404.542 422.324 380.589 474.9 381.588 487.368C382.472 498.404 436.067 521.208 441.763 533.814C447.613 546.758 439.372 576.584 423.791 578.107C416.749 578.799 414.835 581.845 326.372 554.864C316.379 551.788 290.957 540.151 288.105 512.31C284.569 477.7 319.623 406.05 315.187 371.348C314.026 362.242 357.743 334.961 385.555 345.967C398.439 351.028 409.147 373.655 406.848 397.99Z" fill="#2929B2"/>
<path d="M468.045 284.554C460.466 267.672 444.123 248.952 432.423 236.17C435.268 235.485 439.188 234.055 441.648 231.17C445.784 226.24 435.767 216.265 426.22 206.559C421.669 201.944 420.839 202.098 420.839 202.098C420.839 202.098 421.223 204.452 421.369 206.359C421.677 210.328 419.063 211.343 402.72 209.789C398.857 209.476 394.969 209.753 391.19 210.612C387 210.543 383.064 210.751 379.659 210.551C373.379 210.189 377.437 201.429 372.741 190.885C359.842 162.051 346.005 117.912 333.398 97.5151C327.771 88.4166 322.636 86.1631 318.946 86.3246C317.908 86.3707 305.686 89.701 300.128 94.1541C294.57 98.6072 286.015 119.535 292.679 163.897C300.482 215.811 319.277 227.133 312.666 249.514C306.178 271.649 301.965 324.755 297.876 351.582C296.131 363.034 298.96 383.307 309.191 387.276C319.953 391.437 362.64 382.661 405.349 378.377C423.745 368.379 397.662 314.734 404.281 308.243C406.356 306.212 422.422 320.887 426.573 327.301C431.447 334.854 434.599 378.831 448.782 382.592C456.023 384.5 467.669 381.662 471.881 376.309C477.308 369.379 482.59 316.941 468.045 284.554Z" fill="#2929B2"/>
<path d="M321.037 86.4937C313.814 98.929 304.165 109.784 292.664 118.412H312.281C313.819 116.935 315.287 115.42 316.732 113.843C322.206 107.867 327.08 101.368 331.284 94.4385C327.471 89.2394 323.95 87.0936 321.037 86.4937Z" fill="white"/>
<path d="M471.335 376.878C471.512 376.693 471.697 376.501 471.858 376.301C474.333 373.155 476.778 360.596 477.339 344.768H436.136C429.218 309.389 410.769 285.254 392.066 269.311C410.147 254.088 423.738 234.223 431.378 211.851C429.687 210.089 427.934 208.305 426.189 206.528C421.638 201.914 420.808 202.067 420.808 202.067C420.808 202.067 421.192 204.421 421.338 206.328C421.646 210.297 419.032 211.312 402.689 209.759L401.729 209.689C394.041 227.894 381.266 243.146 363.508 255.274C355.233 260.901 346.368 265.608 337.072 269.311C346.361 273.011 355.218 277.715 363.485 283.339C386.17 298.829 400.699 319.426 406.933 344.768H409.785C406.41 328.347 400.729 311.65 404.25 308.212C406.326 306.181 422.392 320.856 426.543 327.27C428.272 329.955 429.787 337.269 431.654 345.683C435.884 347.425 439.993 349.447 443.954 351.736C454.831 357.982 464.184 366.57 471.335 376.878Z" fill="white"/>
<path d="M78.7775 359.111C47.8522 425.731 2.67495 436.745 0.107457 422.855C-3.30562 404.573 79.3924 357.781 78.7775 359.111Z" fill="#231F20"/>
<path d="M44.9621 306.412C47.8217 325.025 41.3337 359.442 36.9521 400.689C32.9625 438.206 37.1443 452.558 48.7134 457.98C60.2825 463.402 106.897 448.805 122.271 435.961C121.164 427.323 107.22 391.737 98.9718 381.192C98.4798 380.562 88.0714 399.859 87.3718 400.251C83.4437 402.443 80.9685 389.853 80.1076 389.922C79.2466 389.991 79.3926 373.086 77.9628 350.044C77.025 334.985 72.8586 311.119 72.2129 303.22C71.9899 300.521 77.2095 290.499 72.4896 287.069C69.999 285.262 36.168 251.475 33.539 250.552C26.5899 248.122 42.9404 293.284 44.9621 306.412Z" fill="#FFA9A9"/>
<path d="M45.8382 269.633C43.3092 272.602 51.688 285.016 52.0954 292.845C52.8642 308.435 44.3238 309.127 41.8793 305.297C39.4348 301.467 32.5702 289.915 27.7735 280.293C18.5489 261.673 9.02462 245.483 13.0757 239.915C16.4734 235.239 25.9362 232.57 32.9853 234.531C41.7332 236.962 47.9906 241.192 61.3508 259.85C75.4489 279.532 78.2625 282.516 76.6789 289.076C73.8654 300.613 72.4202 307.143 72.4125 306.658C69.6221 302.928 69.8989 300.921 64.7716 291.422C56.4464 275.986 48.2827 266.749 45.8382 269.633Z" fill="white"/>
<path d="M109.026 444.005C114.5 441.336 119.127 438.621 122.271 435.96C121.587 430.577 115.945 414.848 109.795 401.151C112.516 413.264 113.185 435.584 109.026 444.005Z" fill="#E85353"/>
<path d="M80.1074 389.922C81.4219 403.873 81.7448 410.057 84.6505 409.757C89.3627 409.28 88.8554 393.859 80.1074 389.922Z" fill="#E85353"/>
<path d="M62.035 260.204C48.6671 241.553 42.7711 236.431 34.0155 234.008C27.443 232.185 15.4818 234.908 13.1218 239.777C18.1723 234.87 31.4172 232.908 41.4873 243.622C60.0825 263.388 70.806 282.847 76.2792 290.753C76.4099 290.199 76.5483 289.645 76.6867 289.069C78.2702 282.5 76.1255 279.893 62.035 260.204Z" fill="#231F20"/>
<path d="M215.862 489.213C215.016 493.451 187.689 558.548 154.488 681.282C151.482 692.396 150.314 690.781 155.518 711.085C160.722 731.39 161.299 747.749 152.22 752.617C143.142 757.485 115.645 710.593 117.92 702.117C120.196 693.642 121.618 684.836 123.517 673.66C128.406 644.865 129.113 601.157 136.585 567.908C140.897 548.681 145.502 538.851 148.338 520.493C151.828 497.858 156.494 473.985 157.801 470.455C173.06 473.093 197.72 481.615 215.862 489.213Z" fill="#FFA9A9"/>
<path d="M138.576 585.813L132.265 593.012C132.103 594.235 131.949 595.465 131.796 596.704C137.576 604.249 155.91 629.006 166.826 637.297C170.838 623.484 174.697 610.622 178.403 598.711L138.576 585.813Z" fill="#FF8481"/>
<path d="M121.172 682.021C115.399 687.043 108.419 700.895 109.472 704.894C110.933 710.424 129.974 741.68 135.608 749.871C142.312 759.654 144.472 762.685 153.02 762.9C161.568 763.115 183.338 761.362 184.168 760.362C184.998 759.362 190.84 758.955 188.942 752.348C187.158 746.195 179.425 736.966 166.565 712.916C157.34 695.649 155.272 689.02 152.451 688.035C149.63 687.051 142.519 691.988 143.073 698.08C143.572 703.679 159.154 729.751 151.705 729.228C142.881 728.606 128.506 682.821 121.172 682.021Z" fill="white"/>
<path d="M205.269 518.601C210.343 505.611 215.608 490.459 215.862 489.213C197.728 481.615 173.06 473.062 157.801 470.455C157.185 472.39 156.672 474.357 156.264 476.346C182.807 473.677 200.934 504.457 205.269 518.601Z" fill="#E85353"/>
<path d="M188.68 757.378C183.253 759.139 165.388 763.177 153.988 758.824C140.152 753.532 120.48 707.009 111.248 696.649C108.35 702.133 109.165 703.733 109.472 704.894C110.933 710.424 129.974 741.68 135.608 749.871C142.312 759.654 144.472 762.685 153.02 762.9C161.568 763.115 175.904 762.9 183.407 762.9C184.26 762.9 188.619 761.27 188.68 757.378Z" fill="#231F20"/>
<path d="M185.867 238.454C172.353 249.221 128.667 290.676 128.659 293.63C128.621 307.997 137.238 336.146 151.367 334.992C165.496 333.839 195.568 290.561 195.568 290.561L185.867 238.454Z" fill="#231F20"/>
<path d="M134.817 331.101C132.019 335.661 151.321 365.057 165.504 385.561C179.686 406.065 231.175 450.166 238.47 427.585C245.765 405.004 205.999 324.525 205.999 324.525C205.999 324.525 140.536 321.81 134.817 331.101Z" fill="#231F20"/>
<path d="M231.744 393.298C231.744 393.298 220.505 621.231 217.799 623.261C200.011 636.674 110.295 590.305 111.471 580.191C112.647 570.077 153.842 394.221 153.842 394.221L206.215 379.754L231.744 393.298Z" fill="#2929B2"/>
<path d="M199.827 624.692L199.242 624.192C205.346 617.001 221.112 392.867 221.266 390.599L222.035 390.652C221.389 399.905 206.092 617.347 199.827 624.692Z" fill="#1A1A66"/>
<path d="M159.661 332.593C149.422 326.655 117.743 370.002 86.8643 388.153C88.9091 385.338 87.095 373.963 79.6615 359.373C79.5989 359.234 79.5057 359.111 79.3889 359.013C79.2722 358.915 79.1349 358.844 78.9872 358.806C78.8395 358.769 78.6852 358.765 78.5358 358.795C78.3863 358.825 78.2456 358.889 78.1241 358.981C62.9036 371.125 21.9313 437.43 1.25293 425.362C-2.04485 424.724 34.6073 464.379 62.0734 469.97C99.625 477.661 128.951 464.464 213.448 394.329C235.18 376.293 172.929 340.291 159.661 332.593Z" fill="#2929B2"/>
<path d="M159.869 372.348C139.114 389.576 127.137 452.042 95.4126 470.278C108.173 467.571 122.133 461.356 139.621 450.281C142.196 434.392 150.222 388.63 159.869 372.348Z" fill="#1A1A66"/>
<path d="M231.744 393.298L217.976 385.999C218.968 366.925 171.085 339.23 159.669 332.593C156.302 330.639 150.614 334.015 143.396 340.084C162.198 333.077 186.443 339.761 230.629 432.53C231.482 415.841 231.744 393.298 231.744 393.298Z" fill="#1A1A66"/>
<path d="M250.838 174.149C254.159 168.95 268.519 145.915 271.163 139.016C273.808 132.117 283.001 80.0794 281.702 67.6968C280.403 55.3141 267.504 33.9407 269.065 32.3179C271.847 29.3876 279.458 40.8626 279.973 39.5629C282.21 33.8792 278.243 17.7279 280.926 15.659C281.497 15.1858 282.227 14.9473 282.968 14.9915C283.708 15.0358 284.404 15.3596 284.915 15.8974C284.915 15.8974 286.022 13.4055 290.565 14.2362C293.64 14.7976 294.217 34.8252 295.078 34.8867C296.938 35.0174 298.283 18.074 299.851 17.9663C303.541 17.8125 301.927 29.2491 303.372 42.9931C304.648 55.045 302.942 68.5043 302.942 68.5043C302.942 68.5043 307.031 121.034 302.665 146.184C299.198 166.119 284.608 191.808 278.627 201.775C268.25 219.042 250.838 174.149 250.838 174.149Z" fill="#FFA9A9"/>
<path d="M190.802 183.363C190.802 183.363 185.928 171.542 171.246 169.965C159.984 168.757 147.262 180.209 152.382 199.191C123.232 230.494 162.275 261.081 191.34 236.462L190.802 183.363Z" fill="#FFEF60"/>
<path d="M185.613 220.98C189.618 223.764 191.993 230.248 191.355 235.554C190.717 240.861 211.219 225.956 211.219 225.956L213.617 217.073L185.613 220.98Z" fill="#FFA9A9"/>
<path d="M178.71 182.932C179.665 182.383 180.739 182.075 181.84 182.034C182.941 181.992 184.035 182.219 185.029 182.694C187.958 184.032 193.239 186.539 194.384 186.878C195.214 187.139 200.334 186.801 202.071 188.7C203.809 190.6 201.356 192.907 203.071 194.184C209.543 199.029 217.422 204.006 218.652 208.028C222.112 219.465 204.654 230.394 187.904 223.056C182.369 224.502 177.795 221.857 177.365 217.519C176.781 211.674 181.77 212.42 182.354 209.189C182.969 205.828 178.149 195.999 176.811 188.423C176.22 185.293 177.15 183.87 178.71 182.932Z" fill="#FFA9A9"/>
<path d="M190.079 190.608C191.286 191.377 191.394 191.977 190.502 192.915C189.872 193.569 188.688 194.384 187.704 192.63C186.958 191.261 188.042 189.269 190.079 190.608Z" fill="#231F20"/>
<path d="M200.326 193.338C202.079 190.708 202.855 190.085 202.102 188.762C203.685 190.708 201.433 192.977 203.047 194.184C199.634 196.13 199.473 194.623 200.326 193.338Z" fill="#FF8481"/>
<path d="M205.108 195.792C202.571 199.337 195.33 201.621 197.121 204.213C198.912 206.805 210.143 206.451 212.964 201.498C212.964 201.498 208.236 198.045 205.108 195.792Z" fill="white"/>
<path d="M184.26 184.17C186.412 184.586 183.837 194.274 182.569 193.815C181.507 193.43 182.069 183.432 184.26 184.17Z" fill="#FFEF60"/>
<path d="M249.378 169.026C247.072 169.096 225.732 198.714 205.469 218.126C185.206 237.539 174.574 247.06 171.215 254.028C164.935 267.103 168.548 296.329 165.911 301.544C161.537 307.781 158.424 308.912 143.957 320.341C140.251 323.271 134.617 328.616 134.817 331.108C134.817 331.108 146.885 319.064 177.795 348.651C227.854 396.559 241.222 425.093 238.47 427.592C238.47 427.592 242.052 409.28 246.78 363.88C252.322 310.665 259.187 262.188 263.691 249.798C273.046 224.241 283.87 212.012 285.038 209.643C286.207 207.274 253.913 168.888 249.378 169.026Z" fill="#00DC7F"/>
<path d="M192.047 360.85C191.93 360.861 191.811 360.861 191.694 360.85C191.337 360.78 191.02 360.575 190.812 360.276C190.604 359.977 190.52 359.609 190.579 359.25C191.002 356.696 224.195 268.18 235.626 246.191C251.192 216.196 273.216 190.485 273.439 190.223C273.555 190.088 273.697 189.977 273.856 189.897C274.015 189.817 274.189 189.769 274.367 189.756C274.545 189.743 274.723 189.765 274.893 189.822C275.062 189.878 275.218 189.968 275.353 190.085C275.626 190.321 275.794 190.656 275.821 191.016C275.849 191.376 275.733 191.733 275.499 192.008C275.276 192.261 253.452 217.711 238.039 247.445C226.263 270.149 194.069 356.658 193.254 359.804C193.194 360.086 193.044 360.341 192.826 360.529C192.609 360.718 192.335 360.831 192.047 360.85Z" fill="white"/>
<path d="M243.981 174.479C243.981 174.479 247.633 169.573 249.362 169.027C251.092 168.48 259.571 174.803 272.923 186.908C284.516 197.422 288.413 203.06 287.844 204.898C287.306 206.651 284.908 209.912 283.954 211.42C283.97 211.42 260.832 182.032 243.981 174.479Z" fill="white"/>
<path d="M201.003 357.442C172.491 328.386 152.251 318.987 141.681 322.448C138.929 325.071 134.686 329.416 134.817 331.1C134.817 331.1 146.885 319.056 177.803 348.644C224.479 393.321 239.246 421.14 238.793 426.724C239.308 425.078 240.33 420.624 241.26 409.58C235.518 398.151 224.233 381.115 201.003 357.442Z" fill="white"/>
<path d="M238.47 427.585C238.681 427.348 238.796 427.041 238.793 426.723C238.714 427.021 238.606 427.309 238.47 427.585Z" fill="#00DC7F"/>
<path d="M282.947 212.796C276.167 220.541 259.548 235.5 253.928 248.652C250.085 257.605 256.042 274.579 253.26 308.604C257.103 279.886 260.855 257.651 263.722 249.821C270.978 229.971 279.111 218.18 282.947 212.796Z" fill="#04AF61"/>
<path d="M379.582 167.211C376.669 165.981 371.126 155.675 375.777 149.784C379.021 145.707 384.625 147.222 387.654 145.938C390.898 144.531 394.18 137.147 400.76 137.816C407.948 138.547 409.5 143.138 412.291 144.807C415.65 146.807 425.428 145.769 428.741 151.176C432.316 156.998 429.11 161.02 430.471 163.735C431.832 166.45 436.052 168.742 436.067 174.203C436.067 180.132 430.871 182.417 428.872 185.485C427.473 187.631 430.963 192.492 427.673 197.307C424.383 202.121 417.833 201.252 416.442 203.459C415.051 205.667 404.765 213.458 391.074 208.074C377.384 202.69 382.496 165.404 382.496 165.404L379.582 167.211Z" fill="#231F20"/>
<path d="M396.801 209.766C396.563 205.736 396.932 199.283 397.939 198.422C404.858 192.515 364.708 200.529 364.708 200.529C367.567 203.406 352.593 224.095 358.397 224.548C359.811 224.656 362.84 222.779 367.621 220.503C374.509 216.342 385.747 210.658 396.801 209.766Z" fill="#FF8481"/>
<path d="M388.691 205.528C393.634 202.306 386.478 200.983 382.819 201.798L378.621 198.053C371.265 199.222 364.708 200.529 364.708 200.529C365.807 201.637 364.262 205.39 362.279 209.605C369.558 213.058 385.002 207.936 388.691 205.528Z" fill="#E85353"/>
<path d="M366.23 202.636C356.813 198.714 353.93 187.608 357.774 180.217C365.161 166.012 382.296 152.275 389.483 151.652C395.495 151.137 405.857 154.113 408.839 161.651C411.345 167.965 405.488 177.102 401.69 186.701C400.045 190.854 402.359 190.338 405.38 191.992C408.401 193.646 408.394 197.96 404.696 200.114C401.221 202.144 397.947 201.252 396.017 200.783C394.088 200.314 382.542 209.435 366.23 202.636Z" fill="#FF8481"/>
<path d="M368.812 170.172C370.942 170.695 371.342 171.818 375.769 175.341C381.742 180.094 385.878 181.863 386.739 184.263C387.969 187.685 372.825 193.592 364.592 184.855C360.656 180.671 365.961 169.473 368.812 170.172Z" fill="white"/>
<path d="M388.737 168.288C387.392 169.365 387.361 170.265 388.807 171.165C389.706 171.726 390.628 171.618 391.405 170.311C392.32 168.827 390.79 166.65 388.737 168.288Z" fill="#231F20"/>
<path d="M375.508 159.059C374.124 160.074 376.584 160.228 377.684 161.528C378.967 163.066 379.859 164.412 380.336 163.281C380.927 161.889 377.461 157.613 375.508 159.059Z" fill="#231F20"/>
<path d="M383.211 163.981C382.273 163.335 376.292 165.158 375.654 167.058C374.47 170.68 378.045 172.595 379.213 172.241C380.197 171.949 376.538 170.703 377.676 167.98C378.66 165.489 384.387 164.789 383.211 163.981Z" fill="#E85353"/>
<path d="M376.2 155.713C375.546 157.705 385.809 159.874 387.085 157.251C389.091 153.175 376.953 153.437 376.2 155.713Z" fill="#231F20"/>
<path d="M401.368 167.565C403.474 166.796 398.293 156.705 395.218 157.413C390.467 158.52 398.946 168.488 401.368 167.565Z" fill="#231F20"/>
<path d="M86.8721 388.153C87.42 387.19 87.6864 386.092 87.6408 384.984C87.1565 386.899 86.8721 388.153 86.8721 388.153Z" fill="#1A1A66"/>
<path d="M95.7814 382.331C92.9449 384.253 91.5305 385.407 86.8721 388.153C88.84 396.082 82.6134 414.464 83.7972 415.456C84.9811 416.448 98.864 412.141 95.7814 382.331Z" fill="#1A1A66"/>
<path d="M75.5797 463.702C74.0298 463.715 72.4831 463.558 70.9674 463.233C62.8422 461.403 62.1964 446.759 61.4508 429.815C60.7974 415.125 60.0671 398.474 54.3479 387.015L55.0321 386.668C60.8282 398.274 61.5661 415.01 62.2195 429.738C62.9882 446.374 63.5878 460.741 71.1365 462.441C91.8918 467.117 142.511 433.115 143.026 432.769L143.457 433.407C143.326 433.492 130.496 442.136 115.253 450.081C97.9492 459.149 84.6351 463.702 75.5797 463.702Z" fill="#1A1A66"/>
<path d="M111.233 579.284L110.525 579.114L110.648 578.599C132.695 485.537 138.622 460.51 142.888 433.069C151.644 376.847 164.604 362.803 164.735 362.665L165.258 363.164C165.127 363.295 152.313 377.255 143.603 433.153C139.329 460.618 133.402 485.637 111.317 578.737L111.233 579.284Z" fill="#0077FF"/>
<path d="M496.987 672.599C489.462 660.171 488.017 653.956 482.013 642.012C473.772 625.607 461.534 606.633 456.399 598.088C454.785 595.419 454.516 593.212 456.961 591.266C461.204 587.89 464.517 588.567 465.363 587.182C469.475 580.522 473.911 566.916 470.966 562.632C471.735 559.279 474.134 560.525 474.134 560.525L505.751 575.461C507.726 576.391 509.458 577.768 510.81 579.483C512.161 581.199 513.095 583.205 513.538 585.344C513.538 585.344 528.912 643.204 522.37 666.639C519.572 676.66 504.513 685.028 496.987 672.599Z" fill="#00DC7F"/>
<path d="M432.739 236.154C425.213 229.525 406.979 217.08 379.421 221.541C379.107 221.603 378.782 221.543 378.511 221.374C378.24 221.205 378.043 220.94 377.96 220.631C377.877 220.323 377.914 219.994 378.064 219.712C378.214 219.43 378.465 219.215 378.767 219.111C389.529 215.188 410.108 211.958 441.394 224.702C441.394 224.671 447.329 232.255 432.739 236.154Z" fill="#231F20"/>
<path d="M352.847 220.726C351.54 220.872 350.325 225.802 352.593 225.81C354.861 225.818 354.761 220.488 352.847 220.726Z" fill="#231F20"/>
<path d="M365.607 228.279C365.154 226.917 359.711 228.709 360.549 229.917C361.387 231.124 366.499 231.001 365.607 228.279Z" fill="#231F20"/>
<path d="M357.036 253.997C355.274 254.044 353.562 253.411 352.254 252.228C349.287 249.529 348.726 245.437 350.717 240.692C353.261 234.539 359.672 228.64 363.647 228.825C363.842 228.836 364.026 228.923 364.161 229.065C364.295 229.208 364.37 229.397 364.369 229.594C364.357 229.79 364.271 229.973 364.128 230.108C363.985 230.242 363.797 230.317 363.601 230.317C360.526 230.186 354.645 235.193 352.147 241.253C350.948 244.145 350.186 248.175 353.338 251.067C357.72 255.051 366.168 249.59 374.332 244.314C381.25 239.83 387.807 235.593 392.781 236.208C394.488 236.39 396.118 237.018 397.506 238.029C398.895 239.04 399.993 240.399 400.691 241.969C401.42 243.505 401.873 245.159 402.028 246.852C402.029 247.047 401.955 247.235 401.823 247.378C401.69 247.521 401.508 247.608 401.313 247.622C401.12 247.622 400.933 247.55 400.791 247.418C400.648 247.287 400.56 247.107 400.545 246.914C400.545 246.576 399.961 238.584 392.627 237.685C388.222 237.139 381.611 241.423 375.208 245.553C368.805 249.683 362.14 253.997 357.036 253.997Z" fill="#0C6EFF"/>
<path d="M400.184 242.63C398.8 242.307 398.992 244.122 399.515 248.783C400.038 253.444 400.568 256.474 402.013 256.574C403.458 256.674 403.551 254.182 402.874 248.283C402.198 242.384 401.098 242.845 400.184 242.63Z" fill="#2929B2"/>
<path d="M374.501 276.632C374.308 276.634 374.121 276.562 373.978 276.432C373.837 276.288 373.758 276.095 373.758 275.894C373.758 275.693 373.837 275.499 373.978 275.355C374.094 275.24 384.971 263.45 381.488 254.882C378.767 248.175 373.371 248.452 367.652 248.729C363.039 248.96 358.289 249.206 354.983 245.653C347.742 237.8 352.177 223.625 352.377 223.025C352.442 222.837 352.578 222.681 352.756 222.59C352.934 222.5 353.14 222.482 353.331 222.541C353.519 222.606 353.675 222.742 353.766 222.92C353.856 223.098 353.874 223.304 353.815 223.495C353.815 223.633 349.456 237.423 356.121 244.622C358.95 247.698 363.147 247.468 367.598 247.245C373.302 246.952 379.774 246.622 382.903 254.328C386.747 263.788 375.577 275.902 375.101 276.409C375.022 276.487 374.928 276.548 374.825 276.586C374.722 276.625 374.611 276.64 374.501 276.632Z" fill="#0C6EFF"/>
<path d="M377.045 272.064C376.277 270.872 375.154 272.31 372.272 276.048C369.389 279.786 367.706 282.285 368.659 283.385C369.612 284.485 371.426 282.731 375.039 278.001C378.652 273.271 377.553 272.856 377.045 272.064Z" fill="#2929B2"/>
<path d="M456.384 443.298C454.593 442.529 452.717 444.005 445.884 446.274C439.05 448.543 434.43 451.919 426.996 451.581C419.563 451.243 427.68 483.238 434.445 484.776C441.21 486.314 450.211 489.229 456.284 492.228C467.146 497.612 497.649 515.371 505.666 515.609C513.038 515.832 519.326 510.61 519.057 505.365C518.842 501.212 456.384 443.298 456.384 443.298Z" fill="#00DC7F"/>
<path d="M513.538 585.344C513.095 583.205 512.162 581.198 510.81 579.483C509.458 577.768 507.726 576.391 505.751 575.461L498.018 571.808C497.803 573.884 497.457 582.037 504.037 590.358C511.662 600.003 519.334 627.983 518.588 653.487C518.181 667.177 500.954 659.693 493.897 667.231C494.812 668.907 495.819 670.669 496.972 672.614C504.498 685.043 519.557 676.675 522.34 666.654C528.928 643.204 513.538 585.344 513.538 585.344Z" fill="#231F20"/>
<path d="M456.961 591.266C454.516 593.212 454.785 595.419 456.399 598.088C461.534 606.61 473.772 625.607 482.013 642.012C485.664 649.288 487.64 654.433 490.315 660.155C488.301 650.157 504.974 651.818 499.809 640.658C492.69 625.276 465.363 587.182 465.363 587.182C464.517 588.567 461.204 587.89 456.961 591.266Z" fill="white"/>
<path d="M476.901 561.833C478.746 568.562 472.758 582.498 480.945 589.305C496.88 602.572 498.018 571.808 498.018 571.808L476.901 561.833Z" fill="#231F20"/>
<path d="M458.237 632.306C457.517 632.281 456.818 632.06 456.215 631.667C455.56 631.27 455 630.732 454.578 630.092C454.155 629.453 453.879 628.727 453.771 627.968C452.479 620.215 464.087 606.048 464.586 605.448L465.263 604.625V605.695C465.263 606.641 465.186 628.829 459.651 631.929C459.221 632.176 458.733 632.306 458.237 632.306ZM464.479 606.81C461.957 610.048 453.471 621.492 454.532 627.837C454.617 628.489 454.85 629.114 455.212 629.663C455.574 630.211 456.057 630.671 456.623 631.006C456.994 631.297 457.442 631.475 457.912 631.52C458.381 631.565 458.854 631.475 459.275 631.26C463.756 628.745 464.394 611.417 464.479 606.81Z" fill="white"/>
<path d="M475.164 652.333C474.812 652.328 474.468 652.233 474.164 652.056C467.838 648.542 463.333 608.148 463.141 606.433L462.887 604.072L463.879 606.225C465.87 610.563 483.097 648.711 476.025 652.126C475.757 652.259 475.463 652.33 475.164 652.333ZM464.194 608.81C464.656 612.547 465.632 620.046 466.985 627.691C470.144 645.557 472.835 650.441 474.541 651.387C474.712 651.493 474.907 651.552 475.108 651.561C475.308 651.569 475.508 651.525 475.686 651.433C480.814 648.972 469.937 621.692 464.194 608.81Z" fill="white"/>
<path d="M519.057 505.365C518.842 501.204 456.384 443.298 456.384 443.298C454.593 442.529 452.717 444.005 445.883 446.274C444.346 446.797 442.862 447.374 441.471 447.951C439.688 452.073 440.841 458.242 449.773 461.887C461.45 466.64 476.617 475.2 484.642 487.121C490.792 496.282 500.585 509.733 507.258 515.578C513.915 515.055 519.311 510.225 519.057 505.365Z" fill="#231F20"/>
<path d="M455.347 443.159C449.035 444.62 447.091 447.597 470.721 465.763C489.224 479.961 503.345 512.34 516.167 509.11C523.954 507.157 516.79 491.598 502.33 477.715C486.364 462.371 463.672 441.221 455.347 443.159Z" fill="white"/>
<path d="M440.564 469.332C443.385 467.748 438.258 454.903 441.832 447.797C437.627 449.527 433.968 451.289 429.241 451.558C427.527 453.35 426.773 456.772 428.71 462.079C430.947 468.194 437.412 471.101 440.564 469.332Z" fill="#231F20"/>
<path d="M432.346 483.406C432.902 484.053 433.63 484.528 434.445 484.776C441.217 486.314 450.211 489.229 456.284 492.228C463.31 495.705 478.531 504.349 490.592 510.102C474.518 490.698 439.542 484.722 432.346 483.406Z" fill="white"/>
<path d="M442.248 554.803C442.094 554.749 426.505 549.104 409.193 541.205C385.886 530.56 370.758 521.1 364.139 513.094C343.484 487.983 370.135 425.531 382.942 395.521C386.116 388.076 388.415 382.7 388.669 380.908L390.206 381.131C389.922 383.107 387.715 388.276 384.371 396.105C371.68 425.839 345.275 487.714 365.338 512.102C380.712 530.814 442.156 553.118 442.778 553.341L442.248 554.803Z" fill="#231F20"/>
<path d="M377.022 411.841C371.81 411.734 367.49 409.926 364.185 406.458C356.775 398.697 357.028 385.469 357.044 384.923L358.581 384.961C358.581 385.092 358.343 398.128 365.307 405.412C366.83 406.985 368.658 408.232 370.679 409.074C372.7 409.916 374.872 410.337 377.061 410.311L377.022 411.841Z" fill="#231F20"/>
<path d="M498.333 413.433L512.854 439.86C512.854 439.86 516.697 437.899 515.022 434.899C515.918 434.741 516.728 434.265 517.304 433.56C517.88 432.854 518.183 431.964 518.158 431.054C517.689 426.339 498.333 413.433 498.333 413.433Z" fill="#E85353"/>
<path d="M470.99 315.003C473.253 318.53 475.28 322.204 477.055 326.001C476.148 311.673 473.48 296.706 468.022 284.554C462.949 273.256 453.947 261.127 445.038 250.513C440.515 253.713 435.771 256.587 430.84 259.112C422.529 263.333 413.837 266.756 404.88 269.333C413.844 271.904 422.541 275.324 430.855 279.547C448.059 288.384 461.573 300.321 470.99 315.003Z" fill="white"/>
<path d="M354.683 344.79C348.534 310.365 329.539 285.339 313.112 269.495L312.942 269.333L313.119 269.164C329.547 253.321 348.565 228.302 354.691 193.869H329.992C326.861 207.613 321.091 220.619 313.004 232.162C314.48 237.866 314.361 243.866 312.658 249.506C309.583 260.004 307.016 277.486 304.725 295.814C315.187 307.927 325.396 324.271 329.985 344.79H354.683Z" fill="white"/>
<path d="M323.689 388.153C329.239 387.83 335.919 387.115 343.391 386.184C337.633 371.863 329.354 358.693 318.946 347.298C318.152 346.436 317.35 345.59 316.54 344.76H298.86C298.529 347.167 298.206 349.436 297.891 351.543C297.83 351.905 297.784 352.274 297.738 352.659C308.727 362.587 317.56 374.668 323.689 388.153Z" fill="white"/>
<path d="M396.071 344.791H356.098C362.589 347.842 368.733 351.584 374.424 355.95C382.857 362.451 390.079 370.389 395.756 379.4C398.938 379.036 402.131 378.693 405.334 378.37C410.177 375.747 411.929 370.094 412.014 363.072C407.375 356.42 402.03 350.29 396.071 344.791Z" fill="white"/>
<path d="M349.679 132.809C347.696 127.802 345.72 122.965 343.76 118.427H333.39C328.47 148.591 314.172 171.495 297.215 186.439C297.896 189.054 298.596 191.536 299.313 193.884H316.555C317.365 193.053 318.165 192.207 318.954 191.346C330.315 178.956 343.153 159.874 349.679 132.809Z" fill="white"/>
<path d="M306.032 280.701L305.263 280.609C311.889 226.102 344.321 198.183 344.652 197.906L345.136 198.491C344.829 198.76 312.635 226.502 306.032 280.701Z" fill="#0077FF"/>
<path d="M285.784 71.4883C288.997 70.8115 294.724 71.6652 296.039 72.5882C297.353 73.5111 302.473 72.8881 302.957 72.642L303.595 72.3036C303.595 72.3036 304.302 72.3036 304.31 74.7032C304.386 76.7637 304.242 78.8263 303.88 80.8561C303.411 82.2405 297.96 81.3175 296.784 81.779C295.608 82.2405 293.433 84.194 286.145 83.3172C280.395 82.5173 285.784 71.4883 285.784 71.4883Z" fill="#00DC7F"/>
<path d="M280.349 71.9806C281.264 71.3807 292.295 71.0653 293.994 73.5188C294.901 74.857 294.286 81.8713 293.379 82.7481C292.356 83.7556 279.926 83.5172 279.265 81.6329C278.043 78.2949 278.866 72.9804 280.349 71.9806Z" fill="white"/>
<path d="M145.056 224.579C141.789 214.358 125.162 204.29 112.893 218.542C102.485 230.624 113.047 251.198 129.866 248.952C142.35 247.291 148.899 236.523 145.056 224.579Z" fill="#FFEF60"/>
<path d="M112.27 222.633C109.372 213.596 90.9001 205.09 83.8279 217.249C76.7558 229.409 86.7721 246.66 101.393 243.138C112.186 240.576 115.653 233.208 112.27 222.633Z" fill="#FFEF60"/>
<path d="M82.9824 215.988C81.1759 210.335 69.6221 205.013 65.179 212.643C60.7358 220.272 67.0239 231.04 76.1716 228.84C82.9362 227.209 85.0963 222.602 82.9824 215.988Z" fill="#FFEF60"/>
<path d="M84.8734 221.841C80.5917 222.856 78.57 211.074 84.1047 211.843C89.6395 212.612 90.3851 220.526 84.8734 221.841Z" fill="#00DC7F"/>
</svg>
