<svg width="579" height="808" viewBox="0 0 579 808" fill="none" xmlns="http://www.w3.org/2000/svg">
<path d="M578.77 27.2131C564.17 29.7526 549.794 33.4441 535.777 38.2531C506.451 48.5044 480.452 63.9842 459.216 86.9551C449.294 97.7341 440.746 109.701 433.768 122.582C433.493 123.154 433.091 123.656 432.594 124.049V122.417C432.594 107.702 432.594 92.9953 432.641 78.257C432.684 77.1835 433.071 76.1523 433.745 75.3157C456.85 47.8736 485.711 28.6643 518.989 15.8028C537.691 8.68412 557.077 3.50729 576.838 0.3545C577.485 0.251991 578.131 0.118164 578.77 -0.00012207V27.2131Z" fill="#2929B2"/>
<path d="M578.77 211.666C574.259 212.455 569.717 213.102 565.238 214.032C546.336 217.905 528.008 224.183 510.701 232.713C478.549 248.516 451.714 273.367 433.492 304.212C433.327 304.488 433.137 304.757 432.767 305.324C432.688 304.536 432.601 304.094 432.601 303.637C432.601 291.485 432.601 279.333 432.554 267.181C432.554 265.478 433.508 264.548 434.423 263.475C457.07 236.909 484.891 217.596 517.175 204.585C536.574 196.867 556.801 191.421 577.453 188.356C577.899 188.269 578.339 188.153 578.77 188.009V211.666Z" fill="#2929B2"/>
<path d="M578.769 395.727C519.926 404.771 470.451 430.526 432.6 477.792V475.624C432.6 467.218 432.6 458.812 432.6 450.39C432.575 449.78 432.681 449.172 432.912 448.607C433.144 448.042 433.495 447.534 433.941 447.117C462.763 417.586 497.255 397.493 536.573 385.444C549.882 381.415 563.48 378.407 577.247 376.446C577.76 376.375 578.288 376.391 578.824 376.367L578.769 395.727Z" fill="#2929B2"/>
<path d="M578.768 580.18C572.239 581.206 565.67 582.01 559.188 583.287C532.182 588.744 506.043 597.849 481.491 610.351C464.687 618.796 448.765 628.653 434.177 640.616C433.775 640.947 433.388 641.255 432.884 641.61C432.773 641.42 432.608 641.271 432.6 641.121C432.6 635.214 432.537 629.292 432.6 623.394C432.75 622.54 433.232 621.78 433.94 621.28C445.785 612.574 458.314 604.839 471.405 598.152C500.708 582.897 532.173 572.219 564.708 566.491C569.361 565.702 574.045 565.103 578.713 564.409L578.768 580.18Z" fill="#2929B2"/>
<path d="M578.768 764.626C572.389 765.32 565.978 765.817 559.622 766.732C532.187 770.771 505.023 776.478 478.281 783.82C463.346 787.873 448.568 792.431 434.122 797.951L432.616 798.511C432.616 794.505 432.568 790.665 432.679 786.832C432.679 786.391 433.515 785.76 434.082 785.579C444.223 782.235 454.317 778.734 464.545 775.682C490.177 768.095 516.248 762.078 542.613 757.663C554.615 755.629 566.751 754.399 578.824 752.806L578.768 764.626Z" fill="#2929B2"/>
<path d="M146.218 43.0247V8.64313C204.989 21.5125 253.25 50.7762 289.61 99.3283C325.884 50.8157 374.153 21.5441 432.909 8.64313V43.0166C364.674 60.0102 318.046 102.27 289.61 165.828C276.157 135.705 257.973 108.767 232.834 86.8926C207.694 65.0177 178.446 51.0286 146.218 43.0247Z" fill="#2929B2"/>
<path d="M289.578 340.18C274.768 311.791 255.74 286.597 230.9 266.054C206.061 245.512 177.759 231.886 146.279 224.505V194.697C205.422 207.022 252.917 237.658 289.609 285.674C326.254 237.697 373.71 207.062 432.9 194.697V224.426C366.826 240.316 320.884 281.077 289.578 340.18Z" fill="#2929B2"/>
<path d="M289.609 464.82C328.643 421.819 375.279 392.067 432.876 380.696V405.843C372.085 419.698 326.041 455.002 289.609 504.311C253.335 455.104 207.188 419.682 146.208 405.811V380.664C203.837 392.019 250.496 421.748 289.609 464.82Z" fill="#2929B2"/>
<path d="M432.89 566.901V587.293C378.574 598.593 332.025 624.987 289.623 659.542C247.277 625.034 200.665 598.585 146.254 587.277V566.506C154.305 568.375 162.278 569.953 170.093 572.09C199.143 580.023 226.199 592.592 251.993 607.977C264.293 615.276 276.143 623.308 287.479 632.029C289.174 633.338 290.136 633.196 291.753 631.973C319.723 610.777 349.878 593.428 382.659 580.772C398.597 574.505 415.135 569.888 432.015 566.995C432.283 566.972 432.543 566.956 432.89 566.901Z" fill="#2929B2"/>
<path d="M146.208 769.041V753.073C148.858 753.42 151.421 753.687 153.968 754.09C183.247 758.703 211.88 766.108 240.19 774.75C256.214 779.647 272.024 785.246 287.961 790.443C289.109 790.768 290.328 790.732 291.455 790.34C325.363 778.165 359.839 767.771 395.025 759.957C406.727 757.362 418.587 755.525 430.384 753.356C431.173 753.214 431.961 753.199 432.986 753.104V763.198C432.986 764.704 432.986 766.218 432.986 767.724C432.986 768.733 432.789 769.23 431.638 769.388C404.945 773.102 378.938 779.844 353.081 787.233C331.916 793.281 310.972 800.047 290.39 807.886C289.802 808.059 289.173 808.034 288.6 807.815C253.373 794.573 217.276 783.771 180.566 775.484C169.448 772.976 158.147 771.312 146.926 769.254C146.683 769.197 146.443 769.126 146.208 769.041Z" fill="#2929B2"/>
<path d="M0.0556641 27.2131C14.6583 29.7515 29.0368 33.4431 43.0562 38.2531C72.383 48.5044 98.382 63.9842 119.618 86.9551C129.537 97.7361 138.084 109.703 145.065 122.582C145.341 123.154 145.742 123.656 146.24 124.049V122.417C146.24 107.702 146.24 92.9953 146.193 78.257C146.15 77.1835 145.763 76.1523 145.089 75.3157C121.984 47.8736 93.1223 28.6643 59.8369 15.8028C41.1373 8.68315 21.7548 3.50629 1.99556 0.3545C1.34893 0.251991 0.702289 0.118164 0.0556641 -0.00012207L0.0556641 27.2131Z" fill="#2929B2"/>
<path d="M0.0556641 211.666C4.57415 212.455 9.10843 213.102 13.5875 214.032C32.4925 217.904 50.8234 224.182 68.1326 232.713C100.283 248.518 127.118 273.369 145.341 304.212C145.507 304.488 145.688 304.757 146.067 305.324C146.146 304.536 146.232 304.094 146.232 303.637C146.232 291.485 146.232 279.333 146.28 267.181C146.28 265.478 145.325 264.548 144.411 263.475C121.763 236.909 93.9424 217.596 61.6585 204.585C42.2582 196.878 22.0308 191.443 1.38045 188.388C0.93224 188.299 0.489835 188.183 0.0556641 188.041L0.0556641 211.666Z" fill="#2929B2"/>
<path d="M0.0561835 395.726C58.9069 404.771 108.397 430.525 146.241 477.823V475.655C146.241 467.249 146.241 458.842 146.241 450.421C146.27 449.811 146.166 449.202 145.936 448.637C145.706 448.072 145.355 447.564 144.908 447.148C116.086 417.616 81.594 397.524 42.2761 385.474C28.9662 381.446 15.3687 378.438 1.60179 376.477C1.08922 376.406 0.560883 376.421 0.0246582 376.398L0.0561835 395.726Z" fill="#2929B2"/>
<path d="M0.0556641 580.18C6.59288 581.206 13.1617 582.01 19.6437 583.287C46.6506 588.742 72.7895 597.847 97.3411 610.351C114.153 618.796 130.074 628.653 144.655 640.616C145.057 640.947 145.444 641.255 145.948 641.61C146.059 641.42 146.224 641.271 146.224 641.121C146.224 635.214 146.295 629.292 146.224 623.394C146.074 622.54 145.592 621.78 144.884 621.28C133.039 612.574 120.51 604.839 107.419 598.152C78.1166 582.897 46.6508 572.219 14.1158 566.491C9.46328 565.702 4.77918 565.103 0.102976 564.409L0.0556641 580.18Z" fill="#2929B2"/>
<path d="M0.0552054 764.626C6.44259 765.32 12.8537 765.817 19.2095 766.732C46.6448 770.771 73.8086 776.478 100.55 783.82C115.486 787.873 130.263 792.431 144.71 797.951L146.216 798.511C146.216 794.505 146.263 790.665 146.153 786.832C146.153 786.391 145.317 785.76 144.749 785.579C134.608 782.235 124.515 778.734 114.287 775.682C88.6545 768.095 62.5835 762.078 36.2189 757.663C24.2169 755.629 12.0808 754.399 0 752.806L0.0552054 764.626Z" fill="#2929B2"/>
</svg>
