<svg width="745" height="698" viewBox="0 0 745 698" fill="none" xmlns="http://www.w3.org/2000/svg">
<g clip-path="url(#clip0_411_609)">
<path d="M611.09 609.117C619.306 617.334 632.255 643.494 633.627 654.487C633.627 654.487 682.974 659.023 674.708 644.718C658.908 617.235 650.306 581.585 650.306 581.585L611.09 609.117Z" fill="#FFA9A9"/>
<path d="M547.849 644.832C547.677 633.001 546.814 602.108 546.814 601.286C546.814 600.464 498.231 588.14 498.231 588.14C498.231 588.14 511.09 633.329 507.088 650.156C505.297 657.723 546.247 653.303 546.247 653.303L547.849 644.832Z" fill="#FFA9A9"/>
<path d="M504.599 615.023C513.456 618.31 539.329 622.943 547.405 624.34C547.118 612.92 546.814 601.787 546.814 601.277L502.545 605.295C503.235 608.343 503.942 611.63 504.599 615.023Z" fill="#FF8481"/>
<path d="M467.167 132.322L612.446 52.9372C618.197 49.7739 612.577 37.006 615.535 42.4122L594.608 4.03434C593.621 2.23036 591.957 0.892387 589.984 0.314607C588.01 -0.263172 585.888 -0.0334505 584.083 0.953264L438.804 80.33C437.911 80.8193 436.929 81.1276 435.916 81.2372C434.903 81.3467 433.879 81.2554 432.901 80.9685C431.923 80.6815 431.012 80.2045 430.219 79.5649C429.426 78.9252 428.767 78.1354 428.279 77.2407L420.425 62.8952C419.689 61.5497 418.571 60.4525 417.211 59.7423C415.852 59.0322 414.313 58.7409 412.788 58.9053C411.263 59.0698 409.822 59.6825 408.645 60.6662C407.468 61.6498 406.61 62.9602 406.178 64.4316L384.816 137.342C384.528 138.32 384.437 139.344 384.545 140.357C384.654 141.37 384.962 142.352 385.45 143.246C385.938 144.141 386.598 144.93 387.391 145.569C388.185 146.208 389.096 146.685 390.074 146.972L462.985 168.334C464.46 168.775 466.033 168.768 467.504 168.314C468.975 167.859 470.278 166.977 471.247 165.781C472.215 164.584 472.806 163.126 472.945 161.592C473.083 160.059 472.762 158.519 472.022 157.168L464.184 142.822C463.195 141.033 462.954 138.925 463.512 136.958C464.071 134.991 465.385 133.325 467.167 132.322Z" fill="white"/>
<path d="M580.04 149.723C585.792 145.779 610.038 213.029 603.489 220.169C596.941 227.309 578.586 191.231 578.586 191.231L580.04 149.723Z" fill="#212121"/>
<path d="M492.456 188.232C488.651 187.164 473.558 174.782 485.266 158.3C498.618 139.51 511.476 128.303 526.643 138.195C538.146 137.201 542.961 144.292 546.584 165.555C548.597 177.469 549.418 197.377 524.334 192.751C502.151 188.667 492.456 188.232 492.456 188.232Z" fill="#2929B2"/>
<path d="M448.819 378.027L489.161 608.729C489.161 608.729 518.32 619.238 549.419 615.048C555.096 614.283 551.39 432.097 551.39 432.097L469.163 379.555L448.819 378.027Z" fill="#FF3985"/>
<path d="M543.438 336.396C543.438 336.396 662.745 584.583 660.724 587.163C653.609 596.201 630.184 611.393 599.875 613.455C595.865 613.726 453.832 391.618 453.832 391.618L543.438 336.396Z" fill="#FF3985"/>
<path d="M512.446 645.546C505.298 642.194 506.44 642.671 490.813 653.878C479.121 662.266 461.941 672.044 454.201 678.091C452.272 679.578 450.95 681.717 450.483 684.107C450.016 686.498 450.435 688.977 451.662 691.081C454.242 695.427 458.745 699.798 466.386 699.798H549.904C554.242 699.798 556.033 696.988 555.187 682.404C554.422 669.119 551.333 645.908 547.874 644.832C522.24 636.887 516.349 639.647 512.446 645.546Z" fill="#2929B2"/>
<path d="M492.456 188.234C497.386 195.907 493.179 209.399 491.865 211.543C484.651 223.267 489.975 242.181 503.458 237.58C516.94 232.979 529.938 205.282 529.938 205.282C529.938 205.282 526.652 198.274 532.477 187.124C538.303 175.975 492.456 188.234 492.456 188.234Z" fill="#FFA9A9"/>
<path d="M501.938 197.821C501.586 197.826 501.243 197.928 500.945 198.114C500.646 198.3 500.405 198.565 500.246 198.879C500.087 199.192 500.016 199.544 500.042 199.894C500.068 200.245 500.19 200.582 500.393 200.869C502.776 204.238 508.182 207.269 514.846 206.078C527.236 203.851 529.865 194.756 529.865 194.756L501.938 197.821Z" fill="#FF8481"/>
<path d="M465.161 200.204C479.58 197.049 491.954 209.456 507.294 212.266C523.364 215.207 577.468 149.428 580.04 149.748C577.945 162.311 589.899 216.415 603.489 220.194C592.898 240.611 551.899 262.918 549.673 279.186C543.921 321.401 562.597 355.079 561.874 364.52C561.66 367.396 560.058 365.991 558.053 365.777C523.373 327.161 512.125 416.274 473.377 416.98C451.078 417.383 448.375 412.576 446.617 389.678C444.859 366.779 438.598 310.72 437.686 295.192C436.79 280.066 411.862 262.861 418.288 250.66C424.713 238.459 445.721 204.46 465.161 200.204Z" fill="#2929B2"/>
<path d="M570.937 158.629L564.98 165.005C567.777 173.674 572.243 181.713 578.126 188.668C581.349 192.533 585.014 196.008 589.046 199.02H589.333C587.764 194.731 586.334 190.114 585.094 185.455C578.166 177.866 573.293 168.632 570.937 158.629Z" fill="#0077FF"/>
<path d="M535.451 357.479C530.267 350.155 526.888 341.709 525.591 332.831H518.139V332.757C506.406 332.757 484.28 313.128 480.977 288.225H473.525V288.151C461.793 288.151 439.666 268.514 436.372 243.611H428.911V243.537C426.917 243.474 424.952 243.048 423.111 242.28L422.289 243.611H428.862C430.686 259.518 439.058 271.694 444.3 277.905C447.516 281.754 451.166 285.217 455.179 288.225H473.468C475.292 304.132 483.672 316.308 488.914 322.519C492.126 326.369 495.777 329.83 499.792 332.831H518.082C519.47 344.933 524.655 354.858 529.354 361.661C531.162 359.966 533.218 358.555 535.451 357.479Z" fill="#0077FF"/>
<path d="M525.592 288.217H518.14V288.143C506.407 288.143 484.281 268.506 480.978 243.603H473.526V243.529C464.734 243.529 450.118 232.511 441.942 216.514C440.192 218.445 438.483 220.458 436.832 222.512C439.006 226.321 441.519 229.926 444.342 233.283C447.56 237.132 451.213 240.594 455.228 243.603H473.509C475.333 259.509 483.714 271.686 488.956 277.897C492.169 281.747 495.82 285.21 499.834 288.217H518.123C519.947 304.123 528.328 316.3 533.561 322.511C536.778 326.359 540.431 329.819 544.448 332.823H553.527C553.247 331.73 552.976 330.604 552.705 329.462C541.334 322.873 528.056 307.056 525.592 288.217Z" fill="#0077FF"/>
<path d="M526.232 202.777C523.981 204.576 521.812 206.195 519.758 207.55C522.47 217.01 527.167 225.782 533.536 233.284C536.756 237.134 540.412 240.597 544.431 243.603H562.712C563.278 248.399 564.434 253.107 566.155 257.62C568.077 255.886 570.09 254.136 572.152 252.362C571.239 249.506 570.579 246.575 570.181 243.603H562.728V243.529C551.596 243.529 531.121 225.856 526.232 202.777Z" fill="#0077FF"/>
<path d="M481.496 202.16C478.961 201.156 476.324 200.428 473.633 199.991C475.687 215.405 483.804 227.203 488.931 233.283C492.148 237.134 495.801 240.597 499.818 243.603H518.099C519.923 259.509 528.303 271.686 533.537 277.897C536.756 281.746 540.409 285.208 544.424 288.217H548.803C548.918 286.36 549.066 284.495 549.271 282.605C538.787 275.063 527.81 260.561 525.567 243.603H518.115V243.529C506.884 243.529 486.154 225.544 481.496 202.16Z" fill="#0077FF"/>
<path d="M570.181 199.02H562.729V198.946C557.339 198.946 549.756 194.797 542.813 187.903C541.028 189.634 539.247 191.332 537.473 192.997C539.642 195.173 541.968 197.185 544.432 199.02H562.713C564.537 214.926 572.917 227.103 578.151 233.314C580.418 236 582.89 238.505 585.546 240.807C587.419 239.164 589.243 237.431 590.977 235.746C581.462 227.777 572.219 214.368 570.181 199.02Z" fill="#0077FF"/>
<path d="M480.954 332.822H473.502V332.748C462.821 332.748 443.406 316.373 437.613 294.551C437.613 294.772 437.671 294.994 437.687 295.216C437.942 299.538 438.607 307.023 439.487 316.061C440.977 318.298 442.59 320.451 444.318 322.51C447.529 326.36 451.18 329.82 455.196 332.822H473.485C475.309 348.736 483.69 360.913 488.932 367.116C492.148 370.966 495.801 374.43 499.818 377.436H516.686C516.719 377.382 516.755 377.329 516.793 377.279C504.789 375.924 484.133 356.821 480.954 332.822Z" fill="#0077FF"/>
<path d="M435.805 288.216C436.142 288.964 436.441 289.729 436.7 290.508C436.569 289.752 436.446 288.98 436.347 288.216H435.805Z" fill="#0077FF"/>
<path d="M480.953 377.437H473.501V377.363C465.128 377.363 451.473 367.372 443.101 352.599C443.61 357.701 444.111 362.713 444.571 367.454C447.716 371.171 451.271 374.52 455.17 377.437H473.451C475.267 393.261 483.565 405.372 488.807 411.624C490.82 410.212 492.718 408.643 494.485 406.933C487.92 399.127 482.465 388.816 480.953 377.437Z" fill="#0077FF"/>
<path d="M459.361 415.928C455.5 413.004 452.018 409.612 448.992 405.831C450.734 411.491 453.7 414.515 459.361 415.928Z" fill="#0077FF"/>
<path d="M521.271 143.225C533.234 146.931 536.709 146.224 534.729 174.735C534.581 176.871 539.872 175.178 539.996 180.059C540.053 182.581 538.435 185.859 534.244 185.588C531.237 197.387 523.563 204.001 508.774 200.558C492.629 196.787 488.176 186.903 490.698 174.677C490.97 173.346 487.026 170.265 490.353 165.886C493.681 161.507 496.105 166.913 496.926 165.228C508.445 143.069 511.477 140.185 521.271 143.225Z" fill="#FFA9A9"/>
<path d="M508.264 157.768C507.196 159.576 507.664 160.422 509.71 160.783C510.975 161.005 512.306 160.553 512.175 158.261C512.126 156.412 509.505 155.64 508.264 157.768Z" fill="#212121"/>
<path d="M527.901 163.001C528.049 165.096 527.26 165.647 525.263 165.063C524.031 164.702 523.037 163.708 524.146 161.703C525.033 160.076 527.72 160.544 527.901 163.001Z" fill="#212121"/>
<path d="M507.557 149.83C510.326 148.08 519.06 146.79 517.967 150.931C517.638 152.196 515.297 152.237 513.481 152.196C511.665 152.155 510.195 152.393 508.313 152.023C506.908 151.744 506.645 150.413 507.557 149.83Z" fill="#2929B2"/>
<path d="M532.642 157.941C529.495 158.056 521.788 154.827 524.623 151.861C525.502 150.941 527.408 151.795 528.895 152.683C530.378 153.571 531.778 154.591 533.077 155.731C534.104 156.668 533.677 157.941 532.642 157.941Z" fill="#2929B2"/>
<path d="M518.567 168.219C519.044 167.398 517.795 167.792 516.571 166.403C515.182 164.834 518.986 158.771 518.214 158.45C517.442 158.13 514.525 163.322 514.246 165.631C513.933 168.425 517.77 169.583 518.567 168.219Z" fill="#FF8481"/>
<path d="M504.287 170.658C501.247 171.931 501.14 183.574 510.778 186.597C520.982 189.793 526.167 179.465 524.507 177.362C523.628 176.237 505.594 170.115 504.287 170.658Z" fill="white"/>
<path d="M599.234 53.0673C600.811 52.1882 593.647 31.7052 596.555 28.4598C597.861 26.9891 599.718 30.4317 600.244 28.8131C601.994 23.3739 603.227 24.7871 605.856 27.2356C612.273 21.4842 620.793 47.7761 620.645 57.8902C620.579 61.7847 605.938 70.3049 607.22 74.2404C616.118 101.609 632.098 126.915 625.451 150.018C620.908 165.835 600.581 200.482 593.868 209.8C579.276 182.587 578.997 150.955 578.997 150.955C578.997 150.955 588.166 140.685 589.588 133.003C591.042 125.132 581.322 77.379 582.029 71.4305C582.251 69.4997 581.15 69.5243 590.171 64.9397C594.115 62.9432 582.193 43.0271 586.885 39.034C590.615 35.8379 597.648 53.9382 599.234 53.0673Z" fill="#FFA9A9"/>
<path d="M398.783 237.078C402.275 237.177 413.704 273.377 418.099 273.681C422.495 273.985 441.105 176.935 441.565 175.473C445.443 163.264 439.502 161.448 439.502 161.448C439.502 161.448 434.351 159.755 430.465 158.646C426.578 157.537 434.688 144.005 433.833 139.437C433.242 136.315 430.3 136.446 428.961 138.615C427.392 141.203 422.248 153.889 420.959 153.774C419.669 153.659 425.173 138.985 423.875 134.326C422.906 130.826 419.669 132.798 418.436 133.16C417.615 133.406 417.984 131.927 417.253 131.056C416.973 130.754 416.627 130.52 416.243 130.371C415.859 130.222 415.446 130.162 415.035 130.196C414.624 130.23 414.227 130.357 413.872 130.567C413.518 130.777 413.216 131.065 412.989 131.409C411.6 133.192 405.594 147.842 404.189 148.507C402.784 149.173 409.25 132.486 404.781 133.184C401.889 133.644 394.921 154.546 397.731 160.635C400.541 166.723 418.658 170.716 417.631 176.41C413.958 196.958 390.025 236.856 398.783 237.078Z" fill="#FFA9A9"/>
<path d="M35.0033 313.078C33.8448 315.748 63.0944 326.914 61.5333 331.704C52.7173 358.653 39.8508 414.088 49.2912 439.772C60.416 470.024 92.3852 456.056 107.717 444.882C123.048 433.708 97.1342 343.001 97.1342 343.001L96.0907 301.337C96.0907 301.337 41.1079 299.069 35.0033 313.078Z" fill="#8024C0"/>
<path d="M96.8865 316.998C99.8526 311.049 100.625 271.423 87.2571 274.044C73.8894 276.665 41.8955 288.833 14.8067 307.007C1.98939 315.593 0.650154 329.314 12.3418 331.36C17.9699 332.346 31.2392 331.894 42.216 332.79C51.6235 333.554 58.0732 339.157 59.6425 337.933C63.0358 335.279 59.8561 314.928 66.4948 312.964C73.1335 311 87.0517 322.823 96.8865 316.998Z" fill="white"/>
<path d="M97.1992 285.965C95.597 278.571 92.5242 273.008 87.2576 274.044C73.898 276.656 50.145 282.95 14.1334 304.756C5.96649 309.686 2.8279 318.518 4.27395 324.434C4.62287 326.093 5.46147 327.61 6.68134 328.788C12.4327 326.397 19.4739 308.149 51.3856 293.27C66.1008 286.401 92.2201 276.435 97.1992 285.965Z" fill="#212121"/>
<path d="M300.912 608.564C301.265 610.684 305.16 631.824 303.04 634.651C300.92 637.477 309.745 665.363 309.745 665.363L334.82 663.251L337.712 641.306L337.992 615.581L300.912 608.564Z" fill="#FFA9A9"/>
<path d="M376.057 608.564C375.704 610.684 371.818 631.824 373.938 634.651C376.057 637.477 367.225 665.363 367.225 665.363L342.157 663.251L339.38 644.354L338.978 615.597L376.057 608.564Z" fill="#FFA9A9"/>
<path d="M317.87 164.119C317.87 164.119 313.869 154.695 314.781 129.923C314.846 128.28 315.044 126.431 316.802 124.993C320.959 121.707 322.75 124.278 325.47 122.923C328.19 121.567 329.742 117.171 334.409 117.352C339.076 117.533 340.645 120.326 342.979 120.129C345.312 119.932 347.276 118.124 350.373 118.322C353.471 118.519 355.245 123.391 357.965 123.588C360.685 123.785 362.895 122.282 365.31 124.722C367.216 126.628 367.036 128.641 367.011 130.252C366.83 140.933 365.926 157.685 362.484 164.612C353.873 182.022 317.87 164.119 317.87 164.119Z" fill="#FF3985"/>
<path d="M181.506 488.33C181.506 488.33 149.389 585.988 143.448 633.453C137.508 680.918 126.975 677.615 126.975 677.615L110.493 642.696C110.493 642.696 104.044 584.189 111.75 535.721C117.502 499.751 132.061 479.104 132.061 463.937C132.061 448.769 181.506 488.33 181.506 488.33Z" fill="#8024C0"/>
<path d="M225.7 212.061C225.7 212.061 190.822 218.132 177.224 217.459C163.627 216.785 137.787 306.777 137.787 306.777C137.729 307.032 88.5799 350.816 75.6969 378.34C68.8364 392.981 60.5379 441.046 85.4659 465.67C91.1433 471.265 94.2244 474.765 100.255 469.564L119.884 454.636C119.884 454.636 112.489 469.367 118.832 475.176C125.175 480.985 158.27 496.752 188.292 493.597C188.292 493.597 215.126 358.851 219.341 349.411C223.556 339.97 248.993 297.172 248.377 268.572C247.761 239.971 225.7 212.061 225.7 212.061Z" fill="#212121"/>
<path d="M132.38 355.613C128.988 355.662 125.607 355.222 122.34 354.307C122.135 354.238 121.965 354.09 121.868 353.896C121.771 353.702 121.755 353.478 121.822 353.272C121.857 353.169 121.911 353.074 121.982 352.992C122.053 352.911 122.14 352.844 122.237 352.796C122.334 352.748 122.439 352.719 122.547 352.712C122.655 352.705 122.763 352.719 122.866 352.754C129.561 354.554 136.63 354.415 143.25 352.354C149.869 350.293 155.768 346.394 160.258 341.112C160.329 341.03 160.416 340.963 160.514 340.914C160.611 340.866 160.717 340.838 160.826 340.831C160.934 340.824 161.043 340.839 161.146 340.874C161.249 340.91 161.343 340.965 161.425 341.038C161.588 341.182 161.687 341.384 161.701 341.602C161.715 341.819 161.642 342.033 161.498 342.196C151.754 353.247 140.366 355.613 132.38 355.613Z" fill="#0077FF"/>
<path d="M70.4149 403.399C70.2408 403.4 70.0711 403.345 69.9301 403.243C69.8425 403.179 69.7683 403.099 69.7118 403.007C69.6553 402.915 69.6176 402.812 69.6008 402.705C69.584 402.598 69.5885 402.489 69.614 402.384C69.6395 402.279 69.6854 402.18 69.7493 402.093C80.6686 387.131 89.6078 379.547 127.263 347.627C144.755 332.781 154.762 303.079 154.861 302.783C154.894 302.68 154.948 302.584 155.019 302.502C155.089 302.419 155.176 302.351 155.273 302.303C155.37 302.254 155.476 302.224 155.584 302.217C155.692 302.209 155.801 302.223 155.904 302.257C156.007 302.292 156.102 302.346 156.184 302.417C156.265 302.488 156.332 302.575 156.38 302.672C156.428 302.769 156.457 302.874 156.464 302.982C156.471 303.09 156.457 303.198 156.422 303.301C156.323 303.605 146.168 333.701 128.323 348.876C90.8239 380.698 81.9093 388.256 71.105 403.062C71.0261 403.17 70.922 403.257 70.8017 403.316C70.6814 403.375 70.5486 403.403 70.4149 403.399Z" fill="#0077FF"/>
<path d="M222.637 196.745C222.637 196.745 282.738 85.7355 289.648 73.6412C296.558 61.547 301.504 40.0205 305.185 38.7059C313.229 35.8302 303.484 61.4648 306.927 61.9824C317.172 63.5189 347.958 52.049 350.546 53.7662C352.379 54.9904 351.426 57.102 350.711 58.2441C350.656 58.3263 350.623 58.4208 350.614 58.5191C350.604 58.6174 350.62 58.7164 350.658 58.8075C350.696 58.8985 350.756 58.9787 350.833 59.0409C350.909 59.1032 351 59.1455 351.097 59.1643C352.453 59.4765 354.589 60.3967 354.466 63.182C354.227 68.6047 338.354 74.5779 332.282 77.6589C332.2 77.6957 332.134 77.7617 332.098 77.844C332.062 77.9264 332.058 78.0192 332.087 78.1044C332.116 78.1896 332.175 78.261 332.254 78.3047C332.332 78.3484 332.424 78.3613 332.512 78.3409C338.46 77.2563 352.559 73.0003 352.609 77.6836C352.658 83.2213 312.547 92.7932 304.002 101.921C294.356 112.208 272.024 206.415 262.814 222.65C255.822 234.966 222.637 196.745 222.637 196.745Z" fill="#FF8481"/>
<path d="M223.795 192.102C223.795 192.102 247.211 193.614 264.054 216.052C265.108 217.487 265.764 219.176 265.955 220.947C266.145 222.717 265.864 224.507 265.139 226.134C260.858 235.935 251.656 257.429 248.386 268.546C248.386 268.546 230.746 216.102 212.358 214.467C193.97 212.832 223.795 192.102 223.795 192.102Z" fill="white"/>
<path d="M188.67 220.102C198.045 231.687 200.994 250.626 201.364 265.883C201.627 277.106 207.994 282.644 223.901 280.738C236.702 279.201 236.825 271.429 234.582 260.814C231.139 244.307 220.844 218.706 210.558 215.386C200.271 212.067 188.67 220.102 188.67 220.102Z" fill="white"/>
<path d="M218.675 204.477C216.358 209.127 217.698 224.434 217.698 234.721C217.698 245.007 215.709 251.309 208.405 249.65C201.101 247.99 193.616 221.312 185.334 217.409C185.334 217.409 189.114 204.756 184.825 200.821C180.536 196.885 218.675 204.477 218.675 204.477Z" fill="#FF8481"/>
<path d="M185.655 144.85C183.247 145.573 157.284 139.986 153.086 161.472C148.887 182.957 153.258 205.839 187.84 202.939C222.422 200.039 240.054 173.73 225.783 149.221C211.511 124.712 187.339 144.349 185.655 144.85Z" fill="#212121"/>
<path d="M214.256 208.1L214.839 207.878C203.337 211.879 196.435 209.053 194.299 208.33C192.582 207.747 192.467 210.203 196.616 214.131C204.117 221.229 214.807 219.479 217.978 206.103C217.066 206.202 214.544 208.519 214.256 208.1Z" fill="#E85353"/>
<path d="M190.191 156.684C197.125 154.219 202.277 151.631 218.652 175.056C219.473 176.206 221.478 173.577 224.313 175.746C226.276 177.249 226.515 180.947 224.214 184.471C226.498 195.21 221.963 206.203 211.068 209.991C201.956 213.154 189.065 208.816 184.645 200.131C184.029 198.915 177.25 198.628 177.48 193.131C177.71 187.635 184.185 189.442 183.84 187.577C179.69 165.245 182.813 159.297 190.191 156.684Z" fill="#FF8481"/>
<path d="M188.843 175.037C189.007 177.132 189.87 177.559 191.759 176.68C192.918 176.138 193.756 175.037 192.359 173.188C191.234 171.709 188.646 172.58 188.843 175.037Z" fill="#212121"/>
<path d="M207.378 167.872C208.627 169.417 208.314 170.272 206.449 170.896C205.299 171.282 203.985 171.052 203.763 168.9C203.574 167.158 205.907 166.065 207.378 167.872Z" fill="#212121"/>
<path d="M183.847 170.487C185.113 167.463 190.42 162.271 191.653 164.735C192.113 165.96 190.7 166.601 189.188 167.611C187.676 168.622 186.312 170.076 185.08 171.284C183.798 171.908 183.428 171.489 183.847 170.487Z" fill="#212121"/>
<path d="M208.085 160.365C204.848 160.644 198.173 161.86 198.398 160.365C198.587 159.108 200.641 158.722 202.383 158.615C204.105 158.494 205.835 158.53 207.551 158.722C208.939 158.878 208.907 159.74 208.085 160.365Z" fill="#212121"/>
<path d="M201.167 180.017C200.394 179.483 201.618 179.138 202.153 177.364C202.752 175.351 199.302 173.814 199.86 173.198C200.419 172.582 202.744 173.88 203.968 175.86C205.456 178.251 202.465 180.946 201.167 180.017Z" fill="#E85353"/>
<path d="M204.207 184.699C198.702 187.074 194.068 186.515 193.452 187.903C192.006 191.19 200.387 201.567 209.992 197.574C220.155 193.351 216.63 180.583 213.845 179.843C212.366 179.457 210.953 181.766 204.207 184.699Z" fill="white"/>
<path d="M125.241 151.366C114.626 173.27 143.498 188.199 155.773 168.291C167.423 149.369 134.32 132.608 125.241 151.366Z" fill="#212121"/>
<path d="M202.622 116.037C191.998 137.941 220.878 152.87 233.153 132.962C244.795 114.073 211.734 97.32 202.622 116.037Z" fill="#212121"/>
<path d="M177.225 217.458C160.102 213.457 148.025 218.789 118.816 266.575L117.493 294.452L135.487 286.951C135.487 286.951 167.941 302.858 173.7 302.373C183.231 289.276 208.446 224.763 177.225 217.458Z" fill="white"/>
<path d="M136.892 273.263C146.809 278.193 176.568 299.333 173.528 302.841C170.488 306.35 141.846 290.517 141.846 290.517L136.892 273.263Z" fill="#0077FF"/>
<path d="M136.242 272.695C136.242 272.695 159.42 286.662 165.106 293.235C165.106 293.235 144.565 350.33 124.518 337.562C104.47 324.794 110.838 286.465 110.838 286.465L136.242 272.695Z" fill="#FF8481"/>
<path d="M165.106 293.254C159.42 286.681 136.242 272.713 136.242 272.713L135.634 273.05L133.893 278.933C139.521 281.176 156.076 299.334 158.541 308.692C162.616 300.188 165.106 293.254 165.106 293.254Z" fill="#E85353"/>
<path d="M117.181 280.255C116.359 271.356 127.27 244.235 130.655 243.282C137.664 241.392 140.087 296.687 130.926 300.162C121.765 303.638 117.181 280.255 117.181 280.255Z" fill="#8024C0"/>
<path d="M159.429 359.368C159.235 359.369 159.044 359.324 158.872 359.237C158.699 359.149 158.549 359.023 158.435 358.866C127.731 317.169 114.634 272.029 109.055 241.498C103.008 208.419 104.233 184.855 104.249 184.617C104.268 184.292 104.415 183.987 104.659 183.77C104.902 183.553 105.221 183.441 105.547 183.459C105.709 183.467 105.867 183.507 106.013 183.577C106.159 183.647 106.289 183.745 106.397 183.866C106.505 183.987 106.588 184.128 106.64 184.281C106.693 184.433 106.716 184.595 106.706 184.757C106.706 184.987 105.481 208.321 111.496 241.128C117.033 271.38 130.015 316.109 160.415 357.404C160.511 357.534 160.581 357.683 160.619 357.84C160.658 357.997 160.666 358.161 160.641 358.321C160.617 358.481 160.561 358.635 160.477 358.774C160.393 358.913 160.283 359.033 160.152 359.129C159.942 359.282 159.689 359.365 159.429 359.368Z" fill="#8024C0"/>
<path d="M146.217 351.842C145.95 351.843 145.69 351.757 145.477 351.597C145.263 351.437 145.107 351.211 145.034 350.955C118.414 259.607 72.4767 191.322 72.0166 190.64C71.9248 190.507 71.8602 190.357 71.8266 190.199C71.793 190.041 71.791 189.878 71.8208 189.719C71.8506 189.56 71.9116 189.408 72.0002 189.273C72.0888 189.138 72.2033 189.022 72.3371 188.931C72.6077 188.747 72.9401 188.678 73.2617 188.738C73.5833 188.798 73.8682 188.982 74.0543 189.252C74.5145 189.933 120.665 258.531 147.4 350.289C147.492 350.601 147.458 350.936 147.304 351.222C147.15 351.508 146.889 351.722 146.579 351.817C146.46 351.843 146.338 351.851 146.217 351.842Z" fill="#8024C0"/>
<path d="M131.059 309.166C130.833 309.165 130.613 309.103 130.42 308.985C130.227 308.868 130.071 308.701 129.966 308.501C105.983 262.49 67.8763 232.575 67.523 232.279C67.2666 232.078 67.1002 231.784 67.0601 231.461C67.0201 231.137 67.1097 230.811 67.3094 230.554C67.5091 230.296 67.8029 230.128 68.1263 230.086C68.4497 230.045 68.7763 230.133 69.0347 230.332C69.4209 230.636 107.947 260.888 132.185 307.359C132.33 307.646 132.357 307.979 132.26 308.286C132.164 308.593 131.951 308.85 131.667 309.002C131.481 309.105 131.272 309.162 131.059 309.166Z" fill="#8024C0"/>
<path d="M91.5787 232.468C97.4862 226.783 129.11 291.379 119.284 298.198C109.457 305.017 81.6782 241.991 91.5787 232.468Z" fill="#8024C0"/>
<path d="M126.013 195.586C134.073 194.107 124.288 270.822 112.325 271.085C100.362 271.348 112.506 198.059 126.013 195.586Z" fill="#8024C0"/>
<path d="M94.9074 263.255C91.9167 263.591 88.4165 269.343 100.084 290.212C107.018 302.61 116.22 306.324 122.752 304.722C131.395 302.602 138.7 296.267 135.651 294.492C133.293 293.12 124.461 297.294 123.081 295.914C120.501 293.334 139.513 281.733 138.576 276.672C138.397 275.419 137.733 274.286 136.728 273.517C136.728 273.517 139.193 271.446 136.539 268.464C133.885 265.481 116.746 279.145 115.752 276.515C114.758 273.886 127.419 263.501 123.968 260.412C119.26 256.164 103.271 279.186 100.856 275.866C98.6211 272.761 94.9074 263.255 94.9074 263.255Z" fill="#FF8481"/>
<path d="M142.585 625.048C150.234 622.041 159.93 643.124 174.07 654.553C190.666 667.937 199.795 669.67 210.476 677.919C212.394 679.403 213.709 681.532 214.177 683.912C214.646 686.291 214.235 688.76 213.023 690.86C210.467 695.272 205.948 699.799 198.168 699.799H112.029C103.739 699.799 101.521 634.201 109.121 634.201C116.721 634.201 120.853 660.444 129.143 656.294C137.434 652.145 128.963 630.372 142.585 625.048Z" fill="white"/>
<path d="M372.253 625.911C377.922 623.569 389.277 635.491 405.562 648.094C422.766 661.363 442.189 674.526 442.189 674.526C442.189 674.526 437.26 699.832 422.068 699.832H338.033C329.742 699.832 333.604 643.962 339.224 634.291C346.824 634.291 353.602 660.476 361.893 656.327C370.183 652.178 358.729 631.514 372.253 625.911Z" fill="#212121"/>
<path d="M305.397 625.91C296.491 622.928 293.894 629.337 274.307 647.075C261.769 658.406 249.198 669.07 240.62 674.493C236.915 686.743 248.837 699.799 259.707 699.799H341.548C349.838 699.799 340.875 641.603 337.867 634.34C330.267 634.34 324.007 660.443 315.725 656.294C307.443 652.145 319.291 630.569 305.397 625.91Z" fill="#212121"/>
<path d="M407.106 364.01C406.433 384.131 387.609 608.655 376.238 614.242C371.957 616.346 354.925 618.013 338.583 616.477C318.322 620.224 297.921 616.748 294.996 609.773C287.783 571.025 270.43 407.605 277.159 389.373C283.888 371.141 407.106 364.01 407.106 364.01Z" fill="#212121"/>
<path d="M324.039 196.424C324.039 196.424 291.257 201.805 273.921 221.894C261.925 235.862 250.094 249.008 244.441 287.221C239.98 317.177 256.313 328.491 282.498 331.942C282.498 331.942 268.284 360.855 278.39 379.818C296.416 382.725 314.618 384.403 332.872 384.838C364.915 385.602 390.385 381.124 397.049 376.548C403.712 371.971 399.571 334.694 399.571 334.694C399.571 334.694 429.149 335.598 439.641 305.519C450.133 275.439 412.585 228.475 404.098 221.286C374.331 196.046 353.174 197.377 353.174 197.377L324.039 196.424Z" fill="#8024C0"/>
<path d="M291.151 371.281H291.052C287.938 370.895 286.123 370.624 286.123 370.616C286.016 370.6 285.913 370.563 285.82 370.507C285.728 370.451 285.647 370.378 285.583 370.291C285.519 370.204 285.473 370.105 285.447 370C285.421 369.895 285.416 369.786 285.432 369.679C285.467 369.465 285.584 369.273 285.76 369.145C285.935 369.017 286.154 368.964 286.369 368.997C286.369 368.997 288.144 369.269 291.225 369.646C291.332 369.66 291.436 369.694 291.53 369.747C291.624 369.801 291.707 369.872 291.773 369.958C291.84 370.043 291.889 370.141 291.917 370.246C291.946 370.35 291.953 370.459 291.94 370.567C291.914 370.76 291.821 370.938 291.677 371.069C291.532 371.2 291.346 371.275 291.151 371.281Z" fill="#0077FF"/>
<path d="M338.641 374.24H337.498C337.281 374.24 337.072 374.153 336.918 373.999C336.763 373.845 336.677 373.636 336.677 373.418C336.677 373.2 336.763 372.991 336.918 372.837C337.072 372.683 337.281 372.596 337.498 372.596H338.641C341.607 372.596 344.564 372.555 347.432 372.481C347.65 372.481 347.859 372.568 348.013 372.722C348.167 372.876 348.254 373.085 348.254 373.303C348.254 373.521 348.167 373.73 348.013 373.884C347.859 374.038 347.65 374.125 347.432 374.125C344.597 374.199 341.623 374.24 338.641 374.24ZM333.349 374.199C330.063 374.149 326.776 374.051 323.375 373.911C323.157 373.911 322.948 373.824 322.794 373.67C322.64 373.516 322.553 373.307 322.553 373.089C322.564 372.879 322.655 372.68 322.808 372.535C322.961 372.39 323.164 372.309 323.375 372.309C326.719 372.44 330.063 372.539 333.308 372.588C333.526 372.588 333.735 372.675 333.889 372.829C334.043 372.983 334.13 373.192 334.13 373.41C334.122 373.618 334.035 373.815 333.887 373.961C333.739 374.108 333.541 374.193 333.333 374.199H333.349ZM351.597 373.977C351.386 373.977 351.184 373.896 351.031 373.751C350.878 373.606 350.786 373.407 350.776 373.196C350.776 372.978 350.862 372.769 351.017 372.615C351.171 372.461 351.38 372.375 351.597 372.375C354.966 372.235 358.302 372.038 361.506 371.791C361.614 371.782 361.723 371.795 361.826 371.828C361.929 371.861 362.025 371.914 362.107 371.985C362.19 372.055 362.257 372.141 362.307 372.237C362.356 372.334 362.385 372.439 362.394 372.547C362.409 372.764 362.339 372.978 362.197 373.143C362.056 373.308 361.854 373.409 361.638 373.426C358.409 373.681 355.065 373.878 351.663 374.01L351.597 373.977ZM319.25 373.722C315.964 373.55 312.612 373.336 309.292 373.081C309.076 373.064 308.875 372.962 308.733 372.798C308.591 372.633 308.521 372.419 308.536 372.202C308.553 371.985 308.655 371.784 308.82 371.643C308.985 371.501 309.199 371.43 309.416 371.446C312.702 371.693 316.062 371.906 319.341 372.079C319.557 372.092 319.76 372.189 319.905 372.351C320.049 372.513 320.124 372.725 320.113 372.942C320.108 373.049 320.081 373.155 320.035 373.253C319.989 373.351 319.924 373.438 319.844 373.511C319.764 373.583 319.67 373.639 319.568 373.676C319.466 373.712 319.358 373.728 319.25 373.722ZM365.672 373.04C365.467 373.041 365.27 372.966 365.118 372.829C364.966 372.693 364.871 372.504 364.85 372.301C364.83 372.084 364.896 371.868 365.035 371.7C365.173 371.532 365.373 371.426 365.59 371.405C368.967 371.085 372.278 370.699 375.449 370.255C375.665 370.224 375.884 370.281 376.058 370.412C376.232 370.543 376.347 370.738 376.378 370.953C376.408 371.169 376.352 371.388 376.221 371.562C376.09 371.736 375.895 371.851 375.679 371.882C372.491 372.325 369.155 372.703 365.754 373.04H365.672ZM305.176 372.744H305.11C301.742 372.457 298.398 372.12 295.177 371.758C294.962 371.734 294.765 371.625 294.629 371.455C294.494 371.286 294.431 371.07 294.454 370.855C294.479 370.639 294.588 370.442 294.757 370.307C294.926 370.172 295.142 370.109 295.358 370.132C298.57 370.485 301.931 370.822 305.217 371.109C305.434 371.128 305.634 371.232 305.774 371.399C305.914 371.565 305.983 371.78 305.965 371.997C305.947 372.196 305.857 372.382 305.712 372.52C305.566 372.657 305.376 372.737 305.176 372.744ZM379.664 371.265C379.467 371.268 379.276 371.2 379.125 371.073C378.974 370.946 378.874 370.77 378.842 370.575C378.807 370.361 378.858 370.141 378.984 369.964C379.11 369.787 379.302 369.667 379.516 369.63C382.877 369.088 386.147 368.456 389.244 367.757C389.349 367.733 389.458 367.73 389.565 367.747C389.671 367.765 389.773 367.804 389.865 367.861C389.956 367.918 390.036 367.993 390.098 368.081C390.161 368.169 390.206 368.268 390.23 368.373C390.254 368.479 390.257 368.589 390.239 368.696C390.221 368.803 390.181 368.905 390.123 368.997C390.065 369.088 389.99 369.167 389.901 369.23C389.812 369.292 389.712 369.336 389.606 369.359C386.475 370.066 383.172 370.699 379.746 371.257L379.664 371.265Z" fill="#0077FF"/>
<path d="M393.475 368.406C393.288 368.412 393.105 368.354 392.956 368.242C392.807 368.13 392.7 367.971 392.653 367.79C392.626 367.685 392.62 367.576 392.635 367.469C392.65 367.362 392.686 367.259 392.741 367.166C392.796 367.073 392.869 366.991 392.955 366.926C393.042 366.861 393.14 366.814 393.245 366.787C394.888 366.377 396.449 365.966 397.969 365.481C398.073 365.449 398.183 365.439 398.291 365.45C398.399 365.461 398.504 365.494 398.599 365.546C398.695 365.598 398.779 365.668 398.847 365.753C398.915 365.838 398.966 365.935 398.996 366.04C399.058 366.248 399.034 366.472 398.931 366.663C398.828 366.853 398.653 366.996 398.446 367.058C396.893 367.519 395.283 367.962 393.656 368.381C393.597 368.396 393.536 368.404 393.475 368.406Z" fill="#0077FF"/>
<path d="M323.959 177.537C326.243 183.748 319.029 195.661 321.338 199.589C323.647 203.516 333.761 208.06 342.265 208.06C350.768 208.06 360.25 201.487 360.25 197.929C360.25 194.372 355.994 191.249 356.963 173.281C357.933 155.312 323.959 177.537 323.959 177.537Z" fill="#FFA9A9"/>
<path d="M356.889 180.214C354.72 180.658 351.68 182.942 351.68 182.942L330.186 189.071C329.233 189.071 325.873 189.071 331.008 194.757C337.154 201.511 351.335 200.78 357.3 187.51V187.453C357.103 185.292 356.938 182.893 356.889 180.214Z" fill="#FF8481"/>
<path d="M339.815 134.704C348.944 134.704 355.533 134.113 360.085 162.327C360.43 164.439 366.041 161.103 367.274 165.836C367.411 166.649 367.384 167.481 367.196 168.284C367.008 169.087 366.661 169.845 366.177 170.512C365.693 171.18 365.081 171.744 364.376 172.173C363.671 172.602 362.889 172.885 362.073 173.008C361.835 185.185 355.837 193.376 340.711 193.376C324.122 193.376 317.541 184.757 317.221 172.285C317.221 170.921 310.878 169.278 313.113 164.258C315.348 159.238 320.006 163.823 320.507 161.982C326.612 137.794 329.562 134.704 339.815 134.704Z" fill="#FFA9A9"/>
<path d="M330.252 152.288C329.628 154.293 330.252 155.008 332.348 154.893C333.621 154.819 334.812 154.071 334.204 151.869C333.703 150.086 330.975 149.93 330.252 152.288Z" fill="#212121"/>
<path d="M350.767 152.459C351.384 154.464 350.767 155.187 348.664 155.064C347.39 154.998 346.199 154.242 346.807 152.048C347.3 150.257 350.036 150.109 350.767 152.459Z" fill="#212121"/>
<path d="M325.938 146.083C328.23 143.75 336.413 140.521 336.323 144.793C336.323 146.1 334.023 146.675 332.215 147.045C330.407 147.414 329.052 147.989 327.145 148.047C325.765 148.08 325.206 146.856 325.938 146.083Z" fill="#FF3985"/>
<path d="M354.161 147.539C351.129 148.36 342.888 146.972 344.975 143.431C345.616 142.338 347.67 142.732 349.321 143.291C350.969 143.812 352.564 144.486 354.087 145.304C355.303 145.961 355.163 147.259 354.161 147.539Z" fill="#FF3985"/>
<path d="M339.676 161.612C339.397 160.716 340.498 161.374 342.026 160.297C343.743 159.081 341.952 155.154 342.766 155.014C343.579 154.875 344.705 157.75 344.409 160.067C344.146 162.869 340.145 163.124 339.676 161.612Z" fill="#FF8481"/>
<path d="M286.336 311.181C286.706 307.171 297.436 306.941 300.353 306.941C303.269 306.941 335.025 306.457 335.025 306.457C335.025 306.457 339.355 308.223 334.138 311.961C327.614 316.645 310.056 320.728 299.219 318.723C276.969 314.632 286.336 311.181 286.336 311.181Z" fill="#FFA9A9"/>
<path d="M401.724 311.179C401.354 307.17 394.33 304.237 391.454 304.237H354.958C354.958 304.237 347.563 315.895 387.822 319.847C410.326 322.025 401.724 311.179 401.724 311.179Z" fill="#FFA9A9"/>
<path d="M359.354 307.294L354.424 306.727C354.679 310.227 358.934 316.504 384.437 319.47C382.909 317.589 380.551 315.247 377.939 314.541C373.403 313.407 359.879 309.636 359.354 307.294Z" fill="#FF8481"/>
<path d="M290.543 223.874H384.799C386.542 223.874 388.214 224.566 389.447 225.799C390.679 227.031 391.372 228.703 391.372 230.447V287.902H283.953V230.471C283.95 229.605 284.118 228.746 284.448 227.944C284.778 227.143 285.263 226.415 285.875 225.802C286.488 225.188 287.215 224.702 288.016 224.371C288.817 224.041 289.676 223.871 290.543 223.874Z" fill="#212121"/>
<path d="M336.786 272.22C330.498 272.22 327.337 272.22 325.383 270.277C323.406 268.322 323.406 265.162 323.406 258.852V257.69C323.406 251.381 323.406 248.22 325.383 246.266C327.337 244.3 330.498 244.3 336.786 244.3H337.947C344.257 244.3 347.395 244.3 349.372 246.266C351.326 248.231 351.326 251.381 351.326 257.69V258.852C351.326 265.162 351.326 268.322 349.372 270.277C347.395 272.22 344.257 272.22 337.947 272.22H336.786Z" fill="#0077FF"/>
<path d="M338.74 264.436V260.281C341.029 260.516 342.738 262.225 343.442 264.436H346.747C345.854 261.13 343.531 259.299 342.079 258.606C343.52 257.746 345.564 255.647 346.044 252.81H343.04C342.414 255.122 340.538 257.21 338.74 257.411V252.799H335.691V260.851C333.837 260.382 331.414 258.126 331.302 252.799H328.119C328.264 260.058 332.084 264.425 338.383 264.425L338.74 264.436Z" fill="white"/>
<path d="M277.907 303.828C267.521 303.491 269.863 312.537 269.863 323.596V430.135C269.863 437.834 285.942 427.12 287.289 417.737C288.637 408.354 284.085 314.139 287.758 309.916C291.135 306.046 392.481 307.057 395.152 309.604C398.561 312.89 396.088 400.984 396.425 410.367C396.762 419.75 406.104 433.816 410.171 433.816C414.238 433.816 415.602 419.701 415.602 408.691C415.602 367.166 414.928 342.477 414.928 317.08C414.928 307.747 412.981 304.345 403.171 304.345C381.094 304.345 277.907 303.828 277.907 303.828Z" fill="white"/>
<path d="M287.454 392.963C282.27 397.154 280.676 396.25 278.17 396.562C275.952 396.841 273.24 409.872 269.863 413.085V425.935C280.117 423.248 277.439 409.346 282.007 409.65C283.993 409.703 285.945 409.128 287.586 408.007C287.594 403.899 287.545 398.748 287.454 392.963Z" fill="#2929B2"/>
<path d="M405.504 398.133C401.61 397.484 398.307 394.025 396.532 390.862C396.467 396.432 396.417 401.206 396.393 404.723C397.871 404.821 399.449 404.928 400.788 405.043C404.559 405.355 405.192 410.071 409.588 413.843C411.201 415.307 413.194 416.286 415.339 416.669C415.503 413.99 415.586 411.254 415.586 408.691C415.586 407.82 415.586 406.974 415.586 406.128C411.1 405.027 410.565 398.971 405.504 398.133Z" fill="#2929B2"/>
<path d="M270.363 439.585C270.254 439.585 270.15 439.541 270.073 439.464C269.995 439.387 269.952 439.283 269.952 439.174V430.292C269.952 430.183 269.995 430.078 270.073 430.001C270.15 429.924 270.254 429.881 270.363 429.881C270.472 429.881 270.576 429.924 270.653 430.001C270.731 430.078 270.774 430.183 270.774 430.292V439.174C270.774 439.283 270.731 439.387 270.653 439.464C270.576 439.541 270.472 439.585 270.363 439.585Z" fill="white"/>
<path d="M286.123 429.715C286.014 429.715 285.909 429.671 285.832 429.594C285.755 429.517 285.712 429.413 285.712 429.304V420.422C285.712 420.313 285.755 420.209 285.832 420.132C285.909 420.055 286.014 420.011 286.123 420.011C286.232 420.011 286.336 420.055 286.413 420.132C286.49 420.209 286.534 420.313 286.534 420.422V429.304C286.534 429.413 286.49 429.517 286.413 429.594C286.336 429.671 286.232 429.715 286.123 429.715Z" fill="white"/>
<path d="M284.471 432.362C284.362 432.362 284.258 432.318 284.181 432.241C284.104 432.164 284.061 432.06 284.061 431.951V423.028C284.061 422.919 284.104 422.815 284.181 422.737C284.258 422.66 284.362 422.617 284.471 422.617C284.58 422.617 284.685 422.66 284.762 422.737C284.839 422.815 284.882 422.919 284.882 423.028V431.91C284.887 431.967 284.879 432.024 284.861 432.078C284.842 432.132 284.813 432.182 284.774 432.224C284.736 432.267 284.689 432.301 284.637 432.324C284.585 432.348 284.529 432.361 284.471 432.362Z" fill="white"/>
<path d="M282.26 435.081C282.151 435.081 282.047 435.038 281.97 434.961C281.893 434.884 281.85 434.779 281.85 434.67V425.789C281.85 425.68 281.893 425.575 281.97 425.498C282.047 425.421 282.151 425.378 282.26 425.378C282.369 425.378 282.474 425.421 282.551 425.498C282.628 425.575 282.671 425.68 282.671 425.789V434.67C282.671 434.779 282.628 434.884 282.551 434.961C282.474 435.038 282.369 435.081 282.26 435.081Z" fill="white"/>
<path d="M279.928 437.349C279.82 437.347 279.717 437.303 279.64 437.226C279.564 437.149 279.52 437.046 279.518 436.938V428.056C279.518 427.947 279.561 427.843 279.638 427.766C279.715 427.689 279.819 427.645 279.928 427.645C280.037 427.645 280.142 427.689 280.219 427.766C280.296 427.843 280.339 427.947 280.339 428.056V436.938C280.339 437.047 280.296 437.151 280.219 437.228C280.142 437.305 280.037 437.349 279.928 437.349Z" fill="white"/>
<path d="M273.487 441.464C273.378 441.464 273.273 441.42 273.196 441.343C273.119 441.266 273.076 441.162 273.076 441.053V432.171C273.076 432.062 273.119 431.958 273.196 431.881C273.273 431.804 273.378 431.76 273.487 431.76C273.596 431.76 273.7 431.804 273.777 431.881C273.854 431.958 273.898 432.062 273.898 432.171V441.053C273.898 441.162 273.854 441.266 273.777 441.343C273.7 441.42 273.596 441.464 273.487 441.464Z" fill="white"/>
<path d="M276.28 440.216C276.172 440.214 276.068 440.17 275.992 440.094C275.915 440.017 275.871 439.914 275.869 439.805V430.924C275.869 430.815 275.912 430.71 275.989 430.633C276.066 430.556 276.171 430.513 276.28 430.513C276.389 430.513 276.493 430.556 276.57 430.633C276.647 430.71 276.691 430.815 276.691 430.924V439.805C276.691 439.914 276.647 440.019 276.57 440.096C276.493 440.173 276.389 440.216 276.28 440.216Z" fill="white"/>
<path d="M277.84 439.41C277.732 439.41 277.627 439.366 277.55 439.289C277.473 439.212 277.43 439.108 277.43 438.999V430.117C277.43 430.008 277.473 429.904 277.55 429.827C277.627 429.75 277.732 429.706 277.84 429.706C277.949 429.708 278.052 429.752 278.129 429.829C278.205 429.906 278.249 430.009 278.251 430.117V438.999C278.251 439.108 278.208 439.212 278.131 439.289C278.054 439.366 277.949 439.41 277.84 439.41Z" fill="white"/>
<path d="M413.54 436.215C413.431 436.215 413.326 436.172 413.249 436.095C413.172 436.018 413.129 435.913 413.129 435.804V426.923C413.129 426.814 413.172 426.709 413.249 426.632C413.326 426.555 413.431 426.512 413.54 426.512C413.649 426.512 413.753 426.555 413.83 426.632C413.907 426.709 413.951 426.814 413.951 426.923V435.804C413.948 435.913 413.904 436.016 413.828 436.092C413.751 436.169 413.648 436.213 413.54 436.215Z" fill="white"/>
<path d="M397.772 426.338C397.663 426.338 397.559 426.295 397.482 426.218C397.405 426.14 397.361 426.036 397.361 425.927V417.045C397.363 416.937 397.407 416.834 397.484 416.757C397.561 416.681 397.664 416.637 397.772 416.635C397.881 416.635 397.986 416.678 398.063 416.755C398.14 416.832 398.183 416.936 398.183 417.045V425.927C398.183 426.036 398.14 426.14 398.063 426.218C397.986 426.295 397.881 426.338 397.772 426.338Z" fill="white"/>
<path d="M399.432 428.944C399.323 428.944 399.219 428.901 399.142 428.824C399.065 428.747 399.021 428.642 399.021 428.533V419.652C399.021 419.543 399.065 419.438 399.142 419.361C399.219 419.284 399.323 419.241 399.432 419.241C399.541 419.243 399.644 419.287 399.721 419.363C399.797 419.44 399.841 419.543 399.843 419.652V428.533C399.843 428.642 399.8 428.747 399.723 428.824C399.646 428.901 399.541 428.944 399.432 428.944Z" fill="white"/>
<path d="M401.634 431.705C401.525 431.705 401.421 431.662 401.344 431.585C401.267 431.507 401.224 431.403 401.224 431.294V422.412C401.224 422.303 401.267 422.199 401.344 422.122C401.421 422.045 401.525 422.001 401.634 422.001C401.743 422.001 401.848 422.045 401.925 422.122C402.002 422.199 402.045 422.303 402.045 422.412V431.294C402.045 431.403 402.002 431.507 401.925 431.585C401.848 431.662 401.743 431.705 401.634 431.705Z" fill="white"/>
<path d="M403.992 434.005C403.883 434.005 403.778 433.962 403.701 433.885C403.624 433.808 403.581 433.703 403.581 433.594V424.68C403.583 424.572 403.627 424.468 403.704 424.392C403.78 424.315 403.884 424.271 403.992 424.269C404.101 424.269 404.205 424.312 404.282 424.389C404.359 424.466 404.403 424.571 404.403 424.68V433.562C404.407 433.618 404.4 433.675 404.381 433.729C404.363 433.783 404.333 433.832 404.295 433.874C404.256 433.915 404.209 433.948 404.157 433.971C404.105 433.994 404.049 434.005 403.992 434.005Z" fill="white"/>
<path d="M410.417 438.112C410.308 438.112 410.203 438.069 410.126 437.991C410.049 437.914 410.006 437.81 410.006 437.701V428.795C410.006 428.686 410.049 428.581 410.126 428.504C410.203 428.427 410.308 428.384 410.417 428.384C410.525 428.386 410.628 428.43 410.705 428.506C410.782 428.583 410.825 428.686 410.827 428.795V437.685C410.829 437.74 410.819 437.794 410.799 437.846C410.779 437.897 410.749 437.944 410.711 437.983C410.672 438.023 410.627 438.055 410.576 438.077C410.526 438.099 410.472 438.111 410.417 438.112Z" fill="white"/>
<path d="M407.616 436.84C407.507 436.84 407.402 436.797 407.325 436.72C407.248 436.642 407.205 436.538 407.205 436.429V427.547C407.205 427.438 407.248 427.334 407.325 427.257C407.402 427.18 407.507 427.136 407.616 427.136C407.725 427.136 407.829 427.18 407.906 427.257C407.983 427.334 408.027 427.438 408.027 427.547V436.47C408.017 436.572 407.969 436.666 407.893 436.734C407.817 436.803 407.718 436.84 407.616 436.84Z" fill="white"/>
<path d="M406.063 436.042C405.954 436.042 405.85 435.999 405.773 435.922C405.696 435.845 405.652 435.74 405.652 435.631V426.75C405.652 426.641 405.696 426.536 405.773 426.459C405.85 426.382 405.954 426.339 406.063 426.339C406.172 426.339 406.277 426.382 406.354 426.459C406.431 426.536 406.474 426.641 406.474 426.75V435.648C406.47 435.754 406.425 435.854 406.348 435.928C406.271 436.001 406.169 436.042 406.063 436.042Z" fill="white"/>
<path d="M97.1421 143.242C85.9106 145.312 78.7789 156.659 84.0866 171.514C89.0163 185.284 100.437 189.819 108.234 187.642C116.031 185.465 122.202 174.34 120.558 160.529C118.915 146.717 109.146 141.04 97.1421 143.242Z" fill="#FF3985"/>
<path d="M50.9097 160.561C39.596 168.153 45.3967 180.871 50.0881 186.031C54.7796 191.191 66.3808 194.773 73.0935 189.958C79.8061 185.144 78.2368 172.63 74.901 166.46C71.5652 160.29 62.1988 153.01 50.9097 160.561Z" fill="#FF3985"/>
<path d="M45.9549 217.342C38.1331 232.682 44.6814 243.001 53.3495 245.359C62.0176 247.718 68.7713 241.194 72.0578 235.171C75.3443 229.149 75.5825 215.839 68.5495 210.777C61.5164 205.716 51.1722 207.097 45.9549 217.342Z" fill="#FF3985"/>
<path d="M65.7885 209.152C59.0183 206.17 50.5227 208.38 45.9545 217.368C40.8112 227.45 41.8465 235.37 45.6834 240.275C53.9818 233.645 64.5478 218.486 65.7885 209.152Z" fill="white"/>
<path d="M272.032 297.27H402.809V300.712C402.809 301.671 402.429 302.591 401.751 303.269C401.073 303.947 400.153 304.327 399.194 304.327H275.647C274.689 304.327 273.769 303.947 273.091 303.269C272.413 302.591 272.032 301.671 272.032 300.712V297.245V297.27Z" fill="#212121"/>
<path d="M284.303 286.579L272.007 297.268L273.085 298.508L285.381 287.819L284.303 286.579Z" fill="#212121"/>
<path d="M390.924 286.631L389.832 287.859L401.752 298.453L402.844 297.225L390.924 286.631Z" fill="#212121"/>
<path d="M372.434 291.888H303.377V293.531H372.434V291.888Z" fill="#212121"/>
<path d="M317.237 286.381L311.289 297.427L312.736 298.206L318.684 287.16L317.237 286.381Z" fill="#212121"/>
<path d="M359.312 286.736L357.813 287.409L362.601 298.067L364.1 297.393L359.312 286.736Z" fill="#212121"/>
<path d="M307.074 286.311L298.168 297.547L299.456 298.568L308.361 287.332L307.074 286.311Z" fill="#212121"/>
<path d="M337.678 286.556L337.121 297.938L338.762 298.019L339.319 286.636L337.678 286.556Z" fill="#212121"/>
<path d="M349.444 287.112L347.832 287.432L349.936 298.021L351.548 297.701L349.444 287.112Z" fill="#212121"/>
<path d="M327.259 286.369L324.568 298.043L326.17 298.412L328.86 286.739L327.259 286.369Z" fill="#212121"/>
<path d="M369.369 286.668L368.045 287.641L375.808 298.209L377.132 297.236L369.369 286.668Z" fill="#212121"/>
<path d="M340.127 232.092C341.025 232.092 341.754 231.363 341.754 230.465C341.754 229.566 341.025 228.838 340.127 228.838C339.228 228.838 338.5 229.566 338.5 230.465C338.5 231.363 339.228 232.092 340.127 232.092Z" fill="#8024C0"/>
<path d="M341.212 166.879C334.491 167.084 329.931 164.866 328.707 165.934C325.84 168.399 330.145 181.199 341.787 180.986C354.112 180.764 355.82 167.593 353.29 165.893C351.877 164.981 349.428 166.632 341.212 166.879Z" fill="white"/>
<path d="M315.414 318.304C321.165 315.585 326.982 312.84 331.238 311.896L335.486 310.951C335.486 310.951 337.852 312.528 334.854 314.237C331.855 315.946 321.979 318.156 315.414 318.304Z" fill="#FF8481"/>
<path d="M324 609.313C309.917 609.313 293.986 605.435 290.453 602.067L291.587 600.875C296.155 605.23 324.312 610.57 338.148 605.805L338.354 605.731H338.567C338.838 605.78 365.944 610.661 383.756 601.96L384.479 603.439C374.883 608.114 362.821 608.935 354.392 608.787C349.06 608.702 343.741 608.233 338.477 607.383C334.443 608.755 329.357 609.313 324 609.313Z" fill="#0077FF"/>
<path d="M259.757 699.8H341.598C345.92 699.8 347.005 690.762 339.396 691.419C315.035 693.679 282.129 694.632 274.759 690.368C266.954 685.84 254.876 671.059 240.67 674.494L240.268 676.137C238.066 687.886 249.421 699.8 259.757 699.8Z" fill="white"/>
<path d="M423.12 699.797H341.278C336.956 699.797 337.449 691.351 338.978 691.433C356.495 692.32 396.056 694.218 408.117 690.365C416.711 687.612 428 671.057 442.206 674.491L442.609 676.134C444.811 687.883 433.456 699.797 423.12 699.797Z" fill="white"/>
<path d="M263.494 686.487L263.215 685.715C287.395 677.079 312.307 649.999 312.512 639.77H313.334C313.095 650.221 287.913 677.761 263.494 686.487Z" fill="white"/>
<path d="M338.493 701.03C338.275 701.03 338.066 700.944 337.912 700.79C337.758 700.636 337.671 700.427 337.671 700.209C337.564 672.611 336.701 430.414 338.78 425.788C338.824 425.689 338.886 425.6 338.965 425.525C339.043 425.451 339.135 425.392 339.236 425.354C339.336 425.315 339.444 425.296 339.552 425.299C339.66 425.301 339.766 425.325 339.865 425.369C340.063 425.459 340.217 425.623 340.294 425.826C340.371 426.03 340.364 426.255 340.276 426.453C338.706 431.383 338.961 607.703 339.314 700.242C339.314 700.46 339.228 700.669 339.074 700.823C338.919 700.977 338.711 701.063 338.493 701.063V701.03Z" fill="#0077FF"/>
<path d="M424.943 685.421C390.698 675.906 365.031 647.914 364.76 638.974H365.581C365.844 647.733 391.257 675.233 425.165 684.648L424.943 685.421Z" fill="white"/>
<path d="M87.0115 213.367C82.0818 207.665 57.7208 196.113 52.9143 198.948C48.1078 201.782 96.7723 233.645 94.5211 227.787C92.2699 221.929 87.0115 213.367 87.0115 213.367Z" fill="#8024C0"/>
<path d="M118.889 153.832C115.299 144.925 106.984 141.507 97.1494 143.282C93.8091 143.847 90.7027 145.363 88.2032 147.65C85.7038 149.937 83.9174 152.896 83.0586 156.173C85.7782 160.552 92.5072 164.028 103.599 163.017C113.475 162.048 117.476 158.014 118.889 153.832Z" fill="white"/>
<path d="M71.1295 161.736C66.5695 157.512 59.2981 154.933 50.9094 160.561C44.0817 165.137 43.5148 171.587 45.1581 177.116C50.5232 177.519 57.9835 175.21 62.5764 171.62C66.2161 168.752 69.7491 165.195 71.1295 161.736Z" fill="white"/>
<path d="M116.984 459.285C116.874 459.286 116.765 459.264 116.663 459.222C116.562 459.18 116.469 459.117 116.392 459.039C116.315 458.962 116.254 458.871 116.213 458.771C116.171 458.671 116.149 458.564 116.149 458.455C116.149 458.347 116.171 458.24 116.213 458.139C116.254 458.039 116.315 457.948 116.392 457.872C144.714 430.183 155.707 418.434 172.484 399.208C172.628 399.045 172.831 398.946 173.048 398.932C173.266 398.918 173.479 398.991 173.643 399.134C173.806 399.278 173.906 399.481 173.92 399.698C173.933 399.916 173.86 400.129 173.717 400.293C156.915 419.552 145.897 431.326 117.543 459.047C117.394 459.195 117.194 459.28 116.984 459.285Z" fill="#0077FF"/>
<path d="M104.833 467.19C104.692 467.189 104.553 467.153 104.43 467.083C103.608 466.623 84.4154 455.432 78.5737 416.627C74.3917 388.84 81.1454 370.559 85.5328 362.129C85.6342 361.936 85.8079 361.792 86.0159 361.727C86.2239 361.662 86.4491 361.683 86.642 361.784C86.7382 361.834 86.8236 361.902 86.8934 361.984C86.9633 362.067 87.0162 362.162 87.049 362.265C87.0818 362.368 87.0939 362.477 87.0847 362.585C87.0755 362.692 87.0452 362.797 86.9953 362.893C82.69 371.11 76.0924 389.054 80.2005 416.381C83.183 436.223 89.8381 448.564 94.8911 455.424C100.363 462.819 105.194 465.62 105.235 465.653C105.425 465.76 105.564 465.938 105.622 466.147C105.681 466.357 105.654 466.581 105.547 466.771C105.476 466.898 105.372 467.003 105.247 467.077C105.121 467.151 104.978 467.189 104.833 467.19Z" fill="#0077FF"/>
<path d="M185.384 479.448C149.438 479.448 116.639 460.822 116.286 460.617C116.192 460.563 116.109 460.491 116.043 460.406C115.976 460.32 115.928 460.222 115.899 460.117C115.871 460.013 115.864 459.904 115.878 459.796C115.892 459.689 115.927 459.585 115.982 459.491C116.036 459.398 116.108 459.316 116.194 459.251C116.28 459.185 116.379 459.137 116.483 459.11C116.588 459.082 116.697 459.076 116.804 459.09C116.911 459.105 117.014 459.141 117.107 459.196C117.485 459.409 155.822 481.166 194.742 477.353C194.959 477.333 195.175 477.399 195.343 477.538C195.511 477.676 195.617 477.876 195.638 478.093C195.658 478.31 195.592 478.526 195.453 478.694C195.315 478.861 195.115 478.967 194.898 478.988C191.719 479.301 188.539 479.448 185.384 479.448Z" fill="#0077FF"/>
<path d="M194.742 279.614C192.913 279.621 191.135 279.01 189.697 277.88C188.724 277.141 187.991 276.13 187.592 274.974C187.193 273.819 187.145 272.572 187.454 271.389C187.505 271.178 187.637 270.996 187.822 270.882C188.006 270.768 188.229 270.732 188.44 270.781C188.546 270.805 188.646 270.85 188.735 270.914C188.823 270.977 188.899 271.057 188.956 271.149C189.013 271.242 189.052 271.345 189.069 271.452C189.086 271.56 189.082 271.67 189.056 271.775C188.819 272.652 188.849 273.579 189.141 274.438C189.434 275.297 189.977 276.049 190.699 276.598C191.605 277.32 192.693 277.779 193.842 277.923C194.991 278.068 196.158 277.894 197.215 277.42C199.236 276.426 200.329 274.191 200.271 271.126C200.271 270.908 200.358 270.699 200.512 270.545C200.666 270.391 200.875 270.305 201.093 270.305C201.311 270.305 201.52 270.391 201.674 270.545C201.828 270.699 201.915 270.908 201.915 271.126C202.005 276.163 199.45 278.176 197.938 278.923C196.939 279.394 195.846 279.63 194.742 279.614Z" fill="#0077FF"/>
<path d="M241.797 275.152C241.009 275.151 240.23 274.991 239.504 274.684C238.428 274.179 237.512 273.388 236.857 272.396C236.202 271.405 235.833 270.252 235.791 269.064C235.781 268.956 235.792 268.847 235.824 268.743C235.856 268.64 235.908 268.544 235.978 268.46C236.047 268.377 236.133 268.308 236.229 268.258C236.325 268.208 236.43 268.178 236.538 268.168C236.755 268.15 236.97 268.219 237.137 268.359C237.303 268.499 237.407 268.699 237.426 268.916C237.447 269.807 237.712 270.676 238.193 271.426C238.674 272.177 239.352 272.781 240.153 273.172C240.834 273.469 241.582 273.576 242.318 273.482C243.055 273.388 243.752 273.097 244.336 272.638C245.823 271.471 246.414 269.417 245.979 266.887C245.943 266.672 245.994 266.452 246.12 266.275C246.247 266.098 246.438 265.978 246.653 265.942C246.867 265.906 247.087 265.957 247.264 266.083C247.441 266.21 247.561 266.401 247.597 266.616C248.123 269.746 247.302 272.424 245.338 273.953C244.324 274.736 243.078 275.158 241.797 275.152Z" fill="#0077FF"/>
<path d="M42.9062 215.781C39.2418 221.894 49.7585 224.096 51.2292 220.711C52.6999 217.326 47.3101 208.444 42.9062 215.781Z" fill="#FF3985"/>
<path d="M51.2299 154.129C46.7603 156.923 51.23 163.914 55.1409 162.937C59.0518 161.959 55.1409 151.681 51.2299 154.129Z" fill="#FF3985"/>
<path d="M101.636 136.512C97.2322 136.512 95.7615 145.32 101.143 146.298C106.525 147.275 107.502 136.512 101.636 136.512Z" fill="#FF3985"/>
<path d="M213.023 690.859C213.712 689.669 214.148 688.351 214.304 686.985C214.459 685.619 214.331 684.236 213.927 682.922C205.768 682.922 195.243 690.769 179.633 691.705C137.032 694.269 116.442 686.258 106.139 684.483C107.429 693.348 109.425 699.798 112.03 699.798H198.168C205.982 699.798 210.468 695.279 213.023 690.859Z" fill="#212121"/>
<path d="M133.203 274.388C128.75 277.461 123.952 280.27 119.293 283.195" stroke="#E85353" stroke-miterlimit="10" stroke-linecap="round"/>
<path d="M593.852 209.8C595.717 207.212 597.87 203.769 599.85 200.622C587.978 194.148 579.425 158.859 579.03 151.506C579.145 155.729 580.378 184.617 593.852 209.8Z" fill="#FF8481"/>
<path d="M473.74 679.38C484.051 678.937 502.891 655.159 512.421 645.546C505.273 642.194 506.415 642.67 490.788 653.877C479.097 662.266 461.916 672.043 454.177 678.09C460.637 679.186 467.192 679.618 473.74 679.38Z" fill="#212121"/>
<path d="M555.17 682.407C554.636 673.163 552.976 659.13 550.856 651.078C539.83 653.724 528.352 661.759 524.901 670.082C521.187 679.063 524.614 690.179 555.301 684.288C555.235 683.68 555.17 683.064 555.17 682.407Z" fill="#212121"/>
<path d="M503.992 684.936C488.915 681.838 467.479 678.198 454.177 678.092C452.248 679.579 450.926 681.717 450.459 684.108C449.991 686.498 450.411 688.977 451.638 691.081C454.218 695.428 458.72 699.799 466.361 699.799H549.879C553.987 699.799 555.844 697.227 555.261 684.278C548.392 686.365 531.959 690.679 503.992 684.936Z" fill="white"/>
<path d="M649.065 596.224C648.686 596.226 648.314 596.122 647.991 595.925C647.667 595.727 647.405 595.444 647.233 595.106C609.438 521.498 581.717 461.298 565.145 423.758C547.176 383.063 538.031 359.466 537.916 359.236C537.818 358.984 537.771 358.715 537.777 358.445C537.783 358.175 537.842 357.908 537.951 357.661C538.06 357.414 538.217 357.19 538.413 357.004C538.609 356.817 538.839 356.671 539.091 356.574C539.599 356.381 540.163 356.395 540.66 356.616C541.157 356.836 541.547 357.243 541.745 357.749C542.107 358.685 578.595 452.564 650.865 593.233C651.112 593.718 651.158 594.282 650.992 594.801C650.826 595.319 650.461 595.751 649.977 596.002C649.693 596.142 649.382 596.218 649.065 596.224Z" fill="white"/>
<path d="M554.505 550.862C554.353 550.862 554.204 550.819 554.075 550.739C553.946 550.66 553.842 550.546 553.774 550.41C541.088 525.039 489.432 439.894 488.915 439.04C488.803 438.853 488.77 438.63 488.822 438.419C488.874 438.208 489.008 438.027 489.194 437.914C489.38 437.802 489.602 437.767 489.813 437.818C490.024 437.869 490.206 438.001 490.32 438.185C490.837 439.048 542.526 524.242 555.228 549.671C555.325 549.866 555.34 550.091 555.271 550.298C555.201 550.504 555.053 550.675 554.858 550.772C554.749 550.828 554.628 550.859 554.505 550.862Z" fill="#0077FF"/>
<path d="M626.651 643.788C629.338 640.65 635.598 644.232 636.946 645.579C638.293 646.927 643.231 640.469 654.422 637.782C665.612 635.095 671.676 635.588 681.888 645.505C698.206 661.387 711.993 675.084 711.993 680.482C711.993 689.61 709.306 699.798 695.881 699.798H636.017C627.957 699.798 623.036 681.377 623.488 669.743C623.94 658.109 626.651 643.788 626.651 643.788Z" fill="#2929B2"/>
<path d="M672.046 687.064C685.331 686.505 711.722 684.829 711.722 684.829C711.887 683.375 711.966 681.913 711.96 680.45C711.96 675.076 698.173 661.355 681.856 645.473C671.676 635.556 665.571 635.063 654.389 637.75C643.207 640.437 638.252 646.887 636.913 645.547C644.357 663.837 658.752 687.647 672.046 687.064Z" fill="#212121"/>
<path d="M666.837 686.29C656.977 690.02 639.781 692.658 626.577 689.125C628.763 695.188 632.008 699.806 636.042 699.806H695.873C709.298 699.806 711.985 689.618 711.985 680.489C701.18 675.56 688.273 678.131 666.837 686.29Z" fill="white"/>
</g>
<defs>
<clipPath id="clip0_411_609">
<rect width="744.533" height="698" fill="white"/>
</clipPath>
</defs>
</svg>
