<svg width="90" height="90" viewBox="0 0 90 90" fill="none" xmlns="http://www.w3.org/2000/svg">
<circle cx="45" cy="45" r="45" fill="#1783FF"/>
<path d="M35.2895 28C28.5022 28 23 33.5022 23 40.2895C23 47.1547 25.7516 50.5981 37.455 59.7007L42.8512 63.8978C44.1151 64.8808 45.8849 64.8808 47.1488 63.8978L52.545 59.7007C64.2484 50.5981 67 47.1547 67 40.2895C67 33.5022 61.4978 28 54.7105 28C51.0503 28 47.7994 29.7358 45 33.0984C42.2006 29.7358 38.9497 28 35.2895 28ZM35.2895 31C38.4187 31 41.2227 32.7559 43.7663 36.434L43.9719 36.7313C44.3646 37.2991 45.1432 37.4411 45.711 37.0485C45.8349 36.9627 45.9424 36.8553 46.0281 36.7313L46.2337 36.434C48.7773 32.7559 51.5813 31 54.7105 31C59.841 31 64 35.159 64 40.2895C64 45.9059 61.7097 48.772 50.7032 57.3327L45.307 61.5297C45.1264 61.6702 44.8736 61.6702 44.693 61.5297L39.2968 57.3327C28.2903 48.772 26 45.9059 26 40.2895C26 35.159 30.159 31 35.2895 31Z" fill="white"/>
</svg>
