<svg width="72" height="72" viewBox="0 0 72 72" fill="none" xmlns="http://www.w3.org/2000/svg">
<path d="M0 33.8824C0 17.9101 0 9.92391 4.96196 4.96196C9.92391 0 17.9101 0 33.8824 0H38.1177C54.0899 0 62.0761 0 67.038 4.96196C72 9.92391 72 17.9101 72 33.8824V38.1177C72 54.0899 72 62.0761 67.038 67.038C62.0761 72 54.0899 72 38.1176 72H33.8824C17.9101 72 9.92391 72 4.96196 67.038C0 62.0761 0 54.0899 0 38.1176V33.8824Z" fill="#005FF9"/>
<path d="M42.7488 36.0346C42.7488 39.7293 39.7593 42.766 36.0098 42.766C32.2602 42.766 29.2707 39.7799 29.2707 36.0346C29.2707 32.2893 32.2602 29.3032 36.0098 29.3032C39.7593 29.3032 42.7488 32.2893 42.7488 36.0346ZM36.0604 13.7146C23.7477 13.7146 13.7151 23.7358 13.7151 36.0346C13.7151 48.3334 23.7477 58.3546 36.0604 58.3546C40.57 58.3546 44.9276 57.0387 48.6265 54.4575L48.6772 54.4068L45.6877 50.9146H45.637C42.7995 52.7366 39.4553 53.7489 36.0604 53.7489C26.2812 53.7489 18.326 45.8028 18.326 36.0346C18.326 26.2664 26.2812 18.3203 36.0604 18.3203C45.8397 18.3203 53.7948 26.2664 53.7948 36.0346C53.7948 37.2999 53.6428 38.5652 53.3895 39.8305C52.8321 42.1081 51.2107 42.8166 49.9946 42.766C48.7785 42.6648 47.3598 41.8044 47.3598 39.6787V38.0085V35.984C47.3598 29.7587 42.2928 24.6975 36.0604 24.6975C29.828 24.6975 24.7611 29.7587 24.7611 35.984C24.7611 42.2093 29.828 47.2705 36.0604 47.2705C39.1006 47.2705 41.9381 46.1064 44.0662 43.9301C45.333 45.8534 47.3598 47.0681 49.6399 47.2705C49.8426 47.2705 50.0453 47.2705 50.2479 47.2705C51.8694 47.2705 53.4908 46.7138 54.7575 45.7521C56.075 44.7399 57.0883 43.2722 57.6457 41.5007C57.747 41.197 57.8991 40.5391 57.8991 40.5391C58.2031 39.1219 58.3551 37.7048 58.3551 35.984C58.3551 23.7358 48.3225 13.7146 36.0604 13.7146Z" fill="#FF9E00"/>
</svg>
