<svg width="554" height="542" viewBox="0 0 554 542" fill="none" xmlns="http://www.w3.org/2000/svg">
<path d="M498.951 358.078C500.248 357.826 502.298 358.078 503.425 359.516C505.943 362.794 507.233 372.925 506.921 375.938C506.669 378.428 502.067 378.91 502.067 378.91L498.951 358.078Z" fill="#231F20"/>
<path d="M414.772 221.491C421.085 211.686 414.983 197.903 399.899 192.217C381.789 185.384 380.764 170.353 358.899 172.748C336.811 175.164 335.093 192.543 320.974 195.976C312.258 198.087 303.861 198.853 298.077 212.025C292.294 225.196 305.083 239.06 291.588 250.623C278.093 262.186 262.1 271.293 264.999 295.41C266.146 305.018 273.756 307.19 276.756 299.624C284.725 279.524 296.849 270.573 311.946 270.573C334.869 270.573 349.341 302.467 349.341 302.467L414.772 221.491Z" fill="#231F20"/>
<path d="M471.874 378.126C470.577 376.864 446.31 343.45 433.806 329.193C424.051 318.03 414.025 310.084 404.773 304.94L404.434 305.137C401.831 303.483 399.108 302.027 396.288 300.781C399.343 322.624 418.736 339.793 429.054 339.793V339.854H435.591C438.503 361.84 458.046 379.171 468.405 379.171V379.239H452.256C448.713 376.585 445.489 373.529 442.651 370.132C438.021 364.649 430.622 353.9 429.013 339.854H412.864C409.319 337.2 406.093 334.144 403.252 330.747C398.63 325.264 391.231 314.515 389.615 300.475H395.541C387.192 296.974 379.928 296.505 373.982 298.127C368.552 299.607 363.915 306.053 360.352 313.056C367.18 328.732 381.327 339.82 389.608 339.82V339.881H396.22C399.132 361.867 418.668 379.198 429.034 379.198V379.266H435.591C438.503 401.252 458.046 418.583 468.405 418.583V418.644H452.256C448.709 415.994 445.486 412.938 442.651 409.538C438.021 404.055 430.622 393.313 429.013 379.266H412.864C409.318 376.614 406.092 373.558 403.252 370.159C398.63 364.676 391.231 353.927 389.615 339.881H373.473C369.924 337.231 366.698 334.174 363.861 330.774C361.227 327.652 358.9 324.284 356.91 320.717C355.245 324.837 353.806 329.043 352.599 333.319C352.599 333.319 352.735 322.529 346.287 305.822C345.608 304.065 344.929 302.287 344.291 300.502H334.109C330.561 297.849 327.333 294.793 324.49 291.396C319.315 285.284 315.377 278.224 312.896 270.611C311.538 270.509 310.099 270.455 308.592 270.468C299.727 270.563 292.43 275.395 286.517 282.533C293.903 293.391 304.254 300.434 310.866 300.434V300.502H317.451C320.363 322.489 339.899 339.82 350.264 339.82V339.881H356.849C359.761 361.867 379.304 379.198 389.663 379.198V379.266H396.22C399.132 401.252 418.668 418.583 429.034 418.583V418.644H435.591C436.65 425.971 439.328 432.969 443.431 439.131C455.406 448.583 468.011 457.093 472.783 454.738C483.929 449.12 470.53 380.752 471.874 378.126Z" fill="#EFECEC"/>
<path d="M343.612 298.66C339.193 286.961 334.068 275.649 320.227 271.815C325.25 284.701 335.323 294.771 343.612 298.66Z" fill="#EFECEC"/>
<path d="M278.025 300.477C280.937 322.463 300.48 339.795 310.839 339.795V339.856H317.423C320.336 361.842 339.872 379.173 350.237 379.173V379.241H356.849C359.761 401.227 379.304 418.558 389.663 418.558V418.619H396.22C397.781 430.427 389.065 424.535 396.22 431.694C394.279 437.761 397.815 426.55 396.22 431.694C399.186 422.493 414.152 417.436 418.918 421.514L431.437 429.239C430.254 425.796 429.443 422.235 429.02 418.619H412.864C409.319 415.967 406.096 412.911 403.259 409.513C398.637 404.03 391.238 393.288 389.622 379.241H373.466C369.923 376.587 366.699 373.531 363.861 370.134C359.231 364.651 351.832 353.902 350.224 339.856H334.075C330.529 337.202 327.303 334.146 324.463 330.749C319.84 325.266 312.441 314.517 310.825 300.477H294.683C291.136 297.825 287.911 294.769 285.071 291.371C284.263 290.421 283.374 289.301 282.451 288.039C279.925 292 277.725 296.16 275.873 300.477H278.025Z" fill="#EFECEC"/>
<path d="M403.252 448.895C398.629 443.412 391.23 432.663 389.614 418.616H373.465C369.92 415.964 366.697 412.908 363.86 409.51C359.231 404.027 351.832 393.285 350.223 379.238H334.074C330.527 376.586 327.301 373.53 324.462 370.131C319.839 364.648 312.44 353.899 310.825 339.853H294.682C291.134 337.203 287.908 334.146 285.07 330.746C279.434 324.113 275.28 316.353 272.886 307.986C268.548 320.052 266.22 331.981 265.527 338.57C265.527 338.57 367.139 486.638 390.775 478.25C397.801 475.76 403.075 468.479 407.019 459.474C407.745 457.811 408.377 456.264 408.947 454.785C406.917 452.953 405.014 450.985 403.252 448.895Z" fill="#EFECEC"/>
<path d="M175.056 519.343C179.916 522.058 220.034 525.871 265.026 525.702C306.114 525.539 354.031 524.541 358.07 520.422C363.005 515.408 342.417 467.533 342.417 467.533L184.776 471.313L175.056 519.343Z" fill="white"/>
<path d="M209.587 214.512C203.172 215.048 188.231 208.541 193.22 191.61C198.21 174.679 228.397 164.467 254.225 181.628C254.225 181.628 246.618 130.105 289.39 130.539C332.162 130.974 346.398 181.628 299.604 211.594L286.36 225.485C286.36 225.485 299.828 275.382 240.771 266.92C181.715 258.458 209.587 214.512 209.587 214.512Z" fill="#2929B2"/>
<path d="M206.199 210.329C201.644 210.513 182.312 227.382 174.295 242.969C166.278 258.556 170.377 279.557 197.061 280.493C218.287 281.247 210.36 282.68 210.36 282.68L247.213 267.446C240.316 269.522 234.994 264.202 238.389 263.246C246.419 259.914 245.054 249.301 237.662 250.278C231.356 251.112 232.91 247.217 240.052 231.203C247.193 215.188 237.9 209.596 236.196 209.596C234.492 209.596 218.37 209.807 206.199 210.329Z" fill="#FFA9A9"/>
<path d="M185.468 241.726C182.929 244.365 181.863 252.515 184.456 255.433C189.432 261.011 203.035 257.36 204.658 253.295C206.28 249.231 201.617 248.729 195.317 244.874C189.357 241.223 186.975 240.192 185.468 241.726Z" fill="white"/>
<path d="M213.578 229.139C213.863 228.352 215.859 226.126 217.936 227.578C220.013 229.03 220.013 233.183 219.389 233.597C218.764 234.011 216.171 231.934 215.139 231.208C214.107 230.482 213.32 229.844 213.578 229.139Z" fill="#231F20"/>
<path d="M223.644 217.056C220.569 217.313 224.174 229.338 226.448 228.938C228.722 228.537 226.848 216.791 223.644 217.056Z" fill="#2929B2"/>
<path d="M212.166 209.655C212.845 212.885 200.016 214.724 200.28 213.394C200.545 212.064 211.236 205.108 212.166 209.655Z" fill="#2929B2"/>
<path d="M250.384 177.789C251.742 174.966 251.375 171.512 257.77 174.796C264.755 178.386 269.846 182.688 288.106 192.955C307.269 203.724 309.828 208.916 304.275 215.498C300.684 219.726 294.493 222.881 292.695 225.073C291.778 226.199 291.099 228.466 290.903 231.859C290.712 235.007 286.911 237.247 284.515 230.861C282.119 224.476 247.445 183.984 250.384 177.789Z" fill="#EFECEC"/>
<path d="M250.581 176.75C245.204 178.948 238.756 172.95 239.204 164.78C239.604 157.593 244.784 154.099 246.196 154.004C249.189 153.807 248.992 161.794 251.782 164.182C255.97 167.799 254.973 174.979 250.581 176.75Z" fill="#EFECEC"/>
<path d="M247.986 175.989C243.309 174.951 239.203 181.377 241.999 186.969C244.796 192.56 244.993 198.735 246.588 198.939C248.183 199.143 255.175 194.148 253.974 184.573C252.772 174.998 249.785 176.39 247.986 175.989Z" fill="#EFECEC"/>
<path d="M211.484 284.27L219.514 280.952C227.287 277.912 230.464 272.435 226.038 273.935C214.559 277.817 205.395 280.042 198.919 280.612C216.263 281.698 211.484 284.27 211.484 284.27Z" fill="#FF8481"/>
<path d="M199.404 216.688C198.372 216.247 113.097 172.054 113.097 172.054L103.746 216.151C103.746 216.151 194.177 231.638 195.603 231.638C197.028 231.638 199.675 228.469 200.585 224.282C201.773 218.941 200.232 217.041 199.404 216.688Z" fill="#EFECEC"/>
<path d="M135.555 281.328C132.555 290.523 127.695 315.041 129.738 314.525C131.781 314.009 190.831 292.81 201.828 291.792C212.824 290.774 190.288 325.789 190.288 325.789L126.629 361.076L92.8783 339.361L74.5232 298.951C74.5232 298.951 81.4675 286.235 97.9151 263.183L135.555 281.328Z" fill="#231F20"/>
<path d="M93.8897 322.979C73.7832 295.238 70.2059 288.703 69.0316 282.806C67.6739 276.197 65.9701 260.359 62.7458 255.833C57.6411 248.646 41.7501 236.534 40.2974 236.9C38.8448 237.266 35.0638 237.45 38.5257 243.272C41.9877 249.094 49.7533 257.59 47.0245 257.59C44.2956 257.59 18.6433 244.168 8.61724 242.166C-1.40883 240.164 -0.614616 244.317 0.905924 245.837C4.63939 249.569 25.2889 259.823 23.3067 262.374C21.3246 264.926 20.3878 272.003 21.664 277.982C22.9402 283.96 25.1463 292.232 28.7237 295.041C35.6476 300.504 46.6511 304.413 50.6561 313.329C55.2381 323.508 65.6307 354.608 65.6307 354.608L93.8897 322.979Z" fill="#FFA9A9"/>
<path d="M206.593 223.229C205.663 223.094 200.117 224.838 196.058 228.041C191.999 231.244 193.546 234.643 194.734 236.36C195.922 238.077 197.076 238.287 197.687 235.342C198.23 232.682 200.07 229.486 204.57 226.29C208.256 223.677 207.795 223.419 206.593 223.229Z" fill="#FF8481"/>
<path d="M128.898 180.364C128.898 180.364 135.354 153.845 142.244 155.392C146.561 156.363 140.411 172.975 142.569 173.714C144.728 174.454 148.4 175.838 150.226 176.951C152.711 178.458 154.652 177.704 157.456 179.319C160.259 180.934 162.527 180.507 164.142 181.355C165.758 182.203 169.756 186.533 166.084 193.651C162.411 200.77 158.963 207.902 153.464 207.345C153.464 207.345 150.552 209.184 145.909 207.345C141.266 205.506 142.461 200.233 141.273 200.125C140.085 200.016 135.232 201.414 134.797 196.888C134.363 192.362 135.095 183.522 135.095 183.522L128.898 180.364Z" fill="#FFA9A9"/>
<path d="M74.9765 145.852C69.6348 144.169 55.2101 152.355 48.5449 173.85C41.8798 195.345 45.3444 205.464 51.0008 208.666C56.6572 211.868 87.0185 220.029 92.8575 221.632C98.6966 223.235 108.254 214.841 115.685 192.751C123.116 170.66 120.072 162.898 116.297 161.299C112.522 159.7 80.7962 147.685 74.9765 145.852Z" fill="#FF0084"/>
<path d="M71.867 150.091C75.9785 151.419 74.7787 161.758 68.6564 180.05C62.5342 198.342 54.819 203.793 51.6053 202.078C49.1669 200.782 48.9959 189.817 53.3149 175.697C57.6338 161.577 67.0534 148.527 71.867 150.091Z" fill="#231F20"/>
<path d="M279.973 300.304C276.878 285.85 265.861 263.118 241.736 264.258C217.611 265.398 198.027 292.08 169.992 324.068C152.221 344.324 137.674 357.115 130.119 353.851C119.896 349.44 93.4695 321.618 93.4695 321.618C93.4695 321.618 61.1648 341.555 64.0701 352.365C66.9754 363.175 102.172 442.163 140.837 430.104C179.502 418.046 274.088 354.469 274.088 354.469C274.088 354.469 286.049 328.642 279.973 300.304Z" fill="#FF0084"/>
<path d="M451.977 349.116C451.977 349.116 451.977 349.198 451.869 349.34C452.941 350.385 451.977 349.116 451.977 349.116Z" fill="#811AC7"/>
<path d="M374.498 301.561C370.167 301.859 361.471 309.473 352.579 333.292C352.579 333.292 350.135 311.149 333.769 277.586C332.411 274.696 374.498 301.561 374.498 301.561Z" fill="#FF8481"/>
<path d="M374.498 301.562C374.498 301.562 365.09 296.459 355.654 291.648L349.049 295.767C346.68 297.246 345.214 300.083 345.968 302.77C352.858 327.274 352.579 333.306 352.579 333.306C353.76 333.985 354.758 332.886 355.871 330.544C364.241 312.962 370.697 301.827 374.498 301.562Z" fill="#E85353"/>
<path d="M136.025 221.626C145.745 222.237 148.344 221.839 159.388 218.765C170.433 215.691 176.074 215.874 177.16 217.686C178.246 219.498 178.049 220.21 169.897 224.92C161.744 229.629 153.944 230.443 148.853 239.679C140.932 254.092 135.277 281.602 135.277 281.602C135.277 281.602 115.517 280.469 97.4197 263.49C97.4197 263.49 125.963 225.284 126.323 220.032C130.138 220.697 136.025 221.626 136.025 221.626Z" fill="#FFA9A9"/>
<path d="M295.415 353.636C295.863 356.798 286.978 362.064 261.393 363.225C239.243 364.236 223.59 357.701 225.627 348.689C227.045 342.419 235.666 346.348 237.546 341.713C242.644 329.173 254.517 320.888 273.938 333.475C295.076 347.162 295.123 351.6 295.415 353.636Z" fill="#FFEF5F"/>
<path d="M157.195 415.534C152.865 414.088 147.482 417.346 139.893 425.651C132.303 433.957 102.761 471.795 100.521 495.329C98.2406 519.025 112.93 539.193 133.03 541.547C155.559 544.187 174.2 535.223 185.04 516.27C193.077 502.216 200.198 479.626 203.823 479.443C211.758 479.049 228.939 483.447 270.089 483.806C311.238 484.166 330.394 481.18 333.279 480.461C336.164 479.742 340.373 516.568 359.129 529.998C377.552 543.217 412.646 547.302 425.578 518.862C436.126 495.668 419.577 463.381 408.193 445.29C397.699 428.603 386.906 410.37 379.683 415.262C369.161 422.415 323.342 407.927 323.342 407.927L217.155 413.355L157.195 415.534Z" fill="#00DC7F"/>
<path d="M225.2 428.447C224.82 430.754 215.513 459.995 264.741 461.06C303.596 461.902 304.791 435.369 299.815 427.68C294.839 419.992 225.2 428.447 225.2 428.447Z" fill="white"/>
<path d="M221.086 408.144C221.086 408.144 217.922 456.181 265.5 455.326C313.078 454.471 303.236 404.92 303.236 404.92C303.236 404.92 223.719 405.402 221.086 408.144Z" fill="#FF8481"/>
<path d="M303.989 411.041C303.874 408.992 303.631 406.953 303.263 404.934C303.263 404.934 223.72 405.416 221.127 408.157C221.127 408.157 220.027 424.633 229.096 437.839C231.132 429.879 239.488 422.869 247.424 419.137C254.429 415.839 266.431 413.891 275.88 412.724C276.51 412.651 277.15 412.733 277.741 412.964C278.333 413.195 278.859 413.567 279.274 414.047C283.082 418.451 301.865 417.712 303.351 423.792C304.41 416.429 304.41 411.93 303.989 411.041Z" fill="#E85353"/>
<path d="M271.102 415.511C267.578 415.843 269.927 423.056 272.459 422.887C274.991 422.717 275.107 415.131 271.102 415.511Z" fill="#231F20"/>
<path d="M360.575 401.901C362.659 400.218 366.162 398.006 369.156 401.901C372.149 405.796 373.568 411.252 376.948 412.555C380.329 413.858 381.883 413.98 384.225 414.761C386.567 415.541 383.058 430.368 363.304 444.245C343.551 458.122 327.327 456.921 326.146 455.415C323.668 452.259 325.209 448.982 324.293 444.001C322.474 434.127 320.953 428.271 327.965 427.233C334.977 426.195 360.575 401.901 360.575 401.901Z" fill="white"/>
<path d="M263.573 364.836C261.822 363.411 263.431 360.69 266.024 360.812C268.349 360.797 270.67 360.59 272.961 360.195C273.231 359.389 273.684 358.656 274.285 358.054C274.886 357.453 275.618 356.998 276.423 356.727C279.139 355.865 295.24 353.51 304.771 355.614C314.301 357.718 323.974 360.256 328.427 365.209C332.88 370.163 360.807 402.213 361.424 403.943C362.042 405.673 360.813 410.783 349.884 420.31C338.956 429.838 329.751 431.371 327.314 429.6C326.079 428.705 322.773 417.426 316.582 415.818C310.391 414.21 285.547 415.011 283.198 412.785C280.849 410.559 284.556 406.841 284.556 406.841L263.573 364.836Z" fill="#FF8481"/>
<path d="M314.239 372.099C317.837 377.209 320.681 393.678 322.554 402.554C322.853 403.959 322.147 405.268 320.728 405.051C313.424 403.837 308.51 404.97 308.51 404.97L314.239 372.099Z" fill="#E85353"/>
<path d="M149.248 417.297C150.992 416.055 153.85 412.947 156.715 413.571C159.579 414.196 160.319 413.443 162.559 411.332C164.799 409.222 173.624 398.778 175.986 398.154C178.348 397.53 184.071 403.623 193.635 412.947C203.2 422.271 211.787 427.367 210.904 431.093C210.022 434.818 206.309 443.898 207.049 447.128C208.047 451.477 205.691 457.625 200.213 458.189C194.246 458.813 179.57 456.2 166.143 442.527C152.717 428.853 149.248 417.297 149.248 417.297Z" fill="white"/>
<path d="M206.79 428.401C208.399 429.419 214.257 422.694 219.28 419.104C224.303 415.514 241.735 413.526 245.856 413.262C249.976 412.997 252.766 407.684 248.116 407.948C243.466 408.213 216.49 404.759 216.49 404.759C216.49 404.759 210.381 402.635 210.381 392.938C210.381 383.241 222.871 368.896 222.871 368.896C222.871 368.896 258.081 368.095 260.47 367.437C262.86 366.778 266.322 363.983 262.996 362.517C260.632 361.53 258.194 360.731 255.705 360.128C255.705 360.128 255.169 358.133 250.784 357.204C246.399 356.274 231.92 354.15 221.154 354.021C210.388 353.892 207.577 353.485 201.753 363.983C195.929 374.48 188.733 388.025 182.889 395.462C177.044 402.9 177.968 402.248 179.434 404.63C180.9 407.012 189.249 417.381 206.79 428.401Z" fill="#FF8481"/>
<path d="M208.33 382.375C207.869 389.296 206.253 400.154 205.093 404.307C203.932 408.46 223.339 406.845 223.339 406.845L208.33 382.375Z" fill="#E85353"/>
<path d="M301.993 405.431C295.803 405.349 287.27 405.302 275.893 405.302C264.74 405.302 252.739 405.342 242.142 405.383C233.861 405.383 226.482 405.431 221.099 405.431C217.298 405.431 214.725 404.691 213.218 403.157C210.503 400.375 210.571 394.336 210.693 386.749C210.734 384.293 210.781 381.748 210.734 379.034C210.686 376.319 211.413 374.284 212.926 372.696C217.678 367.884 230.575 367.484 243.412 367.484C245.923 367.484 248.53 367.484 251.218 367.484C254.09 367.484 257.049 367.525 260.083 367.525H263.573C267.645 367.525 271.386 367.457 274.861 367.423C279.348 367.375 283.217 367.335 286.747 367.335C299.02 367.335 306.344 367.823 309.881 370.422C312.786 372.546 313.764 376.631 313.764 386.607C313.764 392.714 313.513 398.733 311.66 401.909C310.594 403.727 308.747 405.41 302.496 405.41L301.993 405.431Z" fill="#811AC7"/>
<path d="M286.762 370.078C297.901 370.078 305.382 370.505 308.294 372.636C310.33 374.122 311.063 377.915 311.063 386.635C311.063 392.064 310.86 397.947 309.326 400.566C308.884 401.32 308.07 402.724 302.538 402.724H302.062C295.858 402.643 287.312 402.595 275.921 402.595C264.768 402.595 252.76 402.636 242.164 402.677C233.76 402.677 226.504 402.724 221.121 402.724C219.084 402.724 216.369 402.473 215.174 401.265C213.226 399.291 213.328 393.224 213.43 386.805C213.471 384.321 213.518 381.756 213.471 378.994C213.423 376.429 214.204 375.303 214.882 374.611C218.881 370.539 231.717 370.207 243.433 370.207C245.931 370.207 248.504 370.207 251.219 370.207C254.091 370.207 257.057 370.247 260.105 370.247H263.614C267.687 370.247 271.523 370.179 274.91 370.145C279.39 370.098 283.259 370.057 286.769 370.057L286.762 370.078ZM286.769 364.629C280.449 364.629 272.812 364.757 263.58 364.819H260.105C254.233 364.819 248.633 364.744 243.433 364.744C222.329 364.744 207.816 366.026 208.04 379.055C208.332 395.911 205.121 408.119 221.121 408.119C233.339 408.119 256.018 407.99 275.901 407.99C285.839 407.99 295.077 408.024 301.961 408.119H302.544C314.586 408.119 316.528 402.358 316.528 386.601C316.528 366.922 313.134 364.615 286.796 364.615L286.769 364.629Z" fill="white"/>
<path d="M301.993 405.431C295.803 405.349 287.27 405.302 275.893 405.302C264.74 405.302 252.739 405.342 242.142 405.383C233.861 405.383 226.482 405.431 221.099 405.431C217.298 405.431 214.725 404.691 213.218 403.157C210.503 400.375 210.571 394.336 210.693 386.749C210.734 384.293 210.781 381.748 210.734 379.034C210.686 376.319 211.413 374.284 212.926 372.696C217.678 367.884 230.575 367.484 243.412 367.484C245.923 367.484 248.53 367.484 251.218 367.484C254.09 367.484 257.049 367.525 260.083 367.525H263.573C267.645 367.525 271.386 367.457 274.861 367.423C279.348 367.375 283.217 367.335 286.747 367.335C299.02 367.335 306.344 367.823 309.881 370.422C312.786 372.546 313.764 376.631 313.764 386.607C313.764 392.714 313.513 398.733 311.66 401.909C310.594 403.727 308.747 405.41 302.496 405.41L301.993 405.431Z" fill="#811AC7"/>
<path d="M286.762 370.078C297.901 370.078 305.382 370.505 308.294 372.636C310.33 374.122 311.063 377.915 311.063 386.635C311.063 392.064 310.86 397.947 309.326 400.566C308.884 401.32 308.07 402.724 302.538 402.724H302.062C295.858 402.643 287.312 402.595 275.921 402.595C264.768 402.595 252.76 402.636 242.164 402.677C233.76 402.677 226.504 402.724 221.121 402.724C219.084 402.724 216.369 402.473 215.174 401.265C213.226 399.291 213.328 393.224 213.43 386.805C213.471 384.321 213.518 381.756 213.471 378.994C213.423 376.429 214.204 375.303 214.882 374.611C218.881 370.539 231.717 370.207 243.433 370.207C245.931 370.207 248.504 370.207 251.219 370.207C254.091 370.207 257.057 370.247 260.105 370.247H263.614C267.687 370.247 271.523 370.179 274.91 370.145C279.39 370.098 283.259 370.057 286.769 370.057L286.762 370.078ZM286.769 364.629C280.449 364.629 272.812 364.757 263.58 364.819H260.105C254.233 364.819 248.633 364.744 243.433 364.744C222.329 364.744 207.816 366.026 208.04 379.055C208.332 395.911 205.121 408.119 221.121 408.119C233.339 408.119 256.018 407.99 275.901 407.99C285.839 407.99 295.077 408.024 301.961 408.119H302.544C314.586 408.119 316.528 402.358 316.528 386.601C316.528 366.922 313.134 364.615 286.796 364.615L286.769 364.629Z" fill="white"/>
<path d="M262.73 378.62C261.216 378.389 257.028 386.023 256.295 393.793C255.861 398.489 263.117 400.905 264.916 398.285C266.274 396.345 261.76 394.282 262.004 390.393C262.398 384.049 264.312 378.837 262.73 378.62Z" fill="#5E00BB"/>
<path d="M279.545 376.384C283.306 376.31 284.935 381.569 282.939 381.894C280.944 382.22 276.83 382.573 276.022 381.894C275.215 381.216 276.579 376.445 279.545 376.384Z" fill="#231F20"/>
<path d="M372.808 210.967C366.882 210.967 358.553 211.49 352.919 225.896C347.284 240.302 341.528 247.394 338.663 246.213C335.799 245.032 328.481 238.66 324.015 245.27C319.372 252.11 325.433 260.151 328.502 262.512C331.57 264.874 332.839 302.203 367.832 302.549C405.167 302.936 396.234 241.076 394.754 234.575C391.706 221.125 384.382 210.967 372.808 210.967Z" fill="#FF8481"/>
<path d="M421.55 308.882C446.195 304.883 462.931 281.668 458.931 257.031C454.93 232.393 431.708 215.663 407.062 219.662C382.417 223.661 365.681 246.876 369.681 271.513C373.682 296.15 396.904 312.881 421.55 308.882Z" fill="#0077FF"/>
<path d="M367.322 262.018C367.322 262.018 360.242 259.866 358.972 264.427C357.703 268.987 361.504 283.529 373.526 282.138L367.322 262.018Z" fill="white"/>
<path d="M414.295 221.524C422.754 221.524 431.022 224.031 438.054 228.729C445.087 233.426 450.569 240.103 453.805 247.915C457.042 255.726 457.889 264.322 456.239 272.615C454.589 280.908 450.516 288.525 444.535 294.504C438.554 300.483 430.934 304.555 422.639 306.204C414.343 307.854 405.744 307.007 397.93 303.771C390.116 300.536 383.437 295.056 378.737 288.026C374.038 280.996 371.53 272.73 371.53 264.275C371.548 252.942 376.06 242.079 384.076 234.065C392.092 226.052 402.959 221.542 414.295 221.524ZM414.295 216.692C404.876 216.692 395.668 219.485 387.835 224.716C380.003 229.948 373.899 237.384 370.295 246.084C366.69 254.784 365.747 264.357 367.586 273.593C369.424 282.828 373.96 291.311 380.622 297.969C387.283 304.627 395.769 309.161 405.008 310.998C414.247 312.834 423.823 311.89 432.526 308.286C441.228 304.681 448.666 298.578 453.898 290.747C459.13 282.917 461.922 273.712 461.921 264.295C461.921 258.043 460.689 251.853 458.296 246.077C455.902 240.301 452.394 235.053 447.971 230.632C443.549 226.212 438.299 222.706 432.52 220.314C426.742 217.922 420.549 216.691 414.295 216.692Z" fill="#EFECEC"/>
<path d="M412.769 227.051C416.449 226.556 432.659 226.237 439.345 237.637C446.031 249.037 435.197 261.184 439.528 269.246C443.859 277.307 446.228 285.104 440.798 292.684C436.046 299.341 416.863 305.699 402.784 300.298C388.706 294.896 412.769 227.051 412.769 227.051Z" fill="#2929B2"/>
<path d="M412.769 227.042C409.225 226.669 379.039 229.18 376.955 262.206C375.061 292.315 400.292 299.773 402.75 300.289C406.422 301.042 414.452 292.865 416.109 259.859C417.616 230.231 415.172 227.286 412.769 227.042Z" fill="#FFA9A9"/>
<path d="M381.836 252.403C384.184 251.725 392.439 268.167 391.061 276.154C390.104 281.705 381.944 283.089 381.211 281.182C380.478 279.275 384.483 279.235 384.327 272.639C384.198 267.271 378.903 253.306 381.836 252.403Z" fill="#FF8481"/>
<path d="M384.421 288.372C387.587 292.223 391.516 295.377 395.961 297.635C399.892 295.28 400.204 288.447 398.493 286.852C396.559 285.074 387.286 287.918 384.421 288.372Z" fill="white"/>
<path d="M393.178 253.886C392.153 252.148 395.371 240.619 402.328 241.135C409.286 241.651 409.924 252.854 408.383 254.659C407.61 255.562 404.243 254.72 400.794 254.578C397.346 254.435 393.823 254.978 393.178 253.886Z" fill="#2929B2"/>
<path d="M359.984 240.47C359.305 239.635 362.021 234.363 364.98 234.858C367.94 235.354 368.042 240.877 367.329 241.793C366.616 242.709 361.002 241.692 359.984 240.47Z" fill="#231F20"/>
<path d="M358.098 229.424C358.933 234.33 374.559 229.689 373.5 225.957C371.783 219.829 357.528 226.092 358.098 229.424Z" fill="#231F20"/>
<path d="M438.815 303.882C439.637 305.117 467.645 346.287 472.566 351.206C476.272 354.911 484.71 349.768 480.8 344.21C478.336 340.709 444.368 298.745 444.368 298.745L438.815 303.882Z" fill="#EFECEC"/>
<path d="M213.008 403.381L245.808 367.076H258.387L225.81 403.856L213.008 403.381Z" fill="white"/>
<path d="M235.055 404.175L267.095 367.076L270.381 367.443L238.456 404.806L235.055 404.175Z" fill="white"/>
<path d="M247.227 376.291C250.981 376.196 252.855 382.249 249.698 382.398C245.747 382.568 243.711 382.249 243.44 381.082C243.229 380.139 243.928 376.379 247.227 376.291Z" fill="#231F20"/>
<path d="M478.464 310.597C472.891 306.39 461.528 298.335 453.803 302.875C446.078 307.414 441.998 314.105 443.845 316.569C444.76 317.708 445.556 318.938 446.221 320.24C446.221 320.24 444.517 326.659 447.476 330.554C450.436 334.449 450.368 335.827 450.368 335.827C450.368 335.827 450.884 341.174 454.916 343.352C457.631 344.818 463.286 346.067 466.66 346.671C467.45 346.806 468.171 347.204 468.707 347.8C469.242 348.396 469.562 349.155 469.613 349.955C470.373 373.706 450.551 420.1 449.526 433.421C448.21 450.501 467.685 456.493 473.964 457.558C490.418 460.415 506.194 449.253 507.769 430.015C511.326 386.259 489.495 318.916 478.464 310.597Z" fill="#FF8481"/>
<path d="M480.8 344.206C480.122 343.243 478.282 341.492 474.168 336.335C473.802 335.88 466.104 337.169 464.543 339.239C464.379 339.469 464.291 339.744 464.291 340.026C464.291 340.308 464.379 340.584 464.543 340.813C468.242 345.916 471.25 349.879 472.573 351.203C476.273 354.908 484.71 349.764 480.8 344.206Z" fill="white"/>
<path d="M451.977 349.116C451.977 349.116 451.977 349.198 451.869 349.34C452.941 350.385 451.977 349.116 451.977 349.116Z" fill="#811AC7"/>
<path d="M142.196 197.313C142.196 197.313 143.269 188.207 145.142 182.588" stroke="#FF8481" stroke-width="3" stroke-miterlimit="10" stroke-linecap="round"/>
<path d="M280.733 363.69C279.43 362.388 277.339 359.273 303.494 356.708" stroke="#E85353" stroke-width="2" stroke-miterlimit="10" stroke-linecap="round"/>
<path d="M115.808 533.732C115.718 533.732 115.629 533.714 115.546 533.679C115.464 533.644 115.389 533.593 115.326 533.529C105.266 523.302 109.441 502.463 127.728 471.594C141.25 448.78 157.881 428.653 158.05 428.45C158.166 428.311 158.331 428.224 158.511 428.207C158.69 428.191 158.869 428.246 159.007 428.361C159.146 428.477 159.233 428.642 159.25 428.822C159.266 429.001 159.211 429.18 159.096 429.318C158.417 430.112 93.3256 509.215 116.29 532.579C116.383 532.674 116.446 532.795 116.472 532.926C116.497 533.057 116.483 533.192 116.431 533.315C116.38 533.438 116.293 533.544 116.183 533.618C116.072 533.692 115.941 533.732 115.808 533.732Z" fill="white"/>
<path d="M414.418 532.873C414.271 532.873 414.129 532.826 414.011 532.738C413.867 532.63 413.772 532.469 413.746 532.291C413.721 532.113 413.767 531.932 413.875 531.788C434.24 504.603 379.534 428.14 378.977 427.374C378.874 427.228 378.832 427.046 378.861 426.87C378.89 426.693 378.988 426.535 379.134 426.43C379.279 426.326 379.459 426.283 379.636 426.311C379.813 426.339 379.971 426.435 380.077 426.58C389.53 440.036 398.005 454.153 405.438 468.822C420.609 499.358 423.813 520.808 414.941 532.609C414.879 532.689 414.8 532.755 414.71 532.8C414.619 532.846 414.52 532.871 414.418 532.873Z" fill="white"/>
<path d="M60.7773 366.992C58.7409 366.992 56.5823 366.558 55.0753 365.045C52.6995 362.676 51.9324 357.926 52.8488 351.296C55.1635 334.603 67.7827 308.715 79.275 302.296L79.6076 302.893C70.1517 308.179 56.2632 331.597 53.5276 351.391C52.6384 357.797 53.3375 362.357 55.564 364.57C58.7341 367.739 65.5833 365.594 65.6512 365.567L65.8616 366.246C64.2105 366.733 62.4988 366.984 60.7773 366.992Z" fill="white"/>
<path d="M468.601 361.569C466.918 360.891 464.195 373.743 465.322 377.061C466.449 380.38 486.189 383.698 503.553 377.136C503.553 377.136 504.551 373.282 502.969 367.806C501.388 362.329 499.982 361.128 499.982 361.128C499.982 361.128 475.07 364.155 468.601 361.569Z" fill="#811AC7"/>
<g clip-path="url(#clip0_825_3879)">
<path d="M401.621 127.335C436.784 127.335 465.288 98.8302 465.288 63.6676C465.288 28.5049 436.784 0 401.621 0C366.458 0 337.953 28.5049 337.953 63.6676C337.953 98.8302 366.458 127.335 401.621 127.335Z" fill="#00DC7F"/>
<path d="M423.465 38.5004C423.465 38.5004 432.326 21.5279 427.59 18.1062C424.085 15.5834 419.681 18.4386 417.566 16.5427C416.448 15.5456 418.563 7.59945 412.113 8.1584C403.804 8.91374 397.006 16.3236 397.006 16.3236C397.006 16.3236 391.235 14.7299 386.431 18.5141C377.307 25.7352 383.251 35.3884 383.946 37.2994L390.684 49.6039L419.236 48.7806L423.465 38.5004Z" fill="#FFEF5F"/>
<path d="M383.942 153.109C387.496 153.109 390.378 150.228 390.378 146.674C390.378 143.12 387.496 140.238 383.942 140.238C380.388 140.238 377.507 143.12 377.507 146.674C377.507 150.228 380.388 153.109 383.942 153.109Z" fill="#FFEF5F"/>
<path d="M301.304 101.654C308.1 101.654 313.609 96.1448 313.609 89.3493C313.609 82.5537 308.1 77.0448 301.304 77.0448C294.509 77.0448 289 82.5537 289 89.3493C289 96.1448 294.509 101.654 301.304 101.654Z" fill="white"/>
<path d="M422.491 83.4418C422.318 82.3088 423.247 82.3617 423.118 78.6983C423.035 76.606 421.094 75.0802 421.449 73.0257C421.834 70.7597 422.801 68.0102 418.654 66.8319C414.507 65.6536 387.897 66.0766 387.897 66.0766C384.49 66.137 382.428 68.267 383.455 72.512C384.211 75.5938 381.371 76.6513 381.56 79.65C381.711 82.0973 382.315 82.762 382.247 83.3512C382.179 83.9403 361.558 88.3666 355.138 107.175C361.501 113.975 369.278 119.296 377.921 122.763C386.565 126.231 395.863 127.76 405.162 127.243C414.46 126.725 423.532 124.175 431.738 119.77C439.943 115.366 447.082 109.215 452.652 101.751C442.991 87.8757 422.718 84.8618 422.491 83.4418Z" fill="white"/>
<path d="M393.879 106.958C399.726 100.498 403.447 92.398 404.537 83.7537H398.494C396.636 95.1291 390.578 103.272 383.908 107.766H393.131C393.373 107.502 393.63 107.23 393.879 106.958Z" fill="#00DC7F"/>
<path d="M393.176 82.295C398.859 76.0124 402.486 68.1426 403.57 59.7406H399.446C397.67 70.8441 391.975 78.9715 385.51 83.7528H391.756C392.24 83.2845 392.715 82.8011 393.176 82.295Z" fill="#00DC7F"/>
<path d="M397.406 107.762C395.778 114.591 392.229 120.811 387.179 125.687C390.163 126.374 393.192 126.851 396.243 127.114C400.84 121.532 403.944 114.873 405.262 107.762H397.406Z" fill="#00DC7F"/>
<path d="M431.193 107.766H444.6C447.114 105.363 449.262 102.604 450.975 99.5779C449.104 97.3862 446.971 95.4328 444.623 93.7618C442.242 98.7054 438.421 102.813 433.663 105.545C432.176 106.403 430.626 107.145 429.025 107.766H421.88C419.969 115.597 415.214 122.438 408.54 126.959C414.2 126.349 419.752 124.977 425.044 122.88C428.075 118.299 430.165 113.162 431.193 107.766Z" fill="#00DC7F"/>
<path d="M423.141 83.9266C421.539 92.6885 417.665 99.4866 411.539 104.215C409.728 105.604 407.773 106.794 405.708 107.765H418.427C424.327 102.319 428.186 95.1434 429.977 86.3436C426.781 85.188 424.259 84.4553 423.141 83.9266Z" fill="#00DC7F"/>
<path d="M422.74 77.141C422.166 75.7662 421.184 74.5351 421.449 73.0244C421.675 71.695 422.098 70.1918 421.555 68.9304C419.519 73.6926 416.297 77.8535 412.196 81.0159C410.89 82.0214 409.508 82.9254 408.064 83.72H416.819C419.064 81.7874 421.054 79.5766 422.74 77.141Z" fill="#00DC7F"/>
<path d="M371.725 104.018C375.153 98.1078 377.443 91.608 378.478 84.8548C376.672 85.569 374.907 86.3809 373.19 87.287C372.068 92.3249 370.188 97.1637 367.616 101.638C366.375 103.83 364.912 105.888 363.25 107.779H369.353C370.116 106.616 370.917 105.4 371.725 104.018Z" fill="#00DC7F"/>
<path d="M372.881 107.762C372.123 111.475 370.884 115.073 369.195 118.466C371.012 119.544 372.883 120.529 374.799 121.419C376.978 117.116 378.505 112.514 379.331 107.762H372.881Z" fill="#00DC7F"/>
<path d="M416.66 61.9906C416.66 64.2038 417.181 67.7237 417.03 68.7887C416.879 69.8537 402.452 78.2304 389.551 69.1437C389.551 69.1437 389.845 64.4531 389.845 61.6659C389.853 56.9299 416.675 59.7851 416.66 61.9906Z" fill="#FF8481"/>
<path d="M411.849 60.2226L402.399 66.2653C400.058 66.7638 401.516 70.9333 408.669 72.7083C413.578 71.5753 416.977 69.3773 417.03 68.8486C417.181 67.7533 416.653 64.2334 416.66 62.0505C416.668 61.3934 414.704 60.7513 411.849 60.2226Z" fill="#E85353"/>
<path d="M392.92 47.4442C391.598 48.7358 392.081 55.0882 402.739 55.2317C412.838 55.3677 414.825 49.5969 413.503 47.7917C412.936 47.0363 408.434 47.0363 403.404 47.0363C398.789 46.9532 393.63 46.7568 392.92 47.4442Z" fill="white"/>
<path d="M404.348 34.0739C405.647 34.0285 407.762 40.1166 404.793 41.4913C403.608 42.0351 401.168 41.4913 401.696 41.4233C407.83 40.5018 403.517 34.1041 404.348 34.0739Z" fill="#C43B3B"/>
<path d="M396.394 67.4045C398.386 68.0649 400.467 68.4214 402.565 68.4619C415.935 68.8774 422.204 61.6639 421.774 48.2264C421.748 47.7585 421.837 47.2915 422.032 46.8653C422.226 46.4391 422.521 46.0664 422.891 45.7791C424.493 44.6083 425.807 42.0024 424.712 39.7968C422.854 36.0881 419.651 39.253 419.251 37.5308C413.374 12.7028 391.62 16.5701 387.209 37.7952C386.915 39.2454 383.017 35.9899 380.94 39.6684C379.86 41.5794 380.411 44.9558 382.738 45.6507C383.351 45.8291 383.891 46.1972 384.282 46.702C384.673 47.2068 384.894 47.8224 384.913 48.4605C385.072 53.8537 386.915 59.9266 389.868 63.4314C391.107 64.9345 394.551 66.7775 396.394 67.4045Z" fill="#FF8481"/>
<path d="M395.39 34.043C393.358 34.043 392.95 36.309 393.124 37.1323C393.297 37.9556 397.24 38.1369 397.361 37.0719C397.482 36.0069 397.172 34.043 395.39 34.043Z" fill="#231F20"/>
<path d="M410.73 34.043C412.755 34.043 413.17 36.309 412.997 37.1323C412.823 37.9556 408.887 38.1369 408.767 37.0719C408.646 36.0069 408.948 34.043 410.73 34.043Z" fill="#231F20"/>
<path d="M406.403 29.5573C406.146 31.7327 414.183 34.0138 415.081 31.9744C415.98 29.935 406.825 26.045 406.403 29.5573Z" fill="#FFEF5F"/>
<path d="M401.425 29.3815C401.515 32.0328 392.519 33.7247 391.605 31.6475C390.691 29.5704 401.304 25.839 401.425 29.3815Z" fill="#FFEF5F"/>
<path d="M394.332 47.0823C394.861 45.7982 398.109 46.8859 403.276 46.969C408.941 47.0672 411.486 45.7831 412.861 46.614C414.236 47.4449 411.992 55.6781 403.797 55.6781C396.976 55.6932 393.011 50.3454 394.332 47.0823Z" fill="white"/>
<path d="M402.739 34.5948C402.301 34.474 400.511 39.3157 400.783 40.917C401.055 42.5184 404.159 42.964 405.496 42.0727C406.833 41.1814 402.203 41.4533 402.475 39.852C402.747 38.2507 403.359 34.7761 402.739 34.5948Z" fill="#E85353"/>
<path d="M345.227 58.3668C358.322 58.3668 368.938 47.7514 368.938 34.6567C368.938 21.562 358.322 10.9466 345.227 10.9466C332.133 10.9466 321.517 21.562 321.517 34.6567C321.517 47.7514 332.133 58.3668 345.227 58.3668Z" fill="#EFECEC"/>
<path d="M340.514 35.2965H331.888C331.688 35.2965 331.496 35.2169 331.354 35.0752C331.212 34.9336 331.133 34.7415 331.133 34.5411C331.133 34.3408 331.212 34.1487 331.354 34.007C331.496 33.8654 331.688 33.7858 331.888 33.7858H340.514C340.714 33.7858 340.907 33.8654 341.048 34.007C341.19 34.1487 341.269 34.3408 341.269 34.5411C341.269 34.7415 341.19 34.9336 341.048 35.0752C340.907 35.2169 340.714 35.2965 340.514 35.2965Z" fill="#231F20"/>
<path d="M336.224 39.6027C336.024 39.6027 335.832 39.5232 335.69 39.3815C335.548 39.2399 335.469 39.0477 335.469 38.8474V30.229C335.469 30.0286 335.548 29.8365 335.69 29.6949C335.832 29.5532 336.024 29.4736 336.224 29.4736C336.424 29.4736 336.617 29.5532 336.758 29.6949C336.9 29.8365 336.979 30.0286 336.979 30.229V38.8474C336.979 39.0477 336.9 39.2399 336.758 39.3815C336.617 39.5232 336.424 39.6027 336.224 39.6027Z" fill="#231F20"/>
<path d="M347.569 44.3094V23.7567L342.999 26.6118" fill="white"/>
<path d="M347.554 45.0648C347.354 45.0648 347.162 44.9852 347.02 44.8435C346.878 44.7019 346.799 44.5098 346.799 44.3094V25.1238L343.384 27.2539C343.214 27.36 343.009 27.3942 342.813 27.3489C342.618 27.3036 342.448 27.1824 342.342 27.0122C342.236 26.8419 342.202 26.6364 342.247 26.4409C342.292 26.2454 342.414 26.076 342.584 25.9698L348.309 22.397V44.3019C348.31 44.4017 348.292 44.5007 348.254 44.5933C348.216 44.6858 348.161 44.7699 348.091 44.8409C348.021 44.9118 347.937 44.9681 347.845 45.0066C347.753 45.045 347.654 45.0648 347.554 45.0648Z" fill="#231F20"/>
<path d="M350.757 45.0692H343.958C343.758 45.0692 343.566 44.9897 343.424 44.848C343.283 44.7064 343.203 44.5142 343.203 44.3139C343.203 44.1136 343.283 43.9214 343.424 43.7798C343.566 43.6381 343.758 43.5586 343.958 43.5586H350.757C350.957 43.5586 351.149 43.6381 351.291 43.7798C351.432 43.9214 351.512 44.1136 351.512 44.3139C351.512 44.5142 351.432 44.7064 351.291 44.848C351.149 44.9897 350.957 45.0692 350.757 45.0692Z" fill="#231F20"/>
<path d="M452.138 185.186C468.186 185.186 481.196 172.176 481.196 156.128C481.196 140.08 468.186 127.07 452.138 127.07C436.09 127.07 423.08 140.08 423.08 156.128C423.08 172.176 436.09 185.186 452.138 185.186Z" fill="#2929B2"/>
<path d="M467.736 170.487C469.888 164.988 462.72 159.965 462.72 159.965C464.849 156.156 466.038 151.894 466.187 147.533C466.459 131.874 451.964 134.495 451.964 134.495L451.821 134.359C451.821 134.359 436.094 130.318 435.958 148.129C436.03 152.499 437.235 156.775 439.456 160.539C439.456 160.539 432.28 165.562 434.433 171.061L453.603 176.001L467.736 170.487Z" fill="#FF0084"/>
<path d="M473.348 175.919C468.937 169.59 461.263 167.973 460.062 167.558C459.563 167.392 441.707 167.248 441.692 167.52C441.677 167.792 434.463 169.325 430.694 175.466V175.731C433.396 178.689 436.681 181.056 440.342 182.684C444.004 184.312 447.962 185.164 451.969 185.188C455.975 185.213 459.944 184.408 463.624 182.824C467.305 181.241 470.618 178.913 473.356 175.987L473.348 175.919Z" fill="#EFECEC"/>
<path d="M457.395 157.767C457.395 158.779 456.209 165.26 459.661 167.647C456.164 171.273 446.367 171.771 441.85 167.383C445.574 166.318 445.159 158.908 445.159 157.639C445.159 155.463 457.403 156.763 457.395 157.767Z" fill="#FFA9A9"/>
<path d="M449.978 159.392C448.256 160.147 449.48 167.988 459.579 167.58C456.278 165.163 457.365 158.923 457.396 157.813L449.978 159.392Z" fill="#FF8481"/>
<path d="M450.967 162.359C457.07 162.359 459.918 159.02 459.729 152.434C459.719 152.208 459.76 151.983 459.849 151.775C459.938 151.567 460.073 151.382 460.243 151.233C460.672 150.894 460.983 150.428 461.133 149.902C461.282 149.376 461.261 148.816 461.074 148.302C460.228 146.482 458.762 148.03 458.581 147.199C457.274 141.27 455.937 138.838 452.946 138.936C450.68 141.043 450.174 143.06 443.958 147.335C443.361 147.743 442.039 146.444 441.095 148.249C440.604 149.186 440.853 150.84 441.911 151.188C442.199 151.285 442.45 151.469 442.629 151.716C442.807 151.962 442.905 152.258 442.908 152.562C442.976 155.206 443.663 158.303 445.174 159.904C445.919 160.689 446.818 161.313 447.815 161.735C448.811 162.157 449.885 162.37 450.967 162.359Z" fill="#FFA9A9"/>
<path fill-rule="evenodd" clip-rule="evenodd" d="M455.001 153.262C455.09 153.429 455.027 153.637 454.86 153.726C453.749 154.317 452.515 154.644 451.257 154.68C449.998 154.715 448.749 154.459 447.606 153.931C447.434 153.851 447.36 153.648 447.439 153.476C447.518 153.304 447.722 153.23 447.893 153.309C448.94 153.793 450.085 154.028 451.238 153.995C452.39 153.963 453.52 153.663 454.538 153.121C454.705 153.032 454.912 153.096 455.001 153.262Z" fill="#ED6763"/>
<path d="M447.946 147.027C448.701 146.974 449.517 148.726 448.074 148.862C446.631 148.998 446.964 147.087 447.946 147.027Z" fill="#231F20"/>
<path d="M454.117 146.764C454.872 146.711 455.696 148.471 454.253 148.6C452.81 148.728 453.135 146.832 454.117 146.764Z" fill="#231F20"/>
<path d="M450.96 147.7C450.363 147.7 449.638 150.275 450.046 150.91C450.65 151.839 452.425 151.333 452.38 151.023C452.38 150.857 450.952 150.744 450.816 150.049C450.643 149.15 451.292 147.7 450.96 147.7Z" fill="#FF8481"/>
<path d="M452.063 144.164C451.685 145.131 455.152 146.196 455.59 145.599C456.028 145.003 452.878 142.042 452.063 144.164Z" fill="#FF0084"/>
</g>
<defs>
<clipPath id="clip0_825_3879">
<rect width="192.196" height="185.187" fill="white" transform="translate(289)"/>
</clipPath>
</defs>
</svg>
