<svg width="568" height="594" viewBox="0 0 568 594" fill="none" xmlns="http://www.w3.org/2000/svg">
<g clip-path="url(#clip0_67_2141)">
<path d="M118.388 137.672L0 179.617L28.7502 216.42L22.6751 256.294C22.6751 256.294 100.002 238.99 126.768 212.229C151.062 187.935 118.388 137.672 118.388 137.672Z" fill="#0077FF"/>
<path d="M135.519 192.859C135.519 192.698 135.55 192.532 135.569 192.365L134.864 192.593C135.087 192.674 135.303 192.766 135.519 192.859Z" fill="white"/>
<path d="M95.1623 149.16C98.769 154.441 102.021 159.956 104.896 165.668L94.1549 169.159C97.1338 171.31 101.169 175.414 105.953 182.323C109.558 187.605 112.81 193.119 115.687 198.83L104.946 202.328C107.924 204.479 111.96 208.589 116.737 215.492C117.498 216.586 118.227 217.699 118.95 218.817C121.722 216.826 124.336 214.623 126.768 212.229C127.469 211.528 128.133 210.792 128.758 210.023C128.325 209.374 127.886 208.725 127.448 208.082C124.949 204.42 122.181 200.95 119.166 197.699L128.22 194.752C124.846 187.872 120.981 181.244 116.657 174.919C114.158 171.255 111.39 167.783 108.376 164.53L117.43 161.589C114.106 154.812 110.306 148.279 106.058 142.041L93.2959 146.558C93.9077 147.38 94.5257 148.246 95.1623 149.16Z" fill="white"/>
<path d="M95.3606 220.292C93.0529 216.032 90.5068 211.905 87.7343 207.932L82.4378 209.65L93.8959 205.942C91.3064 200.169 88.0371 193.427 84.57 187.148C82.2609 182.888 79.7148 178.762 76.9437 174.787L83.1238 172.785C80.5343 167.006 77.265 160.264 73.7979 153.985L73.5754 153.583L61.0791 157.965C62.0061 159.584 62.9888 161.358 64.027 163.329C66.53 168.057 68.7734 172.717 70.6275 176.802L63.7922 179.027C66.1963 181.882 69.8426 187.061 74.8177 196.498C77.3206 201.226 79.5641 205.886 81.4181 209.971L74.5828 212.196C76.9869 215.045 80.6332 220.23 85.6083 229.661C86.6157 231.559 87.5736 233.444 88.4883 235.285C92.5239 233.561 96.5225 231.75 100.317 229.847C98.7783 226.664 97.0911 223.419 95.3606 220.292Z" fill="white"/>
<path d="M26.5319 230.998L22.6816 256.294C22.6816 256.294 26.9645 255.367 33.8863 253.513L26.5319 230.998Z" fill="white"/>
<path d="M14.8077 194.974L8.80059 176.501L0 179.616L16.8163 201.148L14.8077 194.974Z" fill="white"/>
<path d="M31.1479 174.783C33.1194 179.461 34.9488 184.01 36.4814 187.922L33.2121 188.985C35.1465 192.638 37.9647 198.521 41.9324 207.946C43.91 212.631 45.7394 217.179 47.2721 221.091L51.0605 219.855L44.0027 222.154C45.9371 225.807 48.7553 231.684 52.723 241.115C53.6191 243.241 54.4843 245.33 55.3063 247.351C59.2802 246.115 63.4394 244.743 67.6667 243.266C66.27 239.823 64.7558 236.165 63.1799 232.512C60.7078 226.765 58.4706 221.932 56.5176 218.069L59.6448 217.056C57.6239 211.889 55.09 205.604 52.3893 199.343C49.9172 193.596 47.6799 188.763 45.7208 184.906L38.1686 187.378L48.8542 183.905C46.8333 178.738 44.2994 172.453 41.5986 166.199C41.4318 165.809 41.2711 165.439 41.1042 165.062L28.8057 169.419C29.5596 171.05 30.326 172.836 31.1479 174.783Z" fill="white"/>
<path d="M128.747 210.041C142.436 193.293 133.134 166.502 125.502 150.644L76.5734 163.511L55.6967 184.387L54.5225 195.574C54.8129 200.264 142.726 190.561 129.204 209.38C129.062 209.633 128.889 209.825 128.747 210.041Z" fill="#212121"/>
<path d="M189.342 22.5267C139.635 52.9703 104.97 54.3547 70.9917 62.698C35.4309 71.412 26.3831 97.1154 31.2407 114.117C31.2407 114.117 51.2213 184.275 54.5215 195.597C71.6901 160.462 181.463 162.267 222.258 130.501C216.819 116.484 196.375 43.1747 189.342 22.5267Z" fill="#0077FF"/>
<path d="M34.7821 474.003C36.3392 473.002 37.6199 471.625 38.5065 470C39.393 468.375 39.8571 466.553 39.856 464.702C39.856 458.738 47.538 453.719 41.6359 453.478C47.0312 451.977 38.6014 447.212 38.6014 441.34C38.5998 437.95 37.2521 434.698 34.8544 432.301C32.4568 429.903 29.2054 428.555 25.8146 428.554C16.0066 428.554 5.31491 436.161 0.933153 439.641C0.666035 439.852 0.448109 440.119 0.294463 440.423C0.140817 440.727 0.0551519 441.061 0.0433927 441.402C0.0316335 441.742 0.0940367 442.081 0.226339 442.395C0.358641 442.709 0.557645 442.99 0.809542 443.219C4.16538 446.278 11.6434 452.143 21.0806 453.726C21.2359 453.752 21.3779 453.83 21.4842 453.947C21.5905 454.063 21.6551 454.211 21.6679 454.368C21.6806 454.526 21.6408 454.682 21.5546 454.814C21.4684 454.946 21.3408 455.046 21.1918 455.098C15.5988 457.1 10.4815 460.691 7.6881 462.866C7.39608 463.094 7.15795 463.383 6.99071 463.714C6.82347 464.044 6.73126 464.407 6.72063 464.777C6.71 465.147 6.78125 465.515 6.92926 465.855C7.07727 466.194 7.29839 466.497 7.57686 466.741C10.1429 469.008 12.9808 470.947 16.0252 472.513C16.147 472.574 16.2487 472.669 16.3184 472.786C16.3881 472.903 16.4227 473.037 16.4181 473.173C16.4136 473.309 16.37 473.441 16.2927 473.553C16.2154 473.665 16.1075 473.752 15.9819 473.805C10.9227 476.067 6.17795 478.975 1.86637 482.457C1.61724 482.654 1.41382 482.903 1.27015 483.186C1.12648 483.469 1.046 483.78 1.03424 484.097C1.02249 484.415 1.07978 484.731 1.2021 485.024C1.32443 485.317 1.50888 485.58 1.74276 485.795C5.45087 489.206 14.6223 496.437 25.9753 496.814C33.2247 497.049 39.5717 491.505 39.6768 484.25C39.7076 482.28 39.2818 480.329 38.4325 478.551C37.5833 476.774 36.3338 475.217 34.7821 474.003Z" fill="#FF3985"/>
<path d="M178.317 489.807C179.553 488.571 172.063 470.259 165.808 471.266C161.439 471.995 154.258 473.466 154.258 473.466C154.258 473.466 162.335 466.05 157.49 463.127C157.49 463.127 156.433 462.045 151.26 461.724C146.087 461.402 126.342 467.663 102.987 473.095C88.1048 476.556 85.6822 497.594 95.6879 497.594C120.186 497.594 131.311 497.377 149.085 497.377C166.476 497.408 175.61 492.52 178.317 489.807Z" fill="#212121"/>
<path d="M95.6882 497.631C103.049 497.631 109.198 497.631 114.686 497.588C117.195 493.583 121.651 485.437 120.94 479.016C120.563 475.642 118.716 472.459 116.571 469.808C112.245 470.908 107.696 472.039 102.975 473.133C88.1051 476.618 85.6701 497.631 95.6882 497.631Z" fill="white"/>
<path d="M75.3484 503.198H30.5791V388.011L60.8435 343.903H75.3484V503.198Z" fill="#212121"/>
<path d="M515.868 290.884L515.559 287.794C517.073 287.645 517.623 286.978 517.901 286.483C519.353 283.962 517.623 278.023 516.195 274.871L519.007 273.591C519.452 274.574 523.296 283.307 520.583 288.022C520.097 288.854 519.411 289.551 518.588 290.05C517.765 290.55 516.83 290.836 515.868 290.884Z" fill="white"/>
<path d="M489.985 291.933C489.985 291.933 490.647 284.257 497.5 282.6C500.652 281.84 503.137 280.623 505.98 280.623C507.469 280.623 507.648 281.655 508.019 281.605C508.39 281.556 509.255 280.314 510.133 280.196C512.339 279.906 512.951 280.252 513.841 281.655C515.967 285.085 524.39 308.508 528.976 344.075C533.129 376.267 526.288 380.73 518.754 385.056C511.678 389.128 495.412 393.152 477.532 388.065C470.796 386.156 483.181 346.151 488.916 346.98C494.651 347.808 502.123 352.091 501.042 322.79C500.516 308.73 499.682 307.63 493.057 304.355C487.458 301.598 483.842 295.647 489.985 291.933Z" fill="#FF8481"/>
<path d="M487.896 294.246C490.028 298.838 495.658 299.505 494.78 296.99C493.341 292.886 492.722 287.157 493.606 284.586C490.349 287.441 489.96 291.934 489.96 291.934C489.104 292.429 488.351 293.084 487.741 293.863C487.791 293.992 487.84 294.116 487.896 294.246Z" fill="#E85353"/>
<path d="M468.007 439.962C468.007 439.962 521.156 464.547 496.349 490.547L409.641 498.525L360.577 496.634L339.255 477.235L380.384 453.954L468.007 439.962Z" fill="#212121"/>
<path d="M352.253 454.504C348.848 451.359 346.746 449.523 331.537 458.441C316.328 467.359 278.332 488.94 279.871 496.208C280.878 500.955 289.573 499.879 328.917 499.879C368.26 499.879 371.925 500.664 371.399 498.025C370.874 495.386 355.949 492.512 359.335 490.158C362.722 487.803 372.45 483.36 372.45 483.36L352.253 454.504Z" fill="white"/>
<path d="M318.249 499.904C321.531 499.904 325.047 499.904 328.916 499.904C338.668 499.904 346.221 499.947 352.079 499.984C353.569 488.613 323.15 483.718 318.249 499.904Z" fill="#17D685"/>
<path d="M318.057 466.339C322.525 470.913 335.509 477.674 357.128 463.206L357.95 462.644L352.252 454.504C348.846 451.359 346.745 449.523 331.536 458.441C328.118 460.444 323.341 463.206 318.057 466.339Z" fill="#17D685"/>
<path d="M308.398 236.117C297.398 247.55 334.3 270.281 371.554 278.259L344.559 207.651C344.559 207.651 315.197 229.053 308.398 236.117Z" fill="#212121"/>
<path d="M390.613 284.414C390.613 284.414 357.017 319.141 277.169 466.662C277.169 466.662 214.131 460.111 218.977 449.518C248.747 384.552 295.203 341.909 315.653 307.732C324.188 293.468 331.104 277.746 339.187 262.512C393.783 159.766 390.613 284.414 390.613 284.414Z" fill="#17D685"/>
<path d="M243.789 440.103L240.489 438.416C242.566 434.356 291.507 338.711 310.746 320.603L313.286 323.304C294.51 340.973 244.296 439.114 243.789 440.103Z" fill="#0077FF"/>
<path d="M330.351 224.57C326.445 226.85 286.02 276.156 263.957 293.028C250.404 303.386 176.816 340.059 176.816 340.059L228.217 366.733C228.217 366.733 299.728 339.577 321.198 317.131C342.668 294.684 373.643 239.816 373.643 239.816L330.351 224.57Z" fill="#17D685"/>
<path d="M208.539 344.269L206.196 339.943C251.17 315.766 279.592 292.133 295.506 276.571C312.749 259.718 319.442 248.433 319.51 248.321L323.781 250.793C323.503 251.269 316.797 262.61 299.171 279.884C283.01 295.711 254.167 319.74 208.539 344.269Z" fill="#0077FF"/>
<path d="M422.675 108.982C422.675 108.982 427.081 96.4049 416.124 94.044C405.166 91.6832 399.357 101.46 394.363 100.509C389.37 99.5568 381.144 96.0217 376.713 98.2033C372.282 100.385 366.917 105.514 362.857 105.187C358.796 104.859 353.123 101.479 348.265 103.067C343.408 104.655 340.763 114.056 335.615 115.873C330.466 117.689 324.082 113.944 319.867 116.416C315.653 118.888 314.243 123.307 311.116 123.622C307.989 123.938 298.608 123.091 295.215 126.966C291.822 130.841 291.964 136.44 289.943 139.747C287.922 143.053 279.523 143.986 277.033 150.556C274.542 157.125 280.123 164.449 272.41 178.898C269.53 184.275 270.655 194.138 281.186 195.924C291.717 197.711 299.275 194.651 300.795 202.105C303.348 214.644 311.629 221.714 330.293 217.499C335.355 216.356 334.62 202.543 340.132 205.139C345.645 207.735 400.989 175.449 400.989 175.449L428.12 125.39L422.675 108.982Z" fill="#FFFF4D"/>
<path d="M414.283 126.922C416.811 129.104 415.21 132.855 411.138 134.629C407.294 136.304 423.189 144.857 423.189 144.857C423.189 144.857 426.737 137.25 438.102 134.456C444.684 132.831 414.283 126.922 414.283 126.922Z" fill="#FFA9A9"/>
<path d="M417.794 101.041C418.606 100.735 419.481 100.631 420.342 100.739C421.204 100.846 422.026 101.162 422.738 101.659C424.833 103.056 428.615 105.633 429.456 106.053C430.074 106.362 434.079 106.733 435.172 108.414C436.266 110.095 434.097 111.578 435.265 112.783C439.678 117.326 445.153 122.152 445.617 125.44C446.853 134.71 430.531 139.105 418.455 131.361C415.445 132.337 412.516 131.225 412.466 127.653C412.405 123.048 416.508 124.254 417.361 121.825C418.251 119.303 415.736 111.096 415.631 105.076C415.569 102.561 416.44 101.572 417.794 101.041Z" fill="#FFA9A9"/>
<path d="M429.418 106.03C428.578 105.61 424.796 103.032 422.7 101.636C421.989 101.139 421.166 100.823 420.305 100.715C419.443 100.608 418.569 100.712 417.756 101.018C416.428 101.549 415.531 102.538 415.575 105.06C415.613 106.414 415.727 107.766 415.915 109.108L416.112 109.052C416.393 108.98 416.688 108.992 416.962 109.087C417.235 109.181 417.475 109.354 417.651 109.583C418.01 110.041 418.739 110.443 420.235 110.171C422.089 109.831 429.573 107.402 432.595 106.827C431.272 106.425 429.789 106.203 429.418 106.03Z" fill="#FF8481"/>
<path d="M425.648 108.383C426.482 109.143 426.494 109.619 425.691 110.206C425.122 110.633 424.109 111.121 423.565 109.638C423.145 108.507 424.232 107.098 425.648 108.383Z" fill="#212121"/>
<path d="M433.245 111.77C434.932 109.916 435.606 109.557 435.185 108.445C436.174 110.144 434.147 111.621 435.247 112.771C432.367 113.84 432.429 112.654 433.245 111.77Z" fill="#FF8481"/>
<path d="M436.642 114.254C434.244 116.689 428.348 117.554 429.417 119.785C430.487 122.016 439.225 123.129 442.025 119.643C442.025 119.643 438.787 116.38 436.642 114.254Z" fill="white"/>
<path d="M421.928 102.714C423.529 103.425 420.309 110.21 419.123 109.432C418.418 108.937 420.507 102.046 421.928 102.714Z" fill="#FFFF4D"/>
<path d="M468.91 138.221C468.91 138.221 473.038 121.597 464.942 121.263C463.762 121.22 459.491 106.06 455.413 103.34C451.334 100.621 451.29 100.868 449.177 101.029C447.063 101.19 428.782 103.594 428.164 102.067C427.744 101.084 434.857 99.4035 433.281 99.3479C427.719 99.1378 414.741 99.5951 415.099 97.7102C415.099 97.7102 413.597 94.8178 415.408 93.9155C415.866 93.6868 422.565 92.3272 422.973 91.7091C417.04 90.9861 422.07 89.1876 422.07 89.1876C422.07 89.1876 427.015 86.9257 438.757 87.9825C450.499 89.0394 456.302 89.6079 470.789 97.7596C485.275 105.911 490.479 134.841 485.498 140.904C480.516 146.966 468.125 154.63 468.125 154.63L468.91 138.221Z" fill="#FFA9A9"/>
<path d="M449.51 96.2492C445.839 95.4211 434.634 91.5152 427.966 92.677C422.144 93.6906 418.887 95.2851 414.549 94.9946C414.283 96.1812 415.074 97.7077 415.074 97.7077C414.722 99.5618 427.144 99.2342 432.725 99.4381C434.294 99.4999 427.719 101.082 428.139 102.065C428.794 103.591 447.063 101.175 449.152 101.026C451.24 100.878 451.315 100.625 455.387 103.338C456.092 102.306 449.51 96.2492 449.51 96.2492Z" fill="#FF8481"/>
<path d="M382.375 131.972C386.367 131.972 391.75 132.59 400.081 140.074C402.757 142.484 408.777 129.154 413.999 133.795C423.727 142.447 422.954 144.066 426.483 140.593C430.995 142.12 426.539 151.365 427.28 151.476C429.375 151.792 449.585 141.193 453.769 136.644C455.27 135.012 459.368 128.807 454.251 120.242C446.834 107.881 451.741 106.38 450.814 104.995C449.368 102.826 443.503 100.459 449.405 93.8708C454.591 88.08 460.672 88.525 464.516 93.5248C473.582 94.5074 498.334 126.014 498.637 139.697C499.137 162.44 447.224 191.437 432.978 205.516C429.518 208.94 417.095 224.508 397.609 279.678C395.304 286.217 392.115 299.696 380.923 296.365C348.662 286.73 324.102 262.003 316.729 247.758C314.826 244.049 329.343 228.543 326.395 225.818C324.263 223.853 308.052 239.736 307.397 244.321C307.397 244.321 300.345 234.47 319.516 217.796C329.405 209.224 345.053 192.006 351.208 184.856C351.36 184.679 351.451 184.457 351.467 184.225C351.483 183.992 351.423 183.76 351.297 183.564C351.17 183.368 350.984 183.218 350.765 183.137C350.547 183.056 350.307 183.047 350.084 183.113C319.183 192.34 309.406 204.984 283.412 207.871C268.103 209.57 275.112 202.16 262.856 203.545C262.101 203.597 261.354 203.366 260.76 202.896C260.167 202.426 259.77 201.752 259.649 201.004C259.198 198.637 258.728 194.348 258.629 186.605C258.619 185.711 258.931 184.844 259.509 184.163C260.087 183.482 260.892 183.032 261.775 182.896C262.829 182.721 263.895 182.622 264.964 182.6C267.374 182.6 266.497 177.118 285.562 169.671C295.191 165.907 311.457 157.181 329.602 148.856C347.747 140.531 365.763 131.972 382.375 131.972Z" fill="#FF3985"/>
<path d="M238.772 185.437C232.017 187.804 230.818 192.544 231.633 195.813C231.973 197.148 232.974 199.052 234.149 201.221C234.723 202.272 235.811 204.713 236.343 205.627C237.943 208.371 239.872 209.651 243.017 210.133C244.027 210.301 245.059 210.286 246.064 210.09C250.78 209.095 257.51 204.286 260.717 202.259C260.717 202.259 262.201 195.226 259.302 185.665C259.049 184.825 259.432 187.142 247.838 184.337C243.394 183.261 239.47 185.196 238.772 185.437Z" fill="#FFA9A9"/>
<path d="M248.734 209.231C253.06 207.47 258.078 203.923 260.717 202.26C261.015 200.542 261.141 198.799 261.094 197.057C256.039 195.975 245.767 190.697 243.289 191.439L243.907 198.076L248.734 209.231Z" fill="#FF8481"/>
<path d="M462.292 312.559C459.962 313.64 452.515 326.489 452.515 326.489C452.515 326.489 435.377 310.989 427.231 309.753L432.794 308.616L453.417 304.908L462.292 312.559Z" fill="#FF8481"/>
<path d="M444.3 274.406C444.918 274.727 447.267 276.569 448.447 277.335C450.345 278.571 458.552 277.817 460.251 279.869C462.532 282.613 458.688 286.352 460.01 287.687C465.004 292.724 471.067 300.288 470.418 303.953C468.904 312.538 455.691 318.217 442.082 309.689C438.726 310.813 432.811 309.732 432.193 305.09C431.495 299.986 439.752 300.869 438.479 298.292C427.818 276.674 444.3 274.406 444.3 274.406Z" fill="#FF8481"/>
<path d="M448.163 283.741C449.102 284.581 449.121 285.1 448.231 285.78C447.613 286.262 446.544 285.996 445.839 285.162C444.659 283.796 446.562 282.319 448.163 283.741Z" fill="#212121"/>
<path d="M456.383 285.186C458.856 283.949 460.827 282.293 460.586 280.359C462.1 283.041 458.769 286.434 460.011 287.688C456.797 288.931 454.517 286.137 456.383 285.186Z" fill="#E85353"/>
<path d="M442.285 276.998C445.245 277.665 443.446 284.995 441.833 285.137C440.332 285.273 438.997 276.262 442.285 276.998Z" fill="#0077FF"/>
<path d="M452.941 325.821C452.391 323.67 452.83 313.968 454.357 311.786C456.013 309.419 464.956 312.812 469.374 306.934C467.91 309.623 465.19 311.798 461.699 312.966C459.474 314.894 453.182 325.265 452.941 325.821Z" fill="#E85353"/>
<path d="M460.856 289.357C462.092 290.469 460.653 286.767 463.131 286.934C464.113 287.002 464.571 288.022 464.738 288.986C464.802 289.375 464.958 289.743 465.194 290.059C465.429 290.375 465.737 290.63 466.091 290.803C468.817 292.082 467.877 294.894 466.474 294.647C464.583 294.32 464.892 295.673 464.892 295.673L461.184 295.141L460.856 289.357Z" fill="#FF8481"/>
<path d="M420.766 308.842L472.939 232.264C473.077 232.061 473.135 231.814 473.099 231.571C473.064 231.328 472.938 231.108 472.747 230.953C472.642 230.867 472.519 230.804 472.388 230.768C472.257 230.732 472.119 230.723 471.984 230.743C471.849 230.763 471.72 230.81 471.605 230.883C471.489 230.955 471.39 231.051 471.314 231.164L418.955 308.169L420.766 308.842Z" fill="#17D685"/>
<path d="M443.732 272.881C443.732 272.881 428.634 261.058 416.218 276.323C403.413 292.058 412.293 304.412 418.968 308.17L443.732 272.881Z" fill="#17D685"/>
<path d="M516.874 227.099L469.54 283.123L472.809 288.74L541.854 267.728C541.854 267.728 536.125 240.195 516.874 227.099Z" fill="white"/>
<path d="M486.122 346.444C455.697 341.098 444.622 306.656 428.028 302.756C413.857 299.437 397.485 308.658 369.217 366.412C344.126 417.64 332.309 495.578 409.691 492L466.79 372.951C466.79 372.951 510.453 350.714 486.122 346.444Z" fill="#212121"/>
<path d="M377.214 473.966C377.214 473.966 434.523 340.189 483.476 344.8C540.649 350.17 483.359 428.473 465.448 453.794C460.918 460.196 441.809 465.616 441.809 465.616C435.394 480.69 430.067 454.603 428.596 460.517C419.937 494.83 386.027 490.127 377.214 473.966Z" fill="#2929B2"/>
<path d="M412.731 147.719C410.363 147.669 408.108 146.695 406.447 145.006C404.786 143.317 403.85 141.046 403.84 138.677C403.829 136.308 404.745 134.028 406.391 132.324C408.037 130.621 410.283 129.627 412.651 129.556V130.056C410.485 130.072 408.405 130.905 406.827 132.389C405.249 133.873 404.29 135.898 404.142 138.059C403.994 140.22 404.668 142.358 406.028 144.043C407.389 145.728 409.336 146.837 411.48 147.148C413.624 147.459 415.806 146.948 417.589 145.718C419.372 144.489 420.625 142.631 421.097 140.517C421.568 138.402 421.224 136.188 420.132 134.317C419.04 132.446 417.282 131.057 415.21 130.427L415.358 129.945C417.22 130.508 418.851 131.654 420.012 133.215C421.174 134.775 421.803 136.667 421.808 138.612C421.813 140.557 421.193 142.452 420.039 144.018C418.886 145.584 417.26 146.739 415.401 147.311C414.537 147.582 413.637 147.719 412.731 147.719Z" fill="white"/>
<path d="M543.944 272.487C543.502 272.493 543.072 272.341 542.731 272.057C542.391 271.774 542.164 271.378 542.09 270.942C539.309 254.348 524.576 233.076 513.26 225.14C513.061 225 512.891 224.822 512.76 224.617C512.63 224.411 512.541 224.182 512.499 223.942C512.457 223.702 512.463 223.456 512.516 223.219C512.569 222.981 512.669 222.756 512.809 222.557C512.949 222.358 513.126 222.188 513.332 222.058C513.538 221.927 513.767 221.838 514.007 221.796C514.247 221.755 514.492 221.76 514.73 221.813C514.968 221.867 515.193 221.966 515.392 222.106C528.834 231.537 543.023 254.07 545.749 270.311C545.829 270.796 545.715 271.292 545.43 271.692C545.145 272.091 544.713 272.362 544.229 272.444C544.135 272.466 544.04 272.48 543.944 272.487Z" fill="#17D685"/>
<path d="M456.309 457.743C455.184 457.644 458.601 452.978 455.932 451.563C448.435 447.626 431.211 443.813 429.153 446.34C426.73 449.356 418.647 461.457 411.57 472.557C404.494 483.656 404.772 496.925 414.042 496.925H490.219C501.443 496.925 502.58 488.891 500.108 486.128C497.636 483.366 461.846 467.347 461.556 465.783C461.265 464.22 471.444 451.291 470.826 449.134C470.208 446.977 468.051 444.19 464.646 448.516C461.24 452.842 458.138 457.891 456.309 457.743Z" fill="white"/>
<path d="M434.238 445.431C434.146 445.431 434.056 445.409 433.973 445.369C433.899 445.334 433.833 445.285 433.778 445.224C433.724 445.164 433.682 445.093 433.655 445.016C433.628 444.939 433.616 444.857 433.621 444.776C433.626 444.694 433.647 444.615 433.682 444.541C435.623 440.561 438.429 432.83 441.988 423.047C444.182 417.002 446.673 410.149 449.46 402.8C457.253 382.226 465.028 375.607 465.356 375.348C465.482 375.243 465.645 375.193 465.808 375.208C465.971 375.223 466.122 375.302 466.227 375.428C466.332 375.554 466.382 375.717 466.367 375.881C466.352 376.044 466.273 376.195 466.147 376.3C466.066 376.361 458.273 383.024 450.616 403.239C447.835 410.581 445.344 417.453 443.15 423.467C439.578 433.287 436.76 441.043 434.795 445.097C434.742 445.199 434.662 445.284 434.564 445.343C434.466 445.402 434.353 445.433 434.238 445.431Z" fill="#212121"/>
<path d="M407.731 480.853C405.16 489.35 407.039 496.921 414.035 496.921H449.812C446.87 480.179 417.508 479.957 407.731 480.853Z" fill="#17D685"/>
<path d="M437.051 486.865L438.905 491.426C438.905 491.426 491.01 497.81 499.675 485.759C498.333 484.739 494.761 482.83 490.299 480.58C484.478 484.09 470.825 488.825 437.051 486.865Z" fill="#17D685"/>
<path d="M461.555 465.783C461.444 465.226 462.723 463.15 464.361 460.634C459.201 459.516 446.439 459.398 447.712 467.019C449.127 475.523 463.329 479.626 469.169 479.892C471.151 479.93 473.117 479.545 474.938 478.764C476.759 477.983 478.393 476.823 479.731 475.362C470.523 470.863 461.691 466.549 461.555 465.783Z" fill="#17D685"/>
<path d="M341.889 462.253C321.204 469.144 294.419 495.324 289.926 499.817C293.016 499.959 297.045 499.99 302.181 499.977C307.7 487.567 337.408 468.149 337.408 468.149L341.889 462.253Z" fill="#17D685"/>
<path d="M336.97 498.297C336.707 498.296 336.452 498.212 336.241 498.056C336.03 497.901 335.874 497.682 335.795 497.432L181.705 4.71022C181.656 4.55521 181.638 4.39208 181.652 4.23018C181.666 4.06828 181.713 3.91075 181.788 3.76667C181.863 3.62258 181.966 3.49471 182.09 3.39044C182.215 3.28616 182.359 3.20753 182.514 3.15898C182.67 3.11024 182.833 3.09265 182.995 3.1073C183.158 3.12196 183.315 3.16857 183.459 3.24438C183.604 3.32019 183.731 3.42375 183.835 3.54909C183.939 3.67443 184.018 3.81907 184.065 3.97473L338.15 496.69C338.2 496.846 338.218 497.01 338.204 497.173C338.19 497.336 338.143 497.494 338.067 497.639C337.991 497.784 337.888 497.913 337.762 498.017C337.636 498.121 337.491 498.2 337.334 498.248C337.216 498.282 337.093 498.298 336.97 498.297Z" fill="white"/>
<path d="M280.16 454.864C277.465 459.239 284.14 476.964 306.488 481.896C311.432 487.032 311.994 489.634 309.213 494.775C307.81 497.359 307.476 497.804 301.389 497.804H229.699C228.581 497.811 227.49 497.46 226.587 496.802C225.683 496.143 225.015 495.212 224.68 494.145C223.667 490.82 223.444 485.629 228.555 480.32C237.152 471.396 280.16 454.864 280.16 454.864Z" fill="#FF3985"/>
<path d="M253.135 492.234C230.201 491.654 224.972 487.006 224.972 487.006L224.354 487.933C223.958 490 224.077 492.134 224.7 494.144C225.035 495.211 225.703 496.142 226.607 496.801C227.51 497.459 228.601 497.81 229.719 497.803H301.409C307.496 497.803 307.83 497.358 309.233 494.774C312.014 489.633 311.427 487.031 306.507 481.895C299.017 483.817 276.07 492.815 253.135 492.234Z" fill="#0077FF"/>
<path d="M519.612 346.604C518.75 346.648 517.894 346.449 517.14 346.03C516.778 345.796 516.479 345.476 516.271 345.098C516.063 344.721 515.952 344.298 515.947 343.867C515.895 343.392 515.954 342.911 516.119 342.463C516.284 342.015 516.551 341.611 516.899 341.283C518.963 339.343 523.61 339.899 523.808 339.924L523.734 340.542C523.691 340.542 519.173 339.998 517.325 341.741C517.044 342.005 516.829 342.332 516.697 342.695C516.565 343.058 516.52 343.446 516.565 343.83C516.563 344.164 516.645 344.493 516.802 344.788C516.96 345.082 517.188 345.333 517.467 345.517C519.624 346.889 524.741 344.899 524.791 344.899L525.02 345.473C523.288 346.133 521.463 346.515 519.612 346.604Z" fill="#0077FF"/>
<path d="M523.196 314.695L522.609 314.875C522.609 314.918 523.721 318.675 521.255 320.06L517.43 311.216C517.787 311.021 518.061 310.702 518.199 310.319C518.338 309.936 518.332 309.516 518.182 309.137C518.032 308.758 517.749 308.448 517.386 308.263C517.023 308.079 516.605 308.034 516.211 308.136C515.816 308.239 515.473 308.482 515.246 308.819C515.019 309.157 514.923 309.566 514.976 309.97C515.029 310.374 515.228 310.744 515.536 311.011C515.843 311.278 516.238 311.423 516.645 311.42H516.836L520.693 320.332C517.862 321.333 515.359 318.274 515.335 318.243L514.853 318.632C514.853 318.663 516.917 321.16 519.537 321.16C520.018 321.159 520.494 321.076 520.946 320.913L521.892 323.1L522.46 322.853L521.502 320.653C524.469 319.021 523.208 314.739 523.196 314.695ZM515.582 309.751C515.581 309.541 515.642 309.335 515.758 309.159C515.874 308.983 516.04 308.846 516.234 308.765C516.428 308.683 516.642 308.661 516.848 308.702C517.055 308.742 517.245 308.843 517.394 308.991C517.544 309.14 517.645 309.329 517.687 309.535C517.728 309.742 517.708 309.956 517.627 310.15C517.547 310.345 517.411 310.511 517.236 310.628C517.061 310.746 516.855 310.808 516.645 310.808C516.364 310.808 516.094 310.697 515.895 310.499C515.696 310.301 515.583 310.032 515.582 309.751Z" fill="#0077FF"/>
<path d="M492.316 296.564C490.882 296.572 489.482 296.126 488.317 295.291C483.991 292.256 483.293 284.716 483.262 284.395L486.352 284.123L484.813 284.259L486.352 284.117C486.519 285.903 487.507 290.915 490.109 292.769C490.634 293.125 491.234 293.355 491.861 293.443C492.489 293.531 493.129 293.474 493.731 293.276L494.51 296.267C493.794 296.46 493.057 296.56 492.316 296.564Z" fill="white"/>
<path d="M531.156 497.383H35.0041C32.5705 497.383 30.5977 499.356 30.5977 501.789V505.423C30.5977 507.857 32.5705 509.829 35.0041 509.829H531.156C533.589 509.829 535.562 507.857 535.562 505.423V501.789C535.562 499.356 533.589 497.383 531.156 497.383Z" fill="#212121"/>
<path d="M458.899 519.73C465.207 519.729 471.375 521.599 476.621 525.103C481.867 528.607 485.956 533.588 488.371 539.416C490.786 545.244 491.419 551.657 490.189 557.845C488.959 564.032 485.921 569.716 481.461 574.178C477 578.639 471.317 581.677 465.13 582.909C458.942 584.14 452.529 583.509 446.7 581.095C440.872 578.681 435.89 574.593 432.385 569.347C428.88 564.102 427.009 557.935 427.009 551.626C427.019 543.171 430.381 535.065 436.36 529.085C442.338 523.106 450.443 519.742 458.899 519.73ZM458.899 509.916C450.649 509.916 442.585 512.362 435.726 516.946C428.867 521.529 423.521 528.043 420.364 535.664C417.207 543.286 416.381 551.672 417.99 559.763C419.599 567.854 423.572 575.286 429.405 581.119C435.238 586.953 442.67 590.925 450.761 592.535C458.852 594.144 467.239 593.318 474.86 590.161C482.482 587.004 488.996 581.658 493.579 574.799C498.162 567.94 500.609 559.876 500.609 551.626C500.61 546.149 499.531 540.724 497.435 535.663C495.34 530.603 492.267 526.004 488.394 522.131C484.521 518.258 479.922 515.185 474.861 513.089C469.801 510.994 464.376 509.915 458.899 509.916Z" fill="white"/>
<path d="M119.679 519.73C128.135 519.74 136.242 523.104 142.222 529.083C148.201 535.063 151.565 543.17 151.575 551.626C151.565 560.082 148.201 568.188 142.221 574.167C136.242 580.146 128.135 583.508 119.679 583.516C111.224 583.506 103.117 580.143 97.138 574.165C91.1587 568.187 87.7943 560.081 87.7829 551.626C87.7927 543.17 91.1563 535.063 97.1358 529.083C103.115 523.104 111.223 519.74 119.679 519.73ZM119.679 509.916C108.617 509.916 98.0075 514.311 90.1854 522.133C82.3632 529.955 77.9688 540.564 77.9688 551.626C77.9704 562.687 82.3656 573.295 90.1875 581.116C98.0095 588.936 108.618 593.33 119.679 593.33C130.74 593.33 141.348 588.936 149.17 581.116C156.992 573.295 161.387 562.687 161.389 551.626C161.389 540.564 156.994 529.955 149.172 522.133C141.35 514.311 130.741 509.916 119.679 509.916Z" fill="white"/>
<path d="M168.269 321.612C168.269 321.612 137.3 311.507 144.784 296.773C145.594 295.191 148.399 293.486 149.054 291.829C152.763 282.466 155.235 272.708 169.406 269.581C186.092 265.872 177.205 274.692 178.787 274.692C180.369 274.692 193.62 280.927 188.762 288.782C183.905 296.637 168.269 321.612 168.269 321.612Z" fill="#212121"/>
<path d="M159.344 330.869C165.735 326.394 169.467 322.835 167.613 321.747C165.759 320.659 162.391 321.629 157.799 317.921C154.357 315.14 157.54 307.909 162.453 309.535C166.099 310.74 163.139 305.505 161.742 293.93C160.148 280.723 176.235 277.806 183.873 284.19C210.176 306.173 200.782 317.056 195.832 320.61C196.963 321.561 193.978 350.652 202.63 344.935C193.15 354.928 202.908 355.781 193.749 364.378C178.799 378.382 159.344 330.869 159.344 330.869Z" fill="#FF8481"/>
<path d="M193.545 299.592C197.216 305.445 187.476 312.045 179.331 309.097C172.632 306.675 178.15 303.065 185.659 300.698C191.178 298.956 191.932 297.015 193.545 299.592Z" fill="white"/>
<path d="M195.808 320.611L196.222 320.308C185.815 326.692 180.123 322.78 178.59 321.804C177.354 320.982 179.035 324.214 183.225 326.451C190.79 330.499 195.4 330.326 196.364 326.594C195.617 326.884 196.13 320.877 195.808 320.611Z" fill="#E85353"/>
<path d="M173.726 293.505C174.826 294.741 174.752 295.643 173.158 296.107C172.175 296.397 171.347 295.977 170.766 294.617C170.185 293.258 172.163 291.719 173.726 293.505Z" fill="#212121"/>
<path d="M185.95 288.738C186.907 289.974 186.994 290.5 185.542 290.753C185.06 290.872 184.552 290.8 184.122 290.552C183.692 290.304 183.375 289.9 183.236 289.424C182.754 288.188 184.602 287.039 185.95 288.738Z" fill="#212121"/>
<path d="M165.079 292.317C165.876 289.845 170.301 284.901 172.081 287.793C172.427 288.349 171.043 289.851 169.906 290.747C168.769 291.643 167.99 292.552 166.661 293.275C165.654 293.819 164.813 293.139 165.079 292.317Z" fill="#212121"/>
<path d="M184.603 285.204C181.142 285.977 178.262 285.878 178.868 284.382C179.103 283.801 180.722 283.183 182.1 282.985C183.479 282.788 185.413 285.031 184.603 285.204Z" fill="#212121"/>
<path d="M181.438 297.002C180.529 296.31 182.674 295.766 182.538 294.307C182.198 291.217 179.584 290.092 180.066 289.654C180.548 289.215 183.508 292.126 184.231 294.103C184.633 295.142 182.785 298.046 181.438 297.002Z" fill="#E85353"/>
<path d="M167.835 321.605C165.215 318.899 162.428 321.605 157.916 318.163C151.341 317.798 141.755 315.462 131.416 326.815C120.508 338.817 113.413 349.422 104.13 364.1C91.0405 384.798 95.4779 400.502 102.795 401.88C110.255 403.289 118.864 397.356 119.346 405.347L125.742 421.978L159.764 452.063L207.648 443.757C207.648 443.757 250.959 433.251 231.621 429.419C213.804 425.908 222.716 405.687 225.546 395.465C226.597 391.658 228.092 389.618 234.476 388.945C247.541 387.573 263.109 385.75 277.175 382.437C310.66 374.557 299.52 337.455 284.795 314.887C283.931 313.562 281.571 311.662 278.347 311.662C279.421 308.438 276.428 300.581 275.043 299.264C273.461 297.163 254.704 302.082 252.659 312.465C251.929 316.173 255.778 319.185 259.002 321.335C256.691 321.489 254.741 334.571 252.479 336.086C250.217 337.6 231.85 320.975 213.433 320.975C205.133 320.975 204.41 324.238 201.289 323.447C198.52 322.774 197.581 320.357 195.912 320.555C195.294 323.948 194.392 331.772 188.255 336.889C186.401 339.763 185.999 344.138 184.93 344.052C184.207 343.99 185.789 338.144 183.651 336.376C178.564 332.18 170.765 325.388 168.738 323.62C168.248 323.05 167.935 322.35 167.835 321.605Z" fill="white"/>
<path d="M139.568 432.849H133.863V432.793C124.89 432.793 107.975 417.781 105.434 398.74H99.7363V398.845C101.158 410.958 107.542 420.229 111.534 424.963C113.993 427.906 116.787 430.553 119.859 432.849H133.839C135.229 445.011 141.638 454.325 145.643 459.071C148.101 462.015 150.892 464.664 153.961 466.963H167.959V466.902C158.973 466.902 142.04 451.896 139.568 432.849Z" fill="#17D685"/>
<path d="M105.423 432.848H99.7246V432.953C101.146 445.067 107.53 454.337 111.523 459.071C113.98 462.013 116.769 464.661 119.835 466.963H133.833V466.901C124.859 466.901 107.944 451.896 105.423 432.848Z" fill="#17D685"/>
<path d="M186.674 387.622C186.674 387.622 192.718 393.802 190.574 396.058C187.793 398.944 181.649 395.625 181.649 395.625L186.674 387.622Z" fill="#E85353"/>
<path d="M158.219 385.342C157.082 384.724 156.649 385.256 154.635 393.123C152.62 400.991 151.143 408.679 156.211 406.318L158.219 385.342Z" fill="#17D685"/>
<path d="M130.427 416.538L130.39 415.92C143.102 415.24 146.631 412.83 147.601 411.507C147.747 411.339 147.855 411.142 147.918 410.929C147.981 410.715 147.997 410.491 147.966 410.271L147.88 409.962L148.189 409.882L152.323 408.85C155.852 407.966 155.821 406.378 155.796 405.179C155.796 405.061 155.796 404.944 155.796 404.833H156.414C156.414 404.938 156.414 405.049 156.414 405.16C156.414 406.396 156.482 408.442 152.471 409.443L148.603 410.407C148.604 410.915 148.442 411.409 148.139 411.816C146.903 413.608 142.837 415.883 130.427 416.538Z" fill="#17D685"/>
<path d="M175.882 440.036C167.112 438.8 145.012 418.801 122.306 400.983C102.294 385.273 78.6178 375.193 61.233 395.754C47.4202 412.095 62.0549 431.217 83.4817 454.596C109.185 482.673 130.111 494.483 136.792 490.719C136.792 490.719 148.732 466.703 151.624 465.869C154.517 465.035 182.711 495.738 182.711 495.738C182.711 495.738 210.967 498.284 255.124 484.341C290.178 473.273 292.941 456.858 290.32 447.699C286.612 434.628 268.004 421.124 235.836 426.964C203.668 432.805 179.441 440.542 175.882 440.036Z" fill="#2929B2"/>
<path d="M136.687 489.804C135.056 490.577 127.992 489.903 130.47 479.533C134.178 463.903 147.157 452.649 149.567 454.262C151.977 455.875 136.687 489.804 136.687 489.804Z" fill="#212121"/>
<path d="M161.588 466.87C157.763 463.23 153.177 462.365 144.753 456.432C144.753 456.432 131.886 466.648 130.372 482.117C130.372 482.117 136.317 487.543 159.672 488.297C183.027 489.051 161.588 466.87 161.588 466.87Z" fill="#17D685"/>
<path d="M178.267 439.537C172.705 437.306 174.306 430.619 177.229 418.475C179.083 410.83 181.37 401.312 182.723 389.465C187.395 348.595 185.313 344.43 185.195 344.269L185.702 343.917C185.801 344.053 188.094 347.693 183.31 389.533C181.957 401.424 179.658 410.96 177.81 418.623C174.961 430.427 173.391 436.929 178.471 438.962L178.267 439.537Z" fill="#17D685"/>
<path d="M168.028 332.124C169.771 335.035 174.425 342.989 176.365 343.181C178.306 343.372 182.607 335.462 183.732 338.329C184.307 339.781 183.874 344.058 183.874 344.058C183.874 344.058 178.893 349.262 174.678 344.108C164.666 331.852 168.028 332.124 168.028 332.124Z" fill="#17D685"/>
<path d="M327.193 178.367C304.419 211.078 282.164 244.136 260.064 277.299L194.047 376.967C172.017 410.171 150.077 443.437 128.228 476.764L111.801 501.726L95.4236 526.731L62.7242 576.791C62.4552 577.202 62.034 577.49 61.5531 577.59C61.0722 577.691 60.5709 577.597 60.1594 577.328C59.7482 577.059 59.4606 576.638 59.3598 576.157C59.259 575.676 59.3532 575.175 59.6217 574.764L92.7475 525.007L109.286 500.101L125.768 475.164C147.733 441.923 169.674 408.661 191.593 375.378L257.221 275.451C279.006 242.078 300.637 208.612 321.742 174.801C321.969 174.437 322.265 174.122 322.613 173.873C322.962 173.624 323.356 173.446 323.773 173.349C324.191 173.253 324.623 173.24 325.045 173.311C325.468 173.381 325.872 173.535 326.235 173.762C326.599 173.988 326.915 174.284 327.165 174.632C327.414 174.98 327.593 175.375 327.69 175.792C327.787 176.209 327.8 176.642 327.73 177.064C327.66 177.487 327.507 177.892 327.28 178.255L327.193 178.367Z" fill="#212121"/>
<path d="M68.9957 591.773C62.593 591.55 47.742 583.769 46.2773 576.625C79.5206 502.234 90.6758 497.692 120.131 486.332C124.432 516.615 104.742 554.574 68.9957 591.773Z" fill="#212121"/>
<path d="M92.9378 563.473L61.8823 543.776C56.7837 552.966 52.1732 563.102 46.2773 576.624C47.742 583.768 62.5931 591.549 68.9957 591.772C77.5904 582.876 85.5885 573.422 92.9378 563.473Z" fill="#17D685"/>
<path d="M136.688 489.807C135.452 488.571 142.948 470.259 149.203 471.266C153.572 471.995 160.753 473.466 160.753 473.466C160.753 473.466 152.676 466.05 157.521 463.127C157.521 463.127 158.578 462.045 163.745 461.724C168.911 461.402 188.669 467.663 212.018 473.095C226.906 476.556 229.323 497.594 219.317 497.594C194.819 497.594 182.767 498.626 164.999 498.626C147.602 498.657 139.401 492.52 136.688 489.807Z" fill="#212121"/>
<path d="M532.084 221.257C530.453 219.626 532.702 216.523 538.883 210.905C545.063 205.288 544.204 205.288 543.023 200.85C541.843 196.413 541.04 194.268 544.797 191.092C548.555 187.915 562.837 174.529 564.907 176.302C566.483 177.656 562.386 182.291 558.109 186.358C556.645 187.754 549.89 194.392 550.421 196.116C551.292 198.916 555.174 203.489 553.085 205.584C549.828 208.835 534.155 223.328 532.084 221.257Z" fill="white"/>
<path d="M566.686 214.163C569.306 216.783 564.912 218.891 556.038 225.398C547.163 231.906 542.732 234.564 541.255 232.197C539.778 229.83 545.983 226.869 552.787 221.845C559.591 216.82 565.209 212.68 566.686 214.163Z" fill="white"/>
<path d="M557.522 244.032C560.742 247.654 555.155 251.127 553.084 247.58C551.261 244.459 555.155 241.369 557.522 244.032Z" fill="white"/>
<path d="M295.135 336.141C318.885 321.63 345.343 297.107 345.343 297.107" stroke="#0077FF" stroke-width="1.06953" stroke-miterlimit="10"/>
<path d="M347.427 183.726C348.325 183.512 349.227 183.306 350.133 183.108C350.356 183.059 350.588 183.08 350.798 183.17C351.007 183.26 351.183 183.414 351.301 183.609C351.418 183.805 351.471 184.032 351.453 184.259C351.434 184.486 351.344 184.702 351.196 184.875C348.384 188.145 332.384 205.443 327.094 211.129C344.732 210.665 378.389 185.376 377.32 175.142C376.98 172.156 358.291 180.314 347.427 183.726Z" fill="#DE0055"/>
<path d="M453.917 136.478L453.769 136.645C449.585 141.194 429.375 151.793 427.28 151.478C430.797 153.536 434.604 163.609 434.832 174.808C435.043 185.333 453.064 145.39 453.917 136.478Z" fill="#DE0055"/>
<path d="M187.156 343.527C188.553 340.727 188.553 337.304 189.956 337.767C191.359 338.231 193.046 344.615 195.401 343.373C197.755 342.13 200.691 330.771 201 328.744C201.309 326.717 202.094 332.322 199.603 339.015C197.113 345.709 194.356 347.464 191.569 342.773C190.018 340.177 187.156 343.527 187.156 343.527Z" fill="#17D685"/>
<path d="M157.021 385.305C157.012 385.159 156.972 385.016 156.905 384.885C156.838 384.754 156.745 384.638 156.631 384.545C155.97 384.057 154.456 384.292 152.849 384.545C151.65 384.767 150.435 384.895 149.215 384.928H148.962L148.912 384.675C148.529 382.759 144.345 382.104 137.442 382.883C137.163 382.916 136.88 382.859 136.635 382.72C136.39 382.581 136.197 382.368 136.082 382.11C135.964 381.852 135.931 381.563 135.989 381.285C136.047 381.007 136.192 380.755 136.404 380.565C141.218 376.171 147.034 366.709 152.355 354.608C160.389 336.371 150.192 323.794 146.601 321.853L146.898 321.31C150.606 323.3 161.112 336.216 152.923 354.849C147.571 367.037 141.7 376.573 136.818 381.023C136.703 381.123 136.624 381.258 136.593 381.408C136.562 381.557 136.58 381.712 136.645 381.851C136.705 381.989 136.809 382.105 136.94 382.179C137.072 382.254 137.224 382.284 137.374 382.265C142.436 381.696 148.56 381.603 149.45 384.304C150.559 384.255 151.664 384.132 152.756 383.933C154.567 383.649 156.137 383.402 157.002 384.051C157.18 384.194 157.326 384.372 157.433 384.574C157.539 384.776 157.603 384.998 157.62 385.225L157.021 385.305Z" fill="#17D685"/>
<path d="M225.51 395.804L224.892 395.742C227.327 369.977 226.746 355.571 225.85 347.963C224.861 339.719 223.272 337.575 223.254 337.556L223.742 337.173C224.014 337.507 230.225 345.992 225.51 395.804Z" fill="#17D685"/>
<path d="M212.018 473.125C197.296 468.972 173.904 462.711 163.744 461.753C162.491 461.689 161.236 461.844 160.036 462.211C160.036 462.211 176.933 463.088 200.591 474.114C201.11 474.355 189.417 487.97 196.827 497.561C203.18 497.598 210.343 497.623 219.298 497.623C229.335 497.629 226.708 477.266 212.018 473.125Z" fill="white"/>
<path d="M148.752 459.067L147.757 458.337C148.529 457.119 148.943 455.707 148.95 454.265C148.95 452.899 142.868 442.399 133.048 427.813C123.228 413.228 115.243 402.913 112.746 401.566L113.327 400.478C117.4 402.666 130.236 421.429 134.074 427.121C139.636 435.396 150.186 451.718 150.186 454.265C150.189 455.971 149.69 457.641 148.752 459.067Z" fill="#212121"/>
<path d="M177.508 464.286L176.89 463.217C177.001 463.155 187.822 456.938 201.474 450.511C214.101 444.565 231.801 437.223 244.439 435.981L244.563 437.217C234.674 438.187 219.978 443.175 202 451.636C188.391 458.032 177.613 464.255 177.508 464.286Z" fill="#212121"/>
<path d="M510.533 341.179H510.447C507.474 341.179 504.625 339.77 501.98 337.063L501.727 336.803L502.029 336.593C502.091 336.55 508.562 332.23 518.098 337.576L518.456 337.78L518.166 338.064C516.084 339.994 513.371 341.101 510.533 341.179ZM502.703 336.908C505.144 339.306 507.746 340.536 510.447 340.561C513.004 340.506 515.463 339.567 517.406 337.904C509.6 333.701 504.063 336.167 502.703 336.908Z" fill="#0077FF"/>
<path d="M510.551 359.094C510.125 359.094 509.692 359.094 509.247 359.045H508.883L508.969 358.686C508.969 358.612 510.941 351.084 521.614 348.742L522.016 348.656V349.063C521.723 351.904 520.404 354.541 518.308 356.48C516.33 358.216 513.728 359.094 510.551 359.094ZM509.686 358.476C513.104 358.649 515.866 357.827 517.9 356.047C519.765 354.303 520.974 351.97 521.323 349.44C512.721 351.461 510.205 356.987 509.686 358.451V358.476Z" fill="#0077FF"/>
<path d="M148.894 402.158C146.997 402.349 146.113 404.209 146.552 405.248C146.991 406.286 149.481 406.57 150.656 405.099C151.83 403.628 150.365 402.009 148.894 402.158Z" fill="#0077FF"/>
<path d="M162.83 320.092C162.83 320.092 162.917 325.864 168.238 322.706C168.238 322.731 168.145 319.022 162.83 320.092Z" fill="#212121"/>
<path d="M148.066 410.414C137.035 400.977 148.845 384.6 148.969 384.458L149.463 384.822C149.346 384.983 137.869 400.891 148.468 409.969L148.066 410.414Z" fill="#17D685"/>
<path d="M163.12 480.325C163.12 480.325 156.606 485.757 155.877 496.616H164.999C164.999 496.616 173.256 480.325 163.12 480.325Z" fill="#2929B2"/>
<path d="M456.229 90.9736C456.229 90.9736 458.657 91.8697 460.721 95.1947" stroke="#DE0055" stroke-width="1.06953" stroke-miterlimit="10" stroke-linecap="round"/>
<path d="M452.73 92.7032C452.73 92.7032 456.408 95.2185 457.848 97.2827" stroke="#DE0055" stroke-width="1.06953" stroke-miterlimit="10" stroke-linecap="round"/>
<path d="M450.035 95.6638C450.035 95.6638 453.626 98.1792 454.979 100.243" stroke="#DE0055" stroke-width="1.06953" stroke-miterlimit="10" stroke-linecap="round"/>
<path d="M448.058 98.7169C449.578 100.332 451.264 101.782 453.088 103.043" stroke="#DE0055" stroke-width="1.06953" stroke-miterlimit="10" stroke-linecap="round"/>
<path d="M152.638 354.725C150.697 363.291 141.47 381.151 147.125 382.641C145.187 382.342 143.226 382.218 141.266 382.27C138.584 382.418 136.402 383.222 136.211 381.794C136.038 380.502 139.264 379.606 144.313 370.837C148.478 363.6 152.638 354.725 152.638 354.725Z" fill="#17D685"/>
<path d="M183.064 13.6211C186.826 13.6211 189.875 10.5719 189.875 6.81057C189.875 3.0492 186.826 0 183.064 0C179.303 0 176.254 3.0492 176.254 6.81057C176.254 10.5719 179.303 13.6211 183.064 13.6211Z" fill="white"/>
<path d="M271.88 298.795C272.177 300.143 266.046 301.886 256.213 311.156C253.123 314.03 251.121 316.292 254.514 309.432C257.907 302.572 271.88 298.795 271.88 298.795Z" fill="#17D685"/>
<path d="M247.146 298.591C246.781 297.188 247.943 295.767 248.932 294.166C250.786 291.113 250.786 290.032 250.384 289.055C250.18 288.592 249.328 287.09 247.047 290.854C241.615 289.321 245.811 280.965 247.492 278.419C250.304 274.173 253.524 270.484 257.071 270.15C257.85 268.704 261.571 264.749 265.415 268.704C275.136 278.71 269.166 281.194 268.82 287.387C268.675 294.467 271.899 299.841 271.899 299.841C271.899 299.841 265.897 302.979 256.058 310.976C253.796 307.46 248.642 304.326 247.146 298.591Z" fill="#FF8481"/>
<path d="M259.884 310.729C258.098 312.292 259.661 314.746 261.892 314.078C264.124 313.411 261.67 309.165 259.884 310.729Z" fill="#0077FF"/>
<path d="M188.818 347.395C187.774 347.698 187.502 351.721 189.226 351.443C190.951 351.165 190.944 346.789 188.818 347.395Z" fill="#17D685"/>
<path d="M188.237 368.934C187.187 369.231 186.921 373.26 188.639 372.982C190.357 372.704 190.363 368.322 188.237 368.934Z" fill="#17D685"/>
<path d="M182.996 403.271C181.952 403.567 181.68 407.597 183.404 407.319C185.128 407.041 185.122 402.665 182.996 403.271Z" fill="#17D685"/>
<path d="M177.761 429.074C176.71 429.377 176.445 433.4 178.163 433.122C179.881 432.844 179.887 428.468 177.761 429.074Z" fill="#17D685"/>
<path d="M262.195 198.99C264.383 199.321 266.6 199.421 268.808 199.287" stroke="#DE0055" stroke-width="1.06953" stroke-miterlimit="10" stroke-linecap="round"/>
<path d="M262.295 195.203C264.553 195.222 266.808 195.366 269.05 195.635" stroke="#DE0055" stroke-width="1.06953" stroke-miterlimit="10" stroke-linecap="round"/>
<path d="M261.435 191.091C264.121 190.752 266.835 190.672 269.537 190.85" stroke="#DE0055" stroke-width="1.06953" stroke-miterlimit="10" stroke-linecap="round"/>
<path d="M261.002 186.768C261.002 186.768 263.579 185.352 268.418 186.335" stroke="#DE0055" stroke-width="1.06953" stroke-miterlimit="10" stroke-linecap="round"/>
<path d="M228.884 191.005C227.648 192.241 228.532 194.979 232.988 193.576C243.958 190.109 250.076 193.416 253.735 192.513C259.13 191.178 258.963 185.715 258.963 185.715C258.963 185.715 248.426 183.428 244.798 182.909C241.621 182.471 231.77 188.193 228.884 191.005Z" fill="#FFA9A9"/>
<path d="M235.292 193.113C239.841 191.006 245.106 189.195 246.497 191.346C246.771 191.69 246.927 192.113 246.941 192.553C246.956 192.993 246.828 193.425 246.577 193.787C246.577 193.787 249.5 194.04 249.951 196.148C250.06 196.718 249.989 197.308 249.748 197.837C249.506 198.365 249.107 198.805 248.604 199.096C249.057 199.114 249.492 199.28 249.842 199.569C250.191 199.859 250.436 200.255 250.539 200.696C250.648 201.18 250.628 201.683 250.48 202.156C250.332 202.63 250.063 203.055 249.698 203.391C249.698 203.391 251.799 203.224 251.632 205.579C251.466 207.933 249.024 209.794 245.063 210.134C239.89 210.572 235.292 193.113 235.292 193.113Z" fill="#FFA9A9"/>
<path d="M236.732 201.598C240.42 201.23 244.039 200.352 247.486 198.99" stroke="#FF8481" stroke-width="1.06953" stroke-miterlimit="10"/>
<path d="M251.429 202.749C251.429 202.749 247.721 205.363 240.23 206.667" stroke="#FF8481" stroke-width="1.06953" stroke-miterlimit="10"/>
<path d="M157.329 385.269C157.329 385.269 151.452 404.613 156.093 404.841C161.102 405.271 166.075 406.035 170.981 407.128C176.624 408.364 178.738 407.653 180.511 405.2C181.803 403.29 185.103 399.557 186.537 397.437C186.834 396.999 188.885 394.483 189.151 393.921C190.313 391.449 188.787 391.307 183.861 387.228C183.954 387.03 184.992 385.306 185.468 384.527C181.043 379.119 176.692 379.911 173.639 380.572C170.586 381.233 157.329 385.269 157.329 385.269Z" fill="#FF8481"/>
<path d="M254.092 284.141C252.819 284.605 246.886 287.447 244.562 285.185C244.031 287.719 244.383 290.13 247.034 290.853C249.315 287.089 250.168 288.591 250.372 289.054C250.804 290.031 250.804 291.112 248.919 294.165C248.956 294.165 255.39 283.665 254.092 284.141Z" fill="#E85353"/>
<path d="M512.072 319.776C510.515 318.837 508.42 319.115 507.61 319.276C507.419 318.157 506.597 314.752 503.377 314.949C502.37 314.975 501.399 315.332 500.614 315.963C500.614 316.222 500.658 316.488 500.682 316.76C501.034 316.388 501.458 316.091 501.927 315.886C502.396 315.681 502.902 315.573 503.414 315.567C506.609 315.388 507.029 319.523 507.042 319.702L507.079 320.067L507.431 319.974C507.431 319.974 510.051 319.3 511.757 320.332C512.114 320.55 512.42 320.841 512.658 321.184C512.895 321.528 513.058 321.918 513.135 322.328C513.246 322.706 513.27 323.104 513.205 323.492C513.141 323.881 512.991 324.25 512.765 324.572C511.646 326.111 508.877 326.364 508.846 326.364L508.494 326.395L508.574 326.741C508.574 326.741 509.192 329.609 508.117 331.104C507.918 331.372 507.662 331.591 507.366 331.745C507.071 331.899 506.744 331.984 506.411 331.994C503.068 332.266 502.351 330.14 502.32 330.078L502.017 329.102L501.727 330.085C501.568 330.597 501.328 331.081 501.016 331.518C501.016 331.846 501.016 332.136 500.973 332.476C501.448 332.04 501.823 331.507 502.073 330.913C502.604 331.679 503.847 332.829 506.467 332.612C506.887 332.593 507.297 332.481 507.668 332.283C508.04 332.085 508.362 331.807 508.612 331.469C509.644 330.06 509.384 327.792 509.23 326.939C510.064 326.815 512.208 326.37 513.253 324.937C513.531 324.542 513.718 324.091 513.8 323.615C513.883 323.139 513.858 322.651 513.729 322.186C513.635 321.692 513.439 321.222 513.154 320.807C512.869 320.392 512.501 320.041 512.072 319.776Z" fill="#0077FF"/>
<path d="M529.216 346.37C528.851 346.463 528.474 346.496 528.098 346.469C527.517 346.419 526.954 346.244 526.448 345.954C525.942 345.665 525.506 345.269 525.168 344.794C524.604 343.973 524.265 343.018 524.186 342.025C523.988 340.82 524.263 339.586 524.954 338.579C525.645 337.573 526.698 336.872 527.894 336.624C527.77 335.802 527.647 334.98 527.517 334.152C526.645 331.989 525.045 328.762 522.931 327.872C522.532 327.698 522.099 327.617 521.664 327.637C521.229 327.656 520.804 327.775 520.422 327.984C520.054 328.149 519.735 328.407 519.496 328.732C519.257 329.057 519.105 329.437 519.056 329.838C518.673 332.841 523.617 337.551 524.408 338.28C523.677 339.406 523.38 340.759 523.574 342.087C523.654 343.197 524.032 344.264 524.668 345.177C525.058 345.724 525.563 346.179 526.146 346.512C526.73 346.845 527.379 347.047 528.048 347.105H528.394C528.696 347.103 528.997 347.066 529.291 346.994L529.216 346.37ZM519.649 329.918C519.69 329.622 519.806 329.341 519.987 329.103C520.168 328.865 520.407 328.677 520.682 328.559C521.013 328.376 521.385 328.278 521.763 328.274C522.074 328.275 522.381 328.34 522.665 328.466C525.218 329.547 527.09 334.751 527.529 336.074C526.471 336.385 525.516 336.976 524.767 337.786C523.976 337.001 519.334 332.545 519.649 329.918Z" fill="#0077FF"/>
<path d="M526.243 357.959C526.719 357.961 527.182 357.804 527.56 357.514C529.074 356.37 529.537 353.157 529.655 350.53C529.543 349.325 529.414 348.058 529.259 346.773H529C529 346.859 529.581 355.196 527.189 357.001C526.94 357.182 526.647 357.292 526.34 357.322C526.034 357.351 525.725 357.298 525.446 357.168C525.016 357.038 524.623 356.807 524.3 356.494C523.978 356.181 523.735 355.795 523.592 355.369C522.51 352.155 526.144 346.426 526.181 346.371L525.662 346.037C525.502 346.278 521.83 352.069 523.005 355.561C523.173 356.073 523.46 356.539 523.842 356.919C524.225 357.299 524.692 357.583 525.205 357.748C525.535 357.881 525.887 357.952 526.243 357.959Z" fill="#0077FF"/>
<path d="M142.806 155.278C141.566 151.023 140.009 146.866 138.146 142.844H147.67C146.59 135.257 144.964 127.757 142.806 120.403C141.566 116.148 140.009 111.991 138.146 107.969H147.67C146.589 100.38 144.964 92.8783 142.806 85.5224C141.568 81.2662 140.01 77.1096 138.146 73.0878H147.67C146.59 65.5007 144.964 58.0012 142.806 50.6475C142.287 48.9047 141.743 47.2484 141.187 45.6663C136.948 47.1495 132.819 48.4535 128.777 49.6278C129.303 51.0863 129.822 52.6623 130.335 54.3804C132.131 60.5174 133.519 66.767 134.488 73.0878H123.197C125.36 76.0543 127.924 81.2147 130.335 89.2552C132.131 95.3943 133.519 101.646 134.488 107.969H123.19C125.36 110.935 127.924 116.083 130.335 124.136C132.131 130.273 133.519 136.523 134.488 142.844H123.197C125.36 145.81 127.924 150.964 130.335 159.011C130.576 159.814 130.804 160.618 131.027 161.421L143.733 158.547C143.437 157.454 143.128 156.36 142.806 155.278Z" fill="white"/>
<path d="M183.842 142.842C182.478 134.581 180.198 126.497 177.044 118.74C175.523 115.005 173.689 111.406 171.562 107.98H183.861C182.497 99.7182 180.217 91.6341 177.063 83.8773C175.54 80.1436 173.706 76.5444 171.581 73.1176H183.879C182.515 64.8559 180.235 56.7718 177.081 49.0148C175.56 45.2792 173.724 41.6796 171.593 38.2551H183.898C183.311 34.7571 182.514 31.0367 181.494 27.2358C177.46 29.5349 173.519 31.6526 169.671 33.5891C170.048 35.165 170.376 36.7224 170.672 38.2551H159.838C158.67 38.7804 157.502 39.2934 156.347 39.794C160.29 43.7925 163.244 49.775 164.999 54.0084C167.507 60.1782 169.389 66.5842 170.617 73.1299H154.653C159.449 76.974 163.003 84.0689 164.999 88.8832C167.509 95.0651 169.391 101.484 170.617 108.042H154.653C159.449 111.886 163.003 118.975 164.999 123.795C167.507 129.965 169.389 136.371 170.617 142.917H154.653C158.083 145.667 160.871 150.073 162.916 154.121C167.242 153.046 171.568 151.934 175.752 150.765C174.523 148.06 173.117 145.438 171.544 142.917L183.842 142.842Z" fill="white"/>
<path d="M39.7514 142.844V80.1952C30.3513 91.0043 28.3736 104.063 31.2412 114.094C31.2412 114.094 35.1224 127.733 39.7514 143.956V142.844Z" fill="white"/>
<path d="M60.4625 187.688C64.0801 184.385 68.1404 181.602 72.5262 179.419C72.4397 178.838 72.3594 178.27 72.2728 177.726H75.5607C75.2393 172.164 74.7697 165.427 74.1455 158.641C73.5645 152.406 72.9403 147.121 72.2914 142.845H75.5792C75.2579 137.283 74.7882 130.546 74.164 123.76C73.5831 117.531 72.9589 112.24 72.3099 107.97H75.5978C75.2764 102.408 74.8067 95.6714 74.1825 88.8855C73.6016 82.6497 72.9774 77.3657 72.3285 73.089H75.6163C75.4186 69.6837 75.1652 65.821 74.8562 61.7668C73.5769 62.0635 72.3038 62.3848 71.0245 62.6753C67.9877 63.4144 64.9975 64.3328 62.0694 65.4255C62.2671 68.1386 62.434 70.7282 62.5762 73.089H59.1338C59.8445 77.1617 60.7097 83.5953 61.5626 93.8235C61.989 98.8851 62.3289 103.774 62.5762 107.97H59.1338C59.8445 112.037 60.7097 118.476 61.5626 128.698C61.989 133.76 62.3289 138.655 62.5762 142.845H59.1338C59.8445 146.918 60.7097 153.351 61.5626 163.579C61.989 168.641 62.3289 173.529 62.5762 177.726H59.1338C59.5231 180.117 59.9928 183.356 60.4625 187.688Z" fill="white"/>
<path d="M108.519 156.966C107.645 152.197 106.5 147.482 105.089 142.844H111.572C110.898 136.553 109.872 129.13 108.519 122.085C107.645 117.318 106.5 112.605 105.089 107.969H111.572C110.898 101.672 109.872 94.2493 108.519 87.2101C107.647 82.4417 106.503 77.7268 105.095 73.0884H111.572C110.954 67.4768 110.088 60.9752 108.945 54.6343C104.619 55.5922 100.379 56.4884 96.2016 57.3042C96.2572 57.6132 96.3128 57.9222 96.3623 58.2312C97.2769 63.5029 97.9753 68.6324 98.4697 73.0636H91.2822C92.6851 76.5184 94.5453 82.5997 96.3623 93.0875C97.2769 98.353 97.9753 103.483 98.4697 107.92H91.2822C92.6851 111.375 94.5453 117.45 96.3623 127.938C97.2769 133.209 97.9753 138.339 98.4697 142.77H91.2822C92.6851 146.225 94.5453 152.3 96.3623 162.794C96.7764 165.173 97.1472 167.528 97.4685 169.802C101.535 168.566 105.762 167.441 110.119 166.329C109.65 163.282 109.118 160.081 108.519 156.966Z" fill="white"/>
<path d="M194.298 38.2137H185.467C190.411 40.6858 194.564 45.012 197.963 50.4258C196.671 46.0873 195.442 41.9713 194.298 38.2137Z" fill="white"/>
<path d="M214.996 107.967C211.906 97.6891 208.254 85.335 204.651 73.0858H185.492C196.363 78.4997 203.643 93.2579 206.832 107.967H214.996Z" fill="white"/>
<path d="M211.183 117.085C209.462 113.874 207.458 110.824 205.194 107.969H185.467C195.633 113.031 202.66 126.275 206.14 140.001C210.203 138.154 214.128 136.014 217.882 133.599C216.23 127.876 213.984 122.341 211.183 117.085Z" fill="white"/>
<path d="M185.467 142.843C187.262 143.752 188.943 144.872 190.473 146.18C193.588 145.121 196.606 144.009 199.527 142.843H185.467Z" fill="white"/>
<path d="M273.388 383.643L273.276 383.025C284.209 380.967 291.718 376.196 295.587 368.811C302.292 356.086 296.576 338.967 292.571 329.876C286.317 315.698 282.59 310.995 278.356 311.885L278.227 311.267C282.849 310.297 286.762 315.099 293.164 329.61C297.212 338.788 302.985 356.111 296.162 369.071C292.175 376.666 284.518 381.542 273.388 383.643Z" fill="#17D685"/>
<path d="M258.969 321.494C258.886 321.496 258.804 321.481 258.728 321.451C257.553 320.932 253.53 317.663 252.547 314.943C252.398 314.602 252.32 314.234 252.32 313.862C252.32 313.489 252.398 313.121 252.547 312.78L253.097 313.064C252.982 313.329 252.922 313.614 252.922 313.902C252.922 314.19 252.982 314.475 253.097 314.739C254.031 317.378 258.042 320.487 258.925 320.919C259.791 321.179 267.337 317.403 277.695 311.519C277.94 311.38 278.151 311.19 278.315 310.96C278.478 310.73 278.589 310.468 278.64 310.191C279.258 307.49 276.354 302.496 275.185 300.797C274.017 299.097 274.074 299.604 271.899 299.839L270.824 297.69C273.099 297.456 274.302 298.417 275.692 300.414C275.735 300.482 280.049 306.785 279.246 310.302C279.176 310.662 279.029 311.003 278.816 311.301C278.602 311.6 278.328 311.849 278.01 312.032C271.706 315.648 261.064 321.494 258.969 321.494Z" fill="#17D685"/>
</g>
<defs>
<clipPath id="clip0_67_2141">
<rect width="567.44" height="593.335" fill="white"/>
</clipPath>
</defs>
</svg>
