<svg width="129" height="42" viewBox="0 0 129 42" fill="none" xmlns="http://www.w3.org/2000/svg">
<path d="M64.1785 31.0003H60.75V14.0003H53.8928V10.8574H71.0357V14.0003H64.1785V31.0003Z" fill="white"/>
<path d="M84.9073 23.4003C84.9073 23.686 84.8883 24.0384 84.8502 24.4574H72.9073C73.0597 25.6193 73.5359 26.5527 74.3359 27.2574C75.1359 27.9431 76.1549 28.286 77.393 28.286C78.2311 28.286 78.9835 28.1241 79.6502 27.8003C80.3359 27.4765 80.8597 27.0384 81.2216 26.486L84.3073 27.0003C83.774 28.3717 82.8502 29.4289 81.5359 30.1717C80.2407 30.9146 78.793 31.286 77.193 31.286C75.7073 31.286 74.374 30.9622 73.193 30.3146C72.0311 29.6479 71.1169 28.7336 70.4502 27.5717C69.8026 26.3908 69.4788 25.0574 69.4788 23.5717C69.4788 22.086 69.8026 20.7622 70.4502 19.6003C71.1169 18.4193 72.0311 17.505 73.193 16.8574C74.374 16.1908 75.7073 15.8574 77.193 15.8574C78.6788 15.8574 80.0026 16.1908 81.1645 16.8574C82.3454 17.505 83.2597 18.4098 83.9073 19.5717C84.574 20.7146 84.9073 21.9908 84.9073 23.4003ZM77.193 18.7146C76.2026 18.7146 75.3359 19.0003 74.593 19.5717C73.8692 20.1431 73.374 20.9146 73.1073 21.886H81.3359C81.0502 20.9336 80.5359 20.1717 79.793 19.6003C79.0692 19.0098 78.2026 18.7146 77.193 18.7146Z" fill="white"/>
<path d="M93.5247 15.8574C95.4295 15.8574 96.9247 16.4574 98.0105 17.6574C99.1152 18.8384 99.6676 20.505 99.6676 22.6574V31.0003H97.239L96.5533 28.6574C96.1343 29.3622 95.5152 29.9812 94.6962 30.5146C93.8771 31.0289 92.9057 31.286 91.7819 31.286C90.7914 31.286 89.8962 31.086 89.0962 30.686C88.3152 30.286 87.7057 29.7241 87.2676 29.0003C86.8295 28.2765 86.6105 27.4574 86.6105 26.5431C86.6105 25.1336 87.1628 24.0098 88.2676 23.1717C89.3914 22.3146 91.02 21.886 93.1533 21.886H96.3533C96.2771 20.8955 95.9724 20.1146 95.439 19.5431C94.9247 18.9527 94.2295 18.6574 93.3533 18.6574C92.6485 18.6574 92.039 18.8289 91.5247 19.1717C91.0105 19.5146 90.6295 19.9336 90.3819 20.4289L87.3533 19.9146C87.7152 18.6574 88.4581 17.6669 89.5819 16.9431C90.7247 16.2193 92.039 15.8574 93.5247 15.8574ZM92.5533 28.5146C93.6962 28.5146 94.62 28.1431 95.3247 27.4003C96.0295 26.6574 96.3819 25.6765 96.3819 24.4574H93.2676C91.039 24.4574 89.9247 25.105 89.9247 26.4003C89.9247 27.0479 90.1628 27.5622 90.639 27.9431C91.1152 28.3241 91.7533 28.5146 92.5533 28.5146Z" fill="white"/>
<path d="M103.232 31.0003V16.1431H105.689L106.289 18.2574C106.689 17.5527 107.242 16.9812 107.946 16.5431C108.651 16.086 109.499 15.8574 110.489 15.8574C111.48 15.8574 112.365 16.0955 113.146 16.5717C113.927 17.0479 114.508 17.705 114.889 18.5431C115.251 17.8003 115.823 17.1717 116.604 16.6574C117.404 16.1241 118.346 15.8574 119.432 15.8574C120.461 15.8574 121.375 16.1241 122.175 16.6574C122.994 17.1717 123.623 17.8955 124.061 18.8289C124.518 19.7431 124.746 20.7908 124.746 21.9717V31.0003H121.461V22.286C121.461 21.2574 121.194 20.4193 120.661 19.7717C120.127 19.1241 119.432 18.8003 118.575 18.8003C117.718 18.8003 117.013 19.1336 116.461 19.8003C115.908 20.4479 115.632 21.2765 115.632 22.286V31.0003H112.346V22.286C112.346 21.2574 112.08 20.4193 111.546 19.7717C111.013 19.1241 110.318 18.8003 109.461 18.8003C108.604 18.8003 107.899 19.1336 107.346 19.8003C106.794 20.4479 106.518 21.2765 106.518 22.286V31.0003H103.232Z" fill="white"/>
<path d="M19.918 41C10.91 41 6.382 41 3.582 38.216C0.75 35.416 0.75 30.888 0.75 21.848V20.184C0.75 11.144 0.75 6.616 3.582 3.816C6.382 1 10.91 1 19.918 1H21.582C30.622 1 35.118 1 37.95 3.816C40.75 6.632 40.75 11.144 40.75 20.184V21.848C40.75 30.888 40.75 35.416 37.95 38.216C35.118 41 30.622 41 21.582 41H19.918Z" fill="white"/>
<path d="M22.718 29.8478V23.8958C25.998 24.2318 28.4459 26.6798 29.454 29.8478H34.19C32.91 25.1118 29.582 22.4878 27.502 21.4958C29.566 20.2638 32.4939 17.2558 33.1819 13.1918H28.878C27.982 16.5038 25.294 19.4958 22.718 19.7838V13.1758H18.35V24.7118C15.694 24.0398 12.222 20.8078 12.062 13.1758H7.50195C7.70995 23.5758 13.182 29.8318 22.206 29.8318L22.718 29.8478Z" fill="#0C6EFF"/>
</svg>
