<svg width="434" height="406" viewBox="0 0 434 406" fill="none" xmlns="http://www.w3.org/2000/svg">
<g clip-path="url(#clip0_260_3835)">
<path d="M355.448 354.3C360.227 359.079 367.758 374.296 368.557 380.69C368.557 380.69 397.26 383.328 392.452 375.008C383.262 359.022 378.258 338.286 378.258 338.286L355.448 354.3Z" fill="#FFA9A9"/>
<path d="M318.663 375.074C318.563 368.192 318.061 350.223 318.061 349.745C318.061 349.267 289.802 342.099 289.802 342.099C289.802 342.099 297.282 368.383 294.954 378.171C293.912 382.572 317.731 380.001 317.731 380.001L318.663 375.074Z" fill="#FFA9A9"/>
<path d="M293.506 357.736C298.658 359.647 313.707 362.343 318.405 363.155C318.238 356.512 318.061 350.037 318.061 349.74L292.311 352.077C292.713 353.85 293.124 355.762 293.506 357.736Z" fill="#FF8481"/>
<path d="M271.733 76.9668L356.236 30.7916C359.582 28.9517 356.313 21.525 358.033 24.6696L345.861 2.34669C345.287 1.29738 344.319 0.519132 343.171 0.18306C342.023 -0.153013 340.789 -0.0193922 339.739 0.554542L255.236 46.725C254.716 47.0096 254.145 47.1889 253.556 47.2526C252.967 47.3164 252.371 47.2632 251.802 47.0963C251.233 46.9294 250.703 46.652 250.242 46.2799C249.781 45.9079 249.397 45.4485 249.114 44.928L244.545 36.5838C244.117 35.8012 243.467 35.163 242.676 34.7499C241.885 34.3368 240.99 34.1674 240.103 34.2631C239.216 34.3587 238.378 34.7151 237.693 35.2873C237.009 35.8594 236.51 36.6216 236.258 37.4775L223.833 79.8868C223.666 80.4554 223.612 81.0513 223.675 81.6406C223.739 82.2299 223.918 82.8009 224.202 83.321C224.486 83.8411 224.869 84.3002 225.331 84.672C225.792 85.0438 226.323 85.321 226.891 85.4878L269.301 97.9134C270.159 98.1702 271.074 98.1662 271.929 97.9018C272.785 97.6373 273.543 97.1244 274.106 96.4283C274.67 95.7321 275.014 94.8841 275.094 93.9921C275.174 93.1001 274.988 92.2043 274.558 91.4186L269.998 83.0744C269.423 82.0335 269.283 80.8073 269.608 79.6632C269.933 78.5192 270.697 77.5499 271.733 76.9668Z" fill="white"/>
<path d="M337.387 87.0882C340.733 84.7943 354.836 123.911 351.027 128.064C347.218 132.217 336.541 111.232 336.541 111.232L337.387 87.0882Z" fill="#212121"/>
<path d="M286.443 109.487C284.23 108.866 275.451 101.664 282.261 92.0773C290.027 81.1476 297.507 74.629 306.329 80.3829C313.019 79.8047 315.82 83.929 317.927 96.2972C319.098 103.227 319.576 114.806 304.986 112.116C292.082 109.741 286.443 109.487 286.443 109.487Z" fill="#2929B2"/>
<path d="M261.061 219.884L284.526 354.075C284.526 354.075 301.487 360.187 319.576 357.75C322.878 357.305 320.723 251.335 320.723 251.335L272.894 220.773L261.061 219.884Z" fill="#FF3985"/>
<path d="M316.097 195.669C316.097 195.669 385.494 340.03 384.318 341.53C380.179 346.787 366.554 355.624 348.924 356.823C346.592 356.981 263.977 227.789 263.977 227.789L316.097 195.669Z" fill="#FF3985"/>
<path d="M298.07 375.49C293.912 373.54 294.577 373.817 285.487 380.336C278.686 385.215 268.693 390.902 264.191 394.42C263.069 395.285 262.3 396.529 262.029 397.919C261.757 399.31 262.001 400.752 262.715 401.975C264.215 404.504 266.834 407.046 271.279 407.046H319.858C322.381 407.046 323.423 405.412 322.931 396.929C322.486 389.201 320.689 375.7 318.677 375.074C303.767 370.453 300.34 372.058 298.07 375.49Z" fill="#2929B2"/>
<path d="M286.443 109.488C289.31 113.952 286.863 121.799 286.099 123.046C281.903 129.866 285 140.868 292.842 138.191C300.684 135.515 308.245 119.405 308.245 119.405C308.245 119.405 306.333 115.328 309.722 108.843C313.11 102.358 286.443 109.488 286.443 109.488Z" fill="#FFA9A9"/>
<path d="M291.958 115.065C291.754 115.068 291.554 115.127 291.38 115.235C291.207 115.344 291.066 115.498 290.974 115.68C290.881 115.863 290.84 116.067 290.856 116.271C290.871 116.475 290.941 116.671 291.06 116.838C292.446 118.797 295.59 120.561 299.466 119.868C306.673 118.573 308.202 113.282 308.202 113.282L291.958 115.065Z" fill="#FF8481"/>
<path d="M270.567 116.451C278.954 114.616 286.151 121.832 295.074 123.467C304.421 125.178 335.892 86.9166 337.387 87.103C336.169 94.4101 343.122 125.88 351.027 128.079C344.867 139.954 321.019 152.93 319.724 162.392C316.379 186.947 327.241 206.536 326.821 212.027C326.697 213.7 325.765 212.883 324.599 212.759C304.426 190.297 297.884 242.131 275.346 242.542C262.375 242.776 260.803 239.98 259.78 226.661C258.758 213.342 255.116 180.734 254.586 171.702C254.065 162.903 239.565 152.896 243.302 145.799C247.039 138.702 259.259 118.927 270.567 116.451Z" fill="#2929B2"/>
<path d="M332.092 92.2686L328.628 95.9771C330.254 101.02 332.852 105.695 336.274 109.741C338.149 111.989 340.28 114.01 342.625 115.762H342.793C341.88 113.268 341.048 110.582 340.327 107.872C336.297 103.458 333.462 98.0866 332.092 92.2686Z" fill="#0077FF"/>
<path d="M311.452 207.932C308.436 203.672 306.471 198.759 305.717 193.595H301.382V193.552C294.558 193.552 281.688 182.135 279.767 167.649H275.432V167.606C268.608 167.606 255.738 156.185 253.821 141.699H249.482V141.656C248.322 141.619 247.179 141.372 246.108 140.925L245.63 141.699H249.453C250.514 150.951 255.384 158.034 258.433 161.647C260.303 163.885 262.427 165.9 264.76 167.649H275.399C276.46 176.902 281.334 183.984 284.383 187.597C286.251 189.836 288.375 191.849 290.711 193.595H301.349C302.156 200.634 305.172 206.408 307.906 210.365C308.957 209.378 310.153 208.558 311.452 207.932Z" fill="#0077FF"/>
<path d="M305.717 167.645H301.382V167.602C294.557 167.602 281.687 156.18 279.766 141.694H275.432V141.651C270.318 141.651 261.816 135.243 257.061 125.938C256.043 127.061 255.049 128.232 254.089 129.427C255.353 131.642 256.815 133.739 258.457 135.692C260.329 137.93 262.454 139.945 264.789 141.694H275.422C276.483 150.947 281.358 158.029 284.407 161.642C286.276 163.882 288.399 165.896 290.734 167.645H301.372C302.433 176.897 307.308 183.979 310.352 187.592C312.223 189.831 314.348 191.843 316.684 193.59H321.965C321.803 192.955 321.645 192.3 321.487 191.635C314.873 187.803 307.15 178.603 305.717 167.645Z" fill="#0077FF"/>
<path d="M306.089 117.948C304.78 118.994 303.518 119.936 302.323 120.724C303.901 126.226 306.633 131.329 310.338 135.692C312.21 137.932 314.337 139.946 316.675 141.695H327.308C327.638 144.484 328.31 147.223 329.311 149.848C330.429 148.839 331.6 147.821 332.799 146.789C332.268 145.128 331.884 143.423 331.652 141.695H327.318V141.652C320.842 141.652 308.933 131.372 306.089 117.948Z" fill="#0077FF"/>
<path d="M280.068 117.589C278.593 117.005 277.06 116.581 275.494 116.327C276.689 125.293 281.411 132.155 284.393 135.692C286.264 137.931 288.389 139.946 290.725 141.694H301.359C302.42 150.947 307.294 158.029 310.338 161.642C312.211 163.881 314.335 165.895 316.671 167.645H319.218C319.285 166.565 319.371 165.48 319.49 164.381C313.392 159.993 307.007 151.558 305.703 141.694H301.368V141.651C294.835 141.651 282.778 131.19 280.068 117.589Z" fill="#0077FF"/>
<path d="M331.653 115.762H327.318V115.719C324.183 115.719 319.772 113.306 315.734 109.296C314.695 110.303 313.66 111.291 312.627 112.259C313.889 113.524 315.242 114.695 316.675 115.762H327.309C328.37 125.014 333.244 132.097 336.288 135.71C337.607 137.272 339.045 138.729 340.59 140.068C341.679 139.113 342.74 138.104 343.749 137.125C338.214 132.489 332.838 124.689 331.653 115.762Z" fill="#0077FF"/>
<path d="M279.752 193.59H275.418V193.547C269.205 193.547 257.912 184.022 254.543 171.329C254.543 171.458 254.576 171.587 254.586 171.716C254.734 174.23 255.121 178.583 255.632 183.84C256.499 185.142 257.437 186.394 258.443 187.592C260.311 189.831 262.434 191.844 264.77 193.59H275.408C276.469 202.847 281.344 209.929 284.393 213.537C286.264 215.777 288.389 217.791 290.725 219.54H300.536C300.556 219.509 300.576 219.478 300.599 219.449C293.616 218.661 281.602 207.549 279.752 193.59Z" fill="#0077FF"/>
<path d="M253.491 167.644C253.687 168.079 253.861 168.524 254.012 168.978C253.936 168.538 253.864 168.089 253.807 167.644H253.491Z" fill="#0077FF"/>
<path d="M279.752 219.541H275.417V219.498C270.548 219.498 262.605 213.686 257.735 205.094C258.031 208.061 258.323 210.977 258.59 213.734C260.419 215.896 262.487 217.844 264.755 219.541H275.389C276.445 228.745 281.272 235.789 284.321 239.426C285.491 238.605 286.596 237.692 287.623 236.697C283.805 232.157 280.631 226.16 279.752 219.541Z" fill="#0077FF"/>
<path d="M267.193 241.93C264.947 240.229 262.921 238.256 261.162 236.056C262.175 239.349 263.9 241.108 267.193 241.93Z" fill="#0077FF"/>
<path d="M303.203 83.3087C310.161 85.464 312.183 85.053 311.031 101.636C310.945 102.879 314.023 101.894 314.094 104.733C314.128 106.2 313.186 108.107 310.749 107.949C309 114.812 304.536 118.659 295.934 116.657C286.543 114.463 283.953 108.714 285.42 101.603C285.578 100.829 283.284 99.0365 285.219 96.4893C287.155 93.9421 288.565 97.0867 289.043 96.107C295.743 83.2179 297.506 81.5404 303.203 83.3087Z" fill="#FFA9A9"/>
<path d="M295.638 91.7677C295.017 92.8191 295.289 93.3113 296.479 93.5216C297.215 93.6506 297.989 93.3878 297.913 92.0544C297.884 90.9791 296.359 90.5299 295.638 91.7677Z" fill="#212121"/>
<path d="M307.06 94.8114C307.146 96.0301 306.687 96.3503 305.526 96.011C304.809 95.8007 304.231 95.2224 304.876 94.0563C305.392 93.1101 306.955 93.3825 307.06 94.8114Z" fill="#212121"/>
<path d="M295.227 87.1503C296.837 86.1323 301.918 85.382 301.282 87.7907C301.091 88.5266 299.729 88.5505 298.673 88.5266C297.616 88.5027 296.761 88.6413 295.667 88.4263C294.849 88.2638 294.696 87.4896 295.227 87.1503Z" fill="#2929B2"/>
<path d="M309.818 91.8683C307.987 91.9353 303.504 90.0571 305.153 88.3319C305.664 87.7966 306.773 88.2936 307.638 88.8098C308.501 89.3265 309.315 89.9199 310.071 90.5828C310.668 91.1276 310.42 91.8683 309.818 91.8683Z" fill="#2929B2"/>
<path d="M301.631 97.8467C301.908 97.3688 301.182 97.5981 300.47 96.7905C299.662 95.8777 301.875 92.3508 301.425 92.1644C300.976 91.978 299.28 94.9983 299.117 96.3413C298.935 97.9661 301.167 98.64 301.631 97.8467Z" fill="#FF8481"/>
<path d="M293.325 99.2651C291.556 100.006 291.494 106.778 297.1 108.536C303.036 110.396 306.051 104.388 305.086 103.165C304.574 102.51 294.085 98.9497 293.325 99.2651Z" fill="white"/>
<path d="M348.551 30.8673C349.469 30.3559 345.302 18.4417 346.993 16.554C347.753 15.6986 348.833 17.701 349.139 16.7595C350.157 13.5958 350.874 14.4178 352.403 15.8419C356.136 12.4966 361.092 27.7896 361.006 33.6726C360.967 35.9378 352.451 40.8937 353.197 43.1829C358.372 59.1019 367.668 73.8214 363.801 87.2601C361.159 96.4597 349.335 116.613 345.431 122.032C336.943 106.204 336.781 87.8049 336.781 87.8049C336.781 87.8049 342.114 81.8311 342.941 77.3627C343.787 72.7843 338.133 45.0085 338.544 41.5485C338.673 40.4254 338.033 40.4397 343.28 37.773C345.574 36.6117 338.64 25.0273 341.369 22.7047C343.538 20.8456 347.629 31.3739 348.551 30.8673Z" fill="#FFA9A9"/>
<path d="M231.957 137.899C233.988 137.957 240.636 159.013 243.193 159.19C245.749 159.367 256.574 102.917 256.842 102.066C259.097 94.9642 255.642 93.9081 255.642 93.9081C255.642 93.9081 252.646 92.9236 250.385 92.2784C248.125 91.6332 252.842 83.7621 252.344 81.105C252 79.2889 250.29 79.3654 249.511 80.6271C248.598 82.1325 245.606 89.5113 244.856 89.4444C244.105 89.3775 247.307 80.8421 246.552 78.1324C245.988 76.0965 244.105 77.2435 243.389 77.4538C242.911 77.5972 243.126 76.7369 242.7 76.2303C242.537 76.0546 242.336 75.9183 242.113 75.8316C241.889 75.7449 241.649 75.7101 241.41 75.7299C241.171 75.7497 240.94 75.8235 240.734 75.9458C240.528 76.0681 240.352 76.2357 240.22 76.4358C239.412 77.4729 235.919 85.9939 235.102 86.3811C234.284 86.7682 238.046 77.0619 235.446 77.4681C233.764 77.7357 229.711 89.8937 231.345 93.4349C232.98 96.9762 243.518 99.2988 242.92 102.611C240.784 114.563 226.863 137.77 231.957 137.899Z" fill="#FFA9A9"/>
<path d="M20.3598 182.105C19.686 183.658 36.6994 190.153 35.7914 192.939C30.6634 208.615 23.1795 240.859 28.6706 255.798C35.1414 273.395 53.7367 265.27 62.6544 258.771C71.5721 252.271 56.499 199.511 56.499 199.511L55.8921 175.276C55.8921 175.276 23.9107 173.957 20.3598 182.105Z" fill="#8024C0"/>
<path d="M56.3555 184.386C58.0807 180.926 58.53 157.876 50.7545 159.401C42.979 160.925 24.3693 168.003 8.61279 178.574C1.15747 183.569 0.378487 191.55 7.17907 192.74C10.4527 193.313 18.1709 193.05 24.5558 193.571C30.0278 194.016 33.7793 197.275 34.6921 196.563C36.6658 195.019 34.8163 183.181 38.6778 182.039C42.5393 180.897 50.635 187.774 56.3555 184.386Z" fill="white"/>
<path d="M56.5373 166.335C55.6054 162.034 53.8181 158.799 50.7547 159.401C42.984 160.921 29.1677 164.581 8.22116 177.265C3.47079 180.132 1.64519 185.27 2.4863 188.711C2.68925 189.676 3.17704 190.558 3.88659 191.244C7.23192 189.853 11.3275 179.239 29.8894 170.584C38.4486 166.589 53.6412 160.792 56.5373 166.335Z" fill="#212121"/>
<path d="M175.029 353.979C175.235 355.212 177.5 367.508 176.267 369.152C175.034 370.796 180.167 387.016 180.167 387.016L194.752 385.788L196.434 373.023L196.597 358.06L175.029 353.979Z" fill="#FFA9A9"/>
<path d="M218.738 353.979C218.533 355.212 216.272 367.508 217.505 369.152C218.738 370.796 213.601 387.016 213.601 387.016L199.02 385.788L197.405 374.796L197.17 358.069L218.738 353.979Z" fill="#FFA9A9"/>
<path d="M184.893 95.4616C184.893 95.4616 182.565 89.9801 183.096 75.5712C183.134 74.6154 183.249 73.5401 184.271 72.7038C186.69 70.7922 187.732 72.288 189.313 71.4995C190.895 70.7109 191.798 68.1541 194.513 68.2593C197.227 68.3644 198.14 69.9893 199.497 69.8746C200.855 69.7599 201.997 68.7085 203.799 68.8232C205.6 68.9379 206.633 71.7719 208.214 71.8866C209.796 72.0013 211.082 71.1267 212.487 72.5461C213.596 73.6548 213.491 74.8257 213.476 75.7624C213.371 81.9751 212.845 91.7196 210.843 95.7484C205.834 105.875 184.893 95.4616 184.893 95.4616Z" fill="#FF3985"/>
<path d="M105.575 284.043C105.575 284.043 86.8939 340.847 83.4387 368.456C79.9834 396.064 73.8567 394.143 73.8567 394.143L64.2699 373.832C64.2699 373.832 60.5184 339.8 65.0011 311.609C68.3465 290.686 76.8149 278.676 76.8149 269.854C76.8149 261.032 105.575 284.043 105.575 284.043Z" fill="#8024C0"/>
<path d="M131.282 123.348C131.282 123.348 110.995 126.879 103.085 126.487C95.1759 126.096 80.1458 178.441 80.1458 178.441C80.1123 178.589 51.5241 204.056 44.0305 220.066C40.04 228.582 35.2131 256.54 49.7127 270.863C53.0151 274.117 54.8072 276.153 58.315 273.128L69.7322 264.444C69.7322 264.444 65.4311 273.013 69.1205 276.392C72.8099 279.771 92.0599 288.942 109.523 287.107C109.523 287.107 125.131 208.73 127.583 203.239C130.034 197.748 144.83 172.854 144.472 156.218C144.113 139.582 131.282 123.348 131.282 123.348Z" fill="#212121"/>
<path d="M77.001 206.847C75.028 206.875 73.0611 206.619 71.161 206.087C71.0415 206.046 70.9428 205.961 70.8864 205.848C70.83 205.735 70.8205 205.604 70.8599 205.485C70.8798 205.425 70.9114 205.37 70.9527 205.322C70.9941 205.275 71.0444 205.236 71.1008 205.208C71.1572 205.18 71.2185 205.163 71.2814 205.159C71.3442 205.155 71.4072 205.163 71.4668 205.184C75.3613 206.23 79.473 206.15 83.3234 204.951C87.1738 203.752 90.6045 201.484 93.2163 198.412C93.2578 198.364 93.3084 198.325 93.3651 198.297C93.4218 198.269 93.4835 198.252 93.5466 198.248C93.6097 198.244 93.673 198.253 93.7328 198.274C93.7926 198.294 93.8477 198.327 93.8949 198.369C93.9899 198.452 94.0477 198.57 94.0558 198.697C94.0638 198.823 94.0215 198.947 93.9379 199.043C88.27 205.47 81.6462 206.847 77.001 206.847Z" fill="#0077FF"/>
<path d="M40.9576 234.642C40.8563 234.642 40.7576 234.61 40.6756 234.551C40.6247 234.514 40.5815 234.467 40.5486 234.414C40.5158 234.36 40.4938 234.3 40.4841 234.238C40.4743 234.176 40.4769 234.113 40.4918 234.051C40.5066 233.99 40.5333 233.933 40.5705 233.882C46.9218 225.179 52.1214 220.768 74.0238 202.201C84.1984 193.566 90.0193 176.289 90.0767 176.117C90.0961 176.057 90.1273 176.002 90.1684 175.954C90.2096 175.906 90.2598 175.866 90.3163 175.838C90.3727 175.809 90.4342 175.792 90.4973 175.788C90.5603 175.783 90.6237 175.791 90.6836 175.812C90.7433 175.831 90.7985 175.863 90.846 175.904C90.8935 175.946 90.9323 175.996 90.9603 176.052C90.9882 176.109 91.0048 176.17 91.009 176.233C91.0132 176.296 91.0049 176.359 90.9847 176.418C90.9273 176.595 85.0204 194.101 74.6403 202.928C52.8287 221.437 47.6435 225.834 41.359 234.446C41.3131 234.509 41.2526 234.559 41.1826 234.594C41.1126 234.628 41.0354 234.644 40.9576 234.642Z" fill="#0077FF"/>
<path d="M129.499 114.439C129.499 114.439 164.458 49.869 168.477 42.8342C172.496 35.7994 175.373 23.2783 177.514 22.5137C182.193 20.841 176.525 35.7516 178.527 36.0527C184.487 36.9464 202.394 30.2748 203.899 31.2737C204.965 31.9857 204.411 33.214 203.995 33.8783C203.963 33.9261 203.944 33.9811 203.938 34.0382C203.933 34.0954 203.942 34.153 203.964 34.206C203.986 34.2589 204.021 34.3056 204.066 34.3418C204.11 34.378 204.163 34.4026 204.219 34.4135C205.008 34.5951 206.251 35.1304 206.179 36.7505C206.04 39.9046 196.807 43.379 193.275 45.1712C193.228 45.1925 193.19 45.2309 193.169 45.2788C193.148 45.3267 193.145 45.3807 193.162 45.4303C193.179 45.4798 193.213 45.5213 193.259 45.5468C193.305 45.5722 193.358 45.5797 193.409 45.5678C196.869 44.937 205.07 42.4614 205.099 45.1855C205.127 48.4066 181.796 53.9742 176.826 59.2837C171.215 65.2671 158.226 120.064 152.869 129.507C148.802 136.671 129.499 114.439 129.499 114.439Z" fill="#FF8481"/>
<path d="M130.173 111.739C130.173 111.739 143.793 112.618 153.59 125.669C154.203 126.504 154.585 127.486 154.695 128.516C154.806 129.546 154.643 130.587 154.221 131.533C151.731 137.235 146.378 149.737 144.476 156.203C144.476 156.203 134.216 125.698 123.52 124.747C112.825 123.796 130.173 111.739 130.173 111.739Z" fill="white"/>
<path d="M109.742 128.025C115.195 134.764 116.911 145.779 117.126 154.654C117.279 161.182 120.983 164.403 130.235 163.295C137.68 162.401 137.752 157.88 136.447 151.705C134.445 142.104 128.457 127.213 122.474 125.282C116.49 123.351 109.742 128.025 109.742 128.025Z" fill="white"/>
<path d="M127.195 118.936C125.848 121.641 126.627 130.545 126.627 136.528C126.627 142.511 125.47 146.177 121.222 145.212C116.973 144.246 112.619 128.729 107.802 126.459C107.802 126.459 110 119.099 107.506 116.81C105.011 114.521 127.195 118.936 127.195 118.936Z" fill="#FF8481"/>
<path d="M107.988 84.2539C106.588 84.6745 91.4861 81.4247 89.0441 93.9219C86.602 106.419 89.1444 119.729 109.259 118.042C129.374 116.355 139.63 101.052 131.329 86.7964C123.028 72.5404 108.968 83.9624 107.988 84.2539Z" fill="#212121"/>
<path d="M124.624 121.044L124.964 120.915C118.273 123.242 114.259 121.598 113.016 121.178C112.017 120.838 111.95 122.267 114.364 124.552C118.727 128.681 124.944 127.663 126.789 119.882C126.259 119.94 124.791 121.287 124.624 121.044Z" fill="#E85353"/>
<path d="M110.626 91.1371C114.66 89.7034 117.656 88.198 127.181 101.823C127.659 102.492 128.825 100.963 130.474 102.225C131.616 103.099 131.755 105.25 130.416 107.3C131.745 113.546 129.107 119.94 122.77 122.144C117.47 123.984 109.972 121.46 107.401 116.409C107.042 115.701 103.099 115.534 103.233 112.337C103.367 109.14 107.133 110.191 106.932 109.106C104.519 96.1169 106.335 92.6569 110.626 91.1371Z" fill="#FF8481"/>
<path d="M109.843 101.812C109.938 103.031 110.44 103.279 111.539 102.768C112.213 102.453 112.701 101.812 111.888 100.737C111.234 99.8767 109.728 100.383 109.843 101.812Z" fill="#212121"/>
<path d="M120.624 97.645C121.351 98.5434 121.169 99.0405 120.084 99.4037C119.415 99.6283 118.65 99.4945 118.521 98.2423C118.412 97.2292 119.769 96.5936 120.624 97.645Z" fill="#212121"/>
<path d="M106.937 99.1657C107.673 97.407 110.76 94.3866 111.477 95.8204C111.745 96.5324 110.923 96.9052 110.043 97.4931C109.164 98.0809 108.371 98.9268 107.654 99.6292C106.908 99.9924 106.693 99.7488 106.937 99.1657Z" fill="#212121"/>
<path d="M121.035 93.2782C119.152 93.4406 115.27 94.1479 115.401 93.2782C115.511 92.547 116.705 92.3224 117.719 92.2602C118.72 92.1902 119.726 92.211 120.725 92.3224C121.532 92.4132 121.513 92.915 121.035 93.2782Z" fill="#212121"/>
<path d="M117.011 104.709C116.562 104.399 117.274 104.198 117.585 103.166C117.934 101.995 115.926 101.101 116.251 100.743C116.576 100.384 117.929 101.139 118.641 102.291C119.506 103.682 117.766 105.249 117.011 104.709Z" fill="#E85353"/>
<path d="M118.779 107.432C115.577 108.814 112.882 108.489 112.524 109.296C111.683 111.208 116.557 117.244 122.144 114.921C128.056 112.465 126.005 105.038 124.385 104.608C123.525 104.383 122.703 105.726 118.779 107.432Z" fill="white"/>
<path d="M72.8481 88.0436C66.6735 100.785 83.4671 109.468 90.607 97.8884C97.3837 86.8823 78.1289 77.133 72.8481 88.0436Z" fill="#212121"/>
<path d="M117.857 67.494C111.678 80.2349 128.476 88.9185 135.616 77.3388C142.388 66.3518 123.157 56.6073 117.857 67.494Z" fill="#212121"/>
<path d="M103.085 126.487C93.1254 124.16 86.1002 127.262 69.1107 155.057L68.3413 171.272L78.8074 166.909C78.8074 166.909 97.6846 176.161 101.035 175.879C106.578 168.261 121.245 130.736 103.085 126.487Z" fill="white"/>
<path d="M79.6248 158.947C85.3931 161.814 102.703 174.111 100.935 176.151C99.1663 178.192 82.5065 168.983 82.5065 168.983L79.6248 158.947Z" fill="#0077FF"/>
<path d="M79.2471 158.616C79.2471 158.616 92.7288 166.741 96.0359 170.564C96.0359 170.564 84.0883 203.773 72.4274 196.347C60.7666 188.92 64.4703 166.626 64.4703 166.626L79.2471 158.616Z" fill="#FF8481"/>
<path d="M96.036 170.574C92.7289 166.751 79.2472 158.627 79.2472 158.627L78.8935 158.823L77.8804 162.245C81.154 163.549 90.7838 174.111 92.2175 179.554C94.5879 174.608 96.036 170.574 96.036 170.574Z" fill="#E85353"/>
<path d="M68.1599 163.014C67.682 157.838 74.0285 142.062 75.9975 141.508C80.074 140.409 81.4839 172.572 76.1552 174.593C70.8266 176.615 68.1599 163.014 68.1599 163.014Z" fill="#8024C0"/>
<path d="M92.7336 209.03C92.621 209.031 92.5099 209.005 92.4094 208.954C92.3089 208.904 92.2218 208.83 92.1554 208.739C74.2961 184.485 66.6783 158.229 63.4333 140.47C59.9159 121.23 60.628 107.523 60.6375 107.385C60.6486 107.195 60.7343 107.018 60.8759 106.892C61.0174 106.766 61.2032 106.7 61.3926 106.711C61.4866 106.716 61.5787 106.739 61.6635 106.78C61.7484 106.821 61.8244 106.878 61.887 106.948C61.9497 107.018 61.9978 107.1 62.0286 107.189C62.0594 107.278 62.0723 107.372 62.0665 107.466C62.0665 107.6 61.3544 121.172 64.8526 140.255C68.0737 157.852 75.6246 183.869 93.3071 207.888C93.3631 207.964 93.4035 208.05 93.4261 208.142C93.4488 208.233 93.4531 208.329 93.4389 208.422C93.4247 208.515 93.3922 208.605 93.3434 208.685C93.2945 208.766 93.2302 208.836 93.1542 208.892C93.0318 208.981 92.8848 209.029 92.7336 209.03Z" fill="#8024C0"/>
<path d="M85.0489 204.653C84.8936 204.654 84.7424 204.604 84.6181 204.511C84.4939 204.417 84.4035 204.286 84.3607 204.137C68.8766 151.003 42.1569 111.285 41.8893 110.888C41.8359 110.811 41.7983 110.724 41.7788 110.632C41.7592 110.54 41.758 110.445 41.7754 110.352C41.7927 110.26 41.8282 110.172 41.8797 110.093C41.9313 110.014 41.9979 109.947 42.0757 109.894C42.2331 109.787 42.4265 109.747 42.6135 109.782C42.8006 109.817 42.9663 109.924 43.0746 110.08C43.3422 110.477 70.1861 150.377 85.7371 203.75C85.7907 203.931 85.7706 204.126 85.6811 204.293C85.5916 204.459 85.44 204.583 85.2592 204.639C85.1902 204.654 85.1194 204.659 85.0489 204.653Z" fill="#8024C0"/>
<path d="M76.2316 179.83C76.1004 179.83 75.9719 179.793 75.86 179.725C75.748 179.657 75.6567 179.559 75.5959 179.443C61.6459 152.68 39.4807 135.28 39.2752 135.108C39.126 134.991 39.0292 134.82 39.0059 134.632C38.9826 134.444 39.0347 134.254 39.1509 134.104C39.2671 133.954 39.438 133.857 39.6261 133.833C39.8142 133.808 40.0042 133.86 40.1545 133.975C40.3791 134.152 62.7881 151.749 76.8863 178.779C76.9709 178.946 76.9867 179.139 76.9305 179.318C76.8742 179.497 76.7503 179.646 76.5852 179.735C76.4768 179.795 76.3555 179.828 76.2316 179.83Z" fill="#8024C0"/>
<path d="M53.2682 135.218C56.7044 131.911 75.0989 169.484 69.3832 173.45C63.6674 177.417 47.5095 140.757 53.2682 135.218Z" fill="#8024C0"/>
<path d="M73.2975 113.765C77.9857 112.905 72.2938 157.527 65.3355 157.68C58.3772 157.833 65.4407 115.203 73.2975 113.765Z" fill="#8024C0"/>
<path d="M55.2039 153.125C53.4644 153.321 51.4285 156.666 58.2147 168.805C62.2482 176.017 67.6007 178.177 71.4001 177.245C76.4276 176.012 80.6763 172.327 78.9032 171.295C77.5316 170.497 72.3941 172.925 71.5913 172.122C70.0906 170.621 81.1494 163.873 80.6045 160.929C80.4999 160.201 80.1139 159.542 79.5293 159.094C79.5293 159.094 80.963 157.89 79.4193 156.155C77.8757 154.42 67.9067 162.368 67.3284 160.839C66.7501 159.309 74.1146 153.269 72.1074 151.472C69.369 149.001 60.069 162.392 58.664 160.461C57.3641 158.655 55.2039 153.125 55.2039 153.125Z" fill="#FF8481"/>
<path d="M82.9367 363.567C87.386 361.818 93.0253 374.081 101.25 380.728C110.904 388.513 116.213 389.522 122.426 394.32C123.542 395.183 124.307 396.421 124.579 397.805C124.851 399.189 124.613 400.625 123.907 401.847C122.421 404.413 119.793 407.047 115.267 407.047H65.1635C60.3414 407.047 59.051 368.891 63.4716 368.891C67.8923 368.891 70.2961 384.155 75.1182 381.741C79.9403 379.328 75.013 366.664 82.9367 363.567Z" fill="white"/>
<path d="M216.525 364.068C219.823 362.706 226.428 369.641 235.9 376.972C245.907 384.69 257.205 392.346 257.205 392.346C257.205 392.346 254.337 407.065 245.501 407.065H196.621C191.799 407.065 194.045 374.568 197.314 368.943C201.734 368.943 205.677 384.174 210.499 381.76C215.321 379.347 208.659 367.328 216.525 364.068Z" fill="#212121"/>
<path d="M177.638 364.068C172.458 362.333 170.947 366.061 159.554 376.379C152.261 382.969 144.949 389.173 139.96 392.327C137.805 399.452 144.739 407.046 151.062 407.046H198.666C203.488 407.046 198.274 373.196 196.525 368.972C192.104 368.972 188.463 384.155 183.645 381.741C178.828 379.328 185.719 366.778 177.638 364.068Z" fill="#212121"/>
<path d="M236.798 211.731C236.406 223.434 225.457 354.031 218.843 357.281C216.353 358.505 206.446 359.475 196.941 358.581C185.156 360.76 173.289 358.739 171.588 354.681C167.392 332.143 157.299 237.088 161.213 226.484C165.127 215.879 236.798 211.731 236.798 211.731Z" fill="#212121"/>
<path d="M188.482 114.252C188.482 114.252 169.413 117.382 159.33 129.067C152.352 137.192 145.47 144.838 142.182 167.065C139.587 184.49 149.088 191.071 164.319 193.078C164.319 193.078 156.051 209.895 161.929 220.925C172.414 222.617 183.002 223.592 193.619 223.845C212.258 224.29 227.073 221.685 230.948 219.023C234.824 216.361 232.416 194.679 232.416 194.679C232.416 194.679 249.62 195.205 255.723 177.708C261.826 160.212 239.986 132.895 235.049 128.714C217.734 114.032 205.428 114.807 205.428 114.807L188.482 114.252Z" fill="#8024C0"/>
<path d="M169.352 215.96H169.294C167.483 215.736 166.427 215.578 166.427 215.573C166.365 215.564 166.305 215.542 166.251 215.51C166.197 215.478 166.15 215.435 166.113 215.384C166.076 215.334 166.049 215.276 166.034 215.215C166.019 215.154 166.016 215.091 166.025 215.028C166.045 214.904 166.114 214.792 166.216 214.718C166.318 214.643 166.445 214.613 166.57 214.632C166.57 214.632 167.602 214.79 169.395 215.009C169.457 215.017 169.517 215.037 169.572 215.068C169.627 215.099 169.675 215.141 169.714 215.191C169.752 215.24 169.781 215.297 169.797 215.358C169.814 215.419 169.818 215.482 169.81 215.545C169.796 215.657 169.741 215.761 169.657 215.837C169.573 215.913 169.465 215.957 169.352 215.96Z" fill="#0077FF"/>
<path d="M196.974 217.681H196.31C196.183 217.681 196.062 217.631 195.972 217.541C195.883 217.451 195.832 217.33 195.832 217.203C195.832 217.076 195.883 216.955 195.972 216.865C196.062 216.776 196.183 216.725 196.31 216.725H196.974C198.7 216.725 200.42 216.701 202.088 216.658C202.215 216.658 202.336 216.709 202.426 216.798C202.516 216.888 202.566 217.009 202.566 217.136C202.566 217.263 202.516 217.384 202.426 217.474C202.336 217.564 202.215 217.614 202.088 217.614C200.439 217.657 198.709 217.681 196.974 217.681ZM193.897 217.657C191.985 217.628 190.073 217.571 188.095 217.49C187.968 217.49 187.847 217.439 187.757 217.35C187.667 217.26 187.617 217.139 187.617 217.012C187.623 216.889 187.676 216.774 187.765 216.689C187.854 216.605 187.972 216.558 188.095 216.558C190.04 216.634 191.985 216.692 193.873 216.72C194 216.72 194.121 216.771 194.211 216.86C194.3 216.95 194.351 217.072 194.351 217.198C194.346 217.319 194.295 217.434 194.209 217.519C194.123 217.604 194.008 217.654 193.887 217.657H193.897ZM204.511 217.528C204.388 217.528 204.27 217.481 204.181 217.397C204.092 217.312 204.039 217.197 204.033 217.074C204.033 216.947 204.083 216.826 204.173 216.736C204.263 216.647 204.384 216.596 204.511 216.596C206.47 216.515 208.411 216.4 210.275 216.257C210.337 216.252 210.401 216.259 210.461 216.278C210.521 216.297 210.576 216.328 210.624 216.369C210.672 216.41 210.711 216.46 210.74 216.516C210.769 216.572 210.786 216.634 210.791 216.697C210.8 216.823 210.759 216.947 210.676 217.043C210.594 217.139 210.477 217.198 210.351 217.208C208.473 217.356 206.528 217.471 204.549 217.547L204.511 217.528ZM185.696 217.38C183.784 217.28 181.834 217.155 179.904 217.007C179.778 216.997 179.661 216.938 179.578 216.842C179.496 216.746 179.455 216.622 179.464 216.496C179.474 216.37 179.533 216.253 179.629 216.17C179.725 216.088 179.849 216.047 179.975 216.056C181.887 216.199 183.842 216.324 185.748 216.424C185.874 216.432 185.992 216.488 186.076 216.582C186.161 216.676 186.204 216.8 186.198 216.926C186.195 216.989 186.179 217.05 186.152 217.107C186.125 217.164 186.088 217.215 186.041 217.257C185.994 217.299 185.94 217.332 185.881 217.353C185.821 217.374 185.759 217.383 185.696 217.38ZM212.697 216.983C212.579 216.984 212.464 216.94 212.375 216.861C212.287 216.781 212.231 216.671 212.22 216.553C212.208 216.427 212.246 216.301 212.327 216.204C212.407 216.106 212.524 216.044 212.65 216.032C214.614 215.846 216.54 215.621 218.385 215.363C218.51 215.345 218.637 215.378 218.739 215.454C218.84 215.531 218.907 215.644 218.925 215.769C218.942 215.895 218.909 216.022 218.833 216.124C218.757 216.225 218.644 216.292 218.518 216.309C216.664 216.567 214.724 216.787 212.745 216.983H212.697ZM177.509 216.811H177.471C175.512 216.644 173.567 216.448 171.693 216.238C171.568 216.223 171.453 216.16 171.375 216.062C171.296 215.963 171.259 215.837 171.273 215.712C171.287 215.587 171.35 215.472 171.449 215.394C171.547 215.315 171.673 215.278 171.798 215.292C173.667 215.497 175.622 215.693 177.533 215.86C177.659 215.871 177.776 215.932 177.857 216.028C177.939 216.125 177.979 216.25 177.968 216.376C177.958 216.492 177.905 216.6 177.821 216.68C177.736 216.761 177.626 216.807 177.509 216.811ZM220.836 215.951C220.722 215.952 220.61 215.913 220.523 215.839C220.435 215.765 220.377 215.663 220.358 215.55C220.338 215.425 220.367 215.297 220.441 215.194C220.514 215.091 220.625 215.021 220.75 215C222.705 214.685 224.607 214.317 226.409 213.91C226.47 213.896 226.533 213.894 226.595 213.905C226.657 213.915 226.716 213.937 226.77 213.971C226.823 214.004 226.869 214.047 226.906 214.099C226.942 214.15 226.968 214.208 226.982 214.269C226.996 214.33 226.998 214.394 226.987 214.456C226.977 214.518 226.954 214.578 226.92 214.631C226.886 214.685 226.842 214.731 226.791 214.767C226.739 214.803 226.681 214.829 226.619 214.842C224.798 215.253 222.877 215.621 220.884 215.946L220.836 215.951Z" fill="#0077FF"/>
<path d="M228.869 214.288C228.761 214.291 228.654 214.257 228.568 214.192C228.481 214.127 228.419 214.034 228.392 213.929C228.376 213.868 228.372 213.805 228.381 213.743C228.39 213.68 228.411 213.62 228.443 213.566C228.475 213.512 228.517 213.465 228.567 213.427C228.617 213.389 228.675 213.362 228.736 213.346C229.691 213.107 230.6 212.868 231.484 212.586C231.544 212.568 231.608 212.562 231.671 212.568C231.734 212.575 231.795 212.594 231.85 212.624C231.906 212.654 231.955 212.695 231.994 212.744C232.034 212.794 232.063 212.85 232.081 212.911C232.117 213.032 232.103 213.162 232.043 213.274C231.983 213.385 231.882 213.467 231.761 213.504C230.858 213.771 229.921 214.03 228.975 214.273C228.94 214.282 228.905 214.286 228.869 214.288Z" fill="#0077FF"/>
<path d="M188.434 103.266C189.763 106.879 185.567 113.809 186.91 116.093C188.253 118.378 194.136 121.02 199.082 121.02C204.028 121.02 209.543 117.197 209.543 115.128C209.543 113.058 207.068 111.242 207.632 100.791C208.196 90.3388 188.434 103.266 188.434 103.266Z" fill="#FFA9A9"/>
<path d="M207.589 104.824C206.327 105.082 204.559 106.41 204.559 106.41L192.057 109.976C191.503 109.976 189.548 109.976 192.535 113.283C196.11 117.211 204.358 116.786 207.828 109.068V109.034C207.713 107.777 207.618 106.382 207.589 104.824Z" fill="#FF8481"/>
<path d="M197.658 78.3525C202.967 78.3525 206.8 78.0084 209.447 94.4197C209.648 95.6479 212.912 93.7076 213.629 96.4603C213.709 96.9334 213.693 97.4176 213.584 97.8846C213.474 98.3516 213.273 98.7922 212.991 99.1806C212.71 99.5689 212.353 99.8973 211.944 100.147C211.534 100.396 211.078 100.561 210.604 100.632C210.465 107.715 206.977 112.48 198.178 112.48C188.53 112.48 184.702 107.466 184.515 100.212C184.515 99.4185 180.826 98.4627 182.126 95.5427C183.426 92.6227 186.135 95.2894 186.427 94.2189C189.978 80.1494 191.693 78.3525 197.658 78.3525Z" fill="#FFA9A9"/>
<path d="M192.095 88.5803C191.732 89.7464 192.095 90.1622 193.314 90.0953C194.054 90.0523 194.747 89.6174 194.394 88.3366C194.102 87.2996 192.515 87.2088 192.095 88.5803Z" fill="#212121"/>
<path d="M204.028 88.6798C204.386 89.8458 204.028 90.2664 202.805 90.1947C202.064 90.1565 201.371 89.7168 201.725 88.4408C202.011 87.399 203.603 87.313 204.028 88.6798Z" fill="#212121"/>
<path d="M189.586 84.9712C190.919 83.6139 195.679 81.7358 195.627 84.2209C195.627 84.9807 194.288 85.3153 193.237 85.5303C192.186 85.7454 191.397 86.0799 190.288 86.1134C189.485 86.1325 189.16 85.4204 189.586 84.9712Z" fill="#FF3985"/>
<path d="M206.002 85.8176C204.239 86.2955 199.445 85.4879 200.659 83.4281C201.032 82.7925 202.227 83.0219 203.187 83.3468C204.146 83.6501 205.074 84.0421 205.959 84.5177C206.666 84.9 206.585 85.6551 206.002 85.8176Z" fill="#FF3985"/>
<path d="M197.576 94.0035C197.414 93.4826 198.054 93.8649 198.943 93.2389C199.942 92.5316 198.9 90.2472 199.373 90.1659C199.846 90.0847 200.501 91.7574 200.329 93.105C200.176 94.7347 197.849 94.8829 197.576 94.0035Z" fill="#FF8481"/>
<path d="M166.551 181.002C166.766 178.67 173.007 178.536 174.704 178.536C176.401 178.536 194.872 178.254 194.872 178.254C194.872 178.254 197.39 179.282 194.355 181.456C190.561 184.18 180.348 186.555 174.044 185.389C161.103 183.009 166.551 181.002 166.551 181.002Z" fill="#FFA9A9"/>
<path d="M233.668 181.001C233.453 178.669 229.367 176.963 227.694 176.963H206.465C206.465 176.963 202.164 183.744 225.582 186.043C238.671 187.309 233.668 181.001 233.668 181.001Z" fill="#FFA9A9"/>
<path d="M209.022 178.741L206.155 178.411C206.303 180.447 208.779 184.098 223.613 185.824C222.724 184.729 221.352 183.367 219.833 182.956C217.194 182.297 209.328 180.103 209.022 178.741Z" fill="#FF8481"/>
<path d="M168.998 130.219H223.823C224.837 130.219 225.809 130.621 226.526 131.338C227.243 132.055 227.646 133.028 227.646 134.042V167.462H165.165V134.056C165.163 133.552 165.261 133.053 165.453 132.587C165.645 132.12 165.927 131.697 166.283 131.34C166.639 130.983 167.062 130.701 167.528 130.508C167.994 130.316 168.494 130.217 168.998 130.219Z" fill="#212121"/>
<path d="M195.896 158.34C192.238 158.34 190.4 158.34 189.263 157.21C188.113 156.073 188.113 154.234 188.113 150.564V149.889C188.113 146.218 188.113 144.38 189.263 143.243C190.4 142.1 192.238 142.1 195.896 142.1H196.571C200.241 142.1 202.067 142.1 203.217 143.243C204.353 144.387 204.353 146.218 204.353 149.889V150.564C204.353 154.234 204.353 156.073 203.217 157.21C202.067 158.34 200.241 158.34 196.571 158.34H195.896Z" fill="#0077FF"/>
<path d="M197.032 153.812V151.396C198.364 151.532 199.358 152.526 199.767 153.812H201.69C201.17 151.889 199.819 150.824 198.975 150.421C199.813 149.921 201.001 148.7 201.281 147.05H199.533C199.169 148.395 198.078 149.609 197.032 149.726V147.043H195.259V151.727C194.181 151.454 192.771 150.142 192.706 147.043H190.855C190.939 151.266 193.161 153.806 196.824 153.806L197.032 153.812Z" fill="white"/>
<path d="M161.648 176.725C155.607 176.529 156.969 181.791 156.969 188.223V250.193C156.969 254.671 166.322 248.439 167.105 242.982C167.889 237.524 165.242 182.723 167.378 180.266C169.342 178.015 228.291 178.603 229.845 180.085C231.828 181.996 230.389 233.237 230.585 238.695C230.781 244.153 236.215 252.334 238.581 252.334C240.946 252.334 241.74 244.124 241.74 237.72C241.74 213.567 241.348 199.206 241.348 184.434C241.348 179.005 240.215 177.026 234.509 177.026C221.668 177.026 161.648 176.725 161.648 176.725Z" fill="white"/>
<path d="M167.201 228.572C164.185 231.009 163.258 230.484 161.8 230.665C160.51 230.828 158.933 238.407 156.969 240.276V247.75C162.933 246.188 161.375 238.101 164.032 238.278C165.187 238.309 166.323 237.974 167.277 237.322C167.282 234.933 167.253 231.936 167.201 228.572Z" fill="#2929B2"/>
<path d="M235.866 231.579C233.601 231.201 231.68 229.189 230.647 227.349C230.609 230.59 230.58 233.366 230.566 235.412C231.426 235.469 232.344 235.531 233.123 235.598C235.317 235.78 235.685 238.523 238.241 240.716C239.18 241.568 240.339 242.138 241.587 242.36C241.682 240.802 241.73 239.211 241.73 237.72C241.73 237.213 241.73 236.721 241.73 236.229C239.121 235.588 238.81 232.066 235.866 231.579Z" fill="#2929B2"/>
<path d="M157.26 255.689C157.197 255.689 157.136 255.664 157.091 255.619C157.046 255.575 157.021 255.514 157.021 255.451V250.284C157.021 250.221 157.046 250.16 157.091 250.115C157.136 250.071 157.197 250.045 157.26 250.045C157.324 250.045 157.384 250.071 157.429 250.115C157.474 250.16 157.499 250.221 157.499 250.284V255.451C157.499 255.514 157.474 255.575 157.429 255.619C157.384 255.664 157.324 255.689 157.26 255.689Z" fill="white"/>
<path d="M166.427 249.949C166.363 249.949 166.303 249.923 166.258 249.879C166.213 249.834 166.188 249.773 166.188 249.71V244.543C166.188 244.48 166.213 244.419 166.258 244.374C166.303 244.33 166.363 244.304 166.427 244.304C166.49 244.304 166.551 244.33 166.596 244.374C166.64 244.419 166.666 244.48 166.666 244.543V249.71C166.666 249.773 166.64 249.834 166.596 249.879C166.551 249.923 166.49 249.949 166.427 249.949Z" fill="white"/>
<path d="M165.466 251.488C165.403 251.488 165.342 251.463 165.297 251.418C165.252 251.373 165.227 251.313 165.227 251.249V246.059C165.227 245.996 165.252 245.935 165.297 245.89C165.342 245.845 165.403 245.82 165.466 245.82C165.529 245.82 165.59 245.845 165.635 245.89C165.68 245.935 165.705 245.996 165.705 246.059V251.225C165.708 251.259 165.703 251.292 165.693 251.323C165.682 251.355 165.665 251.384 165.642 251.409C165.62 251.433 165.593 251.453 165.562 251.467C165.532 251.48 165.499 251.488 165.466 251.488Z" fill="white"/>
<path d="M164.18 253.07C164.117 253.07 164.056 253.045 164.011 253C163.966 252.955 163.941 252.895 163.941 252.831V247.665C163.941 247.602 163.966 247.541 164.011 247.496C164.056 247.451 164.117 247.426 164.18 247.426C164.244 247.426 164.304 247.451 164.349 247.496C164.394 247.541 164.419 247.602 164.419 247.665V252.831C164.419 252.895 164.394 252.955 164.349 253C164.304 253.045 164.244 253.07 164.18 253.07Z" fill="white"/>
<path d="M162.823 254.389C162.76 254.388 162.7 254.362 162.656 254.318C162.611 254.273 162.586 254.213 162.584 254.15V248.984C162.584 248.921 162.61 248.86 162.654 248.815C162.699 248.77 162.76 248.745 162.823 248.745C162.887 248.745 162.947 248.77 162.992 248.815C163.037 248.86 163.062 248.921 163.062 248.984V254.15C163.062 254.214 163.037 254.274 162.992 254.319C162.947 254.364 162.887 254.389 162.823 254.389Z" fill="white"/>
<path d="M159.077 256.782C159.013 256.782 158.952 256.757 158.908 256.712C158.863 256.668 158.838 256.607 158.838 256.544V251.377C158.838 251.314 158.863 251.253 158.908 251.208C158.952 251.164 159.013 251.138 159.077 251.138C159.14 251.138 159.201 251.164 159.246 251.208C159.29 251.253 159.316 251.314 159.316 251.377V256.544C159.316 256.607 159.29 256.668 159.246 256.712C159.201 256.757 159.14 256.782 159.077 256.782Z" fill="white"/>
<path d="M160.701 256.057C160.638 256.056 160.578 256.03 160.534 255.986C160.489 255.941 160.464 255.881 160.463 255.818V250.652C160.463 250.589 160.488 250.528 160.532 250.483C160.577 250.438 160.638 250.413 160.701 250.413C160.765 250.413 160.826 250.438 160.87 250.483C160.915 250.528 160.94 250.589 160.94 250.652V255.818C160.94 255.881 160.915 255.942 160.87 255.987C160.826 256.032 160.765 256.057 160.701 256.057Z" fill="white"/>
<path d="M161.609 255.588C161.546 255.588 161.485 255.563 161.44 255.518C161.396 255.473 161.37 255.412 161.37 255.349V250.183C161.37 250.119 161.396 250.059 161.44 250.014C161.485 249.969 161.546 249.944 161.609 249.944C161.672 249.945 161.732 249.971 161.777 250.015C161.821 250.06 161.847 250.12 161.848 250.183V255.349C161.848 255.412 161.823 255.473 161.778 255.518C161.734 255.563 161.673 255.588 161.609 255.588Z" fill="white"/>
<path d="M240.54 253.73C240.477 253.73 240.416 253.704 240.371 253.66C240.326 253.615 240.301 253.554 240.301 253.491V248.325C240.301 248.261 240.326 248.2 240.371 248.156C240.416 248.111 240.477 248.086 240.54 248.086C240.604 248.086 240.664 248.111 240.709 248.156C240.754 248.2 240.779 248.261 240.779 248.325V253.491C240.778 253.554 240.752 253.614 240.708 253.658C240.663 253.703 240.603 253.728 240.54 253.73Z" fill="white"/>
<path d="M231.369 247.984C231.306 247.984 231.245 247.959 231.2 247.914C231.156 247.87 231.13 247.809 231.13 247.746V242.579C231.132 242.516 231.157 242.456 231.202 242.412C231.246 242.367 231.306 242.342 231.369 242.34C231.433 242.34 231.494 242.366 231.538 242.41C231.583 242.455 231.608 242.516 231.608 242.579V247.746C231.608 247.809 231.583 247.87 231.538 247.914C231.494 247.959 231.433 247.984 231.369 247.984Z" fill="white"/>
<path d="M232.335 249.5C232.271 249.5 232.21 249.475 232.166 249.43C232.121 249.386 232.096 249.325 232.096 249.261V244.095C232.096 244.032 232.121 243.971 232.166 243.926C232.21 243.882 232.271 243.856 232.335 243.856C232.398 243.858 232.458 243.883 232.502 243.928C232.547 243.972 232.572 244.032 232.573 244.095V249.261C232.573 249.325 232.548 249.386 232.504 249.43C232.459 249.475 232.398 249.5 232.335 249.5Z" fill="white"/>
<path d="M233.615 251.106C233.552 251.106 233.491 251.081 233.446 251.036C233.401 250.991 233.376 250.931 233.376 250.867V245.701C233.376 245.638 233.401 245.577 233.446 245.532C233.491 245.487 233.552 245.462 233.615 245.462C233.678 245.462 233.739 245.487 233.784 245.532C233.829 245.577 233.854 245.638 233.854 245.701V250.867C233.854 250.931 233.829 250.991 233.784 251.036C233.739 251.081 233.678 251.106 233.615 251.106Z" fill="white"/>
<path d="M234.987 252.444C234.923 252.444 234.863 252.419 234.818 252.374C234.773 252.329 234.748 252.269 234.748 252.205V247.02C234.749 246.957 234.775 246.897 234.819 246.852C234.864 246.808 234.924 246.782 234.987 246.781C235.05 246.781 235.111 246.806 235.156 246.851C235.201 246.896 235.226 246.957 235.226 247.02V252.186C235.228 252.219 235.224 252.252 235.213 252.284C235.203 252.315 235.185 252.343 235.163 252.368C235.14 252.392 235.113 252.411 235.083 252.424C235.053 252.438 235.02 252.444 234.987 252.444Z" fill="white"/>
<path d="M238.724 254.833C238.661 254.833 238.6 254.808 238.555 254.763C238.51 254.718 238.485 254.657 238.485 254.594V249.414C238.485 249.35 238.51 249.289 238.555 249.245C238.6 249.2 238.661 249.175 238.724 249.175C238.787 249.176 238.847 249.201 238.892 249.246C238.936 249.29 238.962 249.351 238.963 249.414V254.584C238.964 254.616 238.958 254.648 238.946 254.678C238.935 254.708 238.917 254.735 238.895 254.758C238.873 254.781 238.846 254.8 238.817 254.813C238.788 254.825 238.756 254.832 238.724 254.833Z" fill="white"/>
<path d="M237.095 254.093C237.031 254.093 236.97 254.068 236.926 254.023C236.881 253.978 236.856 253.917 236.856 253.854V248.688C236.856 248.625 236.881 248.564 236.926 248.519C236.97 248.474 237.031 248.449 237.095 248.449C237.158 248.449 237.219 248.474 237.264 248.519C237.308 248.564 237.334 248.625 237.334 248.688V253.878C237.328 253.937 237.3 253.992 237.256 254.032C237.211 254.071 237.154 254.093 237.095 254.093Z" fill="white"/>
<path d="M236.191 253.629C236.128 253.629 236.067 253.604 236.022 253.559C235.978 253.514 235.952 253.454 235.952 253.39V248.224C235.952 248.161 235.978 248.1 236.022 248.055C236.067 248.01 236.128 247.985 236.191 247.985C236.255 247.985 236.315 248.01 236.36 248.055C236.405 248.1 236.43 248.161 236.43 248.224V253.4C236.428 253.461 236.402 253.52 236.357 253.563C236.312 253.605 236.253 253.629 236.191 253.629Z" fill="white"/>
<path d="M56.5038 83.3183C49.9708 84.5227 45.8226 91.1225 48.9099 99.763C51.7773 107.773 58.4202 110.411 62.9555 109.144C67.4908 107.878 71.0799 101.407 70.1241 93.3735C69.1683 85.3399 63.486 82.0375 56.5038 83.3183Z" fill="#FF3985"/>
<path d="M29.6121 93.3922C23.0313 97.808 26.4054 105.206 29.1342 108.207C31.863 111.208 38.611 113.292 42.5155 110.492C46.42 107.691 45.5072 100.413 43.5669 96.8235C41.6266 93.2345 36.1785 89.0002 29.6121 93.3922Z" fill="#FF3985"/>
<path d="M26.7303 126.42C22.1807 135.342 25.9896 141.345 31.0314 142.716C36.0733 144.088 40.0017 140.293 41.9133 136.79C43.825 133.287 43.9636 125.545 39.8727 122.601C35.7818 119.657 29.765 120.46 26.7303 126.42Z" fill="#FF3985"/>
<path d="M38.2668 121.656C34.3288 119.921 29.3873 121.207 26.7301 126.435C23.7385 132.299 24.3406 136.906 26.5725 139.759C31.3993 135.902 37.5451 127.085 38.2668 121.656Z" fill="white"/>
<path d="M158.23 172.911H234.299V174.913C234.299 175.471 234.077 176.006 233.683 176.4C233.288 176.794 232.754 177.016 232.196 177.016H160.333C159.776 177.016 159.241 176.794 158.846 176.4C158.452 176.006 158.23 175.471 158.23 174.913V172.896V172.911Z" fill="#212121"/>
<path d="M165.368 166.692L158.216 172.909L158.843 173.631L165.995 167.413L165.368 166.692Z" fill="#212121"/>
<path d="M227.386 166.722L226.751 167.437L233.684 173.599L234.319 172.885L227.386 166.722Z" fill="#212121"/>
<path d="M216.631 169.78H176.463V170.736H216.631V169.78Z" fill="#212121"/>
<path d="M184.525 166.577L181.065 173.002L181.907 173.455L185.366 167.03L184.525 166.577Z" fill="#212121"/>
<path d="M208.998 166.783L208.127 167.175L210.911 173.374L211.783 172.982L208.998 166.783Z" fill="#212121"/>
<path d="M178.613 166.536L173.433 173.072L174.182 173.666L179.362 167.13L178.613 166.536Z" fill="#212121"/>
<path d="M196.414 166.679L196.09 173.299L197.045 173.346L197.369 166.725L196.414 166.679Z" fill="#212121"/>
<path d="M203.258 167.002L202.32 167.188L203.544 173.347L204.482 173.161L203.258 167.002Z" fill="#212121"/>
<path d="M190.354 166.57L188.789 173.36L189.72 173.575L191.285 166.785L190.354 166.57Z" fill="#212121"/>
<path d="M214.848 166.744L214.078 167.31L218.593 173.457L219.363 172.891L214.848 166.744Z" fill="#212121"/>
<path d="M197.839 134.999C198.362 134.999 198.785 134.575 198.785 134.053C198.785 133.53 198.362 133.106 197.839 133.106C197.317 133.106 196.893 133.53 196.893 134.053C196.893 134.575 197.317 134.999 197.839 134.999Z" fill="#8024C0"/>
<path d="M198.47 97.0669C194.561 97.1864 191.909 95.896 191.196 96.5173C189.529 97.951 192.033 105.397 198.805 105.273C205.973 105.143 206.967 97.4827 205.495 96.4934C204.673 95.9629 203.249 96.9235 198.47 97.0669Z" fill="white"/>
<path d="M183.464 185.145C186.809 183.564 190.193 181.967 192.668 181.418L195.139 180.868C195.139 180.868 196.516 181.786 194.771 182.78C193.027 183.774 187.282 185.059 183.464 185.145Z" fill="#FF8481"/>
<path d="M188.458 354.414C180.267 354.414 171 352.159 168.945 350.199L169.605 349.506C172.262 352.039 188.64 355.145 196.688 352.374L196.807 352.331H196.931C197.089 352.359 212.855 355.198 223.216 350.137L223.637 350.997C218.055 353.717 211.039 354.194 206.136 354.108C203.035 354.059 199.941 353.786 196.879 353.291C194.532 354.089 191.574 354.414 188.458 354.414Z" fill="#0077FF"/>
<path d="M151.091 407.047H198.695C201.209 407.047 201.84 401.79 197.414 402.172C183.244 403.486 164.104 404.041 159.817 401.56C155.277 398.927 148.252 390.33 139.989 392.327L139.755 393.283C138.474 400.117 145.079 407.047 151.091 407.047Z" fill="white"/>
<path d="M246.113 407.045H198.509C195.995 407.045 196.281 402.132 197.17 402.18C207.359 402.696 230.37 403.8 237.386 401.559C242.385 399.958 248.951 390.328 257.214 392.326L257.449 393.281C258.729 400.115 252.125 407.045 246.113 407.045Z" fill="white"/>
<path d="M153.265 399.303L153.102 398.854C167.167 393.831 181.657 378.08 181.777 372.13H182.254C182.116 378.209 167.468 394.228 153.265 399.303Z" fill="white"/>
<path d="M196.888 407.763C196.762 407.763 196.64 407.712 196.55 407.623C196.461 407.533 196.41 407.412 196.41 407.285C196.348 391.232 195.846 250.355 197.056 247.665C197.081 247.607 197.117 247.555 197.163 247.512C197.208 247.469 197.262 247.435 197.32 247.412C197.379 247.389 197.441 247.378 197.504 247.38C197.567 247.382 197.629 247.395 197.686 247.421C197.802 247.473 197.891 247.569 197.936 247.687C197.981 247.805 197.977 247.936 197.925 248.052C197.012 250.919 197.161 353.478 197.366 407.304C197.366 407.431 197.316 407.552 197.226 407.642C197.137 407.732 197.015 407.782 196.888 407.782V407.763Z" fill="#0077FF"/>
<path d="M247.173 398.683C227.254 393.149 212.325 376.867 212.167 371.667H212.645C212.798 376.761 227.579 392.757 247.302 398.234L247.173 398.683Z" fill="white"/>
<path d="M50.6109 124.108C47.7435 120.791 33.5736 114.072 30.7779 115.72C27.9821 117.369 56.2884 135.902 54.979 132.495C53.6695 129.087 50.6109 124.108 50.6109 124.108Z" fill="#8024C0"/>
<path d="M69.1539 89.478C67.0655 84.2976 62.2291 82.3095 56.5086 83.3418C54.5657 83.6702 52.7588 84.5524 51.3049 85.8825C49.8511 87.2126 48.8121 88.934 48.3125 90.8401C49.8944 93.3873 53.8084 95.4088 60.2601 94.821C66.0045 94.2571 68.3319 91.9106 69.1539 89.478Z" fill="white"/>
<path d="M41.3733 94.0754C38.7209 91.619 34.4914 90.1183 29.612 93.392C25.6406 96.0539 25.3109 99.8055 26.2667 103.022C29.3874 103.256 33.7268 101.913 36.3983 99.8246C38.5154 98.1567 40.5704 96.0874 41.3733 94.0754Z" fill="white"/>
<path d="M68.0451 267.149C67.981 267.149 67.9175 267.137 67.8584 267.112C67.7993 267.087 67.7457 267.051 67.7009 267.005C67.6561 266.961 67.6206 266.908 67.5963 266.85C67.5721 266.792 67.5596 266.729 67.5596 266.666C67.5596 266.603 67.5721 266.54 67.5963 266.482C67.6206 266.424 67.6561 266.371 67.7009 266.327C84.1743 250.221 90.5687 243.387 100.327 232.204C100.411 232.109 100.529 232.052 100.656 232.043C100.782 232.035 100.906 232.078 101.001 232.161C101.096 232.245 101.154 232.363 101.162 232.489C101.17 232.616 101.128 232.74 101.044 232.835C91.2712 244.037 84.8625 250.886 68.37 267.01C68.2834 267.096 68.1671 267.146 68.0451 267.149Z" fill="#0077FF"/>
<path d="M60.9771 271.746C60.895 271.746 60.8143 271.725 60.7429 271.684C60.265 271.417 49.1011 264.908 45.7032 242.336C43.2707 226.173 47.1991 215.54 49.7511 210.637C49.81 210.525 49.9111 210.44 50.0321 210.403C50.1531 210.365 50.2841 210.377 50.3962 210.436C50.4522 210.465 50.5019 210.504 50.5425 210.552C50.5831 210.6 50.6139 210.656 50.633 210.716C50.6521 210.776 50.6591 210.839 50.6537 210.902C50.6484 210.964 50.6308 211.025 50.6018 211.081C48.0975 215.86 44.2599 226.298 46.6495 242.193C48.3843 253.734 52.2553 260.912 55.1944 264.903C58.3773 269.204 61.1874 270.834 61.2113 270.853C61.3214 270.915 61.4023 271.018 61.4364 271.14C61.4704 271.262 61.4548 271.392 61.3929 271.503C61.3514 271.576 61.291 271.638 61.218 271.681C61.1449 271.724 61.0618 271.746 60.9771 271.746Z" fill="#0077FF"/>
<path d="M107.831 278.877C86.9224 278.877 67.8444 268.043 67.6389 267.923C67.5841 267.892 67.5361 267.85 67.4975 267.8C67.459 267.751 67.4306 267.694 67.4142 267.633C67.3978 267.572 67.3936 267.508 67.4018 267.446C67.41 267.383 67.4305 267.323 67.462 267.269C67.4937 267.214 67.5357 267.167 67.5858 267.128C67.6358 267.09 67.6929 267.063 67.7537 267.047C67.8146 267.031 67.8779 267.027 67.9402 267.035C68.0026 267.044 68.0625 267.065 68.1168 267.096C68.3366 267.221 90.6356 279.876 113.274 277.658C113.4 277.646 113.526 277.685 113.623 277.765C113.721 277.846 113.783 277.962 113.795 278.088C113.807 278.214 113.768 278.34 113.688 278.438C113.607 278.535 113.491 278.597 113.365 278.609C111.515 278.791 109.666 278.877 107.831 278.877Z" fill="#0077FF"/>
<path d="M113.274 162.641C112.21 162.645 111.176 162.29 110.34 161.632C109.774 161.202 109.348 160.614 109.116 159.942C108.883 159.27 108.855 158.545 109.035 157.857C109.065 157.734 109.142 157.628 109.249 157.562C109.356 157.495 109.486 157.474 109.609 157.503C109.67 157.517 109.729 157.543 109.78 157.58C109.832 157.617 109.875 157.664 109.909 157.717C109.942 157.771 109.964 157.831 109.974 157.894C109.984 157.956 109.982 158.02 109.967 158.081C109.829 158.591 109.846 159.13 110.017 159.63C110.187 160.13 110.502 160.567 110.923 160.887C111.45 161.307 112.082 161.573 112.751 161.657C113.419 161.742 114.098 161.64 114.713 161.365C115.888 160.786 116.524 159.486 116.491 157.704C116.491 157.577 116.541 157.456 116.63 157.366C116.72 157.276 116.842 157.226 116.968 157.226C117.095 157.226 117.217 157.276 117.306 157.366C117.396 157.456 117.446 157.577 117.446 157.704C117.499 160.633 116.013 161.804 115.133 162.239C114.552 162.513 113.916 162.65 113.274 162.641Z" fill="#0077FF"/>
<path d="M140.644 160.046C140.185 160.045 139.732 159.952 139.31 159.773C138.684 159.48 138.151 159.019 137.77 158.443C137.389 157.866 137.174 157.195 137.15 156.504C137.144 156.441 137.151 156.378 137.169 156.318C137.188 156.258 137.219 156.202 137.259 156.153C137.299 156.105 137.349 156.065 137.405 156.036C137.461 156.007 137.522 155.989 137.585 155.983C137.711 155.973 137.836 156.013 137.933 156.094C138.03 156.176 138.09 156.292 138.101 156.418C138.113 156.937 138.268 157.442 138.548 157.878C138.827 158.315 139.222 158.666 139.688 158.894C140.083 159.067 140.519 159.129 140.947 159.074C141.375 159.02 141.781 158.85 142.12 158.583C142.985 157.905 143.329 156.71 143.076 155.238C143.055 155.113 143.085 154.985 143.158 154.882C143.232 154.779 143.343 154.709 143.468 154.688C143.593 154.667 143.721 154.697 143.824 154.771C143.927 154.844 143.996 154.955 144.018 155.08C144.323 156.901 143.846 158.459 142.703 159.348C142.114 159.803 141.389 160.049 140.644 160.046Z" fill="#0077FF"/>
<path d="M24.9572 125.512C22.8257 129.067 28.9429 130.348 29.7984 128.379C30.6538 126.41 27.5188 121.244 24.9572 125.512Z" fill="#FF3985"/>
<path d="M29.7986 89.651C27.1988 91.2759 29.7986 95.3428 32.0734 94.7741C34.3482 94.2054 32.0734 88.2268 29.7986 89.651Z" fill="#FF3985"/>
<path d="M59.1179 79.4039C56.5563 79.4039 55.7009 84.527 58.8311 85.0958C61.9614 85.6645 62.5301 79.4039 59.1179 79.4039Z" fill="#FF3985"/>
<path d="M123.907 401.846C124.308 401.154 124.561 400.387 124.652 399.593C124.742 398.798 124.668 397.994 124.433 397.23C119.687 397.23 113.565 401.794 104.485 402.339C79.7058 403.83 67.7295 399.17 61.7366 398.138C62.4869 403.294 63.6482 407.046 65.1632 407.046H115.267C119.812 407.046 122.421 404.417 123.907 401.846Z" fill="#212121"/>
<path d="M77.4791 159.601C74.8889 161.388 72.0979 163.023 69.3882 164.724" stroke="#E85353" stroke-miterlimit="10" stroke-linecap="round"/>
<path d="M345.421 122.033C346.506 120.527 347.758 118.525 348.91 116.694C342.004 112.929 337.029 92.4025 336.8 88.1252C336.866 90.5817 337.583 107.385 345.421 122.033Z" fill="#FF8481"/>
<path d="M275.556 395.17C281.554 394.912 292.512 381.081 298.056 375.489C293.898 373.54 294.563 373.817 285.473 380.335C278.672 385.215 268.679 390.902 264.177 394.419C267.935 395.056 271.748 395.308 275.556 395.17Z" fill="#212121"/>
<path d="M322.921 396.93C322.611 391.553 321.645 383.391 320.412 378.707C313.999 380.246 307.322 384.92 305.315 389.761C303.155 394.985 305.148 401.451 322.998 398.024C322.96 397.671 322.921 397.312 322.921 396.93Z" fill="#212121"/>
<path d="M293.153 398.401C284.383 396.599 271.915 394.482 264.177 394.42C263.055 395.285 262.286 396.529 262.015 397.919C261.743 399.31 261.987 400.752 262.701 401.976C264.201 404.504 266.82 407.046 271.265 407.046H319.844C322.233 407.046 323.313 405.55 322.974 398.019C318.979 399.232 309.421 401.741 293.153 398.401Z" fill="white"/>
<path d="M377.536 346.801C377.316 346.802 377.1 346.741 376.912 346.627C376.723 346.512 376.571 346.347 376.471 346.151C354.487 303.335 338.363 268.319 328.723 246.484C318.271 222.813 312.952 209.088 312.885 208.954C312.828 208.807 312.801 208.651 312.804 208.494C312.808 208.337 312.842 208.182 312.906 208.038C312.969 207.894 313.06 207.764 313.174 207.655C313.288 207.547 313.422 207.462 313.569 207.405C313.864 207.293 314.192 207.302 314.481 207.43C314.77 207.558 314.997 207.794 315.112 208.089C315.323 208.634 336.546 263.239 378.583 345.061C378.727 345.343 378.754 345.671 378.657 345.973C378.56 346.275 378.348 346.526 378.067 346.672C377.902 346.753 377.721 346.797 377.536 346.801Z" fill="white"/>
<path d="M322.534 320.416C322.446 320.415 322.359 320.391 322.284 320.344C322.209 320.298 322.149 320.232 322.109 320.153C314.73 305.395 284.684 255.87 284.383 255.373C284.318 255.264 284.299 255.135 284.329 255.012C284.359 254.889 284.437 254.783 284.545 254.718C284.653 254.653 284.783 254.632 284.905 254.662C285.028 254.692 285.134 254.768 285.2 254.876C285.501 255.378 315.566 304.932 322.955 319.723C323.011 319.836 323.02 319.967 322.98 320.087C322.939 320.207 322.853 320.307 322.74 320.363C322.676 320.396 322.606 320.414 322.534 320.416Z" fill="#0077FF"/>
<path d="M364.499 374.467C366.062 372.641 369.704 374.725 370.487 375.509C371.271 376.293 374.143 372.536 380.652 370.973C387.161 369.411 390.688 369.697 396.629 375.466C406.12 384.704 414.139 392.67 414.139 395.81C414.139 401.12 412.576 407.046 404.767 407.046H369.947C365.259 407.046 362.396 396.331 362.659 389.564C362.922 382.797 364.499 374.467 364.499 374.467Z" fill="#2929B2"/>
<path d="M390.903 399.639C398.631 399.314 413.982 398.339 413.982 398.339C414.078 397.493 414.124 396.643 414.12 395.792C414.12 392.666 406.101 384.685 396.61 375.447C390.688 369.679 387.138 369.392 380.633 370.955C374.129 372.518 371.247 376.269 370.468 375.49C374.798 386.129 383.171 399.978 390.903 399.639Z" fill="#212121"/>
<path d="M387.874 399.189C382.139 401.358 372.136 402.892 364.456 400.837C365.728 404.364 367.615 407.05 369.962 407.05H404.763C412.572 407.05 414.135 401.124 414.135 395.815C407.85 392.947 400.342 394.443 387.874 399.189Z" fill="white"/>
</g>
<defs>
<clipPath id="clip0_260_3835">
<rect width="433.067" height="406" fill="white"/>
</clipPath>
</defs>
</svg>
