<svg width="1440" height="501" viewBox="0 0 1440 501" fill="none" xmlns="http://www.w3.org/2000/svg">
<path d="M-0.425781 0.13623L1439.57 0.13623V500.136L-0.425781 500.136L-0.425781 0.13623Z" fill="url(#paint0_linear_802_152)"/>
<path d="M-0.425781 0.13623L1439.57 0.13623V500.136L-0.425781 500.136L-0.425781 0.13623Z" fill="#00DC7F"/>
<g opacity="0.5">
<mask id="mask0_802_152" style="mask-type:alpha" maskUnits="userSpaceOnUse" x="-60" y="21" width="1564" height="478">
<rect x="-59.4092" y="21.4353" width="1562.78" height="477.187" fill="#0077FF"/>
</mask>
<g mask="url(#mask0_802_152)">
<mask id="mask1_802_152" style="mask-type:alpha" maskUnits="userSpaceOnUse" x="901" y="37" width="603" height="680">
<rect x="901.462" y="37.7402" width="601.902" height="678.28" fill="#17D685"/>
</mask>
<g mask="url(#mask1_802_152)">
<path d="M994.771 519.776C1007.05 511.828 1020.19 505.553 1033.72 500.094C1066.42 486.903 1100.37 478.015 1134.85 471.032C1145.06 468.968 1155.32 467.221 1165.69 465.298V416.779C1106.88 426.3 1049.25 439.499 994.729 464.799L994.771 519.776Z" fill="#01C974"/>
<path d="M994.771 370.673L1002.03 363.899C1016.31 350.583 1032.75 340.422 1050.11 331.708C1081.14 316.137 1113.91 305.51 1147.59 297.587C1153.62 296.172 1159.68 294.915 1165.74 293.575V231.79C1105.42 243.175 1047.54 260.86 994.771 293.226V370.673Z" fill="#01C974"/>
<path d="M994.773 231.3C994.872 230.941 995.011 230.595 995.188 230.268C998.999 223.61 1002.43 216.686 1006.81 210.436C1018.5 193.791 1033.71 180.742 1050.44 169.432C1081.11 148.701 1114.91 135.052 1150.45 125.39C1155.55 124.008 1160.68 122.769 1165.72 121.479V46.4365C1103.78 58.9865 1045.9 80.6409 994.756 118.99L994.773 231.3Z" fill="#01C974"/>
<path d="M1165.75 519.776H1165.79C1178.08 511.828 1191.21 505.553 1204.74 500.094C1237.45 486.903 1271.39 478.015 1305.87 471.032C1316.08 468.968 1326.35 467.221 1336.72 465.298V416.779C1277.91 426.3 1220.27 439.499 1165.75 464.799V519.776Z" fill="#01C974"/>
<path d="M1165.75 370.673L1173 363.899C1187.29 350.583 1203.73 340.422 1221.09 331.708C1252.12 316.137 1284.88 305.51 1318.58 297.587C1324.6 296.172 1330.66 294.915 1336.72 293.575V231.79C1276.4 243.175 1218.51 260.86 1165.75 293.226V370.673Z" fill="#01C974"/>
<path d="M1165.75 231.3C1165.85 230.941 1165.99 230.595 1166.16 230.268C1169.97 223.61 1173.41 216.686 1177.79 210.436C1189.49 193.791 1204.68 180.742 1221.41 169.432C1252.13 148.701 1285.9 135.052 1321.43 125.39C1326.52 124.008 1331.66 122.769 1336.7 121.479V46.4365C1274.75 58.9865 1216.88 80.6409 1165.73 118.99L1165.75 231.3Z" fill="#01C974"/>
<path d="M1336.73 519.776C1349.02 511.828 1362.15 505.553 1375.69 500.094C1408.38 486.903 1442.34 478.015 1476.81 471.032C1487.02 468.969 1497.29 467.221 1507.66 465.298V416.779C1448.85 426.3 1391.21 439.499 1336.69 464.799L1336.73 519.776Z" fill="#01C974"/>
<path d="M1336.73 370.673L1343.98 363.899C1358.27 350.583 1374.7 340.422 1392.07 331.708C1423.09 316.137 1455.86 305.51 1489.55 297.587C1495.58 296.172 1501.64 294.915 1507.69 293.576V231.791C1447.38 243.175 1389.49 260.86 1336.73 293.226V370.673Z" fill="#01C974"/>
<path d="M1336.73 231.3C1336.82 230.939 1336.96 230.592 1337.14 230.268C1340.95 223.61 1344.38 216.686 1348.77 210.436C1360.46 193.791 1375.66 180.742 1392.39 169.432C1423.07 148.701 1456.87 135.052 1492.41 125.39C1497.51 124.009 1502.64 122.769 1507.68 121.479V46.4366C1445.74 58.9866 1387.87 80.641 1336.72 118.99L1336.73 231.3Z" fill="#01C974"/>
</g>
<path opacity="0.3" d="M482.886 519.775C495.166 511.828 508.302 505.553 521.837 500.093C554.535 486.902 588.488 478.014 622.963 471.032C633.176 468.968 643.439 467.22 653.81 465.298V416.779C594.998 426.299 537.364 439.498 482.844 464.798L482.886 519.775Z" fill="#01C974"/>
<path opacity="0.3" d="M482.885 370.673L490.142 363.899C504.424 350.583 520.865 340.421 538.227 331.708C569.257 316.137 602.022 305.509 635.708 297.586C641.736 296.171 647.798 294.915 653.851 293.575V231.79C593.536 243.175 535.653 260.86 482.885 293.225V370.673Z" fill="#01C974"/>
<path opacity="0.3" d="M482.888 231.299C482.988 230.941 483.127 230.594 483.303 230.267C487.115 223.609 490.544 216.685 494.928 210.435C506.619 193.79 521.823 180.741 538.554 169.431C569.226 148.7 603.029 135.051 638.567 125.389C643.666 124.008 648.797 122.768 653.837 121.478V46.4358C591.895 58.9858 534.02 80.6402 482.872 118.989L482.888 231.299Z" fill="#01C974"/>
<path opacity="0.2" d="M312.617 519.775C324.897 511.828 338.033 505.553 351.568 500.093C384.266 486.902 418.219 478.014 452.694 471.032C462.907 468.968 473.17 467.22 483.541 465.298V416.779C424.728 426.299 367.095 439.498 312.575 464.798L312.617 519.775Z" fill="#01C974"/>
<path opacity="0.2" d="M312.616 370.673L319.873 363.899C334.155 350.583 350.596 340.421 367.958 331.708C398.988 316.137 431.753 305.509 465.439 297.586C471.467 296.171 477.529 294.915 483.582 293.575V231.79C423.267 243.175 365.384 260.86 312.616 293.225V370.673Z" fill="#01C974"/>
<path opacity="0.2" d="M312.617 231.299C312.716 230.941 312.856 230.594 313.032 230.267C316.843 223.609 320.272 216.685 324.657 210.435C336.348 193.79 351.551 180.741 368.282 169.431C398.955 148.7 432.758 135.051 468.296 125.389C473.394 124.008 478.526 122.768 483.566 121.478V46.4358C421.623 58.9858 363.749 80.6402 312.6 118.989L312.617 231.299Z" fill="#01C974"/>
<path opacity="0.15" d="M141.264 519.775C153.545 511.828 166.681 505.553 180.215 500.093C212.914 486.902 246.866 478.014 281.342 471.032C291.555 468.968 301.818 467.22 312.188 465.298V416.779C253.376 426.299 195.743 439.498 141.223 464.798L141.264 519.775Z" fill="#01C974"/>
<path opacity="0.15" d="M141.264 370.673L148.521 363.899C162.803 350.583 179.244 340.421 196.606 331.708C227.636 316.137 260.4 305.509 294.087 297.586C300.115 296.171 306.177 294.915 312.23 293.575V231.79C251.915 243.175 194.032 260.86 141.264 293.225V370.673Z" fill="#01C974"/>
<path opacity="0.15" d="M141.265 231.299C141.364 230.941 141.504 230.594 141.68 230.267C145.491 223.609 148.92 216.685 153.305 210.435C164.996 193.79 180.199 180.741 196.93 169.431C227.603 148.7 261.406 135.051 296.944 125.389C302.042 124.008 307.174 122.768 312.214 121.478V46.4358C250.271 58.9858 192.397 80.6402 141.248 118.989L141.265 231.299Z" fill="#01C974"/>
<path opacity="0.1" d="M-29.0014 519.775C-16.7207 511.828 -3.58475 505.553 9.94969 500.093C42.6482 486.902 76.6006 478.014 111.076 471.032C121.289 468.968 131.552 467.22 141.923 465.298V416.779C83.1103 426.299 25.477 439.498 -29.0427 464.798L-29.0014 519.775Z" fill="#01C974"/>
<path opacity="0.1" d="M-29.0009 370.673L-21.7438 363.899C-7.46208 350.583 8.97865 340.421 26.3409 331.708C57.3705 316.137 90.1354 305.509 123.822 297.586C129.85 296.171 135.912 294.915 141.965 293.575V231.79C81.6494 243.175 23.7668 260.86 -29.0009 293.225V370.673Z" fill="#01C974"/>
<path opacity="0.1" d="M-29.0024 231.299C-28.9028 230.941 -28.7635 230.594 -28.5872 230.267C-24.776 223.609 -21.3467 216.685 -16.9625 210.435C-5.27144 193.79 9.93201 180.741 26.6632 169.431C57.3357 148.7 91.1386 135.051 126.677 125.389C131.775 124.008 136.907 122.768 141.947 121.478V46.4358C80.0039 58.9858 22.1296 80.6402 -29.019 118.989L-29.0024 231.299Z" fill="#01C974"/>
<path opacity="0.6" d="M653.856 519.776H653.898C666.186 511.828 679.322 505.553 692.849 500.093C725.555 486.903 759.5 478.014 793.983 471.032C804.188 468.968 814.459 467.22 824.83 465.298V416.779C766.018 426.3 708.376 439.499 653.856 464.798V519.776Z" fill="#01C974"/>
<path opacity="0.6" d="M653.856 370.673L661.113 363.899C675.403 350.583 691.836 340.421 709.198 331.708C740.227 316.137 772.992 305.509 806.687 297.586C812.707 296.172 818.769 294.915 824.83 293.575V231.79C764.506 243.175 706.624 260.86 653.856 293.225V370.673Z" fill="#01C974"/>
<path opacity="0.6" d="M653.856 231.299C653.955 230.941 654.095 230.595 654.271 230.267C658.082 223.609 661.52 216.685 665.896 210.435C677.595 193.79 692.79 180.741 709.521 169.431C740.244 148.7 774.005 135.052 809.535 125.389C814.633 124.008 819.773 122.768 824.805 121.478V46.4359C762.862 58.986 704.988 80.6404 653.839 118.99L653.856 231.299Z" fill="#01C974"/>
<path opacity="0.8" d="M824.84 519.776C837.129 511.828 850.265 505.553 863.8 500.094C896.498 486.903 930.451 478.014 964.926 471.032C975.131 468.968 985.402 467.22 995.773 465.298V416.779C936.96 426.3 879.327 439.499 824.807 464.798L824.84 519.776Z" fill="#01C974"/>
<path opacity="0.8" d="M824.842 370.673L832.09 363.899C846.38 350.583 862.813 340.421 880.183 331.708C911.204 316.137 943.978 305.509 977.664 297.586C983.693 296.172 989.754 294.915 995.807 293.575V231.79C935.492 243.175 877.601 260.86 824.842 293.225V370.673Z" fill="#01C974"/>
<path opacity="0.8" d="M824.842 231.3C824.934 230.938 825.073 230.591 825.257 230.267C829.068 223.61 832.498 216.685 836.882 210.435C848.581 193.791 863.776 180.741 880.508 169.431C911.188 148.7 944.991 135.052 980.53 125.39C985.628 124.008 990.759 122.768 995.799 121.478V46.4361C933.856 58.9861 875.982 80.6405 824.834 118.99L824.842 231.3Z" fill="#01C974"/>
</g>
</g>
<defs>
<linearGradient id="paint0_linear_802_152" x1="1957.57" y1="-182.915" x2="1269.6" y2="1153.79" gradientUnits="userSpaceOnUse">
<stop/>
<stop offset="1" stop-color="#231F20"/>
</linearGradient>
</defs>
</svg>
