<svg width="1440" height="499" viewBox="0 0 1440 499" fill="none" xmlns="http://www.w3.org/2000/svg">
<path d="M70.4027 117.454C41.1225 82.692 24.2782 39.9347 24.2782 0.146072H0C0 24.3429 5.06711 48.8488 15.0631 72.9725C22.8162 91.4511 32.9317 108.847 45.1567 124.725H76.8769C74.6646 122.375 72.5093 119.984 70.4027 117.454Z" fill="#F0F6FF" fill-opacity="0.6"/>
<path d="M202.853 96.8445C178.518 67.9791 162.812 33.6073 158.176 3.05176e-05H133.662C135.829 18.0067 140.483 35.626 147.489 52.3547C156.629 74.1495 169.03 94.4276 184.268 112.493C187.879 116.771 191.577 120.838 195.362 124.693H231.718C221.147 116.448 211.471 107.114 202.853 96.8445Z" fill="#F0F6FF" fill-opacity="0.6"/>
<path d="M293.852 52.3553C302.988 74.1517 315.39 94.4302 330.631 112.494C334.242 116.772 337.94 120.839 341.725 124.694H378.081C367.499 116.44 357.816 107.095 349.191 96.8125C324.889 67.9877 309.191 33.6728 304.531 0.114426H280.017C282.195 18.0831 286.851 35.6635 293.852 52.3553Z" fill="#F0F6FF" fill-opacity="0.6"/>
<path d="M495.529 96.8445C471.194 67.9791 455.48 33.6073 450.844 3.05176e-05H426.338C428.501 18.0075 433.155 35.6273 440.165 52.3547C449.302 74.1512 461.703 94.4296 476.944 112.493C480.555 116.771 484.25 120.838 488.03 124.693H524.394C513.822 116.448 504.147 107.114 495.529 96.8445Z" fill="#F0F6FF" fill-opacity="0.6"/>
<path d="M663.642 96.8445C639.307 67.9791 623.601 33.6073 618.965 3.05176e-05H594.459C596.626 18.0068 601.279 35.6261 608.286 52.3547C617.426 74.1495 629.827 94.4276 645.065 112.493C648.676 116.771 652.374 120.838 656.159 124.693H692.515C681.943 116.447 672.265 107.112 663.642 96.8445Z" fill="#F0F6FF" fill-opacity="0.6"/>
<path d="M809.982 96.8445C785.646 67.9791 769.941 33.6073 765.305 3.05176e-05H740.799C742.966 18.0068 747.619 35.6261 754.626 52.3547C763.766 74.1495 776.167 94.4276 791.405 112.493C795.016 116.771 798.714 120.838 802.499 124.693H838.855C828.282 116.447 818.605 107.112 809.982 96.8445Z" fill="#F0F6FF" fill-opacity="0.6"/>
<path d="M956.319 96.8445C931.984 67.9791 916.278 33.6073 911.642 3.05176e-05H887.12C889.283 18.0075 893.937 35.6274 900.947 52.3547C910.087 74.1495 922.488 94.4276 937.726 112.493C941.337 116.771 945.035 120.838 948.82 124.693H985.176C974.607 116.448 964.935 107.114 956.319 96.8445Z" fill="#F0F6FF" fill-opacity="0.6"/>
<path d="M1102.65 96.8445C1078.32 67.9791 1062.61 33.6073 1057.98 3.05176e-05H1033.46C1035.63 18.0067 1040.28 35.626 1047.29 52.3547C1056.42 74.1512 1068.83 94.4296 1084.07 112.493C1087.68 116.771 1091.38 120.838 1095.16 124.693H1131.52C1120.95 116.448 1111.27 107.114 1102.65 96.8445Z" fill="#F0F6FF" fill-opacity="0.6"/>
<path d="M1248.99 96.8445C1224.66 67.9791 1208.94 33.6073 1204.31 3.05176e-05H1179.8C1181.97 18.0075 1186.62 35.6273 1193.63 52.3547C1202.77 74.1512 1215.17 94.4296 1230.41 112.493C1234.02 116.771 1237.71 120.838 1241.49 124.693H1277.86C1267.29 116.448 1257.61 107.114 1248.99 96.8445Z" fill="#F0F6FF" fill-opacity="0.6"/>
<path d="M1395.32 96.8445C1370.99 67.9791 1355.28 33.6073 1350.64 3.05176e-05H1326.14C1328.3 18.0068 1332.96 35.6261 1339.96 52.3547C1349.1 74.1514 1361.51 94.4299 1376.75 112.493C1380.35 116.771 1384.07 120.854 1387.84 124.693H1424.2C1413.63 116.447 1403.95 107.113 1395.32 96.8445Z" fill="#F0F6FF" fill-opacity="0.6"/>
<path d="M70.4027 241.895C41.1225 207.133 24.2782 164.375 24.2782 124.587H0C0 148.784 5.06711 173.29 15.0631 197.413C22.8162 215.892 32.9317 233.288 45.1567 249.166H76.8769C74.6646 246.816 72.5093 244.424 70.4027 241.895Z" fill="#F0F6FF" fill-opacity="0.6"/>
<path d="M202.853 221.285C178.518 192.42 162.812 158.048 158.176 124.441H133.662C135.829 142.448 140.483 160.067 147.489 176.796C156.629 198.59 169.03 218.868 184.268 236.934C187.879 241.212 191.577 245.279 195.362 249.134H231.718C221.147 240.889 211.471 231.555 202.853 221.285Z" fill="#F0F6FF" fill-opacity="0.6"/>
<path d="M293.852 176.796C302.988 198.592 315.39 218.871 330.631 236.934C334.242 241.213 337.94 245.279 341.725 249.135H378.081C367.499 240.881 357.816 231.535 349.191 221.253C324.889 192.428 309.191 158.114 304.531 124.555H280.017C282.195 142.524 286.851 160.104 293.852 176.796Z" fill="#F0F6FF" fill-opacity="0.6"/>
<path d="M495.529 221.285C471.194 192.42 455.48 158.048 450.844 124.441H426.338C428.501 142.448 433.155 160.068 440.165 176.796C449.302 198.592 461.703 218.87 476.944 236.934C480.555 241.212 484.25 245.279 488.03 249.134H524.394C513.822 240.889 504.147 231.555 495.529 221.285Z" fill="#F0F6FF" fill-opacity="0.6"/>
<path d="M663.642 221.285C639.307 192.42 623.601 158.048 618.965 124.441H594.459C596.626 142.448 601.279 160.067 608.286 176.796C617.426 198.59 629.827 218.868 645.065 236.934C648.676 241.212 652.374 245.279 656.159 249.134H692.515C681.943 240.887 672.265 231.553 663.642 221.285Z" fill="#F0F6FF" fill-opacity="0.6"/>
<path d="M809.982 221.285C785.646 192.42 769.941 158.048 765.305 124.441H740.799C742.966 142.448 747.619 160.067 754.626 176.796C763.766 198.59 776.167 218.868 791.405 236.934C795.016 241.212 798.714 245.279 802.499 249.134H838.855C828.282 240.887 818.605 231.553 809.982 221.285Z" fill="#F0F6FF" fill-opacity="0.6"/>
<path d="M956.319 221.285C931.984 192.42 916.278 158.048 911.642 124.441H887.12C889.283 142.448 893.937 160.068 900.947 176.796C910.087 198.59 922.488 218.868 937.726 236.934C941.337 241.212 945.035 245.279 948.82 249.134H985.176C974.607 240.889 964.935 231.554 956.319 221.285Z" fill="#F0F6FF" fill-opacity="0.6"/>
<path d="M1102.65 221.285C1078.32 192.42 1062.61 158.048 1057.98 124.441H1033.46C1035.63 142.447 1040.28 160.067 1047.29 176.796C1056.42 198.592 1068.83 218.87 1084.07 236.934C1087.68 241.212 1091.38 245.279 1095.16 249.134H1131.52C1120.95 240.889 1111.27 231.555 1102.65 221.285Z" fill="#F0F6FF" fill-opacity="0.6"/>
<path d="M1248.99 221.285C1224.66 192.42 1208.94 158.048 1204.31 124.441H1179.8C1181.97 142.448 1186.62 160.068 1193.63 176.796C1202.77 198.592 1215.17 218.87 1230.41 236.934C1234.02 241.212 1237.71 245.279 1241.49 249.134H1277.86C1267.29 240.889 1257.61 231.555 1248.99 221.285Z" fill="#F0F6FF" fill-opacity="0.6"/>
<path d="M1395.32 221.285C1370.99 192.42 1355.28 158.048 1350.64 124.441H1326.14C1328.3 142.448 1332.96 160.067 1339.96 176.796C1349.1 198.592 1361.51 218.871 1376.75 236.934C1380.35 241.212 1384.07 245.295 1387.84 249.134H1424.2C1413.63 240.887 1403.95 231.553 1395.32 221.285Z" fill="#F0F6FF" fill-opacity="0.6"/>
<path d="M86.2149 366.629C56.9347 331.866 40.0904 289.109 40.0904 249.312H15.8203C15.8203 273.517 20.8874 298.015 30.8752 322.139C38.6266 340.621 48.7422 358.02 60.9688 373.9H92.6891C90.4877 371.552 88.3296 369.128 86.2149 366.629Z" fill="#F0F6FF" fill-opacity="0.6"/>
<path d="M218.664 346.011C194.329 317.153 178.623 282.782 173.987 249.166H149.481C151.647 267.176 156.301 284.798 163.308 301.529C172.448 323.321 184.85 343.597 200.087 361.659C203.699 365.943 207.397 370.01 211.181 373.859H247.538C236.967 365.61 227.29 356.276 218.664 346.011Z" fill="#F0F6FF" fill-opacity="0.6"/>
<path d="M309.644 301.53C318.784 323.323 331.186 343.598 346.423 361.661C350.035 365.944 353.733 370.011 357.517 373.861H393.874C383.294 365.602 373.61 356.254 364.984 345.971C340.681 317.155 324.984 282.84 320.323 249.273H295.817C297.992 267.247 302.646 284.833 309.644 301.53Z" fill="#F0F6FF" fill-opacity="0.6"/>
<path d="M511.357 346.011C487.022 317.153 471.316 282.782 466.68 249.166H442.158C444.32 267.177 448.974 284.799 455.985 301.529C465.125 323.321 477.527 343.597 492.764 361.659C496.375 365.943 500.073 370.01 503.858 373.859H540.215C529.648 365.612 519.976 356.277 511.357 346.011Z" fill="#F0F6FF" fill-opacity="0.6"/>
<path d="M679.464 346.011C655.129 317.153 639.415 282.782 634.779 249.166H610.273C612.44 267.176 617.093 284.798 624.1 301.529C633.237 323.323 645.639 343.599 660.879 361.659C664.491 365.943 668.189 370.01 671.973 373.859H708.33C697.758 365.614 688.083 356.28 679.464 346.011Z" fill="#F0F6FF" fill-opacity="0.6"/>
<path d="M825.8 346.011C801.457 317.153 785.751 282.782 781.115 249.166H756.609C758.772 267.176 763.425 284.799 770.436 301.529C779.57 323.324 791.972 343.601 807.215 361.659C810.827 365.943 814.522 370.01 818.301 373.859H854.666C844.094 365.614 834.419 356.28 825.8 346.011Z" fill="#F0F6FF" fill-opacity="0.6"/>
<path d="M972.128 346.011C947.793 317.153 932.087 282.782 927.451 249.166H902.945C905.111 267.176 909.765 284.798 916.772 301.529C925.912 323.323 938.317 343.599 953.56 361.659C957.163 365.946 960.88 370.02 964.645 373.859H1001.01C990.435 365.613 980.755 356.278 972.128 346.011Z" fill="#F0F6FF" fill-opacity="0.6"/>
<path d="M1118.46 346.011C1094.13 317.153 1078.42 282.782 1073.79 249.166H1049.28C1051.45 267.176 1056.1 284.798 1063.11 301.529C1072.25 323.321 1084.65 343.597 1099.89 361.659C1103.5 365.943 1107.2 370.01 1110.98 373.859H1147.39C1136.8 365.615 1127.1 356.281 1118.46 346.011Z" fill="#F0F6FF" fill-opacity="0.6"/>
<path d="M1264.8 346.011C1240.46 317.153 1224.76 282.782 1220.12 249.166H1195.62C1197.78 267.177 1202.43 284.799 1209.44 301.529C1218.58 323.321 1230.99 343.597 1246.22 361.659C1249.83 365.943 1253.53 370.01 1257.32 373.859H1293.67C1283.1 365.612 1273.42 356.278 1264.8 346.011Z" fill="#F0F6FF" fill-opacity="0.6"/>
<path d="M1411.13 346.011C1386.8 317.153 1371.09 282.782 1366.46 249.166H1341.94C1344.11 267.176 1348.76 284.798 1355.77 301.529C1364.91 323.321 1377.31 343.597 1392.55 361.659C1396.16 365.943 1399.86 370.01 1403.64 373.859H1440C1429.43 365.614 1419.75 356.28 1411.13 346.011Z" fill="#F0F6FF" fill-opacity="0.6"/>
<path d="M86.2149 491.069C56.9347 456.307 40.0904 413.55 40.0904 373.753H15.8203C15.8203 397.958 20.8874 422.456 30.8752 446.58C38.6266 465.062 48.7422 482.46 60.9688 498.341H92.6891C90.4877 495.993 88.3296 493.569 86.2149 491.069Z" fill="#F0F6FF" fill-opacity="0.6"/>
<path d="M218.664 470.452C194.329 441.594 178.623 407.223 173.987 373.607H149.481C151.647 391.617 156.301 409.239 163.308 425.97C172.448 447.762 184.85 468.038 200.087 486.1C203.699 490.384 207.397 494.451 211.181 498.3H247.538C236.967 490.051 227.29 480.717 218.664 470.452Z" fill="#F0F6FF" fill-opacity="0.6"/>
<path d="M309.644 425.971C318.784 447.764 331.186 468.039 346.423 486.102C350.035 490.385 353.733 494.452 357.517 498.302H393.874C383.294 490.043 373.61 480.695 364.984 470.412C340.681 441.596 324.984 407.281 320.323 373.714H295.817C297.992 391.688 302.646 409.274 309.644 425.971Z" fill="#F0F6FF" fill-opacity="0.6"/>
<path d="M511.357 470.452C487.022 441.594 471.316 407.223 466.68 373.607H442.158C444.32 391.617 448.974 409.24 455.985 425.97C465.125 447.762 477.527 468.038 492.764 486.1C496.375 490.384 500.073 494.451 503.858 498.3H540.215C529.648 490.052 519.976 480.718 511.357 470.452Z" fill="#F0F6FF" fill-opacity="0.6"/>
<path d="M679.464 470.452C655.129 441.594 639.415 407.223 634.779 373.607H610.273C612.44 391.617 617.093 409.239 624.1 425.97C633.237 447.764 645.639 468.04 660.879 486.1C664.491 490.384 668.189 494.451 671.973 498.3H708.33C697.758 490.055 688.083 480.721 679.464 470.452Z" fill="#F0F6FF" fill-opacity="0.6"/>
<path d="M825.8 470.452C801.457 441.594 785.751 407.223 781.115 373.607H756.609C758.772 391.617 763.425 409.24 770.436 425.97C779.57 447.765 791.972 468.042 807.215 486.1C810.827 490.384 814.522 494.451 818.301 498.3H854.666C844.094 490.055 834.419 480.721 825.8 470.452Z" fill="#F0F6FF" fill-opacity="0.6"/>
<path d="M972.128 470.452C947.793 441.594 932.087 407.223 927.451 373.607H902.945C905.111 391.617 909.765 409.239 916.772 425.97C925.912 447.764 938.317 468.04 953.56 486.1C957.163 490.387 960.88 494.462 964.645 498.3H1001.01C990.435 490.054 980.755 480.72 972.128 470.452Z" fill="#F0F6FF" fill-opacity="0.6"/>
<path d="M1118.46 470.452C1094.13 441.594 1078.42 407.223 1073.79 373.607H1049.28C1051.45 391.617 1056.1 409.239 1063.11 425.97C1072.25 447.762 1084.65 468.038 1099.89 486.1C1103.5 490.384 1107.2 494.451 1110.98 498.3H1147.39C1136.8 490.056 1127.1 480.722 1118.46 470.452Z" fill="#F0F6FF" fill-opacity="0.6"/>
<path d="M1264.8 470.452C1240.46 441.594 1224.76 407.223 1220.12 373.607H1195.62C1197.78 391.618 1202.43 409.24 1209.44 425.97C1218.58 447.762 1230.99 468.038 1246.22 486.1C1249.83 490.384 1253.53 494.451 1257.32 498.3H1293.67C1283.1 490.053 1273.42 480.719 1264.8 470.452Z" fill="#F0F6FF" fill-opacity="0.6"/>
<path d="M1411.13 470.452C1386.8 441.594 1371.09 407.223 1366.46 373.607H1341.94C1344.11 391.617 1348.76 409.239 1355.77 425.97C1364.91 447.762 1377.31 468.038 1392.55 486.1C1396.16 490.384 1399.86 494.451 1403.64 498.3H1440C1429.43 490.055 1419.75 480.721 1411.13 470.452Z" fill="#F0F6FF" fill-opacity="0.6"/>
</svg>
