<svg width="447" height="590" viewBox="0 0 447 590" fill="none" xmlns="http://www.w3.org/2000/svg">
<circle cx="174.496" cy="123.406" r="53.1841" fill="#17D685"/>
<path d="M161.162 107.44C161.162 107.44 158.483 101.148 159.093 84.6064C159.137 83.5092 159.269 82.2747 160.447 81.3146C163.23 79.1201 164.43 80.8373 166.251 79.9321C168.072 79.0268 169.112 76.0917 172.236 76.2124C175.361 76.3331 176.412 78.1984 177.974 78.0667C179.537 77.9351 180.851 76.7281 182.925 76.8597C185 76.9914 186.188 80.2448 188.009 80.3765C189.83 80.5081 191.31 79.5041 192.927 81.1336C194.203 82.4064 194.082 83.7505 194.066 84.8259C193.945 91.9581 193.34 103.145 191.035 107.77C185.269 119.395 161.162 107.44 161.162 107.44Z" fill="#FFFF4D"/>
<path d="M192.053 139.757C191.908 138.816 192.68 138.859 192.573 135.817C192.504 134.079 190.892 132.811 191.187 131.105C191.507 129.223 192.31 126.939 188.865 125.96C185.421 124.982 163.318 125.333 163.318 125.333C160.489 125.383 158.776 127.152 159.629 130.678C160.257 133.238 157.898 134.116 158.055 136.607C158.18 138.64 158.682 139.192 158.626 139.681C158.569 140.171 141.442 143.847 136.109 159.469C141.394 165.117 147.854 169.537 155.033 172.417C162.212 175.297 169.935 176.567 177.659 176.137C185.382 175.708 192.917 173.589 199.732 169.931C206.548 166.273 212.478 161.164 217.104 154.964C209.08 143.439 192.241 140.936 192.053 139.757Z" fill="white"/>
<path d="M168.287 159.289C173.144 153.924 176.234 147.196 177.139 140.016H172.12C170.577 149.464 165.545 156.227 160.005 159.96H167.666C167.866 159.741 168.08 159.515 168.287 159.289Z" fill="#17D685"/>
<path d="M167.703 138.804C172.424 133.586 175.436 127.049 176.336 120.071H172.911C171.436 129.293 166.706 136.044 161.335 140.015H166.524C166.925 139.626 167.321 139.225 167.703 138.804Z" fill="#17D685"/>
<path d="M171.217 159.958C169.865 165.629 166.917 170.796 162.722 174.846C165.201 175.417 167.717 175.813 170.251 176.031C174.069 171.395 176.647 165.864 177.742 159.958H171.217Z" fill="#17D685"/>
<path d="M199.28 159.96H210.416C212.503 157.964 214.288 155.673 215.711 153.159C214.157 151.339 212.384 149.717 210.434 148.329C208.457 152.435 205.283 155.847 201.331 158.116C200.096 158.828 198.808 159.445 197.479 159.96H191.544C189.957 166.465 186.008 172.147 180.464 175.902C185.166 175.395 189.777 174.256 194.173 172.514C196.69 168.709 198.426 164.442 199.28 159.96Z" fill="#17D685"/>
<path d="M192.591 140.159C191.261 147.437 188.043 153.083 182.955 157.011C181.45 158.164 179.827 159.153 178.111 159.96H188.676C193.576 155.436 196.782 149.476 198.269 142.167C195.615 141.207 193.52 140.599 192.591 140.159Z" fill="#17D685"/>
<path d="M192.259 134.523C191.782 133.382 190.966 132.359 191.186 131.104C191.374 130 191.726 128.752 191.274 127.704C189.583 131.659 186.907 135.115 183.501 137.742C182.416 138.577 181.268 139.328 180.069 139.988H187.34C189.205 138.383 190.858 136.547 192.259 134.523Z" fill="#17D685"/>
<path d="M149.885 156.847C152.732 151.938 154.635 146.54 155.494 140.93C153.995 141.524 152.529 142.198 151.103 142.951C150.17 147.135 148.609 151.154 146.472 154.871C145.442 156.691 144.227 158.4 142.846 159.971H147.915C148.549 159.005 149.214 157.995 149.885 156.847Z" fill="#17D685"/>
<path d="M150.846 159.958C150.216 163.042 149.187 166.03 147.784 168.848C149.294 169.743 150.847 170.562 152.439 171.301C154.249 167.727 155.517 163.904 156.204 159.958H150.846Z" fill="#17D685"/>
<path d="M187.209 121.94C187.209 123.778 187.642 126.701 187.516 127.586C187.391 128.471 175.408 135.428 164.692 127.881C164.692 127.881 164.937 123.985 164.937 121.67C164.943 117.736 187.221 120.108 187.209 121.94Z" fill="#FF8481"/>
<path d="M183.212 120.471L175.363 125.49C173.418 125.904 174.629 129.367 180.571 130.842C184.649 129.901 187.472 128.075 187.516 127.636C187.641 126.726 187.202 123.803 187.208 121.989C187.215 121.444 185.583 120.91 183.212 120.471Z" fill="#E85353"/>
<path d="M167.491 109.858C166.393 110.931 166.794 116.207 175.647 116.326C184.035 116.439 185.685 111.646 184.587 110.146C184.116 109.519 180.377 109.519 176.199 109.519C172.365 109.45 168.08 109.287 167.491 109.858Z" fill="white"/>
<path d="M176.982 98.7522C178.061 98.7145 179.818 103.771 177.352 104.913C176.367 105.365 174.341 104.913 174.78 104.857C179.874 104.091 176.292 98.7773 176.982 98.7522Z" fill="#E85353"/>
<path d="M170.376 126.436C172.031 126.985 173.759 127.281 175.502 127.315C186.606 127.66 191.814 121.668 191.456 110.507C191.435 110.118 191.509 109.731 191.67 109.377C191.832 109.023 192.077 108.713 192.385 108.474C193.715 107.502 194.806 105.337 193.897 103.506C192.353 100.425 189.693 103.054 189.361 101.623C184.48 81.0013 166.411 84.2135 162.747 101.843C162.502 103.048 159.265 100.344 157.54 103.399C156.643 104.986 157.101 107.791 159.033 108.368C159.542 108.516 159.991 108.822 160.316 109.241C160.64 109.66 160.824 110.172 160.84 110.702C160.972 115.181 162.502 120.225 164.956 123.136C165.984 124.385 168.845 125.916 170.376 126.436Z" fill="#FF8481"/>
<path d="M169.542 98.7263C167.855 98.7263 167.516 100.608 167.66 101.292C167.805 101.976 171.079 102.127 171.18 101.242C171.28 100.358 171.023 98.7263 169.542 98.7263Z" fill="#212121"/>
<path d="M182.283 98.7263C183.965 98.7263 184.31 100.608 184.166 101.292C184.021 101.976 180.753 102.127 180.652 101.242C180.552 100.358 180.803 98.7263 182.283 98.7263Z" fill="#212121"/>
<path d="M168.663 109.557C169.102 108.49 171.8 109.394 176.091 109.463C180.797 109.544 182.911 108.478 184.053 109.168C185.195 109.858 183.331 116.697 176.524 116.697C170.859 116.709 167.565 112.267 168.663 109.557Z" fill="white"/>
<path d="M175.646 99.185C175.282 99.0846 173.795 103.106 174.021 104.436C174.247 105.766 176.826 106.136 177.936 105.396C179.047 104.656 175.201 104.882 175.427 103.552C175.652 102.221 176.161 99.3355 175.646 99.185Z" fill="#E85353"/>
<path d="M293.867 164.131C290.158 128.804 308.073 107.229 326.617 109.665C347.451 103.972 368.248 144.752 360.411 167.322C354.913 183.159 310.984 176.084 293.867 164.131Z" fill="#212121"/>
<path d="M323.468 134.585C327.868 117.471 345.837 122.827 350.931 139.747C354.289 150.898 355.472 162.543 348.669 168.014C339.803 175.12 325.891 169.084 322.091 165.796C318.291 162.507 314.997 145.634 314.997 145.634C314.997 145.634 319.795 148.873 323.468 134.585V134.585Z" fill="#FFA9A9"/>
<path d="M306.511 145.339C308.752 139.425 314.492 144.555 316.976 147.865L320.318 162.962C318.192 160.294 303.709 152.731 306.511 145.339Z" fill="#FFA9A9"/>
<path d="M318.703 169.511C319.017 163.34 314.084 157.866 311.578 155.9C314.362 156.212 319.931 156.883 319.931 157.08C319.931 157.276 321.995 162.829 323.027 165.58L318.703 169.511Z" fill="#FFA9A9"/>
<path d="M317.729 158.91C319.883 168.825 318.389 177.109 317.372 180.011L346.019 192.961L342.907 166.832L317.729 158.91Z" fill="#FFA9A9"/>
<path d="M343.376 170.692C336.843 171.364 330.875 167.58 328.714 165.618C333.94 176.701 344.322 179.833 344.322 179.833L343.376 170.692Z" fill="#FF8481"/>
<path d="M332.235 152.412C328.668 146.281 352.661 144.818 351.72 151.294C350.336 160.824 335.919 160.587 332.235 152.412Z" fill="white"/>
<path d="M334.633 138.594C335.396 140.173 335.075 141.042 333.333 141.069C332.257 141.086 331.538 140.428 331.329 138.893C331.12 137.358 333.555 136.36 334.633 138.594Z" fill="#212121"/>
<path d="M347.658 138.015C348.288 139.494 348.222 140.085 346.682 139.934C345.725 139.837 344.873 139.336 344.722 137.944C344.571 136.551 346.769 135.916 347.658 138.015Z" fill="#212121"/>
<path d="M326.256 133.653C328.052 130.921 335.05 126.424 336.235 130.526C336.459 131.315 334.299 132.648 332.615 133.371C330.932 134.094 329.694 134.911 327.85 135.34C326.447 135.661 325.649 134.568 326.256 133.653Z" fill="#212121"/>
<path d="M351.836 132.707C350.039 129.975 343.042 125.478 341.857 129.58C341.632 130.369 343.793 131.703 345.476 132.425C347.16 133.148 348.397 133.965 350.242 134.394C351.644 134.715 352.442 133.622 351.836 132.707Z" fill="#212121"/>
<path d="M340.914 145.713C340.016 144.761 342.392 143.642 342.469 141.954C342.635 138.402 339.888 136.658 340.519 136.256C341.149 135.854 345.153 139.611 345.625 141.954C346.348 145.541 342.255 147.124 340.914 145.713Z" fill="#FF8481"/>
<path d="M410.077 306.616L416.406 294.507L416.072 286.402L415.425 286.89C412.03 289.448 407.372 289.523 403.897 287.076L397.447 299.191L410.077 306.616Z" fill="#FFA9A9"/>
<path d="M425.251 289.059C426.859 288.573 428.564 288.235 430.182 288.017C432.989 287.638 435.494 289.305 437.855 290.876L437.929 290.925C438.483 291.294 439.034 291.576 439.568 291.788C441.335 292.489 442.19 290.47 440.973 289.01L439.731 287.52C437.748 285.142 435.048 283.469 432.035 282.752L427.358 281.639C426.524 281.44 425.675 281.322 424.821 281.284L425.251 289.059Z" fill="#FF8481"/>
<path d="M422.921 294.548C424.296 293.583 425.809 292.729 427.278 292.015C429.825 290.777 432.726 291.576 435.46 292.329L435.545 292.353C436.188 292.53 436.799 292.626 437.372 292.66C439.27 292.772 439.45 290.587 437.837 289.581L436.192 288.555C433.564 286.917 430.476 286.173 427.39 286.435L422.6 286.841C421.746 286.914 420.902 287.067 420.079 287.298L422.921 294.548Z" fill="#FF8481"/>
<path d="M421.215 295.242C422.406 294.567 423.7 293.993 424.947 293.529C427.11 292.725 429.4 293.601 431.558 294.426L431.625 294.451C432.133 294.645 432.621 294.771 433.083 294.844C434.613 295.084 434.931 293.326 433.702 292.384L432.448 291.423C430.445 289.887 427.999 289.042 425.476 289.012L421.559 288.966C420.861 288.958 420.164 289.016 419.479 289.139L421.215 295.242Z" fill="#FF8481"/>
<path d="M309.637 511.207L317.301 556.183L330.007 559.41L341.906 556.183L339.889 511.207H309.637Z" fill="#FFA9A9"/>
<path d="M219.925 505.649L215.679 551.075L227.116 557.483L239.445 557.447L249.145 513.484L219.925 505.649Z" fill="#FFA9A9"/>
<path d="M340.519 531.476C346.478 529.127 354.03 545.599 365.045 554.528C377.974 564.985 385.084 566.34 393.405 572.785C394.899 573.944 395.923 575.607 396.288 577.466C396.653 579.326 396.334 581.254 395.389 582.895C393.398 586.342 389.878 589.879 383.817 589.879H316.716C310.258 589.879 308.53 538.627 314.451 538.627C320.371 538.627 323.59 559.131 330.048 555.889C336.506 552.647 329.907 535.636 340.519 531.476Z" fill="#2929B2"/>
<path d="M312.32 579.185C311.053 571.31 310.552 560.546 310.963 552.086C315.088 560.23 323.336 565.476 330.076 569.762C337.535 574.506 343.148 578.076 339.278 583.098C334.111 589.804 321.653 584.801 312.32 579.185Z" fill="white"/>
<path d="M206.253 589.879H256.431C262.889 589.879 250.962 556.34 250.962 556.34C250.962 556.34 243.24 535.636 232.628 531.476C232.208 531.31 231.779 531.238 231.342 531.251C230.905 531.238 230.476 531.31 230.055 531.476C219.444 535.636 211.722 556.34 211.722 556.34C211.722 556.34 199.795 589.879 206.253 589.879Z" fill="#2929B2"/>
<mask id="mask0_720_5727" style="mask-type:alpha" maskUnits="userSpaceOnUse" x="204" y="531" width="55" height="59">
<path d="M206.253 589.879H256.431C262.889 589.879 250.962 556.34 250.962 556.34C250.962 556.34 243.24 535.636 232.628 531.476C232.208 531.31 231.779 531.238 231.342 531.251C230.905 531.238 230.476 531.31 230.055 531.476C219.444 535.636 211.722 556.34 211.722 556.34C211.722 556.34 199.795 589.879 206.253 589.879Z" fill="#2929B2"/>
</mask>
<g mask="url(#mask0_720_5727)">
<path fill-rule="evenodd" clip-rule="evenodd" d="M231.341 552.088C229.995 552.059 228.45 552.572 226.682 553.756C211.138 564.157 198.101 625.653 231.341 599.006C264.582 625.653 251.545 564.157 236.001 553.756C234.233 552.572 232.688 552.059 231.341 552.088Z" fill="white"/>
<path fill-rule="evenodd" clip-rule="evenodd" d="M221.721 579.36C223.986 578.512 226.049 577.74 227.95 577.268C228.874 577.011 229.839 576.853 230.833 576.807C231.017 576.797 231.2 576.792 231.381 576.792L231.381 576.792L231.456 576.792C231.532 576.792 231.609 576.793 231.684 576.794L231.685 576.792C234.486 576.792 237.646 577.975 241.345 579.36C246.036 581.116 251.594 583.197 258.391 583.603C285.233 585.212 300.854 581.452 310.089 579.229L310.089 579.229C312.268 578.704 314.091 578.265 315.623 578.003C314.618 584.878 313.063 589.879 311.035 589.879H244.504C244.504 589.879 244.504 589.879 244.504 589.879H218.408C218.408 589.879 218.408 589.879 218.408 589.879H152.031C150.003 589.879 148.448 584.878 147.443 578.003C148.975 578.265 150.798 578.704 152.977 579.229C162.212 581.452 177.833 585.212 204.675 583.603C211.472 583.197 217.03 581.116 221.721 579.36Z" fill="#212121"/>
</g>
<path d="M404.651 287.58L368.051 251.838L361.949 293.675L370.054 299.565C383.996 309.698 408.112 306.658 405.983 289.555C405.847 288.465 405.436 288.347 404.651 287.58Z" fill="#212121"/>
<path d="M428.952 279.508L425.341 280.585C423.884 281.02 422.511 281.697 421.279 282.587C414.026 287.827 403.934 294.693 406.905 303.133C407.22 304.026 407.741 304.84 408.522 305.527C413.967 310.313 422.62 306.036 425.573 308.224C429.198 310.91 431.351 311.249 432.44 310.177C434.498 308.152 430.283 305.043 425.089 299.487C421.211 295.337 425.627 289.382 430.271 285.383C432.902 283.117 437.885 283.856 441.298 283.219C443.566 282.795 442.147 280.65 439.982 279.854C436.442 278.553 432.566 278.429 428.952 279.508Z" fill="#FFA9A9"/>
<path d="M232.719 1.84915C235.486 4.07384 238.018 8.45359 240.75 20.6767C242.795 27.7217 245.869 31.0166 249.465 30.0172C251.033 29.5811 252.802 28.4135 254.629 27.2071C258.036 24.9569 261.648 22.5719 264.55 24.5486C267.073 26.267 263.563 28.0635 263.563 28.0635C263.563 28.0635 258.279 31.281 255.575 39.313C254.491 42.5341 252.427 45.2911 249.826 47.3102L253.263 59.8492L235.869 67.103L233.849 55.7045C233.625 54.4441 233.162 53.2383 232.484 52.1526L224.014 38.5913C224.014 38.5913 218.213 30.4913 214.379 27.2454C211.682 24.9623 214.372 23.7215 217.146 24.7131C219.201 25.4478 221.471 27.0942 224.741 31.5191C222.934 25.4225 219.974 16.9238 216.814 12.0943C215.071 9.43139 216.587 8.46447 218.662 9.00993C217.906 8.03143 217.152 7.14044 216.416 6.37322C213.45 3.28584 216.846 2.12534 220.066 3.66586C223.257 5.19256 226.707 8.73333 232.129 19.9065C233.017 21.2054 234.136 22.289 235.273 22.1552C233.717 16.1138 231.291 8.28751 228.546 3.64936C226.366 -0.0347434 229.937 -0.38734 232.719 1.84915Z" fill="#FFA9A9"/>
<path d="M374.54 300.336C371.833 310.438 329.408 304.95 304.253 298.209C279.097 291.469 260.899 277.816 263.606 267.714C266.313 257.612 288.899 254.887 314.055 261.627C339.21 268.368 377.247 290.234 374.54 300.336Z" fill="#212121"/>
<path d="M276.073 117.271L254.944 56.1486C252.288 48.4086 229.251 61.9463 231.287 69.1612L236.757 106.78C239.345 124.583 246.522 141.406 257.583 155.594L275.94 179.141C282.449 188.362 294.063 207.737 293.701 228.172C291.892 239.736 282.192 247.634 272.823 255.262L272.821 255.263C271.745 256.139 270.674 257.012 269.619 257.886C265.096 261.634 263.514 265.625 263.586 268.215C277.535 244.967 376.866 278.123 373.787 301.242C383.892 281.214 381.594 248.836 377.387 223.439C373.467 199.776 353.994 183.395 332.631 172.49C328.638 170.452 324.951 168.325 321.535 166.138C288.599 141.688 276.073 117.271 276.073 117.271Z" fill="#2929B2"/>
<mask id="mask1_720_5727" style="mask-type:alpha" maskUnits="userSpaceOnUse" x="231" y="53" width="150" height="249">
<path d="M276.073 117.271L254.944 56.1486C252.288 48.4086 229.251 61.9463 231.287 69.1612L236.757 106.78C239.345 124.583 246.522 141.406 257.583 155.594L275.94 179.141C282.449 188.362 294.063 207.737 293.701 228.172C291.892 239.736 282.192 247.634 272.823 255.262L272.821 255.263C271.745 256.139 270.674 257.012 269.619 257.886C265.096 261.634 263.514 265.625 263.586 268.215C277.535 244.967 376.866 278.123 373.787 301.242C383.892 281.214 381.594 248.836 377.387 223.439C373.467 199.776 353.994 183.395 332.631 172.49C328.638 170.452 324.951 168.325 321.535 166.138C288.599 141.688 276.073 117.271 276.073 117.271Z" fill="#2929B2"/>
</mask>
<g mask="url(#mask1_720_5727)">
<path d="M227.752 178.461C229.594 182.856 232.095 186.945 235.168 190.587C235.896 191.45 236.642 192.27 237.405 193.048H244.736C242.602 191.383 240.649 189.499 238.91 187.426C234.01 181.613 230.845 174.694 229.905 167.927H224.962C225.401 171.55 226.34 175.095 227.752 178.461V178.461Z" fill="#0077FF"/>
<path d="M268.752 187.455C263.845 181.635 260.677 174.704 259.742 167.927H254.8C255.237 171.558 256.175 175.111 257.588 178.484C259.431 182.879 261.931 186.968 265.005 190.61C265.733 191.473 266.478 192.293 267.24 193.07H274.572C272.441 191.408 270.49 189.526 268.752 187.455V187.455Z" fill="#0077FF"/>
<path d="M298.589 187.455C293.682 181.635 290.515 174.704 289.58 167.927H284.639C285.076 171.558 286.014 175.111 287.427 178.484C289.27 182.879 291.77 186.968 294.843 190.61C295.571 191.473 296.317 192.293 297.08 193.07H304.411C302.279 191.408 300.328 189.525 298.589 187.455Z" fill="#0077FF"/>
<path d="M328.427 187.455C323.52 181.635 320.353 174.704 319.418 167.927H314.477C314.914 171.558 315.852 175.111 317.265 178.484C319.108 182.879 321.609 186.968 324.681 190.61C325.409 191.473 326.155 192.293 326.918 193.07H334.249C332.117 191.408 330.166 189.525 328.427 187.455Z" fill="#0077FF"/>
<path d="M358.269 187.455C353.362 181.635 350.195 174.704 349.26 167.927H344.315C344.752 171.558 345.69 175.111 347.103 178.484C348.946 182.879 351.447 186.968 354.52 190.61C355.248 191.473 355.994 192.293 356.757 193.07H364.088C361.956 191.408 360.006 189.526 358.269 187.455V187.455Z" fill="#0077FF"/>
<path d="M388.105 187.455C383.199 181.635 380.032 174.704 379.097 167.927H374.154C374.591 171.558 375.529 175.111 376.942 178.484C378.784 182.879 381.285 186.968 384.358 190.61C385.086 191.473 385.832 192.293 386.595 193.07H393.926C391.794 191.408 389.843 189.526 388.105 187.455V187.455Z" fill="#0077FF"/>
<path d="M227.752 203.589C229.594 207.984 232.095 212.073 235.168 215.715C235.896 216.578 236.642 217.398 237.405 218.175H244.736C242.602 216.511 240.649 214.627 238.91 212.553C234.01 206.741 230.845 199.822 229.905 193.055H224.962C225.401 196.678 226.34 200.223 227.752 203.589V203.589Z" fill="#0077FF"/>
<path d="M268.752 212.583C263.845 206.762 260.677 199.832 259.742 193.055H254.8C255.237 196.686 256.175 200.239 257.588 203.612C259.431 208.007 261.931 212.096 265.005 215.738C265.733 216.601 266.478 217.421 267.24 218.198H274.572C272.441 216.536 270.49 214.653 268.752 212.583V212.583Z" fill="#0077FF"/>
<path d="M298.589 212.583C293.682 206.762 290.515 199.832 289.58 193.055H284.639C285.076 196.686 286.014 200.239 287.427 203.612C289.27 208.006 291.77 212.095 294.843 215.738C295.571 216.601 296.317 217.421 297.08 218.198H304.411C302.279 216.535 300.328 214.653 298.589 212.583Z" fill="#0077FF"/>
<path d="M328.427 212.583C323.52 206.762 320.353 199.832 319.418 193.055H314.477C314.914 196.686 315.852 200.239 317.265 203.612C319.108 208.006 321.609 212.095 324.681 215.738C325.409 216.601 326.155 217.421 326.918 218.198H334.249C332.117 216.535 330.166 214.653 328.427 212.583Z" fill="#0077FF"/>
<path d="M358.269 212.583C353.362 206.762 350.195 199.832 349.26 193.055H344.315C344.752 196.686 345.69 200.239 347.103 203.612C348.946 208.006 351.447 212.095 354.52 215.738C355.248 216.601 355.994 217.421 356.757 218.198H364.088C361.956 216.536 360.006 214.653 358.269 212.583V212.583Z" fill="#0077FF"/>
<path d="M388.105 212.583C383.199 206.762 380.032 199.832 379.097 193.055H374.154C374.591 196.686 375.529 200.239 376.942 203.612C378.784 208.007 381.285 212.096 384.358 215.738C385.086 216.601 385.832 217.421 386.595 218.198H393.926C391.794 216.536 389.843 214.653 388.105 212.583Z" fill="#0077FF"/>
<path d="M230.891 228.719C232.734 233.113 235.234 237.201 238.307 240.844C239.035 241.707 239.781 242.527 240.544 243.304H247.875C245.741 241.638 243.789 239.753 242.049 237.68C237.149 231.869 233.984 224.95 233.044 218.182H228.103C228.541 221.806 229.479 225.352 230.891 228.719V228.719Z" fill="#0077FF"/>
<path d="M271.895 237.709C266.988 231.891 263.821 224.96 262.886 218.182H257.941C258.377 221.813 259.316 225.367 260.729 228.74C262.572 233.134 265.073 237.223 268.146 240.865C268.874 241.729 269.619 242.549 270.383 243.325H277.714C275.583 241.662 273.633 239.78 271.895 237.709V237.709Z" fill="#0077FF"/>
<path d="M301.731 237.709C296.824 231.891 293.656 224.96 292.721 218.182H287.779C288.216 221.813 289.154 225.366 290.567 228.74C292.41 233.135 294.91 237.223 297.984 240.865C298.712 241.729 299.457 242.549 300.221 243.325H307.551C305.42 241.662 303.469 239.78 301.731 237.709V237.709Z" fill="#0077FF"/>
<path d="M331.57 237.709C326.662 231.891 323.495 224.96 322.56 218.182H317.619C318.055 221.813 318.993 225.367 320.407 228.74C322.249 233.135 324.749 237.223 327.823 240.865C328.551 241.729 329.296 242.549 330.058 243.325H337.391C335.259 241.662 333.308 239.78 331.57 237.709V237.709Z" fill="#0077FF"/>
<path d="M361.406 237.709C356.499 231.891 353.332 224.96 352.397 218.182H347.456C347.893 221.813 348.831 225.366 350.244 228.74C352.087 233.135 354.588 237.223 357.662 240.865C358.388 241.729 359.138 242.551 359.897 243.325H367.23C365.097 241.662 363.146 239.78 361.406 237.709Z" fill="#0077FF"/>
<path d="M391.245 237.709C386.338 231.891 383.171 224.96 382.236 218.182H377.295C377.732 221.813 378.67 225.366 380.083 228.74C381.926 233.134 384.427 237.223 387.499 240.865C388.227 241.729 388.973 242.549 389.736 243.325H397.077C394.942 241.662 392.987 239.78 391.245 237.709V237.709Z" fill="#0077FF"/>
<path d="M230.891 253.846C232.734 258.24 235.234 262.328 238.307 265.97C239.035 266.834 239.781 267.654 240.544 268.431H247.875C245.741 266.765 243.789 264.88 242.049 262.807C237.149 256.996 233.984 250.077 233.044 243.309H228.103C228.541 246.933 229.479 250.479 230.891 253.846V253.846Z" fill="#0077FF"/>
<path d="M271.895 262.836C266.988 257.018 263.821 250.087 262.886 243.309H257.941C258.377 246.94 259.316 250.494 260.729 253.867C262.572 258.261 265.073 262.35 268.146 265.992C268.874 266.856 269.619 267.676 270.383 268.452H277.714C275.583 266.789 273.633 264.907 271.895 262.836V262.836Z" fill="#0077FF"/>
<path d="M301.731 262.836C296.824 257.018 293.656 250.087 292.721 243.309H287.779C288.216 246.94 289.154 250.493 290.567 253.867C292.41 258.262 294.91 262.35 297.984 265.992C298.712 266.856 299.457 267.676 300.221 268.452H307.551C305.42 266.789 303.469 264.907 301.731 262.836V262.836Z" fill="#0077FF"/>
<path d="M331.57 262.836C326.662 257.018 323.495 250.087 322.56 243.309H317.619C318.055 246.94 318.993 250.494 320.407 253.867C322.249 258.262 324.749 262.35 327.823 265.992C328.551 266.856 329.296 267.676 330.058 268.452H337.391C335.259 266.789 333.308 264.907 331.57 262.836V262.836Z" fill="#0077FF"/>
<path d="M361.406 262.836C356.499 257.018 353.332 250.087 352.397 243.309H347.456C347.893 246.94 348.831 250.493 350.244 253.867C352.087 258.262 354.588 262.35 357.662 265.992C358.388 266.856 359.138 267.678 359.897 268.452H367.23C365.097 266.789 363.146 264.907 361.406 262.836Z" fill="#0077FF"/>
<path d="M391.245 262.836C386.338 257.018 383.171 250.087 382.236 243.309H377.295C377.732 246.94 378.67 250.493 380.083 253.867C381.926 258.261 384.427 262.35 387.499 265.992C388.227 266.856 388.973 267.676 389.736 268.452H397.077C394.942 266.789 392.987 264.907 391.245 262.836V262.836Z" fill="#0077FF"/>
<path d="M230.891 278.97C232.734 283.365 235.234 287.454 238.307 291.097C239.035 291.959 239.781 292.779 240.544 293.557H247.875C245.741 291.892 243.788 290.007 242.049 287.933C237.149 282.122 233.984 275.203 233.044 268.436H228.103C228.541 272.059 229.48 275.604 230.891 278.97V278.97Z" fill="#0077FF"/>
<path d="M271.895 287.962C266.988 282.144 263.821 275.213 262.886 268.436H257.941C258.378 272.067 259.316 275.62 260.729 278.993C262.572 283.388 265.073 287.477 268.146 291.119C268.874 291.982 269.619 292.802 270.383 293.58H277.714C275.582 291.916 273.632 290.034 271.895 287.962V287.962Z" fill="#0077FF"/>
<path d="M301.731 287.962C296.824 282.144 293.656 275.213 292.721 268.436H287.779C288.216 272.067 289.155 275.62 290.567 278.993C292.41 283.388 294.91 287.477 297.984 291.119C298.712 291.982 299.457 292.802 300.221 293.58H307.551C305.419 291.917 303.468 290.034 301.731 287.962V287.962Z" fill="#0077FF"/>
<path d="M331.57 287.962C326.662 282.144 323.495 275.213 322.56 268.436H317.619C318.055 272.067 318.993 275.62 320.407 278.993C322.248 283.389 324.749 287.478 327.823 291.119C328.551 291.982 329.296 292.802 330.058 293.58H337.391C335.259 291.917 333.308 290.034 331.57 287.962Z" fill="#0077FF"/>
<path d="M361.406 287.962C356.499 282.144 353.332 275.213 352.397 268.436H347.456C347.893 272.067 348.831 275.62 350.244 278.993C352.087 283.388 354.588 287.477 357.662 291.119C358.388 291.982 359.138 292.805 359.897 293.58H367.23C365.097 291.917 363.145 290.034 361.406 287.962V287.962Z" fill="#0077FF"/>
<path d="M391.245 287.962C386.338 282.144 383.171 275.213 382.236 268.436H377.295C377.732 272.067 378.67 275.62 380.083 278.993C381.926 283.388 384.427 287.477 387.499 291.119C388.227 291.982 388.973 292.802 389.736 293.58H397.077C394.941 291.917 392.986 290.034 391.245 287.962V287.962Z" fill="#0077FF"/>
<path d="M227.752 52.8764C229.594 57.2715 232.095 61.3604 235.168 65.0028C235.896 65.8654 236.642 66.6854 237.405 67.4628H244.736C242.602 65.7985 240.649 63.9141 238.91 61.8408C234.01 56.0285 230.845 49.1093 229.905 42.3425H224.962C225.401 45.9657 226.34 49.5107 227.752 52.8764V52.8764Z" fill="#0077FF"/>
<path d="M268.752 61.8703C263.845 56.0499 260.677 49.1191 259.742 42.3425H254.8C255.237 45.9736 256.175 49.5264 257.588 52.8994C259.431 57.2944 261.931 61.3834 265.005 65.0257C265.733 65.8884 266.478 66.7084 267.24 67.4858H274.572C272.441 65.8233 270.49 63.9411 268.752 61.8703V61.8703Z" fill="#0077FF"/>
<path d="M298.589 61.8703C293.682 56.0499 290.515 49.1191 289.58 42.3425H284.639C285.076 45.9734 286.014 49.5262 287.427 52.8994C289.27 57.2941 291.77 61.383 294.843 65.0257C295.571 65.8884 296.317 66.7084 297.08 67.4858H304.411C302.279 65.8229 300.328 63.9408 298.589 61.8703Z" fill="#0077FF"/>
<path d="M328.427 61.8703C323.52 56.0499 320.353 49.1191 319.418 42.3425H314.477C314.914 45.9734 315.852 49.5262 317.265 52.8994C319.108 57.2941 321.609 61.383 324.681 65.0257C325.409 65.8884 326.155 66.7084 326.918 67.4858H334.249C332.117 65.8229 330.166 63.9408 328.427 61.8703Z" fill="#0077FF"/>
<path d="M358.269 61.8703C353.362 56.0499 350.195 49.1191 349.26 42.3425H344.315C344.752 45.9736 345.69 49.5265 347.103 52.8994C348.946 57.2941 351.447 61.383 354.52 65.0257C355.248 65.8884 355.994 66.7084 356.757 67.4858H364.088C361.956 65.8232 360.006 63.941 358.269 61.8703V61.8703Z" fill="#0077FF"/>
<path d="M388.105 61.8703C383.199 56.0499 380.032 49.1191 379.097 42.3425H374.154C374.591 45.9734 375.529 49.5262 376.942 52.8994C378.784 57.2944 381.285 61.3834 384.358 65.0257C385.086 65.8884 385.832 66.7084 386.595 67.4858H393.926C391.794 65.8233 389.843 63.9411 388.105 61.8703V61.8703Z" fill="#0077FF"/>
<path d="M227.752 78.0034C229.594 82.3984 232.095 86.4874 235.168 90.1297C235.896 90.9924 236.642 91.8124 237.405 92.5898H244.736C242.602 90.9255 240.649 89.0411 238.91 86.9677C234.01 81.1555 230.845 74.2362 229.905 67.4695H224.962C225.401 71.0927 226.34 74.6376 227.752 78.0034V78.0034Z" fill="#0077FF"/>
<path d="M268.752 86.9973C263.845 81.1768 260.677 74.2461 259.742 67.4695H254.8C255.237 71.1005 256.175 74.6534 257.588 78.0263C259.431 82.4214 261.931 86.5103 265.005 90.1527C265.733 91.0153 266.478 91.8354 267.24 92.6127H274.572C272.441 90.9502 270.49 89.068 268.752 86.9973V86.9973Z" fill="#0077FF"/>
<path d="M298.589 86.9973C293.682 81.1768 290.515 74.2461 289.58 67.4695H284.639C285.076 71.1004 286.014 74.6532 287.427 78.0263C289.27 82.421 291.77 86.5099 294.843 90.1527C295.571 91.0153 296.317 91.8354 297.08 92.6127H304.411C302.279 90.9498 300.328 89.0677 298.589 86.9973Z" fill="#0077FF"/>
<path d="M328.427 86.9973C323.52 81.1768 320.353 74.2461 319.418 67.4695H314.477C314.914 71.1004 315.852 74.6532 317.265 78.0263C319.108 82.421 321.609 86.5099 324.681 90.1527C325.409 91.0153 326.155 91.8354 326.918 92.6127H334.249C332.117 90.9498 330.166 89.0677 328.427 86.9973Z" fill="#0077FF"/>
<path d="M358.269 86.9973C353.362 81.1768 350.195 74.2461 349.26 67.4695H344.315C344.752 71.1005 345.69 74.6534 347.103 78.0263C348.946 82.421 351.447 86.5099 354.52 90.1527C355.248 91.0153 355.994 91.8354 356.757 92.6127H364.088C361.956 90.9501 360.006 89.068 358.269 86.9973V86.9973Z" fill="#0077FF"/>
<path d="M388.105 86.9973C383.199 81.1768 380.032 74.2461 379.097 67.4695H374.154C374.591 71.1004 375.529 74.6531 376.942 78.0263C378.784 82.4214 381.285 86.5103 384.358 90.1527C385.086 91.0153 385.832 91.8354 386.595 92.6127H393.926C391.794 90.9502 389.843 89.068 388.105 86.9973Z" fill="#0077FF"/>
<path d="M230.891 103.134C232.734 107.528 235.234 111.616 238.307 115.259C239.035 116.122 239.781 116.942 240.544 117.719H247.875C245.741 116.053 243.789 114.168 242.049 112.095C237.149 106.284 233.984 99.3651 233.044 92.5967H228.103C228.541 96.2209 229.479 99.767 230.891 103.134V103.134Z" fill="#0077FF"/>
<path d="M271.895 112.124C266.988 106.306 263.821 99.3749 262.886 92.5967H257.941C258.377 96.2283 259.316 99.7817 260.729 103.155C262.572 107.549 265.073 111.638 268.146 115.28C268.874 116.144 269.619 116.964 270.383 117.74H277.714C275.583 116.077 273.633 114.195 271.895 112.124V112.124Z" fill="#0077FF"/>
<path d="M301.731 112.124C296.824 106.306 293.656 99.3749 292.721 92.5967H287.779C288.216 96.2281 289.154 99.7815 290.567 103.155C292.41 107.55 294.91 111.638 297.984 115.28C298.712 116.144 299.457 116.964 300.221 117.74H307.551C305.42 116.077 303.469 114.195 301.731 112.124V112.124Z" fill="#0077FF"/>
<path d="M331.57 112.124C326.662 106.306 323.495 99.3749 322.56 92.5967H317.619C318.055 96.2283 318.993 99.7817 320.407 103.155C322.249 107.55 324.749 111.638 327.823 115.28C328.551 116.144 329.296 116.964 330.058 117.74H337.391C335.259 116.077 333.308 114.195 331.57 112.124V112.124Z" fill="#0077FF"/>
<path d="M361.406 112.124C356.499 106.306 353.332 99.3749 352.397 92.5967H347.456C347.893 96.2281 348.831 99.7815 350.244 103.155C352.087 107.55 354.588 111.638 357.662 115.28C358.388 116.144 359.138 116.966 359.897 117.74H367.23C365.097 116.077 363.146 114.195 361.406 112.124Z" fill="#0077FF"/>
<path d="M391.245 112.124C386.338 106.306 383.171 99.3749 382.236 92.5967H377.295C377.732 96.2281 378.67 99.7815 380.083 103.155C381.926 107.549 384.427 111.638 387.499 115.28C388.227 116.144 388.973 116.964 389.736 117.74H397.077C394.942 116.077 392.987 114.195 391.245 112.124V112.124Z" fill="#0077FF"/>
<path d="M230.891 128.261C232.734 132.655 235.234 136.744 238.307 140.386C239.035 141.25 239.781 142.07 240.544 142.846H247.875C245.741 141.18 243.789 139.296 242.049 137.222C237.149 131.412 233.984 124.492 233.044 117.724H228.103C228.541 121.348 229.479 124.894 230.891 128.261V128.261Z" fill="#0077FF"/>
<path d="M271.895 137.252C266.988 131.433 263.821 124.502 262.886 117.724H257.941C258.377 121.355 259.316 124.909 260.729 128.282C262.572 132.677 265.073 136.765 268.146 140.407C268.874 141.271 269.619 142.091 270.383 142.867H277.714C275.583 141.204 273.633 139.322 271.895 137.252V137.252Z" fill="#0077FF"/>
<path d="M301.731 137.252C296.824 131.433 293.656 124.502 292.721 117.724H287.779C288.216 121.355 289.154 124.909 290.567 128.282C292.41 132.677 294.91 136.765 297.984 140.407C298.712 141.271 299.457 142.091 300.221 142.867H307.551C305.42 141.205 303.469 139.322 301.731 137.252V137.252Z" fill="#0077FF"/>
<path d="M331.57 137.252C326.662 131.433 323.495 124.502 322.56 117.724H317.619C318.055 121.355 318.993 124.909 320.407 128.282C322.249 132.677 324.749 136.766 327.823 140.407C328.551 141.271 329.296 142.091 330.058 142.867H337.391C335.259 141.205 333.308 139.322 331.57 137.252V137.252Z" fill="#0077FF"/>
<path d="M361.406 137.252C356.499 131.433 353.332 124.502 352.397 117.724H347.456C347.893 121.355 348.831 124.909 350.244 128.282C352.087 132.677 354.588 136.765 357.662 140.407C358.388 141.271 359.138 142.093 359.897 142.867H367.23C365.097 141.204 363.146 139.322 361.406 137.252Z" fill="#0077FF"/>
<path d="M391.245 137.252C386.338 131.433 383.171 124.502 382.236 117.724H377.295C377.732 121.355 378.67 124.909 380.083 128.282C381.926 132.677 384.427 136.765 387.499 140.407C388.227 141.271 388.973 142.091 389.736 142.867H397.077C394.942 141.205 392.987 139.323 391.245 137.252V137.252Z" fill="#0077FF"/>
<path d="M230.891 153.385C232.734 157.78 235.234 161.869 238.307 165.511C239.035 166.374 239.781 167.194 240.544 167.971H247.875C245.741 166.306 243.788 164.421 242.049 162.348C237.149 156.537 233.984 149.618 233.044 142.851H228.103C228.541 146.474 229.48 150.019 230.891 153.385V153.385Z" fill="#0077FF"/>
<path d="M271.895 162.377C266.988 156.558 263.821 149.628 262.886 142.851H257.941C258.378 146.482 259.316 150.035 260.729 153.408C262.572 157.803 265.073 161.892 268.146 165.534C268.874 166.397 269.619 167.217 270.383 167.994H277.714C275.582 166.331 273.632 164.448 271.895 162.377V162.377Z" fill="#0077FF"/>
<path d="M301.731 162.377C296.824 156.558 293.656 149.628 292.721 142.851H287.779C288.216 146.482 289.155 150.035 290.567 153.408C292.41 157.803 294.91 161.892 297.984 165.534C298.712 166.397 299.457 167.217 300.221 167.994H307.551C305.419 166.332 303.468 164.449 301.731 162.377V162.377Z" fill="#0077FF"/>
<path d="M331.57 162.377C326.662 156.558 323.495 149.628 322.56 142.851H317.619C318.055 146.482 318.993 150.035 320.407 153.408C322.248 157.803 324.749 161.892 327.823 165.534C328.551 166.397 329.296 167.217 330.058 167.994H337.391C335.259 166.332 333.308 164.449 331.57 162.377Z" fill="#0077FF"/>
<path d="M361.406 162.377C356.499 156.558 353.332 149.628 352.397 142.851H347.456C347.893 146.482 348.831 150.035 350.244 153.408C352.087 157.803 354.588 161.892 357.662 165.534C358.388 166.397 359.138 167.22 359.897 167.994H367.23C365.097 166.331 363.145 164.449 361.406 162.377V162.377Z" fill="#0077FF"/>
<path d="M391.245 162.377C386.338 156.558 383.171 149.628 382.236 142.851H377.295C377.732 146.482 378.67 150.035 380.083 153.408C381.926 157.803 384.427 161.892 387.499 165.534C388.227 166.397 388.973 167.217 389.736 167.994H397.077C394.941 166.332 392.986 164.449 391.245 162.377V162.377Z" fill="#0077FF"/>
</g>
<path d="M302.262 385.36C270.138 442.069 255.243 521.289 255.243 521.289L207.441 512.807C221.385 377.415 288.415 281.07 288.415 281.07L361.681 297.681C351.027 351.287 333.496 469.33 350.136 517.22H298.855C298.855 517.22 288.248 458.642 302.262 385.36Z" fill="#8024C0"/>
<path d="M141.076 302.105L140.681 300.132L150.366 293.85L185.183 302.904C175.641 313.153 166.519 317.495 159.075 318.807C149.526 320.491 142.978 311.614 141.076 302.105Z" fill="#FF8481"/>
<mask id="mask2_720_5727" style="mask-type:alpha" maskUnits="userSpaceOnUse" x="140" y="293" width="46" height="27">
<path d="M141.076 302.105L140.681 300.132L150.366 293.85L185.183 302.904C175.641 313.153 166.519 317.495 159.075 318.807C149.526 320.491 142.978 311.614 141.076 302.105Z" fill="#FF8481"/>
</mask>
<g mask="url(#mask2_720_5727)">
<path d="M165.355 310.352C158.977 312.793 153.687 317.722 151.839 319.882L145.299 320.442L140.253 310.912L144.614 302.13L165.355 310.352Z" fill="#E85353"/>
</g>
<path d="M21.8506 158.799C23.072 153.215 26.0384 142.571 28.1324 144.665C30.7498 147.282 29.1793 169.268 21.8506 158.799Z" fill="#FF8481"/>
<path d="M34.6973 142.574C31.6745 143.38 29.3037 148.063 27.6089 153.522C29.5762 156.918 32.5901 155.921 32.5901 155.921C38.1386 162.112 41.0847 148.594 39.6704 144.406C39.1469 142.856 37.7202 141.769 34.6973 142.574Z" fill="#FF8481"/>
<path d="M37.7948 157.699C39.4896 152.24 43.356 141.889 45.2631 144.154C47.6469 146.986 44.2008 168.757 37.7948 157.699Z" fill="#FF8481"/>
<path d="M99.0283 119.351C107.223 113.338 115.666 118.141 120.57 125.954C124.535 132.267 125.94 136.303 134.617 134.528C141.127 133.187 146.081 132.545 152.392 137.696C157.731 142.055 159.181 150.587 164.7 154.533C170.218 158.48 175.896 154.996 184.538 161.244C192.401 166.926 189.094 177.05 191.668 184.292C194.158 191.317 201.128 195.254 202.095 203.4C203.189 212.56 193.305 220.401 192.237 225.545C190.39 234.469 193.641 238.885 188.304 245.587C184.699 250.086 181.161 251.077 173.517 254.577C164.352 258.774 162.078 263.787 156.703 267.857C151.752 271.604 143.001 273.272 133.48 260.592C128.012 253.298 119.792 254.526 115 254.276C104.032 253.706 99.8692 246.087 98.3474 242.184C94.7593 233.007 88.776 227.763 84.2675 225.796C74.2313 221.448 72.3385 215.154 75.0624 204.974C77.2748 196.703 72.0229 191.532 66.7671 188.836C57.8311 184.258 51.3805 175.137 56.1986 164.249C61.2859 152.729 61.2063 134.05 70.1815 129.472C79.1566 124.895 90.8335 125.363 99.0283 119.351Z" fill="#8024C0"/>
<path d="M148.317 222.812C139.156 206.846 119.169 211.484 107.747 214.96L83.7031 219.357L115.076 286.939C150.254 290.499 172.31 272.369 178.941 262.859C169.954 251.255 157.478 238.778 148.317 222.812Z" fill="#FF3985"/>
<path d="M107.737 214.963C104.006 193.79 110.923 187.67 113.451 184.319C118.408 177.749 112.764 169.861 108.326 174.069C105.032 177.185 105.568 170.105 101.254 157.03C96.324 142.106 76.6915 146.655 72.6923 157.73C58.8546 196.122 68.7418 205.442 83.4662 204.222L83.9548 220.499L107.737 214.963Z" fill="#FF8481"/>
<path d="M69.6643 179.052C68.5914 187.857 79.6446 193.901 88.9333 183.158C94.9143 176.237 89.0929 176.037 79.4318 176.024C72.0053 176.019 70.1387 175.173 69.6643 179.052Z" fill="white"/>
<path d="M41.9239 383.867C39.6979 360.841 40.8502 337.969 42.5971 323.95H103.583L93.3889 428.381C92.3583 438.939 95.128 449.427 98.184 459.586C111.087 502.478 88.4018 557.423 88.4018 557.423H69.2947L65.9301 509.085C63.0079 467.103 45.9733 425.755 41.9239 383.867Z" fill="#FF8481"/>
<path d="M90.0768 393.183C80.1646 367.017 74.0319 339.011 71.9504 324.005L132.674 324.005L150.521 423.711C152.352 433.937 157.681 443.12 163.123 451.969C187.047 490.879 179.526 554.21 179.526 554.21L160.787 554.21L145.026 508.389C131.338 468.594 104.985 432.538 90.0768 393.183Z" fill="#FF8481"/>
<path d="M108.458 304.581H37.6766C34.5785 329.455 33.0852 378.236 44.6309 415.175C46.293 420.493 48.1269 425.799 49.9642 431.114L49.9643 431.114C55.3898 446.811 60.8442 462.591 61.9861 479.003L63.3266 498.27H107.079C107.188 482.802 105.031 467.002 98.8571 452.886C96.6326 447.8 95.3119 442.295 95.8509 436.77L97.4918 419.953C97.8558 420.547 98.2229 421.136 98.5931 421.72C101.574 426.425 104.719 431.075 107.869 435.733L107.87 435.736C117.173 449.493 126.526 463.324 131.877 478.881L138.158 497.144L180.419 485.82C176.522 470.851 170.349 456.148 160.732 444.111C157.267 439.774 154.566 434.799 153.657 429.322L131.902 298.299L108.458 304.581Z" fill="#17D685"/>
<path d="M97.7747 421.461C86.4824 403.638 78.0227 381.412 72.105 360.858" stroke="#0077FF" stroke-width="2"/>
<path d="M143.037 328.4C126.547 280.763 139.111 216.636 139.111 216.636H57.9711C40.1726 247.417 32.7566 308.507 31.2734 335.205C42.3713 353.213 122.098 344.628 143.037 328.4Z" fill="#FF3985"/>
<path d="M69.4536 209.964C57.937 197.4 33.9784 211.925 24.9919 222.394C12.9518 234.434 -0.396991 249.092 1.95871 275.004C16.3545 328.923 93.5682 250.662 69.4536 209.964Z" fill="#FF3985"/>
<path d="M60.0645 218.992L65.0375 206.69C76.8149 211.539 89.3405 214.321 102.063 214.913L139.11 216.636L75.7689 228.938L60.0645 218.992Z" fill="#FF3985"/>
<path d="M107.754 214.959C98.6071 220.974 79.7815 228.428 74.0518 210.197C79.1938 211.821 86.4514 214.655 107.754 214.959Z" fill="#FF8481"/>
<path d="M35.461 265.32C35.461 280.065 27.7267 292.018 18.1861 292.018C8.64538 292.018 0.911133 280.065 0.911133 265.32C0.911133 248.83 11.7863 233.649 21.327 233.649C30.8676 233.649 35.461 250.575 35.461 265.32Z" fill="#212121"/>
<path d="M10.4921 269.849C-7.94417 262.832 22.0899 211.487 39.4115 186.693L49.6433 189.434C44.2747 219.163 34.414 280.501 10.4921 269.849Z" fill="#FF8481"/>
<path d="M33.891 198.838L23.9448 177.898L54.3068 176.59L47.7633 194.65L33.891 198.838Z" fill="#FF8481"/>
<path d="M51.4278 184.704C42.4239 180.306 30.0522 179.73 24.9919 179.992L22.6362 175.543L55.8774 171.616L51.4278 184.704Z" fill="#E85353"/>
<ellipse cx="85.1918" cy="497.746" rx="21.9863" ry="5.75831" fill="#17D685"/>
<ellipse cx="159.305" cy="491.701" rx="21.8986" ry="5.75831" transform="rotate(-15 159.305 491.701)" fill="#17D685"/>
<path d="M67.8208 531.476C61.8621 529.127 54.3097 545.599 43.2948 554.528C30.3662 564.985 23.2555 566.34 14.9351 572.785C13.4409 573.944 12.4164 575.607 12.0516 577.466C11.6867 579.326 12.0063 581.254 12.951 582.895C14.9415 586.342 18.4616 589.879 24.5227 589.879H91.6236C98.0815 589.879 99.8096 538.627 93.8893 538.627C87.969 538.627 84.7497 559.131 78.2917 555.889C71.8338 552.647 78.4326 535.636 67.8208 531.476Z" fill="white"/>
<path d="M12.9508 582.947C12.4143 582.024 12.0749 581.002 11.9538 579.943C11.8327 578.883 11.9325 577.811 12.247 576.792C18.6004 576.792 26.7964 582.877 38.9529 583.603C72.1274 585.591 88.1613 579.379 96.1846 578.003C95.1801 584.877 93.6253 589.879 91.5971 589.879H24.5187C18.434 589.879 14.9407 586.375 12.9508 582.947Z" fill="#212121"/>
<path d="M144.246 589.879H194.424C200.882 589.879 188.955 556.34 188.955 556.34C188.955 556.34 181.233 535.636 170.621 531.476C170.201 531.31 169.772 531.238 169.335 531.251C168.898 531.238 168.469 531.31 168.049 531.476C157.437 535.636 149.715 556.34 149.715 556.34C149.715 556.34 137.788 589.879 144.246 589.879Z" fill="white"/>
<mask id="mask3_720_5727" style="mask-type:alpha" maskUnits="userSpaceOnUse" x="142" y="531" width="55" height="59">
<path d="M144.245 589.879H194.423C200.881 589.879 188.954 556.34 188.954 556.34C188.954 556.34 181.232 535.636 170.621 531.476C170.2 531.31 169.772 531.238 169.335 531.251C168.897 531.238 168.469 531.31 168.048 531.476C157.436 535.636 149.715 556.34 149.715 556.34C149.715 556.34 137.787 589.879 144.245 589.879Z" fill="white"/>
</mask>
<g mask="url(#mask3_720_5727)">
<path fill-rule="evenodd" clip-rule="evenodd" d="M159.714 579.36C161.979 578.512 164.042 577.74 165.944 577.268C166.867 577.011 167.832 576.853 168.826 576.807C169.01 576.797 169.193 576.792 169.374 576.792L169.374 576.792L169.449 576.792C169.526 576.792 169.601 576.793 169.677 576.794L169.678 576.792C172.479 576.792 175.638 577.975 179.337 579.36C184.028 581.116 189.587 583.197 196.384 583.603C223.226 585.212 238.847 581.452 248.082 579.229L248.082 579.229C250.261 578.704 252.084 578.265 253.615 578.003C252.611 584.878 251.056 589.879 249.028 589.879H182.498C182.498 589.879 182.498 589.879 182.498 589.879H156.401C156.401 589.879 156.401 589.879 156.401 589.879H90.024C87.9958 589.879 86.441 584.878 85.4365 578.003C86.968 578.265 88.7913 578.704 90.97 579.229C100.205 581.452 115.826 585.212 142.668 583.603C149.465 583.197 155.024 581.116 159.714 579.36Z" fill="#212121"/>
</g>
<path fill-rule="evenodd" clip-rule="evenodd" d="M78.9103 147.537L48.5483 145.443V179.469L78.9103 177.375V177.36C85.0278 177.005 89.9035 170.468 89.9035 162.456C89.9035 154.443 85.0278 147.906 78.9103 147.552V147.537Z" fill="#212121"/>
<path d="M17.1392 145.443L47.5012 147.537V177.375L17.1392 179.469V145.443Z" fill="#212121"/>
<mask id="mask4_720_5727" style="mask-type:alpha" maskUnits="userSpaceOnUse" x="17" y="145" width="42" height="35">
<path fill-rule="evenodd" clip-rule="evenodd" d="M47.5012 147.537L17.1392 145.443V179.469L47.5012 177.375V177.36C53.6188 177.006 58.4946 170.468 58.4946 162.456C58.4946 154.443 53.6188 147.906 47.5012 147.552V147.537Z" fill="#212121"/>
</mask>
<g mask="url(#mask4_720_5727)">
<path d="M28.1318 179.469C34.4923 179.469 39.6485 171.852 39.6485 162.456C39.6485 153.06 34.4923 145.443 28.1318 145.443" stroke="#0077FF" stroke-width="2"/>
</g>
<ellipse cx="46.978" cy="162.456" rx="11.5166" ry="14.9193" fill="#464646"/>
<ellipse cx="48.5485" cy="162.456" rx="13.0871" ry="17.0132" fill="#212121"/>
<path d="M74.1987 154.342L88.8562 155.34V169.571L74.1987 170.57V154.342Z" fill="#212121"/>
<ellipse cx="88.5947" cy="162.456" rx="5.49657" ry="7.06702" fill="#212121"/>
<ellipse cx="48.5478" cy="162.456" rx="10.9931" ry="14.9193" fill="white"/>
<mask id="mask5_720_5727" style="mask-type:alpha" maskUnits="userSpaceOnUse" x="37" y="147" width="23" height="31">
<ellipse cx="48.5478" cy="162.456" rx="10.9931" ry="14.9193" fill="white"/>
</mask>
<g mask="url(#mask5_720_5727)">
<ellipse cx="54.3061" cy="162.456" rx="10.9931" ry="14.9193" fill="#00EAFF"/>
<path d="M68.7021 150.939C56.1385 150.939 41.2193 150.939 43.575 166.12L40.6958 161.147L44.0984 143.872H68.7021V150.939Z" fill="white"/>
</g>
<ellipse cx="17.1393" cy="162.456" rx="13.0871" ry="17.0132" fill="#212121"/>
<ellipse cx="17.1391" cy="162.456" rx="10.9931" ry="14.9193" fill="white"/>
<mask id="mask6_720_5727" style="mask-type:alpha" maskUnits="userSpaceOnUse" x="6" y="147" width="23" height="31">
<ellipse cx="17.1391" cy="162.456" rx="10.9931" ry="14.9193" fill="white"/>
</mask>
<g mask="url(#mask6_720_5727)">
<mask id="mask7_720_5727" style="mask-type:alpha" maskUnits="userSpaceOnUse" x="8" y="147" width="23" height="31">
<ellipse cx="19.2329" cy="162.456" rx="10.9931" ry="14.9193" fill="white"/>
</mask>
<g mask="url(#mask7_720_5727)">
<ellipse cx="24.9912" cy="162.456" rx="10.9931" ry="14.9193" fill="#00EAFF"/>
<path d="M39.3867 150.939C26.8231 150.939 11.9039 150.939 14.2595 166.12L11.3804 161.147L14.783 143.872H39.3867V150.939Z" fill="white"/>
</g>
</g>
<path d="M98.2088 199.982C92.6376 203.166 86.0329 204.132 83.4629 204.215L83.6723 211.421C92.626 209.63 97.0481 203.05 98.2088 199.982Z" fill="#E85353"/>
<path d="M56.6619 223.441C54.8297 254.327 52.6835 282.595 30.4878 292.018" stroke="#212121" stroke-width="2"/>
<mask id="mask8_720_5727" style="mask-type:alpha" maskUnits="userSpaceOnUse" x="48" y="145" width="42" height="35">
<path fill-rule="evenodd" clip-rule="evenodd" d="M78.9099 147.537L48.5479 145.443V179.469L78.9099 177.375V177.36C85.0273 177.005 89.903 170.468 89.903 162.456C89.903 154.443 85.0273 147.906 78.9099 147.552V147.537Z" fill="#212121"/>
</mask>
<g mask="url(#mask8_720_5727)">
<path d="M59.541 179.469C65.9015 179.469 71.0576 171.852 71.0576 162.456C71.0576 153.06 65.9015 145.443 59.541 145.443" stroke="#0077FF" stroke-width="2"/>
</g>
<path d="M26.0386 207.475C31.9016 197.424 31.0989 192.12 29.9647 190.724L35.1995 196.744L26.0386 207.475Z" fill="#FF8481"/>
<path d="M288.431 281.073C289.97 279.194 315.179 281.039 334.979 285.489C355.22 290.037 362.143 295.586 361.675 297.68L361.682 297.682C351.028 351.287 333.496 469.33 350.136 517.22C349.984 520.249 338.432 522.694 324.434 522.694C310.436 522.694 299.008 520.249 298.856 517.22C298.856 517.22 288.249 458.642 302.263 385.36C289.026 408.728 278.714 435.917 271.165 459.812C263.37 486.794 257.223 513.594 257.017 517.831C256.735 523.646 250.147 524.368 246.871 524.002C242.451 524.156 236.653 523.708 230.388 522.612C217.184 520.302 206.929 515.805 207.456 512.793C221.4 377.401 288.416 281.07 288.416 281.07L288.431 281.073Z" fill="#8024C0"/>
<path d="M133.5 271.628C136.457 262.98 137.935 258.656 140.769 255.569C142.647 253.522 144.931 251.89 147.474 250.775C151.313 249.092 155.882 249.092 165.021 249.092V249.092C173.409 249.092 177.603 249.092 180.242 251.026C181.965 252.289 183.239 254.07 183.876 256.108C184.852 259.231 183.495 263.2 180.782 271.136L175.084 287.804C172.127 296.451 170.649 300.775 167.815 303.863C165.937 305.909 163.653 307.542 161.11 308.657C157.271 310.34 152.702 310.34 143.563 310.34V310.34C135.175 310.34 130.981 310.34 128.342 308.406C126.619 307.143 125.345 305.362 124.708 303.323C123.732 300.2 125.089 296.232 127.802 288.295L133.5 271.628Z" fill="white"/>
<path d="M134.547 272.675C137.504 264.027 138.982 259.703 141.816 256.616C143.694 254.569 145.977 252.937 148.521 251.822C152.36 250.139 156.929 250.139 166.068 250.139V250.139C174.456 250.139 178.65 250.139 181.289 252.073C183.012 253.336 184.285 255.117 184.923 257.156C185.899 260.278 184.542 264.247 181.829 272.183L176.131 288.851C173.174 297.499 171.696 301.822 168.862 304.91C166.984 306.956 164.7 308.589 162.157 309.704C158.318 311.387 153.749 311.387 144.61 311.387V311.387C136.222 311.387 132.028 311.387 129.389 309.453C127.666 308.19 126.392 306.409 125.755 304.37C124.779 301.248 126.136 297.279 128.849 289.342L134.547 272.675Z" fill="#212121"/>
<path fill-rule="evenodd" clip-rule="evenodd" d="M173.451 285.585C176.396 287.092 180.659 289.916 184.648 293.531C187.565 296.174 187.866 300.417 184.991 303.113C182.391 305.552 179.1 308.122 176.26 310.134C173.978 311.751 171.12 312.034 168.828 310.863H165.023C166.191 309.89 165.285 307.712 164.457 306.048C162.4 302.761 161.61 299.662 164.062 299.032C161.792 296.418 159.747 292.68 161.304 291.596C162.5 290.762 165.355 292.095 167.213 293.298L167.298 293.219C164.743 290.923 162.174 288.257 163.812 286.592C165.118 285.265 169.001 287.31 171.435 289.156C171.504 289.208 171.599 289.203 171.662 289.144C171.725 289.085 171.736 288.99 171.69 288.917C171.383 288.44 171.108 287.924 170.872 287.346C170.2 285.696 171.863 284.772 173.451 285.585Z" fill="#FF8481"/>
<path fill-rule="evenodd" clip-rule="evenodd" d="M359.321 549.016C361.12 550.999 363.024 552.891 365.045 554.528C372.441 560.511 377.933 563.514 382.837 566.196C386.505 568.201 389.844 570.027 393.405 572.785C394.899 573.945 395.923 575.608 396.288 577.467C396.653 579.326 396.334 581.255 395.389 582.896C395.38 582.912 395.37 582.928 395.361 582.944C391.295 583.853 385.904 584.37 378.949 584.37C377.92 584.37 343.667 554.469 359.321 549.016Z" fill="white"/>
<path d="M395.389 582.947C395.925 582.024 396.264 581.002 396.386 579.943C396.507 578.883 396.407 577.811 396.092 576.792C389.739 576.792 381.543 582.877 369.386 583.603C336.212 585.591 320.178 579.379 312.155 578.003C313.159 584.877 314.714 589.879 316.742 589.879H383.821C389.905 589.879 393.399 586.375 395.389 582.947Z" fill="#212121"/>
<mask id="mask9_720_5727" style="mask-type:alpha" maskUnits="userSpaceOnUse" x="207" y="280" width="155" height="245">
<path d="M288.431 281.073C289.97 279.194 315.179 281.039 334.979 285.489C355.22 290.037 362.143 295.586 361.675 297.68L361.682 297.682C351.028 351.287 333.496 469.33 350.136 517.22C349.984 520.249 338.432 522.694 324.434 522.694C310.436 522.694 299.008 520.249 298.856 517.22C298.856 517.22 288.249 458.642 302.263 385.36C289.026 408.728 278.714 435.917 271.165 459.812C263.37 486.794 257.223 513.594 257.017 517.831C256.735 523.646 250.147 524.368 246.871 524.002C242.451 524.156 236.653 523.708 230.388 522.612C217.184 520.302 206.929 515.805 207.456 512.793C221.4 377.401 288.416 281.07 288.416 281.07L288.431 281.073Z" fill="#8024C0"/>
</mask>
<g mask="url(#mask9_720_5727)">
<path d="M218.306 519.964C226.264 464.76 256.384 338.756 313.196 276.375" stroke="#212121" stroke-width="2"/>
<path d="M326.66 337.975C326.66 337.975 293.007 400.375 277.262 446.142" stroke="#212121" stroke-width="2"/>
</g>
<circle cx="234.646" cy="160.37" r="9.16095" fill="#00EAFF"/>
<path d="M166.029 94.7542C167.598 93.1542 173.199 90.9401 173.137 93.8697C173.137 94.7655 171.562 95.1598 170.325 95.4134C169.088 95.6669 168.16 96.0613 166.856 96.1007C165.911 96.1232 165.529 95.2838 166.029 94.7542Z" fill="#FFFF4D"/>
<path d="M186.003 94.7542C184.435 93.1542 178.834 90.9401 178.896 93.8697C178.896 94.7655 180.47 95.1598 181.707 95.4134C182.944 95.6669 183.872 96.0613 185.177 96.1007C186.122 96.1232 186.504 95.2838 186.003 94.7542Z" fill="#FFFF4D"/>
<path d="M30.4482 196.883C29.0933 197.573 27.7234 198.359 26.3613 199.236C21.6981 202.237 17.9673 205.762 15.7124 209.056C14.5856 210.701 13.8123 212.311 13.4891 213.785C13.1653 215.262 13.2867 216.644 14.0102 217.768C14.7336 218.892 15.9409 219.575 17.4195 219.892C18.8954 220.209 20.6807 220.171 22.6453 219.827C26.5766 219.139 31.3307 217.203 35.9939 214.202C40.6571 211.201 44.3879 207.675 46.6428 204.382C47.7696 202.737 48.5429 201.127 48.8661 199.653C49.168 198.275 49.0829 196.981 48.4839 195.902C48.2989 196.931 48.1092 197.984 47.9143 199.058C47.8946 199.179 47.871 199.303 47.8434 199.428C47.5584 200.729 46.8589 202.213 45.7789 203.791C43.6204 206.943 40.0023 210.377 35.4273 213.322C30.8523 216.266 26.2281 218.137 22.4647 218.796C20.5818 219.126 18.9407 219.147 17.6391 218.868C16.3402 218.59 15.4188 218.022 14.8905 217.201C14.3623 216.381 14.2273 215.307 14.5117 214.009C14.7968 212.709 15.4963 211.224 16.5763 209.647C18.7348 206.495 22.3529 203.06 26.9279 200.116C27.9959 199.429 29.0667 198.8 30.1285 198.231C30.256 197.759 30.3619 197.31 30.4482 196.883Z" fill="white"/>
<path d="M221.617 252.443C241.265 252.443 257.193 236.515 257.193 216.868C257.193 197.22 241.265 181.292 221.617 181.292C201.97 181.292 186.042 197.22 186.042 216.868C186.042 236.515 201.97 252.443 221.617 252.443Z" fill="#2929B2"/>
<path d="M222.449 179.824L230.305 185.342" stroke="white" stroke-width="2" stroke-linecap="round"/>
<ellipse cx="222.689" cy="206.92" rx="8.77631" ry="9.60951" fill="#FF3985"/>
<path fill-rule="evenodd" clip-rule="evenodd" d="M247.806 240.948C241.304 248.015 231.978 252.443 221.619 252.443C211.017 252.443 201.498 247.806 194.98 240.448C198.937 234.918 205.051 232.665 207.361 231.813C207.943 231.599 208.283 231.474 208.287 231.407C208.306 231.06 231.096 231.243 231.732 231.455C231.893 231.511 232.145 231.584 232.474 231.678C235.117 232.44 242.723 234.63 247.806 240.948Z" fill="white"/>
<path d="M228.327 218.96C228.327 220.251 226.814 228.523 231.219 231.569C226.756 236.197 214.252 236.833 208.487 231.232C213.24 229.872 212.71 220.415 212.71 218.796C212.71 216.019 228.337 217.677 228.327 218.96Z" fill="#FFA9A9"/>
<path d="M218.861 221.033C216.663 221.997 218.224 232.004 231.114 231.483C226.901 228.398 228.289 220.435 228.328 219.018L218.861 221.033Z" fill="#FF8481"/>
<path d="M216.047 224.178C217.238 224.573 218.481 224.786 219.736 224.81C227.726 225.058 231.473 220.747 231.216 212.716C231.201 212.436 231.254 212.157 231.37 211.902C231.486 211.648 231.663 211.425 231.884 211.253C232.841 210.554 233.627 208.996 232.972 207.678C231.861 205.461 229.947 207.353 229.708 206.323C226.196 191.484 213.194 193.796 210.558 206.482C210.382 207.348 208.052 205.403 206.811 207.601C206.165 208.743 206.495 210.761 207.885 211.177C208.251 211.283 208.575 211.503 208.808 211.805C209.042 212.107 209.174 212.475 209.185 212.856C209.28 216.079 210.382 219.709 212.147 221.804C212.887 222.702 214.946 223.803 216.047 224.178Z" fill="#FFA9A9"/>
<path fill-rule="evenodd" clip-rule="evenodd" d="M225.271 213.21C225.385 213.423 225.304 213.688 225.091 213.801C223.673 214.557 222.099 214.974 220.493 215.019C218.887 215.065 217.292 214.737 215.833 214.063C215.614 213.962 215.519 213.702 215.62 213.483C215.721 213.264 215.981 213.169 216.2 213.27C217.536 213.887 218.997 214.187 220.468 214.146C221.94 214.104 223.381 213.722 224.68 213.03C224.893 212.917 225.158 212.997 225.271 213.21Z" fill="#E85353"/>
<path d="M216.268 205.252C217.232 205.184 218.273 207.421 216.431 207.594C214.59 207.768 215.014 205.329 216.268 205.252Z" fill="#212121"/>
<path d="M224.144 204.916C225.108 204.849 226.159 207.095 224.317 207.259C222.476 207.423 222.891 205.003 224.144 204.916Z" fill="#212121"/>
<path d="M220.114 206.111C219.353 206.111 218.427 209.398 218.948 210.208C219.719 211.394 221.984 210.748 221.927 210.352C221.927 210.14 220.104 209.996 219.931 209.109C219.709 207.962 220.538 206.111 220.114 206.111Z" fill="#FF8481"/>
<path d="M221.521 201.598C221.039 202.832 225.464 204.191 226.024 203.43C226.583 202.668 222.563 198.889 221.521 201.598Z" fill="#FF3985"/>
<path d="M221.482 201.777C215.785 207.627 210.622 207.506 208.465 206.481C204.572 204.63 201.848 192.673 217.947 190.955C230.826 189.58 232.518 200.945 231.436 206.481H229.718C229.466 204.754 228.904 203.201 228.232 201.878C226.896 199.249 223.54 199.665 221.482 201.777Z" fill="#FF3985"/>
<circle cx="231.708" cy="185.305" r="9.49095" fill="#FF3985"/>
<path d="M233.112 186.879L240.968 192.397" stroke="white" stroke-width="2" stroke-linecap="round"/>
<mask id="mask10_720_5727" style="mask-type:alpha" maskUnits="userSpaceOnUse" x="213" y="0" width="53" height="68">
<path d="M232.72 1.84915C235.487 4.07384 238.019 8.45359 240.751 20.6767C242.796 27.7217 245.87 31.0166 249.466 30.0172C251.034 29.5811 252.803 28.4135 254.63 27.2071C258.037 24.9569 261.649 22.5719 264.551 24.5486C267.074 26.267 263.564 28.0635 263.564 28.0635C263.564 28.0635 258.28 31.281 255.576 39.313C254.492 42.5341 252.428 45.2911 249.827 47.3102L253.264 59.8492L235.87 67.103L233.85 55.7045C233.626 54.4441 233.163 53.2383 232.485 52.1526L224.015 38.5913C224.015 38.5913 218.213 30.4913 214.38 27.2454C211.683 24.9623 214.373 23.7215 217.147 24.7131C219.202 25.4478 221.472 27.0942 224.742 31.5191C222.935 25.4225 219.975 16.9238 216.815 12.0943C215.072 9.43139 216.588 8.46447 218.663 9.00993C217.907 8.03143 217.153 7.14044 216.417 6.37322C213.451 3.28584 216.847 2.12534 220.067 3.66586C223.258 5.19256 226.708 8.73333 232.13 19.9065C233.018 21.2054 234.137 22.289 235.273 22.1552C233.718 16.1138 231.292 8.28751 228.547 3.64936C226.367 -0.0347434 229.938 -0.38734 232.72 1.84915Z" fill="#FFA9A9"/>
</mask>
<g mask="url(#mask10_720_5727)">
<path d="M216.815 7.64453C216.815 7.64453 224.672 8.99308 229.262 25.8629" stroke="#FF8481" stroke-width="2" stroke-linecap="round" stroke-linejoin="round"/>
</g>
</svg>
