<svg width="1440" height="680" viewBox="0 0 1440 680" fill="none" xmlns="http://www.w3.org/2000/svg">
<mask id="mask0_720_5449" style="mask-type:alpha" maskUnits="userSpaceOnUse" x="-1" y="-1" width="1441" height="681">
<path d="M-0.0703125 -0.443359H1439.93V679.899H-0.0703125V-0.443359Z" fill="#0077FF"/>
</mask>
<g mask="url(#mask0_720_5449)">
<path d="M601.869 1780.43L840.25 1642.8C1079.42 1504.71 1318.59 1366.63 1557.77 1228.54C1711.99 1139.5 1866.22 1050.45 2020.45 961.409L2072.87 1052.2C2070.03 1053.85 2067.18 1055.49 2064.32 1057.14L1370.86 1457.51C1287.52 1505.63 1204.17 1553.75 1120.83 1601.87C967.324 1690.49 813.815 1779.12 660.299 1867.75C658.267 1868.93 656.337 1870.32 654.196 1871.7L601.869 1780.43ZM456.695 1529.62C530.685 1479.95 604.998 1432.91 680.276 1386.86L686.76 1397.05C725.416 1371.88 763.73 1346.91 802.251 1322.25C840.772 1297.59 879.564 1273.4 918.362 1248.92L925.452 1260.01C1001.84 1208.13 1079.57 1159.15 1158.37 1110.8L1164.16 1120.83C1241.86 1071.12 1319.13 1021.69 1396.72 972.08L1404.25 983.547C1480.18 931.901 1557.45 883.359 1635.57 835.263L1642.49 845.915C1655.28 837.447 1667.52 829.21 1679.89 821.133C1704.48 805.052 1729.07 788.949 1753.76 773.039C1774.31 759.804 1794.97 746.704 1815.71 733.737C1833.66 722.547 1851.82 711.665 1869.88 700.666L1921.71 790.434C1920.58 791.288 1919.51 792.248 1918.29 793.007C1897.01 806.29 1875.65 819.422 1854.46 832.854C1825.64 851.113 1796.87 869.438 1768.25 888.039C1745.68 902.693 1723.42 917.827 1701.04 932.746C1698.57 934.399 1696.16 936.159 1693.13 938.276L1686.03 925.965C1608.54 975.659 1531.69 1024.96 1454.47 1074.47L1447.38 1063.72C1369.65 1113.58 1292.44 1163.12 1215.07 1212.75L1208.09 1201.9C1130.43 1251.7 1053.23 1301.23 975.713 1350.97L968.725 1340.1C891.54 1389.62 814.728 1438.9 737.381 1488.48L730.803 1478.38C656.091 1525.02 581.767 1570.95 509.52 1620.53L456.695 1529.62ZM308.37 1272.71L311.627 1278.36C381.919 1223.27 455.005 1173.66 529.678 1124.88L542.388 1146.89C614.912 1089.35 690.677 1037.91 767.921 987.358L780.693 1009.48C853.369 951.704 929.54 900.032 1007.25 849.152L1020 871.231C1092.83 813.424 1168.95 761.722 1246.8 710.823L1259.52 732.859C1332.04 675.313 1407.83 623.864 1485.05 573.323L1497.75 595.316C1509.96 585.932 1521.51 576.753 1533.33 568.022C1557.34 550.339 1581.26 532.74 1605.51 515.464C1624.73 501.741 1644.23 488.434 1663.81 475.221C1682.02 462.908 1700.49 450.989 1718.85 438.912L1771.28 529.728C1695.14 579.385 1620.14 630.61 1549.1 688.696L1535.58 665.292C1458.42 716.139 1382.42 767.369 1310.84 826.141L1297.34 802.759C1219.8 853.883 1143.42 905.301 1071.57 964.454L1057.99 940.943C980.366 992.117 903.91 1043.64 832.14 1102.69L818.566 1079.18C741.262 1130.22 665.239 1181.41 593.642 1240.21L580.365 1217.22C579.409 1217.64 578.477 1218.12 577.575 1218.66C538.977 1244.82 499.995 1270.46 461.928 1297.34C430.603 1319.5 400.437 1343.27 369.548 1366.03C364.915 1369.42 365.547 1371.85 367.987 1376.02L308.37 1272.71ZM162.675 1020.41L166.168 1026.46C232.92 966.38 304.48 913.836 378.211 863.174L397.129 895.939C465.879 832.65 540.092 778.375 616.613 725.532L635.617 758.448C704.465 694.931 779.218 640.259 855.999 587.323L874.953 620.153C943.689 556.787 1018.37 502.185 1095.3 449.108L1113.41 480.484C1149.58 451.054 1184.8 421.37 1221.1 392.916C1257.41 364.461 1294.84 337.863 1333.72 311.708L1352.54 344.303C1354.46 342.683 1355.82 341.529 1357.21 340.383C1387.37 315.075 1417.13 289.315 1447.81 264.65C1470.99 246.023 1495.23 228.724 1519.18 211.045C1535.08 199.414 1551.47 188.473 1567.71 177.33L1620.14 268.146C1545.13 320.599 1471.1 374.287 1405.19 439.783L1384.36 403.705C1308.08 457.373 1233.16 511.149 1166.85 577.1L1146.12 541.192C1069.48 595.016 994.143 649.115 927.582 715.358L906.814 679.386C830.057 733.305 754.785 787.422 688.099 853.794L667.269 817.716C591.124 871.31 516.196 925.086 449.882 991.015L429.681 956.027C425.496 958.156 421.426 960.505 417.49 963.066C385.179 986.679 352.761 1010.15 320.752 1034.19C287.026 1059.33 254.843 1086.48 224.378 1115.48C221.02 1118.7 220.699 1121.11 223.117 1125.3L162.675 1020.41ZM17.2677 768.462C18.2549 770.172 19.4008 771.762 20.6801 773.731C83.5037 708.819 153.743 653.789 226.902 600.95L251.841 644.145C316.273 575.598 389.331 518.485 465.338 463.317L490.388 506.705C555.065 437.646 628.478 380.356 704.659 325.145L729.746 368.597C761.657 334.338 795.897 302.324 832.222 272.784C868.201 242.978 905.175 214.45 944.025 187.147L968.865 230.171C1033.32 161.612 1106.38 104.499 1182.38 49.3311L1207.4 92.655C1208.5 91.6486 1208.97 91.2881 1209.38 90.8543C1240.86 57.0859 1274.68 25.5781 1310.6 -3.43398C1335.18 -23.5842 1360.36 -42.9963 1385.51 -62.4726C1395.54 -70.2329 1406.18 -77.2551 1416.55 -84.5824L1468.98 6.23302C1394.42 61.1366 1321.48 117.866 1261.56 190.62L1233.18 141.461C1157.67 197.992 1083.44 254.447 1023.22 327.916L994.945 278.949C919.005 335.616 844.381 392.437 783.769 466.416L755.388 417.257C679.55 473.952 604.888 530.708 544.458 604.754L516.076 555.595C440.561 611.96 366.313 668.593 305.924 742.215L277.838 693.57C276.424 694.529 275.547 695.035 274.744 695.669C242.619 720.543 210.051 744.846 178.533 770.424C142.914 798.859 109.896 830.406 79.8697 864.691C76.8365 868.181 76.0138 870.707 78.6513 875.226L17.2677 768.462ZM-128.978 515.255L-125.61 521.09C-66.2857 451.303 2.48397 393.331 75.418 338.769L106.181 392.053C166.325 318.401 237.996 258.242 313.768 201.186L344.679 254.726C405.195 180.432 477.168 120.156 553.001 63.0083L583.851 116.442C644.397 42.3006 716.369 -18.1751 792.558 -75.3L823.321 -22.0163C883.478 -95.6472 955.127 -155.794 1030.71 -212.683L1061.56 -159.249C1063.15 -160.938 1064.25 -162.089 1065.31 -163.269C1086.35 -186.103 1106.47 -209.6 1128.32 -231.476C1161.8 -265.058 1198.29 -295.359 1235.53 -324.721C1245.16 -332.281 1255.45 -339.072 1265.38 -346.262L1317.81 -255.447C1315.59 -253.964 1313.25 -252.639 1311.17 -251.009C1273.85 -222.455 1238.09 -191.924 1204.04 -159.549C1172.72 -129.217 1142.78 -97.7072 1120.54 -59.8162C1119.82 -58.9719 1119 -58.2137 1118.1 -57.5571L1081.89 -120.288C1043.84 -91.7825 1007.38 -61.2194 972.672 -28.7358C938.017 3.95434 905.193 38.237 880.022 80.4407L843.36 16.9405C768.053 76.777 693.282 135.962 640.342 218.536L604.26 156.04C603.619 156.221 603.003 156.481 602.425 156.814C569.307 184.313 535.444 211.017 503.314 239.684C465.073 273.674 429.506 310.367 403.181 354.919C402.615 355.541 401.976 356.092 401.277 356.56L364.813 293.401C289.78 353.022 215.44 412.015 162.645 494.049L126.711 431.81C125.924 432.073 125.162 432.407 124.436 432.81C86.5882 461.33 50.262 491.816 15.6073 524.14C-13.9135 552.041 -42.0531 581.397 -65.1761 615.094C-66.4049 616.543 -67.1064 618.365 -67.1658 620.262C-67.2253 622.16 -66.6394 624.021 -65.5038 625.542L-128.978 515.255ZM-275.385 261.77C-274.324 263.608 -273.113 265.36 -271.636 267.671C-244.415 230.78 -213.881 196.448 -180.416 165.105C-147.409 133.431 -112.455 103.846 -75.76 76.5258L-39.5793 139.193C16.4704 60.5234 86.5482 -2.59152 162.565 -61.2985L199.016 1.83795C255.12 -77.2327 325.488 -140.487 401.574 -199.319L438.026 -136.183C494.267 -215.361 564.751 -278.711 640.966 -337.618L677.344 -274.609C733.39 -353.333 803.477 -416.482 879.43 -475.152L915.832 -412.101C917.082 -413.592 917.759 -414.296 918.365 -415.074C928.979 -428.896 939.236 -443.139 950.286 -456.501C987.087 -500.888 1029.03 -540.067 1073.11 -577.03C1086.29 -588.088 1100.14 -598.334 1113.67 -608.993L1166.09 -518.198C1164.42 -516.693 1162.81 -515.082 1161.04 -513.692C1120.77 -482.242 1083.11 -447.576 1048.44 -410.036C1019.98 -378.814 993.611 -346.093 977.211 -306.531C976.701 -305.841 976.093 -305.231 975.405 -304.719L930.982 -381.663C930.006 -381.358 929.066 -380.95 928.178 -380.443C926.016 -378.853 923.946 -377.202 921.855 -375.539C879.3 -342.33 839.691 -305.512 803.468 -265.495C780.044 -239.233 758.415 -211.642 743.089 -179.654C741.307 -175.775 739.611 -171.946 737.204 -166.68L692.435 -244.223C690.506 -243.27 688.641 -242.194 686.852 -241C647.246 -209.327 609.11 -175.996 574.629 -138.705C544.43 -106.051 516.307 -71.7758 498.886 -30.2276C498.768 -29.9882 498.223 -29.8444 497.128 -29.4687L452.704 -106.413C449.3 -103.764 446.549 -101.663 443.844 -99.5309C402.764 -67.4323 364.41 -31.9911 329.174 6.42899C301.551 37.025 276.041 69.1077 260.056 107.661C259.513 108.307 258.875 108.868 258.164 109.324L213.445 31.8666C210.114 34.4451 207.359 36.4908 204.654 38.6225C164.235 70.2164 126.445 105.035 91.6547 142.734C63.5094 173.66 37.5727 206.189 21.1058 245.192C20.9907 245.486 20.4641 245.562 19.523 246.106L-24.5428 169.781C-26.5486 170.764 -28.4852 171.882 -30.3391 173.128C-70.26 205.096 -108.655 238.72 -143.37 276.346C-168.81 303.857 -192.4 332.695 -209.987 366.103C-210.934 367.618 -211.411 369.379 -211.36 371.165C-211.308 372.95 -210.73 374.68 -209.697 376.138L-275.385 261.77ZM-422.042 8.34497C-421.08 10.0121 -419.925 11.5677 -418.575 13.6095C-367.236 -65.0189 -300.981 -128.235 -227.693 -186.136L-185.91 -113.766C-160.574 -155.78 -130.297 -192.696 -97.0203 -227.183C-63.4926 -261.87 -27.4653 -294.053 10.7712 -323.471L52.517 -251.166C104.306 -335.041 173.486 -401.143 249.807 -461.793L291.763 -389.123C317.233 -431.5 347.714 -468.704 381.249 -503.483C414.854 -538.301 451.014 -570.561 489.426 -599.994L531.024 -527.944C582.698 -611.326 651.543 -677.121 727.705 -737.65L769.439 -665.365C777.585 -677.535 784.909 -689.201 792.94 -700.335C840.319 -766.162 898.454 -821.413 961.74 -871.545L1014.8 -779.639C1008.28 -774.336 1001.64 -769.191 995.253 -763.707C953.318 -727.67 914.157 -688.902 881.373 -644.127C861.467 -616.96 844.142 -588.434 835.601 -555.461C835.203 -553.977 834.691 -552.542 833.724 -549.476L778.824 -644.566C776.547 -642.681 774.978 -641.348 773.406 -640.07C730.252 -604.81 689.986 -566.573 655.189 -522.915C629.325 -490.457 606.493 -456.157 595.859 -415.251C595.778 -414.947 595.218 -414.88 594.332 -414.141L540.58 -507.244C535.983 -503.45 532.027 -500.225 528.117 -496.97C484.947 -461.046 444.73 -422.181 410.337 -377.674C386.898 -347.242 366.613 -315.098 356.739 -277.223C356.621 -276.785 356.035 -276.418 355.172 -275.492L301.148 -369.065C294.939 -363.913 289.206 -359.32 283.63 -354.505C241.886 -319.176 202.869 -281.146 169.722 -237.444C146.839 -207.333 126.816 -175.625 117.663 -138.28C117.545 -137.842 116.9 -137.527 116.043 -136.69L62.1299 -230.07C61.3344 -229.867 61.089 -229.897 60.9303 -229.777C55.3807 -225.262 49.7392 -220.807 44.285 -216.176C2.59289 -180.706 -36.4609 -142.741 -69.6442 -99.1032C-92.0919 -69.4718 -111.78 -38.2706 -121.099 -1.65668C-121.216 -1.21829 -121.861 -0.902957 -122.941 0.0911653L-176.743 -93.097C-181.182 -89.4231 -184.933 -86.2883 -188.718 -83.1626C-230.343 -48.6144 -269.05 -11.1348 -302.812 31.1558C-323.05 56.6617 -340.88 83.7695 -353.221 114.063C-354.423 116.492 -354.968 119.193 -354.802 121.897C-354.637 124.602 -353.767 127.215 -352.278 129.478L-422.042 8.34497ZM-565.769 -240.646C-542.561 -281.44 -514.617 -319.355 -482.516 -353.602C-450.81 -387.994 -416.376 -419.769 -379.549 -448.614L-332.843 -367.717C-285.53 -455.591 -217.86 -524.211 -141.346 -586.255L-94.319 -504.801C-46.8859 -593.258 21.1123 -662.296 98.1859 -724.606L145.078 -643.387C192.466 -731.675 260.538 -800.586 337.743 -862.914L384.474 -781.974C431.772 -869.725 499.53 -938.34 576.066 -1000.4L622.957 -919.177C623.551 -919.842 624.096 -920.548 624.59 -921.289C652.311 -974.141 688.803 -1020.54 731.027 -1062.31C756.455 -1087.42 783.693 -1110.38 810.143 -1134.32L863.204 -1042.41C853.295 -1033.84 843.321 -1025.23 833.66 -1016.38C793.262 -979.06 756.375 -938.726 727.792 -891.417C712.831 -866.65 700.699 -840.638 695.323 -811.915C694.38 -806.782 693.706 -801.577 692.938 -796.288L691.678 -795.903L627.51 -907.044C617.47 -898.255 608.063 -890.344 599.129 -882.109C557.367 -844.091 519.368 -802.916 489.724 -754.482C474.947 -730.334 463.037 -704.877 457.146 -676.996C455.951 -671.262 455.233 -665.49 453.856 -657.998L389.355 -769.716C380.666 -762.192 372.522 -755.353 364.646 -748.298C324.93 -712.715 288.489 -674.177 258.96 -629.543C237.093 -596.485 219.777 -561.523 215.223 -521.448C215.321 -521.277 214.624 -521.102 213.683 -520.559L149.959 -630.931C148.234 -629.622 147.055 -628.799 146.002 -627.906C142.388 -624.879 138.762 -621.873 135.173 -618.804C92.9502 -582.03 54.0059 -542.047 22.574 -495.573C2.2808 -465.618 -14.5597 -433.981 -21.5012 -397.942C-22.4876 -392.784 -23.1398 -387.591 -24.2496 -380.424L-89.4291 -493.319C-100.769 -483.323 -111.617 -474.154 -121.997 -464.57C-162.127 -427.579 -198.777 -387.525 -227.288 -340.685C-244.738 -312.03 -258.458 -281.853 -262.201 -248.03C-262.287 -247.24 -262.939 -246.492 -263.775 -244.927L-327.622 -355.513C-331.346 -352.479 -334.695 -349.833 -337.915 -347.063C-379.874 -311.068 -418.36 -272.119 -450.312 -226.941C-471.083 -197.565 -488.578 -166.518 -497.336 -131.254C-498.11 -128.1 -497.792 -128.341 -496.05 -121.025L-565.769 -240.646Z" fill="#0066DE"/>
<rect x="2.11475" y="806.439" width="806.387" height="1438.45" transform="rotate(-90 2.11475 806.439)" fill="url(#paint0_linear_720_5449)"/>
</g>
<defs>
<linearGradient id="paint0_linear_720_5449" x1="405.308" y1="806.439" x2="405.308" y2="2244.89" gradientUnits="userSpaceOnUse">
<stop stop-color="#0077FF"/>
<stop offset="0.897522" stop-color="#0077FF" stop-opacity="0"/>
</linearGradient>
</defs>
</svg>
