<svg width="1109" height="338" viewBox="0 0 1109 338" fill="none" xmlns="http://www.w3.org/2000/svg">
<mask id="mask0_411_543" style="mask-type:alpha" maskUnits="userSpaceOnUse" x="0" y="0" width="1109" height="338">
<rect x="0.470703" width="1107.67" height="337.45" fill="#0077FF"/>
</mask>
<g mask="url(#mask0_411_543)">
<mask id="mask1_411_543" style="mask-type:alpha" maskUnits="userSpaceOnUse" x="681" y="11" width="428" height="481">
<rect x="681.52" y="11.5302" width="426.617" height="479.656" fill="#17D685"/>
</mask>
<g mask="url(#mask1_411_543)">
<path d="M747.655 352.409C756.359 346.789 765.67 342.351 775.263 338.491C798.439 329.162 822.504 322.877 846.939 317.939C854.178 316.48 861.452 315.244 868.803 313.884V279.573C827.118 286.306 786.268 295.64 747.625 313.531L747.655 352.409Z" fill="#6D15AB"/>
<path d="M747.655 246.969L752.798 242.178C762.921 232.762 774.574 225.576 786.88 219.414C808.873 208.403 832.096 200.887 855.973 195.285C860.245 194.284 864.542 193.395 868.832 192.448V148.756C826.082 156.807 785.055 169.313 747.655 192.201V246.969Z" fill="#6D15AB"/>
<path d="M747.656 148.409C747.726 148.155 747.825 147.91 747.95 147.679C750.651 142.971 753.082 138.074 756.189 133.654C764.476 121.884 775.252 112.656 787.11 104.658C808.851 89.9975 832.809 80.3457 857.998 73.513C861.612 72.536 865.249 71.6593 868.821 70.7471V17.6798C824.917 26.5548 783.897 41.868 747.644 68.9872L747.656 148.409Z" fill="#6D15AB"/>
<path d="M868.839 352.409H868.869C877.579 346.789 886.889 342.351 896.476 338.491C919.658 329.162 943.717 322.877 968.159 317.939C975.392 316.48 982.672 315.244 990.022 313.884V279.573C948.337 286.306 907.482 295.64 868.839 313.531V352.409Z" fill="#6D15AB"/>
<path d="M868.839 246.969L873.983 242.178C884.112 232.762 895.758 225.576 908.064 219.414C930.058 208.403 953.281 200.887 977.163 195.285C981.43 194.284 985.726 193.395 990.022 192.448V148.756C947.266 156.807 906.24 169.313 868.839 192.201V246.969Z" fill="#6D15AB"/>
<path d="M868.839 148.409C868.91 148.155 869.009 147.91 869.134 147.679C871.835 142.971 874.271 138.074 877.373 133.654C885.665 121.884 896.435 112.656 908.294 104.658C930.07 89.9975 953.999 80.3457 979.182 73.513C982.796 72.536 986.438 71.6593 990.005 70.7471V17.6798C946.101 26.5548 905.081 41.868 868.828 68.9872L868.839 148.409Z" fill="#6D15AB"/>
<path d="M990.027 352.409C998.737 346.789 1008.05 342.351 1017.64 338.491C1040.82 329.162 1064.88 322.877 1089.32 317.939C1096.55 316.48 1103.83 315.244 1111.18 313.884V279.573C1069.5 286.306 1028.65 295.64 990.003 313.531L990.027 352.409Z" fill="#6D15AB"/>
<path d="M990.028 246.969L995.166 242.178C1005.29 232.762 1016.94 225.576 1029.25 219.414C1051.24 208.403 1074.47 200.887 1098.35 195.285C1102.62 194.284 1106.91 193.395 1111.21 192.448V148.756C1068.45 156.807 1027.42 169.313 990.028 192.201V246.969Z" fill="#6D15AB"/>
<path d="M990.026 148.409C990.091 148.153 990.19 147.908 990.32 147.679C993.021 142.971 995.452 138.074 998.56 133.654C1006.85 121.884 1017.62 112.656 1029.48 104.658C1051.23 89.9975 1075.19 80.3457 1100.37 73.513C1103.99 72.536 1107.62 71.6593 1111.2 70.7471V17.6798C1067.29 26.5548 1026.27 41.868 990.02 68.9872L990.026 148.409Z" fill="#6D15AB"/>
</g>
<path opacity="0.3" d="M384.84 352.409C393.545 346.789 402.855 342.351 412.448 338.49C435.624 329.162 459.689 322.877 484.125 317.939C491.363 316.48 498.638 315.244 505.988 313.884V279.573C464.303 286.306 423.454 295.64 384.811 313.531L384.84 352.409Z" fill="#6D15AB"/>
<path opacity="0.3" d="M384.84 246.969L389.984 242.178C400.107 232.762 411.759 225.576 424.065 219.414C446.059 208.403 469.282 200.887 493.158 195.284C497.431 194.284 501.727 193.395 506.018 192.448V148.756C463.267 156.807 422.241 169.313 384.84 192.2V246.969Z" fill="#6D15AB"/>
<path opacity="0.3" d="M384.842 148.409C384.913 148.155 385.011 147.91 385.136 147.679C387.838 142.97 390.268 138.074 393.376 133.654C401.662 121.884 412.438 112.655 424.297 104.657C446.037 89.9973 469.996 80.3455 495.185 73.5127C498.798 72.5358 502.435 71.659 506.008 70.7468V17.6796C462.104 26.5545 421.084 41.8678 384.83 68.987L384.842 148.409Z" fill="#6D15AB"/>
<path opacity="0.2" d="M264.157 352.409C272.861 346.789 282.172 342.351 291.765 338.49C314.941 329.162 339.005 322.877 363.441 317.939C370.68 316.48 377.954 315.244 385.305 313.884V279.573C343.619 286.306 302.77 295.64 264.127 313.531L264.157 352.409Z" fill="#6D15AB"/>
<path opacity="0.2" d="M264.157 246.969L269.3 242.178C279.423 232.762 291.076 225.576 303.382 219.414C325.375 208.403 348.598 200.887 372.475 195.284C376.747 194.284 381.044 193.395 385.334 192.448V148.756C342.584 156.807 301.557 169.313 264.157 192.2V246.969Z" fill="#6D15AB"/>
<path opacity="0.2" d="M264.157 148.409C264.227 148.155 264.326 147.91 264.451 147.679C267.152 142.97 269.583 138.074 272.69 133.654C280.977 121.884 291.753 112.655 303.611 104.657C325.352 89.9973 349.31 80.3455 374.499 73.5127C378.113 72.5358 381.75 71.659 385.322 70.7468V17.6796C341.418 26.5545 300.398 41.8678 264.145 68.987L264.157 148.409Z" fill="#6D15AB"/>
<path opacity="0.15" d="M142.706 352.409C151.41 346.789 160.72 342.351 170.313 338.49C193.489 329.162 217.554 322.877 241.99 317.939C249.229 316.48 256.503 315.244 263.854 313.884V279.573C222.168 286.306 181.319 295.64 142.676 313.531L142.706 352.409Z" fill="#6D15AB"/>
<path opacity="0.15" d="M142.705 246.969L147.849 242.178C157.972 232.762 169.625 225.576 181.931 219.414C203.924 208.403 227.147 200.887 251.023 195.284C255.296 194.284 259.592 193.395 263.883 192.448V148.756C221.132 156.807 180.106 169.313 142.705 192.2V246.969Z" fill="#6D15AB"/>
<path opacity="0.15" d="M142.706 148.409C142.777 148.155 142.876 147.91 143.001 147.679C145.702 142.97 148.133 138.074 151.24 133.654C159.527 121.884 170.302 112.655 182.161 104.657C203.901 89.9973 227.86 80.3455 253.049 73.5127C256.663 72.5358 260.3 71.659 263.872 70.7468V17.6796C219.968 26.5545 178.948 41.8678 142.695 68.987L142.706 148.409Z" fill="#6D15AB"/>
<path opacity="0.1" d="M22.0239 352.409C30.7282 346.789 40.0388 342.351 49.6317 338.49C72.8079 329.162 96.8727 322.877 121.308 317.939C128.547 316.48 135.821 315.244 143.172 313.884V279.573C101.487 286.306 60.6372 295.64 21.9946 313.531L22.0239 352.409Z" fill="#6D15AB"/>
<path opacity="0.1" d="M22.0238 246.969L27.1675 242.178C37.2901 232.762 48.943 225.576 61.2491 219.414C83.2422 208.403 106.465 200.887 130.342 195.284C134.615 194.284 138.911 193.395 143.201 192.448V148.756C100.451 156.807 59.4245 169.313 22.0238 192.2V246.969Z" fill="#6D15AB"/>
<path opacity="0.1" d="M22.0238 148.409C22.0944 148.155 22.1931 147.91 22.3181 147.679C25.0194 142.97 27.45 138.074 30.5574 133.654C38.8439 121.884 49.6198 112.655 61.4786 104.657C83.2187 89.9973 107.178 80.3455 132.366 73.5127C135.98 72.5358 139.617 71.659 143.189 70.7468V17.6796C99.2855 26.5545 58.2652 41.8678 22.0121 68.987L22.0238 148.409Z" fill="#6D15AB"/>
<path opacity="0.6" d="M506.022 352.409H506.051C514.761 346.789 524.072 342.351 533.659 338.49C556.841 329.162 580.9 322.877 605.341 317.939C612.574 316.48 619.854 315.244 627.205 313.884V279.573C585.52 286.306 544.664 295.64 506.022 313.531V352.409Z" fill="#6D15AB"/>
<path opacity="0.6" d="M506.022 246.969L511.166 242.178C521.294 232.762 532.941 225.576 545.247 219.414C567.24 208.403 590.463 200.887 614.346 195.284C618.613 194.284 622.909 193.395 627.205 192.448V148.756C584.449 156.807 543.423 169.313 506.022 192.2V246.969Z" fill="#6D15AB"/>
<path opacity="0.6" d="M506.022 148.409C506.093 148.155 506.191 147.91 506.316 147.679C509.018 142.97 511.454 138.074 514.556 133.654C522.848 121.884 533.618 112.655 545.477 104.657C567.252 89.9973 591.182 80.3455 616.365 73.5127C619.978 72.5358 623.621 71.659 627.188 70.7468V17.6796C583.284 26.5545 542.263 41.8678 506.01 68.987L506.022 148.409Z" fill="#6D15AB"/>
<path opacity="0.8" d="M627.211 352.409C635.922 346.789 645.232 342.351 654.825 338.491C678.001 329.162 702.066 322.877 726.501 317.939C733.734 316.48 741.015 315.244 748.365 313.884V279.573C706.68 286.306 665.83 295.64 627.188 313.531L627.211 352.409Z" fill="#6D15AB"/>
<path opacity="0.8" d="M627.212 246.969L632.35 242.178C642.479 232.762 654.126 225.576 666.438 219.414C688.425 208.403 711.654 200.887 735.53 195.285C739.803 194.284 744.099 193.395 748.39 192.448V148.756C705.639 156.807 664.607 169.313 627.212 192.201V246.969Z" fill="#6D15AB"/>
<path opacity="0.8" d="M627.212 148.409C627.277 148.153 627.376 147.908 627.507 147.679C630.208 142.971 632.639 138.074 635.746 133.654C644.038 121.884 654.808 112.656 666.667 104.658C688.413 89.9975 712.372 80.3457 737.561 73.513C741.174 72.536 744.811 71.6593 748.384 70.7471V17.6798C704.48 26.5548 663.46 41.868 627.207 68.9872L627.212 148.409Z" fill="#6D15AB"/>
</g>
</svg>
