<svg width="1440" height="631" viewBox="0 0 1440 631" fill="none" xmlns="http://www.w3.org/2000/svg">
<path d="M-1 0L1463.23 0V630L-1 630L-1 0Z" fill="url(#paint0_linear_802_150)"/>
<path d="M-1 0L1463.23 0V630L-1 630L-1 0Z" fill="#2E2EDE"/>
<g opacity="0.3">
<mask id="mask0_802_150" style="mask-type:alpha" maskUnits="userSpaceOnUse" x="507" y="275" width="479" height="356">
<rect x="507.87" y="275.534" width="477.27" height="354.511" fill="url(#paint1_linear_802_150)"/>
</mask>
<g mask="url(#mask0_802_150)">
<path d="M627.162 277.829C627.036 278.147 626.889 278.456 626.722 278.753C622.244 286.747 616.012 293.369 609.25 299.446C583.48 322.629 553.739 338.899 520.842 349.54C516.558 350.927 512.184 352.023 507.871 353.268L507.871 415.174C551.635 407.016 590.831 388.77 627.162 363.208L627.162 277.829Z" fill="url(#paint2_linear_802_150)" fill-opacity="0.4"/>
<path d="M627.162 404.056C626.939 404.601 626.672 405.128 626.363 405.629C621.199 413.981 614.303 420.774 606.899 427.052C584.271 446.246 558.725 460.459 530.962 470.734C523.416 473.523 515.677 475.767 507.871 478.31L507.871 548.097C551.284 539.947 590.525 522.297 627.162 497.928L627.162 404.056Z" fill="url(#paint3_linear_802_150)" fill-opacity="0.4"/>
<path d="M746.431 277.829C746.305 278.147 746.158 278.456 745.99 278.753C741.512 286.747 735.281 293.369 728.519 299.446C702.741 322.629 673.008 338.899 640.11 349.54C635.826 350.927 631.453 352.023 627.132 353.268L627.132 415.174C670.903 407.016 710.1 388.77 746.431 363.208L746.431 277.829Z" fill="url(#paint4_linear_802_150)" fill-opacity="0.5"/>
<path d="M746.43 404.056C746.207 404.601 745.94 405.128 745.631 405.629C740.467 413.981 733.571 420.774 726.167 427.052C703.539 446.246 677.993 460.459 650.222 470.734C642.684 473.523 634.938 475.767 627.139 478.31L627.139 548.097C670.552 539.947 709.793 522.297 746.43 497.928L746.43 404.056Z" fill="url(#paint5_linear_802_150)" fill-opacity="0.5"/>
<path d="M865.72 277.829C865.589 278.145 865.44 278.454 865.272 278.753C860.795 286.747 854.563 293.369 847.809 299.446C822.031 322.629 792.29 338.899 759.392 349.54C755.108 350.927 750.735 352.023 746.421 353.268L746.421 415.174C790.185 407.016 829.389 388.77 865.72 363.208L865.72 277.829Z" fill="url(#paint6_linear_802_150)"/>
<path d="M865.72 404.056C865.492 404.6 865.222 405.126 864.914 405.629C859.757 413.981 852.854 420.774 845.45 427.053C822.822 446.246 797.275 460.459 769.512 470.734C761.967 473.523 754.228 475.767 746.421 478.31L746.421 548.097C789.835 539.947 829.076 522.297 865.72 497.928L865.72 404.056Z" fill="url(#paint7_linear_802_150)"/>
<path d="M984.955 277.829C984.829 278.147 984.682 278.456 984.514 278.753C980.036 286.747 973.805 293.369 967.043 299.446C941.265 322.629 911.532 338.899 878.634 349.54C874.35 350.927 869.977 352.023 865.656 353.268L865.656 415.174C909.427 407.016 948.624 388.77 984.955 363.208L984.955 277.829Z" fill="url(#paint8_linear_802_150)"/>
<path d="M984.947 404.056C984.724 404.602 984.457 405.128 984.149 405.629C978.984 413.981 972.088 420.774 964.685 427.053C942.056 446.246 916.51 460.459 888.747 470.734C881.202 473.523 873.462 475.767 865.656 478.31L865.656 548.097C909.069 539.947 948.31 522.297 984.947 497.928L984.947 404.056Z" fill="url(#paint9_linear_802_150)"/>
</g>
<mask id="mask1_802_150" style="mask-type:alpha" maskUnits="userSpaceOnUse" x="507" y="2" width="479" height="355">
<rect x="507.87" y="2.48071" width="477.27" height="354.511" fill="url(#paint10_linear_802_150)"/>
</mask>
<g mask="url(#mask1_802_150)">
<path d="M627.162 4.77535C627.036 5.0932 626.889 5.40211 626.722 5.69998C622.244 13.6936 616.012 20.3151 609.25 26.3923C583.48 49.5752 553.739 65.8457 520.842 76.4864C516.558 77.8733 512.184 78.9694 507.871 80.2147L507.871 142.12C551.635 133.963 590.831 115.716 627.162 90.1545L627.162 4.77535Z" fill="url(#paint11_linear_802_150)" fill-opacity="0.4"/>
<path d="M627.162 131.003C626.939 131.548 626.672 132.074 626.363 132.576C621.199 140.927 614.303 147.721 606.899 153.999C584.271 173.193 558.725 187.405 530.962 197.68C523.416 200.469 515.677 202.714 507.871 205.256L507.871 275.044C551.284 266.894 590.525 249.243 627.162 224.875L627.162 131.003Z" fill="url(#paint12_linear_802_150)" fill-opacity="0.4"/>
<path d="M746.431 4.77535C746.305 5.0932 746.158 5.40211 745.99 5.69998C741.512 13.6936 735.281 20.3151 728.519 26.3923C702.741 49.5752 673.008 65.8457 640.11 76.4864C635.826 77.8733 631.453 78.9694 627.132 80.2147L627.132 142.12C670.903 133.963 710.1 115.716 746.431 90.1545L746.431 4.77535Z" fill="url(#paint13_linear_802_150)" fill-opacity="0.5"/>
<path d="M746.43 131.003C746.207 131.548 745.94 132.074 745.631 132.576C740.467 140.927 733.571 147.721 726.167 153.999C703.539 173.193 677.993 187.405 650.222 197.68C642.684 200.469 634.938 202.714 627.139 205.256L627.139 275.044C670.552 266.894 709.793 249.243 746.43 224.875L746.43 131.003Z" fill="url(#paint14_linear_802_150)" fill-opacity="0.5"/>
<path d="M865.72 4.77535C865.589 5.09197 865.44 5.40071 865.272 5.69998C860.795 13.6936 854.563 20.3151 847.809 26.3923C822.031 49.5752 792.29 65.8457 759.392 76.4864C755.108 77.8733 750.735 78.9694 746.421 80.2147L746.421 142.12C790.185 133.963 829.389 115.716 865.72 90.1545L865.72 4.77535Z" fill="url(#paint15_linear_802_150)"/>
<path d="M865.72 131.003C865.492 131.547 865.222 132.073 864.914 132.576C859.757 140.927 852.854 147.72 845.45 153.999C822.822 173.192 797.275 187.405 769.512 197.68C761.967 200.469 754.228 202.714 746.421 205.256L746.421 275.044C789.835 266.893 829.076 249.243 865.72 224.875L865.72 131.003Z" fill="url(#paint16_linear_802_150)"/>
<path d="M984.955 4.77535C984.829 5.0932 984.682 5.40211 984.514 5.69998C980.036 13.6936 973.805 20.3151 967.043 26.3923C941.265 49.5752 911.532 65.8457 878.634 76.4864C874.35 77.8733 869.977 78.9694 865.656 80.2147L865.656 142.12C909.427 133.963 948.624 115.716 984.955 90.1545L984.955 4.77535Z" fill="url(#paint17_linear_802_150)"/>
<path d="M984.947 131.003C984.724 131.548 984.457 132.074 984.149 132.576C978.984 140.927 972.088 147.72 964.685 153.999C942.056 173.192 916.51 187.405 888.747 197.68C881.202 200.469 873.462 202.714 865.656 205.256L865.656 275.044C909.069 266.893 948.31 249.243 984.947 224.875L984.947 131.003Z" fill="url(#paint18_linear_802_150)"/>
</g>
</g>
<g opacity="0.5">
<mask id="mask2_802_150" style="mask-type:alpha" maskUnits="userSpaceOnUse" x="986" y="275" width="478" height="356">
<rect x="986.683" y="275.534" width="477.27" height="354.511" fill="url(#paint19_linear_802_150)"/>
</mask>
<g mask="url(#mask2_802_150)">
<path d="M1105.97 277.829C1105.85 278.147 1105.7 278.456 1105.53 278.753C1101.06 286.747 1094.82 293.369 1088.06 299.446C1062.29 322.629 1032.55 338.899 999.654 349.54C995.37 350.927 990.997 352.023 986.683 353.268L986.683 415.174C1030.45 407.016 1069.64 388.77 1105.97 363.208L1105.97 277.829Z" fill="url(#paint20_linear_802_150)"/>
<path d="M1105.97 404.056C1105.75 404.601 1105.48 405.128 1105.18 405.629C1100.01 413.981 1093.12 420.774 1085.71 427.052C1063.08 446.246 1037.54 460.459 1009.77 470.734C1002.23 473.523 994.49 475.767 986.683 478.31L986.683 548.097C1030.1 539.947 1069.34 522.297 1105.97 497.928L1105.97 404.056Z" fill="url(#paint21_linear_802_150)"/>
<path d="M1225.24 277.829C1225.12 278.147 1224.97 278.456 1224.8 278.753C1220.32 286.747 1214.09 293.369 1207.33 299.446C1181.55 322.629 1151.82 338.899 1118.92 349.54C1114.64 350.927 1110.27 352.023 1105.94 353.268L1105.94 415.174C1149.72 407.016 1188.91 388.77 1225.24 363.208L1225.24 277.829Z" fill="url(#paint22_linear_802_150)"/>
<path d="M1225.24 404.056C1225.02 404.602 1224.75 405.128 1224.44 405.629C1219.28 413.981 1212.38 420.774 1204.98 427.053C1182.35 446.246 1156.81 460.459 1129.03 470.734C1121.5 473.523 1113.75 475.767 1105.95 478.31L1105.95 548.097C1149.36 539.947 1188.61 522.297 1225.24 497.928L1225.24 404.056Z" fill="url(#paint23_linear_802_150)"/>
<path d="M1344.53 277.829C1344.4 278.145 1344.25 278.454 1344.08 278.753C1339.61 286.747 1333.38 293.369 1326.62 299.446C1300.84 322.629 1271.1 338.899 1238.2 349.54C1233.92 350.927 1229.55 352.023 1225.23 353.268L1225.23 415.174C1269 407.016 1308.2 388.77 1344.53 363.208L1344.53 277.829Z" fill="url(#paint24_linear_802_150)"/>
<path d="M1344.53 404.056C1344.3 404.6 1344.03 405.126 1343.73 405.629C1338.57 413.981 1331.67 420.774 1324.26 427.053C1301.63 446.246 1276.09 460.459 1248.32 470.734C1240.78 473.523 1233.04 475.767 1225.23 478.31L1225.23 548.097C1268.65 539.947 1307.89 522.297 1344.53 497.928L1344.53 404.056Z" fill="url(#paint25_linear_802_150)"/>
<path d="M1463.77 277.829C1463.64 278.147 1463.49 278.456 1463.33 278.753C1458.85 286.747 1452.62 293.369 1445.86 299.446C1420.08 322.629 1390.34 338.899 1357.45 349.54C1353.16 350.927 1348.79 352.023 1344.47 353.268L1344.47 415.174C1388.24 407.016 1427.44 388.77 1463.77 363.208L1463.77 277.829Z" fill="url(#paint26_linear_802_150)"/>
<path d="M1463.76 404.056C1463.54 404.602 1463.27 405.128 1462.96 405.629C1457.8 413.981 1450.9 420.774 1443.5 427.053C1420.87 446.246 1395.32 460.459 1367.56 470.734C1360.01 473.523 1352.27 475.767 1344.47 478.31L1344.47 548.097C1387.88 539.947 1427.12 522.297 1463.76 497.928L1463.76 404.056Z" fill="url(#paint27_linear_802_150)"/>
</g>
<mask id="mask3_802_150" style="mask-type:alpha" maskUnits="userSpaceOnUse" x="986" y="2" width="478" height="355">
<rect x="986.683" y="2.48071" width="477.27" height="354.511" fill="url(#paint28_linear_802_150)"/>
</mask>
<g mask="url(#mask3_802_150)">
<path d="M1105.97 4.77535C1105.85 5.0932 1105.7 5.40211 1105.53 5.69998C1101.06 13.6936 1094.82 20.3151 1088.06 26.3923C1062.29 49.5752 1032.55 65.8457 999.654 76.4864C995.37 77.8733 990.997 78.9694 986.683 80.2147L986.683 142.12C1030.45 133.963 1069.64 115.716 1105.97 90.1545L1105.97 4.77535Z" fill="url(#paint29_linear_802_150)"/>
<path d="M1105.97 131.003C1105.75 131.548 1105.48 132.074 1105.18 132.576C1100.01 140.927 1093.12 147.721 1085.71 153.999C1063.08 173.193 1037.54 187.405 1009.77 197.68C1002.23 200.469 994.49 202.714 986.683 205.256L986.683 275.044C1030.1 266.894 1069.34 249.243 1105.97 224.875L1105.97 131.003Z" fill="url(#paint30_linear_802_150)"/>
<path d="M1225.24 4.77535C1225.12 5.0932 1224.97 5.40211 1224.8 5.69998C1220.32 13.6936 1214.09 20.3151 1207.33 26.3923C1181.55 49.5752 1151.82 65.8457 1118.92 76.4864C1114.64 77.8733 1110.27 78.9694 1105.94 80.2147L1105.94 142.12C1149.72 133.963 1188.91 115.716 1225.24 90.1545L1225.24 4.77535Z" fill="url(#paint31_linear_802_150)"/>
<path d="M1225.24 131.003C1225.02 131.548 1224.75 132.074 1224.44 132.576C1219.28 140.927 1212.38 147.72 1204.98 153.999C1182.35 173.192 1156.81 187.405 1129.03 197.68C1121.5 200.469 1113.75 202.714 1105.95 205.256L1105.95 275.044C1149.36 266.893 1188.61 249.243 1225.24 224.875L1225.24 131.003Z" fill="url(#paint32_linear_802_150)"/>
<path d="M1344.53 4.77535C1344.4 5.09197 1344.25 5.40071 1344.08 5.69998C1339.61 13.6936 1333.38 20.3151 1326.62 26.3923C1300.84 49.5752 1271.1 65.8457 1238.2 76.4864C1233.92 77.8733 1229.55 78.9694 1225.23 80.2147L1225.23 142.12C1269 133.963 1308.2 115.716 1344.53 90.1545L1344.53 4.77535Z" fill="url(#paint33_linear_802_150)"/>
<path d="M1344.53 131.003C1344.3 131.547 1344.03 132.073 1343.73 132.576C1338.57 140.927 1331.67 147.72 1324.26 153.999C1301.63 173.192 1276.09 187.405 1248.32 197.68C1240.78 200.469 1233.04 202.714 1225.23 205.256L1225.23 275.044C1268.65 266.893 1307.89 249.243 1344.53 224.875L1344.53 131.003Z" fill="url(#paint34_linear_802_150)"/>
<path d="M1463.77 4.77535C1463.64 5.0932 1463.49 5.40211 1463.33 5.69998C1458.85 13.6936 1452.62 20.3151 1445.86 26.3923C1420.08 49.5752 1390.34 65.8457 1357.45 76.4864C1353.16 77.8733 1348.79 78.9694 1344.47 80.2147L1344.47 142.12C1388.24 133.963 1427.44 115.716 1463.77 90.1545L1463.77 4.77535Z" fill="url(#paint35_linear_802_150)"/>
<path d="M1463.76 131.003C1463.54 131.548 1463.27 132.074 1462.96 132.576C1457.8 140.927 1450.9 147.72 1443.5 153.999C1420.87 173.192 1395.32 187.405 1367.56 197.68C1360.01 200.469 1352.27 202.714 1344.47 205.256L1344.47 275.044C1387.88 266.893 1427.12 249.243 1463.76 224.875L1463.76 131.003Z" fill="url(#paint36_linear_802_150)"/>
</g>
</g>
<defs>
<linearGradient id="paint0_linear_802_150" x1="1989.95" y1="-230.644" x2="1024.11" y2="1283.78" gradientUnits="userSpaceOnUse">
<stop/>
<stop offset="1" stop-color="#231F20"/>
</linearGradient>
<linearGradient id="paint1_linear_802_150" x1="740.195" y1="325.876" x2="969.173" y2="608.039" gradientUnits="userSpaceOnUse">
<stop stop-color="white"/>
<stop offset="1" stop-color="white" stop-opacity="0"/>
</linearGradient>
<linearGradient id="paint2_linear_802_150" x1="524.81" y1="348.317" x2="607.673" y2="269.688" gradientUnits="userSpaceOnUse">
<stop stop-color="#0077FF"/>
<stop offset="1" stop-color="#2E2EDE"/>
</linearGradient>
<linearGradient id="paint3_linear_802_150" x1="524.81" y1="477.981" x2="611.398" y2="399.637" gradientUnits="userSpaceOnUse">
<stop stop-color="#0077FF"/>
<stop offset="1" stop-color="#2E2EDE"/>
</linearGradient>
<linearGradient id="paint4_linear_802_150" x1="644.073" y1="348.317" x2="726.935" y2="269.683" gradientUnits="userSpaceOnUse">
<stop stop-color="#0077FF"/>
<stop offset="1" stop-color="#2E2EDE"/>
</linearGradient>
<linearGradient id="paint5_linear_802_150" x1="644.078" y1="477.981" x2="730.666" y2="399.637" gradientUnits="userSpaceOnUse">
<stop stop-color="#0077FF"/>
<stop offset="1" stop-color="#2E2EDE"/>
</linearGradient>
<linearGradient id="paint6_linear_802_150" x1="763.362" y1="348.317" x2="846.225" y2="269.683" gradientUnits="userSpaceOnUse">
<stop stop-color="#0077FF"/>
<stop offset="1" stop-color="#2E2EDE"/>
</linearGradient>
<linearGradient id="paint7_linear_802_150" x1="763.362" y1="477.981" x2="849.951" y2="399.631" gradientUnits="userSpaceOnUse">
<stop stop-color="#0077FF"/>
<stop offset="1" stop-color="#2E2EDE"/>
</linearGradient>
<linearGradient id="paint8_linear_802_150" x1="882.596" y1="348.317" x2="965.459" y2="269.683" gradientUnits="userSpaceOnUse">
<stop stop-color="#0077FF"/>
<stop offset="1" stop-color="#2E2EDE"/>
</linearGradient>
<linearGradient id="paint9_linear_802_150" x1="882.595" y1="477.981" x2="969.184" y2="399.637" gradientUnits="userSpaceOnUse">
<stop stop-color="#0077FF"/>
<stop offset="1" stop-color="#2E2EDE"/>
</linearGradient>
<linearGradient id="paint10_linear_802_150" x1="740.195" y1="52.8221" x2="969.173" y2="334.986" gradientUnits="userSpaceOnUse">
<stop stop-color="white"/>
<stop offset="1" stop-color="white" stop-opacity="0"/>
</linearGradient>
<linearGradient id="paint11_linear_802_150" x1="524.81" y1="75.2637" x2="607.673" y2="-3.36493" gradientUnits="userSpaceOnUse">
<stop stop-color="#0077FF"/>
<stop offset="1" stop-color="#2E2EDE"/>
</linearGradient>
<linearGradient id="paint12_linear_802_150" x1="524.81" y1="204.928" x2="611.398" y2="126.583" gradientUnits="userSpaceOnUse">
<stop stop-color="#0077FF"/>
<stop offset="1" stop-color="#2E2EDE"/>
</linearGradient>
<linearGradient id="paint13_linear_802_150" x1="644.073" y1="75.2637" x2="726.935" y2="-3.37013" gradientUnits="userSpaceOnUse">
<stop stop-color="#0077FF"/>
<stop offset="1" stop-color="#2E2EDE"/>
</linearGradient>
<linearGradient id="paint14_linear_802_150" x1="644.078" y1="204.928" x2="730.666" y2="126.583" gradientUnits="userSpaceOnUse">
<stop stop-color="#0077FF"/>
<stop offset="1" stop-color="#2E2EDE"/>
</linearGradient>
<linearGradient id="paint15_linear_802_150" x1="763.362" y1="75.2637" x2="846.225" y2="-3.37011" gradientUnits="userSpaceOnUse">
<stop stop-color="#0077FF"/>
<stop offset="1" stop-color="#2E2EDE"/>
</linearGradient>
<linearGradient id="paint16_linear_802_150" x1="763.362" y1="204.927" x2="849.951" y2="126.578" gradientUnits="userSpaceOnUse">
<stop stop-color="#0077FF"/>
<stop offset="1" stop-color="#2E2EDE"/>
</linearGradient>
<linearGradient id="paint17_linear_802_150" x1="882.596" y1="75.2637" x2="965.459" y2="-3.37011" gradientUnits="userSpaceOnUse">
<stop stop-color="#0077FF"/>
<stop offset="1" stop-color="#2E2EDE"/>
</linearGradient>
<linearGradient id="paint18_linear_802_150" x1="882.595" y1="204.927" x2="969.184" y2="126.583" gradientUnits="userSpaceOnUse">
<stop stop-color="#0077FF"/>
<stop offset="1" stop-color="#2E2EDE"/>
</linearGradient>
<linearGradient id="paint19_linear_802_150" x1="1219.01" y1="325.876" x2="1447.99" y2="608.039" gradientUnits="userSpaceOnUse">
<stop stop-color="white"/>
<stop offset="1" stop-color="white" stop-opacity="0"/>
</linearGradient>
<linearGradient id="paint20_linear_802_150" x1="1003.62" y1="348.317" x2="1086.49" y2="269.688" gradientUnits="userSpaceOnUse">
<stop stop-color="#0077FF"/>
<stop offset="1" stop-color="#2E2EDE"/>
</linearGradient>
<linearGradient id="paint21_linear_802_150" x1="1003.62" y1="477.981" x2="1090.21" y2="399.637" gradientUnits="userSpaceOnUse">
<stop stop-color="#0077FF"/>
<stop offset="1" stop-color="#2E2EDE"/>
</linearGradient>
<linearGradient id="paint22_linear_802_150" x1="1122.89" y1="348.317" x2="1205.75" y2="269.683" gradientUnits="userSpaceOnUse">
<stop stop-color="#0077FF"/>
<stop offset="1" stop-color="#2E2EDE"/>
</linearGradient>
<linearGradient id="paint23_linear_802_150" x1="1122.89" y1="477.981" x2="1209.48" y2="399.637" gradientUnits="userSpaceOnUse">
<stop stop-color="#0077FF"/>
<stop offset="1" stop-color="#2E2EDE"/>
</linearGradient>
<linearGradient id="paint24_linear_802_150" x1="1242.17" y1="348.317" x2="1325.04" y2="269.683" gradientUnits="userSpaceOnUse">
<stop stop-color="#0077FF"/>
<stop offset="1" stop-color="#2E2EDE"/>
</linearGradient>
<linearGradient id="paint25_linear_802_150" x1="1242.17" y1="477.981" x2="1328.76" y2="399.631" gradientUnits="userSpaceOnUse">
<stop stop-color="#0077FF"/>
<stop offset="1" stop-color="#2E2EDE"/>
</linearGradient>
<linearGradient id="paint26_linear_802_150" x1="1361.41" y1="348.317" x2="1444.27" y2="269.683" gradientUnits="userSpaceOnUse">
<stop stop-color="#0077FF"/>
<stop offset="1" stop-color="#2E2EDE"/>
</linearGradient>
<linearGradient id="paint27_linear_802_150" x1="1361.41" y1="477.981" x2="1448" y2="399.637" gradientUnits="userSpaceOnUse">
<stop stop-color="#0077FF"/>
<stop offset="1" stop-color="#2E2EDE"/>
</linearGradient>
<linearGradient id="paint28_linear_802_150" x1="1219.01" y1="52.8221" x2="1447.99" y2="334.986" gradientUnits="userSpaceOnUse">
<stop stop-color="white"/>
<stop offset="1" stop-color="white" stop-opacity="0"/>
</linearGradient>
<linearGradient id="paint29_linear_802_150" x1="1003.62" y1="75.2637" x2="1086.49" y2="-3.36493" gradientUnits="userSpaceOnUse">
<stop stop-color="#0077FF"/>
<stop offset="1" stop-color="#2E2EDE"/>
</linearGradient>
<linearGradient id="paint30_linear_802_150" x1="1003.62" y1="204.928" x2="1090.21" y2="126.583" gradientUnits="userSpaceOnUse">
<stop stop-color="#0077FF"/>
<stop offset="1" stop-color="#2E2EDE"/>
</linearGradient>
<linearGradient id="paint31_linear_802_150" x1="1122.89" y1="75.2637" x2="1205.75" y2="-3.37013" gradientUnits="userSpaceOnUse">
<stop stop-color="#0077FF"/>
<stop offset="1" stop-color="#2E2EDE"/>
</linearGradient>
<linearGradient id="paint32_linear_802_150" x1="1122.89" y1="204.927" x2="1209.48" y2="126.583" gradientUnits="userSpaceOnUse">
<stop stop-color="#0077FF"/>
<stop offset="1" stop-color="#2E2EDE"/>
</linearGradient>
<linearGradient id="paint33_linear_802_150" x1="1242.17" y1="75.2637" x2="1325.04" y2="-3.37011" gradientUnits="userSpaceOnUse">
<stop stop-color="#0077FF"/>
<stop offset="1" stop-color="#2E2EDE"/>
</linearGradient>
<linearGradient id="paint34_linear_802_150" x1="1242.17" y1="204.927" x2="1328.76" y2="126.578" gradientUnits="userSpaceOnUse">
<stop stop-color="#0077FF"/>
<stop offset="1" stop-color="#2E2EDE"/>
</linearGradient>
<linearGradient id="paint35_linear_802_150" x1="1361.41" y1="75.2637" x2="1444.27" y2="-3.37011" gradientUnits="userSpaceOnUse">
<stop stop-color="#0077FF"/>
<stop offset="1" stop-color="#2E2EDE"/>
</linearGradient>
<linearGradient id="paint36_linear_802_150" x1="1361.41" y1="204.927" x2="1448" y2="126.583" gradientUnits="userSpaceOnUse">
<stop stop-color="#0077FF"/>
<stop offset="1" stop-color="#2E2EDE"/>
</linearGradient>
</defs>
</svg>
