<svg width="598" height="590" viewBox="0 0 598 590" fill="none" xmlns="http://www.w3.org/2000/svg">
<g clip-path="url(#clip0_720_6662)">
<path d="M471.391 519.293C471.391 519.293 477.884 550.031 470.448 548.968C463.012 547.905 454.563 526.338 454.563 526.338L471.391 519.293Z" fill="#231F20"/>
<path d="M584.217 496.715C584.217 496.715 587.039 495.107 584.139 488.935C593.012 486.679 590.839 484.804 590.294 483.057C589.074 479.185 548.103 450.884 545.082 446.882C541.897 442.655 536.426 417.614 536.426 417.614C536.426 417.614 529.847 413.396 523.701 414.052C517.555 414.709 500.329 397.629 509.911 421.02C519.494 444.41 521.087 452.76 523.034 458.318C526.081 466.962 536.261 471.984 544.571 477.283C548.415 479.738 550.899 486.722 554.959 494.467C557.4 499.118 563.615 498.954 561.953 492.523C560.291 486.091 557.937 473.947 560.153 474.923C565.71 477.387 579.629 501.504 584.217 496.715Z" fill="#FF8481"/>
<path d="M372.049 121.765C371.097 119.258 366.518 87.9407 365.6 80.0401C364.129 67.4976 370.413 49.7342 374.179 38.8687C375.849 34.0454 374.594 29.4641 369.366 35.731C364.769 41.2458 362.813 46.4495 361.03 44.375C359.247 42.3004 363.531 11.3117 359.827 9.12477C356.122 6.93784 353.49 20.9152 353.49 20.9152C353.49 20.9152 354.295 2.37382 351.612 2.19229C348.928 2.01077 347.586 4.60397 347.586 4.60397C347.586 4.60397 347.335 -0.703443 344.903 1.05129C342.471 2.80602 342.393 9.34952 342.393 9.34952C342.393 9.34952 340.332 5.73633 338.61 8.31224C336.887 10.8881 337.45 41.3323 336.731 57.0643C336.013 72.7964 345.691 138.275 345.691 138.275L372.049 121.765Z" fill="#FF8481"/>
<path d="M334.898 27.0784C334.898 23.7677 338.516 19.463 341.312 24.4852C341.402 24.6417 341.537 24.7679 341.699 24.848C341.862 24.9281 342.044 24.9586 342.224 24.9355C342.403 24.9124 342.572 24.8368 342.708 24.7182C342.845 24.5996 342.943 24.4434 342.991 24.2691C346.454 12.7034 352.193 21.3906 352.937 27.9082C356.4 58.1103 351.587 71.3875 344.87 70.7478C327.375 69.0882 343.632 83.904 343.632 83.904L328.596 39.7505L334.898 27.0784Z" fill="#E85353"/>
<path d="M503.999 571.529C503.17 571.532 502.35 571.358 501.595 571.018C500.839 570.678 500.165 570.18 499.619 569.558C493.612 563.066 495.81 542.597 495.906 541.724L496.035 540.531L496.702 541.534C497.282 542.398 510.898 563.326 507.6 569.653C507.268 570.254 506.772 570.749 506.17 571.081C505.568 571.413 504.885 571.568 504.198 571.529H503.999ZM496.65 543.073C496.269 547.671 495.343 563.663 500.251 569.005C500.731 569.571 501.333 570.02 502.012 570.32C502.692 570.619 503.43 570.761 504.172 570.733C504.704 570.776 505.236 570.666 505.707 570.416C506.178 570.167 506.567 569.788 506.83 569.324C509.505 564.138 499.403 547.455 496.624 543.073H496.65Z" fill="white"/>
<path d="M495.438 575.263C494.923 575.259 494.412 575.175 493.923 575.012C493.096 574.764 492.336 574.334 491.698 573.753C491.06 573.173 490.56 572.457 490.235 571.658C486.686 563.568 495.429 544.931 495.845 544.145L496.364 543.055L496.65 544.222C496.909 545.251 502.934 569.454 497.74 574.355C497.124 574.95 496.295 575.277 495.438 575.263ZM496.104 545.657C494.235 549.884 488.123 564.674 491.032 571.313C491.304 572 491.729 572.616 492.275 573.115C492.821 573.614 493.473 573.982 494.183 574.191C494.67 574.404 495.208 574.474 495.734 574.392C496.26 574.311 496.751 574.083 497.152 573.733C501.35 569.791 497.273 550.731 496.104 545.683V545.657Z" fill="white"/>
<path d="M441.102 223.401C441.102 223.401 478.376 223.072 481.389 227.351C484.401 231.63 480.22 240.568 480.22 240.568L438.384 239.85L441.102 223.401Z" fill="#231F20"/>
<path d="M158.551 337.985C153.357 344.684 134.945 385.908 123.06 396.064C117.096 401.164 83.388 444.764 80.1073 442.534C76.8265 440.304 56.0341 446.588 56.0341 446.588L53.6709 454.93L68.8021 487.561C68.8021 487.561 97.8355 452.812 101.255 455.725C104.674 458.638 88.3914 437.728 108.067 438.065C125.285 438.351 189.921 366.545 189.844 367.746L173.873 336.516L158.551 337.985Z" fill="#FF8481"/>
<path d="M453.454 625.675C460.085 629.582 509.989 657.502 519.718 666.751C542.865 688.75 565.831 742.178 574.305 747.14C588.874 755.784 595.885 743.682 597.539 726.334C599.192 708.985 568.878 640.914 558.862 638.788C548.847 636.661 546.899 639.445 546.899 639.445L470.654 582.178L453.454 625.675Z" fill="#FF8481"/>
<path d="M446.019 546.072C446.019 546.072 487.422 541.085 496.459 543.254C537.594 540.479 562.723 577.934 572.574 576.706C596.864 573.672 538.641 519.959 525.354 507.269C513.122 495.583 503.548 506.906 491.923 508.644C485.448 509.612 448.936 506.275 448.936 506.275L446.019 546.072Z" fill="#FF8481"/>
<path d="M343.337 403.455C343.337 403.455 312.919 428.894 286.361 462.165C248.524 509.577 253.935 535.267 263.708 550.826C276.155 570.707 338.273 577.899 366.198 573.603C414.804 566.126 456.025 548.207 470.447 548.968C457.566 529.259 466.854 509.992 471.555 507.831C466.473 505.506 457.35 503.258 457.35 503.258C457.35 503.258 439.518 485.72 423.097 481.285C406.675 476.851 343.337 403.455 343.337 403.455Z" fill="#231F20"/>
<path d="M465.945 448.015C463.349 475.364 436.375 534.455 437.501 548.467C438.496 560.871 498.848 586.5 505.262 600.668C511.85 615.215 502.57 648.737 485.024 650.448C477.095 651.226 474.939 654.649 375.322 624.326C364.069 620.869 335.443 607.79 332.231 576.499C328.249 537.601 367.722 457.074 362.727 418.072C361.42 407.838 410.649 377.177 441.967 389.547C456.475 395.235 468.534 420.665 465.945 448.015Z" fill="#2929B2"/>
<path d="M534.858 320.525C526.323 301.551 507.919 280.512 494.745 266.145C497.947 265.376 502.362 263.768 505.132 260.527C509.789 254.986 498.51 243.775 487.759 232.866C482.634 227.679 481.7 227.852 481.7 227.852C481.7 227.852 482.132 230.497 482.297 232.641C482.643 237.101 479.7 238.242 461.296 236.496C456.946 236.144 452.568 236.456 448.312 237.421C443.594 237.343 439.162 237.577 435.327 237.352C428.255 236.946 432.826 227.1 427.537 215.249C413.011 182.843 397.43 133.235 383.234 110.311C376.897 100.086 371.115 97.5529 366.96 97.7344C365.791 97.7863 352.028 101.529 345.769 106.534C339.511 111.539 329.876 135.059 337.381 184.918C346.167 243.265 367.332 255.989 359.888 281.143C352.582 306.02 347.838 365.707 343.233 395.857C341.268 408.728 344.453 431.513 355.975 435.974C368.094 440.65 416.162 430.787 464.257 425.973C484.972 414.735 455.601 354.444 463.054 347.148C465.391 344.866 483.483 361.359 488.157 368.568C493.645 377.056 497.194 426.483 513.165 430.71C521.32 432.853 534.434 429.664 539.178 423.647C545.289 415.859 551.236 356.924 534.858 320.525Z" fill="#2929B2"/>
<path d="M369.316 97.9244C361.182 111.901 350.317 124.1 337.365 133.797H359.456C361.187 132.137 362.841 130.434 364.468 128.662C370.632 121.946 376.121 114.641 380.855 106.854C376.561 101.01 372.597 98.5987 369.316 97.9244Z" fill="white"/>
<path d="M538.563 424.287C538.763 424.08 538.97 423.864 539.152 423.639C541.939 420.103 544.692 405.988 545.324 388.198H498.926C491.135 348.436 470.36 321.311 449.299 303.392C469.66 286.284 484.965 263.957 493.568 238.813C491.663 236.833 489.69 234.828 487.725 232.831C482.6 227.645 481.665 227.818 481.665 227.818C481.665 227.818 482.098 230.463 482.263 232.607C482.609 237.067 479.666 238.208 461.262 236.462L460.18 236.384C451.524 256.844 437.137 273.985 417.141 287.617C407.822 293.941 397.84 299.231 387.372 303.392C397.832 307.551 407.805 312.838 417.115 319.159C442.66 336.568 459.021 359.716 466.041 388.198H469.252C465.452 369.743 459.055 350.977 463.02 347.114C465.357 344.832 483.449 361.324 488.123 368.533C490.071 371.55 491.776 379.771 493.879 389.227C498.642 391.186 503.269 393.458 507.73 396.03C519.978 403.05 530.51 412.702 538.563 424.287Z" fill="white"/>
<path d="M96.5104 404.319C61.686 479.193 10.8127 491.572 7.92145 475.961C4.07804 455.414 97.2029 402.824 96.5104 404.319Z" fill="#231F20"/>
<path d="M58.4318 345.091C61.652 366.009 54.346 404.691 49.4119 451.049C44.9193 493.214 49.6283 509.344 62.6561 515.438C75.6839 521.532 128.176 505.126 145.488 490.69C144.242 480.983 128.539 440.987 119.251 429.136C118.697 428.428 106.976 450.115 106.189 450.556C101.765 453.02 98.978 438.869 98.0085 438.947C97.039 439.025 97.2035 420.026 95.5934 394.128C94.5373 377.203 89.8456 350.381 89.1185 341.504C88.8674 338.47 94.7451 327.206 89.4301 323.351C86.6254 321.32 48.529 283.347 45.5685 282.31C37.7432 279.578 56.1552 330.336 58.4318 345.091Z" fill="#FFA9A9"/>
<path d="M59.4185 303.755C56.5706 307.092 66.0059 321.043 66.4647 329.843C67.3303 347.364 57.7132 348.142 54.9605 343.837C52.2078 339.533 44.4777 326.549 39.0762 315.736C28.6886 294.809 17.9634 276.613 22.5253 270.355C26.3514 265.099 37.0072 262.1 44.9451 264.304C54.796 267.036 61.8422 271.79 76.8869 292.76C92.7626 314.88 95.9309 318.234 94.1477 325.607C90.9795 338.573 89.3521 345.912 89.3434 345.367C86.2012 341.175 86.5128 338.919 80.7391 328.244C71.3643 310.895 62.1712 300.514 59.4185 303.755Z" fill="white"/>
<path d="M130.573 499.732C136.737 496.732 141.948 493.681 145.488 490.69C144.718 484.639 138.364 466.962 131.439 451.567C134.503 465.182 135.256 490.267 130.573 499.732Z" fill="#E85353"/>
<path d="M98.0078 438.947C99.488 454.627 99.8516 461.577 103.124 461.24C108.43 460.704 107.859 443.373 98.0078 438.947Z" fill="#E85353"/>
<path d="M77.6574 293.157C62.604 272.196 55.9647 266.439 46.1051 263.716C38.7039 261.667 25.2346 264.727 22.5771 270.199C28.2644 264.684 43.1792 262.48 54.519 274.521C75.4587 296.736 87.5343 318.605 93.6976 327.491C93.8448 326.869 94.0006 326.247 94.1564 325.598C95.9396 318.216 93.5244 315.286 77.6574 293.157Z" fill="#231F20"/>
<path d="M250.879 550.541C249.927 555.304 219.153 628.467 181.767 766.407C178.382 778.898 177.066 777.083 182.927 799.903C188.787 822.723 189.436 841.109 179.213 846.58C168.99 852.052 138.026 799.35 140.589 789.824C143.151 780.298 144.752 770.401 146.89 757.841C152.396 725.478 153.192 676.354 161.606 638.986C166.462 617.376 171.647 606.329 174.842 585.696C178.772 560.257 184.026 533.426 185.498 529.458C202.68 532.423 230.45 542.001 250.879 550.541Z" fill="#FFA9A9"/>
<path d="M238.951 583.57C244.664 568.97 250.594 551.941 250.879 550.541C230.459 542.001 202.681 532.389 185.498 529.458C184.804 531.633 184.226 533.844 183.767 536.08C213.657 533.08 234.069 567.673 238.951 583.57Z" fill="#E85353"/>
<path d="M217.102 268.712C201.884 280.814 152.69 327.405 152.682 330.724C152.639 346.871 162.342 378.508 178.253 377.212C194.163 375.915 228.026 327.275 228.026 327.275L217.102 268.712Z" fill="#231F20"/>
<path d="M159.616 372.838C156.465 377.964 178.201 411.001 194.172 434.046C210.143 457.091 268.123 506.656 276.338 481.277C284.553 455.898 239.774 365.447 239.774 365.447C239.774 365.447 166.056 362.396 159.616 372.838Z" fill="#231F20"/>
<path d="M268.763 442.742C268.763 442.742 256.108 698.915 253.061 701.197C233.03 716.272 132.002 664.158 133.326 652.791C134.651 641.424 181.04 443.779 181.04 443.779L240.016 427.52L268.763 442.742Z" fill="#2929B2"/>
<path d="M232.822 702.805L232.164 702.243C239.037 694.161 256.791 442.258 256.964 439.708L257.83 439.768C257.103 450.167 239.877 694.55 232.822 702.805Z" fill="#1A1A66"/>
<path d="M187.592 374.515C176.062 367.842 140.39 416.559 105.617 436.959C107.92 433.795 105.877 421.011 97.5061 404.613C97.4355 404.457 97.3306 404.319 97.1991 404.208C97.0676 404.098 96.9131 404.019 96.7467 403.977C96.5804 403.934 96.4066 403.93 96.2384 403.964C96.0701 403.998 95.9117 404.069 95.7748 404.172C78.6353 417.821 32.497 492.341 9.2115 478.779C5.49793 478.061 46.7713 522.63 77.7004 528.914C119.987 537.558 153.01 522.725 248.161 443.9C272.632 423.63 202.533 383.168 187.592 374.515Z" fill="#2929B2"/>
<path d="M187.825 419.196C164.453 438.558 150.967 508.765 115.242 529.26C129.612 526.217 145.332 519.233 165.025 506.785C167.925 488.927 176.962 437.495 187.825 419.196Z" fill="#1A1A66"/>
<path d="M268.764 442.742L253.26 434.539C254.377 413.102 200.457 381.975 187.602 374.515C183.81 372.319 177.405 376.114 169.276 382.934C190.45 375.059 217.752 382.571 267.508 486.835C268.469 468.077 268.764 442.742 268.764 442.742Z" fill="#1A1A66"/>
<path d="M290.265 196.44C294.004 190.597 310.174 164.708 313.152 156.954C316.13 149.201 326.483 90.7154 325.02 76.7986C323.557 62.8817 309.032 38.8601 310.789 37.0362C313.922 33.7429 322.492 46.6397 323.072 45.1789C325.591 38.791 321.124 20.6386 324.146 18.3133C324.789 17.7815 325.611 17.5134 326.445 17.5632C327.279 17.6129 328.062 17.9768 328.638 18.5813C328.638 18.5813 329.885 15.7807 335.001 16.7142C338.463 17.3452 339.112 39.8542 340.082 39.9233C342.177 40.0703 343.692 21.0276 345.457 20.9065C349.612 20.7337 347.795 33.5873 349.422 49.0341C350.859 62.5792 348.937 77.7062 348.937 77.7062C348.937 77.7062 353.542 136.745 348.626 165.01C344.722 187.416 328.292 216.287 321.557 227.489C309.871 246.895 290.265 196.44 290.265 196.44Z" fill="#FFA9A9"/>
<path d="M222.659 206.796C222.659 206.796 217.171 193.51 200.637 191.738C187.956 190.381 173.63 203.252 179.395 224.585C146.57 259.766 190.535 294.143 223.265 266.474L222.659 206.796Z" fill="#FFEF60"/>
<path d="M216.816 249.073C221.326 252.203 224.001 259.489 223.283 265.454C222.564 271.418 245.651 254.666 245.651 254.666L248.351 244.682L216.816 249.073Z" fill="#FFA9A9"/>
<path d="M209.044 206.311C210.119 205.695 211.329 205.348 212.568 205.302C213.808 205.255 215.04 205.51 216.159 206.044C219.457 207.548 225.404 210.366 226.694 210.746C227.629 211.04 233.394 210.659 235.35 212.794C237.307 214.93 234.545 217.523 236.476 218.958C243.764 224.403 252.637 229.996 254.022 234.517C257.917 247.37 238.259 259.654 219.397 251.407C213.164 253.032 208.014 250.059 207.529 245.184C206.871 238.614 212.489 239.453 213.147 235.822C213.839 232.045 208.412 220.998 206.906 212.483C206.239 208.965 207.286 207.366 209.044 206.311Z" fill="#FFA9A9"/>
<path d="M221.845 214.938C223.204 215.802 223.325 216.477 222.321 217.531C221.611 218.266 220.278 219.182 219.17 217.211C218.33 215.673 219.551 213.434 221.845 214.938Z" fill="#231F20"/>
<path d="M233.385 218.007C235.358 215.051 236.233 214.351 235.384 212.864C237.167 215.051 234.631 217.601 236.449 218.958C232.606 221.145 232.424 219.45 233.385 218.007Z" fill="#FF8481"/>
<path d="M238.768 220.764C235.911 224.749 227.757 227.316 229.774 230.229C231.791 233.142 244.438 232.745 247.615 227.178C247.615 227.178 242.291 223.297 238.768 220.764Z" fill="white"/>
<path d="M215.292 207.703C217.716 208.17 214.816 219.059 213.388 218.543C212.192 218.11 212.825 206.873 215.292 207.703Z" fill="#FFEF60"/>
<path d="M288.62 190.683C286.024 190.761 261.994 224.049 239.175 245.866C216.357 267.684 204.386 278.385 200.603 286.216C193.531 300.911 197.599 333.758 194.63 339.619C189.705 346.629 186.199 347.9 169.907 360.745C165.735 364.038 159.39 370.046 159.615 372.846C159.615 372.846 173.206 359.31 208.013 392.563C264.383 446.407 279.436 478.476 276.337 481.285C276.337 481.285 280.371 460.704 285.695 409.678C291.936 349.871 299.666 295.388 304.739 281.462C315.273 252.738 327.461 238.994 328.777 236.332C330.093 233.67 293.728 190.527 288.62 190.683Z" fill="#00DC7F"/>
<path d="M224.062 406.273C223.929 406.286 223.796 406.286 223.664 406.273C223.261 406.195 222.905 405.964 222.671 405.628C222.436 405.293 222.342 404.879 222.408 404.475C222.884 401.605 260.262 302.122 273.134 277.408C290.663 243.697 315.464 214.8 315.715 214.506C315.846 214.354 316.006 214.229 316.185 214.139C316.364 214.049 316.56 213.995 316.76 213.981C316.961 213.966 317.162 213.991 317.352 214.055C317.543 214.118 317.719 214.219 317.87 214.351C318.178 214.616 318.367 214.992 318.398 215.397C318.429 215.802 318.298 216.202 318.035 216.512C317.784 216.797 293.208 245.4 275.852 278.817C262.591 304.334 226.338 401.562 225.421 405.097C225.353 405.415 225.184 405.701 224.939 405.913C224.694 406.125 224.386 406.252 224.062 406.273Z" fill="white"/>
<path d="M282.544 196.812C282.544 196.812 286.656 191.297 288.603 190.683C290.551 190.069 300.099 197.175 315.135 210.78C328.189 222.597 332.578 228.933 331.937 230.999C331.331 232.969 328.63 236.634 327.557 238.329C327.574 238.329 301.519 205.3 282.544 196.812Z" fill="white"/>
<path d="M234.147 402.444C202.04 369.787 179.248 359.224 167.346 363.113C164.247 366.061 159.468 370.945 159.616 372.838C159.616 372.838 173.206 359.301 208.022 392.555C260.583 442.768 277.212 474.033 276.701 480.309C277.281 478.459 278.432 473.454 279.48 461.041C273.014 448.196 260.306 429.05 234.147 402.444Z" fill="white"/>
<path d="M276.338 481.277C276.575 481.01 276.705 480.665 276.701 480.309C276.613 480.643 276.491 480.967 276.338 481.277Z" fill="#00DC7F"/>
<path d="M326.424 239.876C318.789 248.58 300.074 265.393 293.746 280.174C289.418 290.236 296.126 309.313 292.993 347.554C297.321 315.277 301.545 290.288 304.774 281.488C312.946 259.178 322.104 245.927 326.424 239.876Z" fill="#04AF61"/>
<path d="M435.242 188.643C431.961 187.26 425.72 175.677 430.957 169.056C434.61 164.475 440.921 166.177 444.331 164.734C447.984 163.152 451.68 154.854 459.09 155.606C467.184 156.427 468.933 161.587 472.075 163.463C475.858 165.711 486.868 164.544 490.599 170.62C494.625 177.164 491.015 181.685 492.547 184.736C494.079 187.787 498.831 190.363 498.849 196.501C498.849 203.165 492.997 205.732 490.746 209.181C489.171 211.593 493.101 217.056 489.396 222.467C485.691 227.878 478.316 226.901 476.749 229.382C475.182 231.863 463.6 240.619 448.183 234.569C432.766 228.518 438.523 186.612 438.523 186.612L435.242 188.643Z" fill="#231F20"/>
<path d="M454.632 236.47C454.363 231.941 454.779 224.688 455.913 223.72C463.703 217.082 418.491 226.089 418.491 226.089C421.712 229.322 404.849 252.574 411.385 253.084C412.977 253.205 416.388 251.096 421.772 248.537C429.528 243.861 442.184 237.473 454.632 236.47Z" fill="#FF8481"/>
<path d="M445.499 231.708C451.065 228.086 443.006 226.599 438.886 227.515L434.159 223.306C425.875 224.62 418.491 226.089 418.491 226.089C419.729 227.334 417.989 231.552 415.756 236.289C423.953 240.17 441.344 234.413 445.499 231.708Z" fill="#E85353"/>
<path d="M420.205 228.457C409.601 224.049 406.355 211.567 410.683 203.26C419.002 187.295 438.297 171.856 446.391 171.156C453.16 170.577 464.829 173.922 468.187 182.393C471.009 189.49 464.413 199.759 460.137 210.547C458.284 215.215 460.89 214.636 464.292 216.494C467.694 218.352 467.685 223.202 463.522 225.622C459.609 227.904 455.921 226.901 453.749 226.374C451.576 225.847 438.574 236.099 420.205 228.457Z" fill="#FF8481"/>
<path d="M423.114 191.971C425.511 192.559 425.962 193.821 430.948 197.78C437.674 203.122 442.331 205.11 443.3 207.807C444.685 211.653 427.632 218.292 418.361 208.472C413.929 203.77 419.902 191.184 423.114 191.971Z" fill="white"/>
<path d="M445.552 189.853C444.037 191.063 444.002 192.075 445.629 193.086C446.642 193.717 447.681 193.596 448.555 192.127C449.585 190.458 447.863 188.012 445.552 189.853Z" fill="#231F20"/>
<path d="M430.653 179.48C429.095 180.621 431.865 180.794 433.102 182.255C434.548 183.984 435.552 185.497 436.089 184.226C436.755 182.661 432.851 177.855 430.653 179.48Z" fill="#231F20"/>
<path d="M439.327 185.013C438.271 184.286 431.536 186.335 430.818 188.47C429.485 192.542 433.51 194.694 434.826 194.296C435.934 193.968 431.813 192.567 433.094 189.507C434.202 186.707 440.651 185.92 439.327 185.013Z" fill="#E85353"/>
<path d="M431.433 175.72C430.697 177.959 442.254 180.397 443.69 177.449C445.95 172.868 432.281 173.162 431.433 175.72Z" fill="#231F20"/>
<path d="M459.775 189.041C462.147 188.176 456.312 176.835 452.85 177.63C447.5 178.875 457.048 190.078 459.775 189.041Z" fill="#231F20"/>
<path d="M105.626 436.959C106.243 435.876 106.543 434.642 106.492 433.398C105.946 435.55 105.626 436.959 105.626 436.959Z" fill="#1A1A66"/>
<path d="M115.658 430.416C112.464 432.577 110.871 433.873 105.626 436.959C107.842 445.871 100.83 466.53 102.163 467.645C103.496 468.76 119.13 463.92 115.658 430.416Z" fill="#1A1A66"/>
<path d="M92.9088 521.869C91.1634 521.884 89.4217 521.707 87.715 521.342C78.5652 519.284 77.8381 502.826 76.9984 483.784C76.2627 467.274 75.4403 448.559 69 435.68L69.7704 435.291C76.2973 448.335 77.1283 467.144 77.8641 483.697C78.7297 502.394 79.4049 518.541 87.9054 520.451C111.277 525.707 168.279 487.492 168.859 487.103L169.344 487.82C169.197 487.915 154.75 497.631 137.584 506.561C118.099 516.752 103.106 521.869 92.9088 521.869Z" fill="#1A1A66"/>
<path d="M133.057 651.771L132.261 651.581L132.399 651.002C157.226 546.409 163.9 518.282 168.704 487.44C178.564 424.252 193.158 408.468 193.305 408.313L193.894 408.875C193.747 409.022 179.317 424.711 169.509 487.535C164.696 518.403 158.022 546.522 133.152 651.157L133.057 651.771Z" fill="#0077FF"/>
<path d="M495.1 266.128C486.626 258.677 466.093 244.691 435.06 249.704C434.707 249.774 434.341 249.707 434.036 249.517C433.73 249.327 433.508 249.029 433.415 248.682C433.322 248.335 433.363 247.965 433.532 247.648C433.701 247.331 433.984 247.09 434.324 246.973C446.443 242.564 469.616 238.934 504.847 253.257C504.847 253.222 511.53 261.745 495.1 266.128Z" fill="#231F20"/>
<path d="M405.135 248.788C403.664 248.952 402.296 254.493 404.849 254.502C407.403 254.51 407.291 248.52 405.135 248.788Z" fill="#231F20"/>
<path d="M419.503 257.276C418.993 255.746 412.864 257.76 413.808 259.118C414.751 260.475 420.508 260.336 419.503 257.276Z" fill="#231F20"/>
<path d="M409.851 286.182C407.867 286.235 405.939 285.523 404.467 284.194C401.126 281.16 400.494 276.561 402.736 271.228C405.601 264.312 412.82 257.683 417.296 257.89C417.516 257.903 417.723 258 417.875 258.161C418.026 258.322 418.11 258.534 418.109 258.754C418.096 258.975 417.999 259.181 417.838 259.332C417.677 259.483 417.465 259.567 417.244 259.567C413.781 259.42 407.159 265.047 404.346 271.859C402.995 275.109 402.138 279.638 405.687 282.888C410.622 287.366 420.135 281.229 429.328 275.299C437.119 270.26 444.503 265.497 450.103 266.188C452.026 266.393 453.861 267.099 455.425 268.235C456.988 269.371 458.225 270.898 459.011 272.663C459.832 274.39 460.341 276.248 460.517 278.152C460.517 278.371 460.434 278.582 460.285 278.742C460.135 278.903 459.931 279.001 459.712 279.016C459.494 279.017 459.283 278.935 459.123 278.788C458.962 278.64 458.864 278.438 458.846 278.221C458.846 277.84 458.188 268.859 449.93 267.848C444.97 267.234 437.526 272.049 430.315 276.691C423.104 281.333 415.599 286.182 409.851 286.182Z" fill="#0C6EFF"/>
<path d="M458.441 273.406C456.882 273.043 457.099 275.083 457.688 280.321C458.276 285.56 458.873 288.965 460.501 289.078C462.128 289.19 462.232 286.389 461.47 279.759C460.709 273.129 459.471 273.648 458.441 273.406Z" fill="#2929B2"/>
<path d="M429.52 311.621C429.302 311.623 429.092 311.542 428.931 311.396C428.772 311.235 428.684 311.017 428.684 310.791C428.684 310.565 428.772 310.348 428.931 310.186C429.061 310.056 441.31 296.805 437.388 287.176C434.324 279.638 428.247 279.949 421.807 280.261C416.613 280.52 411.263 280.797 407.541 276.803C399.387 267.978 404.382 252.047 404.607 251.372C404.68 251.16 404.833 250.985 405.033 250.883C405.233 250.782 405.465 250.762 405.68 250.828C405.892 250.901 406.068 251.054 406.17 251.254C406.272 251.454 406.292 251.685 406.225 251.9C406.225 252.055 401.317 267.554 408.822 275.645C412.008 279.102 416.734 278.843 421.746 278.592C428.169 278.264 435.458 277.892 438.981 286.553C443.309 297.186 430.732 310.8 430.195 311.37C430.107 311.458 430.001 311.526 429.885 311.569C429.768 311.612 429.644 311.63 429.52 311.621Z" fill="#0C6EFF"/>
<path d="M432.384 306.487C431.519 305.147 430.255 306.763 427.008 310.964C423.762 315.165 421.867 317.975 422.94 319.211C424.013 320.447 426.056 318.476 430.125 313.16C434.193 307.844 432.955 307.377 432.384 306.487Z" fill="#2929B2"/>
<path d="M521.727 498.937C519.71 498.072 517.597 499.732 509.902 502.282C502.206 504.832 497.004 508.626 488.633 508.246C480.263 507.866 489.404 543.825 497.021 545.554C504.639 547.282 514.776 550.558 521.614 553.93C533.845 559.98 568.194 579.939 577.222 580.207C585.524 580.458 592.605 574.589 592.302 568.694C592.059 564.026 521.727 498.937 521.727 498.937Z" fill="#00DC7F"/>
<path d="M592.302 568.693C592.06 564.017 521.727 498.936 521.727 498.936C519.71 498.072 517.598 499.732 509.903 502.282C508.171 502.869 506.501 503.518 504.934 504.166C502.926 508.799 504.224 515.732 514.283 519.829C527.432 525.171 544.511 534.792 553.548 548.19C560.473 558.485 571.501 573.603 579.015 580.173C586.511 579.585 592.588 574.156 592.302 568.693Z" fill="#231F20"/>
<path d="M520.559 498.781C513.452 500.423 511.262 503.768 537.872 524.185C558.708 540.142 574.609 576.533 589.048 572.903C597.817 570.707 589.749 553.221 573.467 537.618C555.487 520.373 529.934 496.602 520.559 498.781Z" fill="white"/>
<path d="M503.912 528.196C507.089 526.416 501.315 511.98 505.34 503.993C500.605 505.938 496.485 507.917 491.161 508.22C489.231 510.234 488.383 514.081 490.564 520.045C493.083 526.917 500.363 530.184 503.912 528.196Z" fill="#231F20"/>
<path d="M494.658 544.015C495.283 544.741 496.103 545.275 497.021 545.553C504.648 547.282 514.776 550.558 521.614 553.929C529.526 557.836 546.665 567.552 560.247 574.018C542.147 552.209 502.761 545.493 494.658 544.015Z" fill="white"/>
<path d="M505.807 624.257C505.634 624.196 488.079 617.852 468.585 608.974C442.339 597.011 425.303 586.379 417.85 577.381C394.591 549.158 424.602 478.969 439.024 445.24C442.599 436.872 445.187 430.83 445.473 428.816L447.204 429.067C446.884 431.288 444.399 437.097 440.634 445.897C426.342 479.314 396.608 548.855 419.201 576.265C436.513 597.296 505.703 622.364 506.405 622.615L505.807 624.257Z" fill="#231F20"/>
<path d="M432.359 463.583C426.49 463.462 421.625 461.43 417.903 457.532C409.558 448.81 409.844 433.942 409.861 433.329L411.592 433.372C411.592 433.519 411.324 448.17 419.167 456.356C420.882 458.125 422.94 459.526 425.216 460.472C427.492 461.419 429.937 461.892 432.402 461.862L432.359 463.583Z" fill="#231F20"/>
<path d="M568.964 465.372L585.316 495.073C585.316 495.073 589.644 492.868 587.757 489.497C588.767 489.319 589.679 488.785 590.327 487.992C590.975 487.198 591.317 486.199 591.289 485.175C590.761 479.877 568.964 465.372 568.964 465.372Z" fill="#E85353"/>
<path d="M538.175 354.746C540.724 358.71 543.006 362.84 545.005 367.107C543.983 351.003 540.98 334.182 534.834 320.525C529.12 307.826 518.984 294.195 508.951 282.266C503.858 285.863 498.515 289.092 492.963 291.93C483.605 296.675 473.817 300.521 463.73 303.418C473.824 306.307 483.618 310.151 492.98 314.897C512.353 324.829 527.571 338.245 538.175 354.746Z" fill="white"/>
<path d="M407.204 388.224C400.279 349.534 378.889 321.406 360.39 303.599L360.2 303.418L360.399 303.228C378.898 285.421 400.313 257.302 407.212 218.603H379.4C375.873 234.051 369.376 248.667 360.269 261.642C361.932 268.052 361.797 274.795 359.88 281.134C356.417 292.933 353.526 312.581 350.946 333.179C362.728 346.794 374.223 365.162 379.391 388.224H407.204Z" fill="white"/>
<path d="M372.301 436.959C378.551 436.596 386.073 435.792 394.487 434.746C388.003 418.651 378.68 403.849 366.96 391.042C366.065 390.074 365.162 389.123 364.251 388.19H344.341C343.969 390.895 343.605 393.445 343.25 395.814C343.181 396.22 343.129 396.635 343.077 397.067C355.452 408.225 365.399 421.803 372.301 436.959Z" fill="white"/>
<path d="M453.809 388.224H408.796C416.105 391.654 423.024 395.859 429.433 400.767C438.929 408.073 447.061 416.995 453.454 427.122C457.038 426.713 460.633 426.327 464.24 425.964C469.693 423.016 471.667 416.663 471.762 408.771C466.538 401.295 460.519 394.406 453.809 388.224Z" fill="white"/>
<path d="M401.569 149.979C399.335 144.351 397.111 138.914 394.903 133.814H383.226C377.686 167.716 361.585 193.458 342.489 210.253C343.257 213.192 344.045 215.981 344.853 218.62H364.269C365.18 217.687 366.081 216.736 366.969 215.768C379.763 201.843 394.219 180.397 401.569 149.979Z" fill="white"/>
<path d="M352.418 316.194L351.553 316.09C359.014 254.83 395.536 223.453 395.908 223.141L396.453 223.798C396.107 224.101 359.854 255.28 352.418 316.194Z" fill="#0077FF"/>
<path d="M329.616 81.0599C333.235 80.2992 339.684 81.2587 341.164 82.296C342.644 83.3333 348.409 82.6331 348.955 82.3565L349.673 81.9762C349.673 81.9762 350.47 81.9762 350.478 84.6731C350.564 86.9888 350.401 89.307 349.993 91.5883C349.465 93.1442 343.328 92.1069 342.004 92.6255C340.679 93.1442 338.23 95.3398 330.023 94.3543C323.548 93.4554 329.616 81.0599 329.616 81.0599Z" fill="#00DC7F"/>
<path d="M323.498 81.6132C324.528 80.9389 336.949 80.5845 338.862 83.342C339.884 84.846 339.191 92.7293 338.17 93.7147C337.019 94.8471 323.021 94.5791 322.277 92.4614C320.901 88.7099 321.827 82.7369 323.498 81.6132Z" fill="white"/>
<path d="M171.146 253.119C167.467 241.631 148.744 230.316 134.928 246.333C123.207 259.913 135.101 283.035 154.041 280.511C168.099 278.644 175.474 266.543 171.146 253.119Z" fill="#FFEF60"/>
<path d="M134.227 250.932C130.963 240.775 110.162 231.215 102.198 244.881C94.2343 258.547 105.514 277.935 121.978 273.977C134.131 271.098 138.035 262.817 134.227 250.932Z" fill="#FFEF60"/>
<path d="M101.246 243.463C99.2115 237.11 86.201 231.128 81.1976 239.703C76.1943 248.278 83.2752 260.38 93.5762 257.907C101.194 256.075 103.626 250.897 101.246 243.463Z" fill="#FFEF60"/>
<path d="M103.375 250.041C98.5531 251.182 96.2765 237.94 102.509 238.804C108.742 239.669 109.581 248.563 103.375 250.041Z" fill="#00DC7F"/>
</g>
<defs>
<clipPath id="clip0_720_6662">
<rect width="598" height="589" fill="white" transform="translate(0 0.713501)"/>
</clipPath>
</defs>
</svg>
