<svg width="32" height="30" viewBox="0 0 32 30" fill="none" xmlns="http://www.w3.org/2000/svg">
<path d="M14.4516 2.70155C15.1447 1.08654 17.4344 1.08654 18.1275 2.70154L20.6761 8.6404C20.9656 9.31478 21.6011 9.77649 22.3318 9.84334L28.7676 10.4321C30.5178 10.5922 31.2253 12.7698 29.9035 13.928L25.0429 18.1871C24.491 18.6708 24.2482 19.4179 24.4105 20.1335L25.8393 26.4363C26.2279 28.1502 24.3755 29.496 22.8655 28.5968L17.3128 25.2903C16.6823 24.9148 15.8968 24.9148 15.2663 25.2903L9.71356 28.5968C8.20356 29.496 6.35122 28.1502 6.73977 26.4363L8.16861 20.1335C8.33086 19.4179 8.08812 18.6708 7.53619 18.1871L2.67559 13.928C1.3538 12.7698 2.06133 10.5922 3.81147 10.4321L10.2473 9.84334C10.9781 9.77649 11.6135 9.31478 11.903 8.64041L14.4516 2.70155Z" stroke="white" stroke-width="2"/>
</svg>
