<svg width="1440" height="631" viewBox="0 0 1440 631" fill="none" xmlns="http://www.w3.org/2000/svg">
<path d="M-0.425781 0.288086L1439.57 0.288086V630.288L-0.425781 630.288L-0.425781 0.288086Z" fill="url(#paint0_linear_802_153)"/>
<path d="M-0.425781 0.288086L1439.57 0.288086V630.288L-0.425781 630.288L-0.425781 0.288086Z" fill="#2E2EDE"/>
<mask id="mask0_802_153" style="mask-type:alpha" maskUnits="userSpaceOnUse" x="-1" y="0" width="1442" height="629">
<path d="M-0.425781 0.288086H1440.2V628.253H-0.425781V0.288086Z" fill="#0077FF"/>
</mask>
<g mask="url(#mask0_802_153)">
<path opacity="0.3" d="M692.727 1818.61L931.016 1681.03C1170.1 1543 1409.18 1404.97 1648.26 1266.93C1802.43 1177.92 1956.59 1088.91 2110.76 999.904L2163.16 1090.66C2160.32 1092.31 2157.48 1093.95 2154.61 1095.6L1461.43 1495.81C1378.11 1543.91 1294.8 1592.01 1211.48 1640.12C1058.04 1728.71 904.592 1817.3 751.135 1905.9C749.103 1907.07 747.174 1908.47 745.034 1909.85L692.727 1818.61ZM547.609 1567.9C621.57 1518.25 695.854 1471.23 771.104 1425.19L777.585 1435.38C816.226 1410.22 854.526 1385.26 893.032 1360.61C931.538 1335.95 970.315 1311.77 1009.1 1287.3L1016.19 1298.39C1092.55 1246.53 1170.24 1197.57 1249.02 1149.24L1254.8 1159.26C1332.48 1109.57 1409.71 1060.16 1487.27 1010.57L1494.8 1022.03C1570.7 970.407 1647.94 921.884 1726.03 873.806L1732.95 884.455C1745.74 875.99 1757.97 867.756 1770.33 859.682C1794.92 843.607 1819.49 827.511 1844.18 811.607C1864.72 798.377 1885.36 785.281 1906.1 772.32C1924.05 761.133 1942.2 750.256 1960.25 739.262L2012.06 828.995C2010.93 829.848 2009.86 830.808 2008.64 831.567C1987.37 844.844 1966.02 857.972 1944.83 871.398C1916.03 889.651 1887.27 907.968 1858.66 926.563C1836.1 941.211 1813.85 956.339 1791.47 971.252C1789 972.905 1786.6 974.663 1783.57 976.78L1776.47 964.474C1699.01 1014.15 1622.19 1063.43 1545 1112.93L1537.91 1102.18C1460.21 1152.02 1383.03 1201.54 1305.69 1251.15L1298.71 1240.31C1221.09 1290.08 1143.91 1339.59 1066.43 1389.31L1059.44 1378.45C982.287 1427.95 905.504 1477.21 828.187 1526.78L821.611 1516.67C746.928 1563.29 672.633 1609.21 600.414 1658.77L547.609 1567.9ZM399.34 1311.09L402.597 1316.73C472.861 1261.66 545.919 1212.08 620.564 1163.31L633.269 1185.32C705.765 1127.8 781.5 1076.38 858.715 1025.84L871.482 1047.96C944.13 990.203 1020.27 938.551 1097.95 887.691L1110.7 909.761C1183.5 851.976 1259.59 800.294 1337.41 749.414L1350.12 771.442C1422.62 713.919 1498.38 662.489 1575.57 611.967L1588.26 633.952C1600.47 624.571 1612.02 615.395 1623.83 606.669C1647.83 588.993 1671.74 571.4 1695.98 554.13C1715.2 540.413 1734.68 527.11 1754.26 513.903C1772.46 501.595 1790.93 489.681 1809.27 477.608L1861.69 568.389C1785.58 618.027 1710.6 669.232 1639.59 727.296L1626.08 703.901C1548.95 754.729 1472.98 805.939 1401.42 864.688L1387.93 841.315C1310.42 892.419 1234.07 943.818 1162.25 1002.95L1148.68 979.446C1071.08 1030.6 994.652 1082.1 922.909 1141.13L909.341 1117.63C832.066 1168.65 756.072 1219.82 684.503 1278.6L671.231 1255.61C670.275 1256.04 669.344 1256.52 668.442 1257.05C629.859 1283.2 590.892 1308.83 552.839 1335.7C521.527 1357.85 491.373 1381.62 460.495 1404.37C455.864 1407.76 456.496 1410.19 458.935 1414.36L399.34 1311.09ZM253.702 1058.89L257.193 1064.93C323.919 1004.87 395.452 952.349 469.155 901.707L488.065 934.459C556.79 871.194 630.973 816.941 707.465 764.118L726.462 797.021C795.283 733.529 870.007 678.878 946.759 625.962L965.706 658.779C1034.41 595.437 1109.07 540.857 1185.96 487.8L1204.07 519.164C1240.23 489.745 1275.43 460.073 1311.72 431.629C1348.01 403.186 1385.43 376.598 1424.3 350.453L1443.11 383.035C1445.03 381.416 1446.38 380.262 1447.78 379.117C1477.93 353.818 1507.68 328.069 1538.34 303.413C1561.51 284.793 1585.74 267.501 1609.69 249.828C1625.58 238.202 1641.96 227.265 1658.19 216.127L1710.61 306.907C1635.63 359.34 1561.62 413.008 1495.74 478.478L1474.91 442.414C1398.67 496.062 1323.77 549.817 1257.49 615.743L1236.77 579.849C1160.16 633.652 1084.85 687.73 1018.31 753.947L997.554 717.99C920.828 771.888 845.584 825.984 778.923 892.33L758.102 856.266C681.986 909.84 607.087 963.595 540.798 1029.5L520.605 994.524C516.421 996.652 512.353 999.001 508.418 1001.56C476.12 1025.16 443.714 1048.63 411.718 1072.66C378.005 1097.79 345.834 1124.92 315.381 1153.92C312.024 1157.14 311.703 1159.54 314.121 1163.73L253.702 1058.89ZM108.35 807.031C109.337 808.741 110.483 810.33 111.761 812.298C174.561 747.411 244.773 692.402 317.904 639.583L342.833 682.762C407.24 614.241 480.27 557.15 556.248 502.004L581.288 545.375C645.941 476.342 719.326 419.075 795.477 363.885L820.555 407.32C852.453 373.074 886.68 341.072 922.992 311.544C958.957 281.749 995.916 253.232 1034.75 225.94L1059.58 268.948C1124.01 200.414 1197.04 143.323 1273.02 88.1769L1298.02 131.484C1299.12 130.478 1299.6 130.118 1300 129.684C1331.47 95.9286 1365.28 64.4329 1401.18 35.432C1425.76 15.2896 1450.93 -4.11511 1476.07 -23.5839C1486.1 -31.3412 1496.73 -38.3608 1507.09 -45.6852L1559.51 45.0953C1484.97 99.9777 1412.06 156.685 1352.16 229.412L1323.79 180.272C1248.32 236.781 1174.11 293.214 1113.91 366.654L1085.65 317.706C1009.74 374.352 935.145 431.151 874.557 505.101L846.186 455.961C770.378 512.634 695.745 569.369 635.338 643.386L606.967 594.246C531.481 650.59 457.261 707.2 396.895 780.795L368.82 732.168C367.407 733.126 366.53 733.632 365.727 734.266C333.615 759.131 301.06 783.424 269.553 808.993C233.948 837.417 200.943 868.952 170.928 903.223C167.896 906.712 167.074 909.237 169.71 913.754L108.35 807.031ZM-37.8397 553.922L-34.4722 559.754C24.8289 489.994 93.5722 432.045 166.478 377.504L197.23 430.767C257.351 357.143 328.994 297.007 404.737 239.974L435.636 293.493C496.128 219.228 568.074 158.974 643.877 101.849L674.715 155.262C735.238 81.1491 807.183 20.6965 883.342 -36.4064L914.094 16.8568C974.227 -56.7458 1045.85 -116.869 1121.4 -173.736L1152.24 -120.324C1153.83 -122.011 1154.93 -123.162 1155.99 -124.342C1177.02 -147.167 1197.13 -170.655 1218.97 -192.522C1252.44 -226.091 1288.92 -256.381 1326.14 -285.732C1335.77 -293.288 1346.05 -300.077 1355.99 -307.264L1408.4 -216.484C1406.17 -215.001 1403.83 -213.677 1401.75 -212.048C1364.45 -183.505 1328.7 -152.986 1294.66 -120.623C1263.36 -90.3028 1233.43 -58.805 1211.19 -20.9286C1210.47 -20.0846 1209.66 -19.3267 1208.76 -18.6703L1172.56 -81.3772C1134.53 -52.8825 1098.08 -22.3312 1063.39 10.14C1028.75 42.8175 995.934 77.087 970.773 119.274L934.125 55.7987C858.847 115.612 784.105 174.774 731.185 257.316L695.117 194.845C694.476 195.026 693.86 195.286 693.283 195.618C660.177 223.107 626.327 249.8 594.209 278.457C555.984 312.434 520.43 349.112 494.115 393.647C493.55 394.269 492.911 394.82 492.212 395.287L455.761 332.153C380.758 391.751 306.446 450.721 253.671 532.724L217.751 470.509C216.964 470.771 216.203 471.106 215.478 471.508C177.644 500.018 141.332 530.491 106.69 562.803C77.1809 590.694 49.0523 620.038 25.938 653.723C24.7097 655.171 24.0086 656.992 23.9491 658.889C23.8897 660.786 24.4754 662.646 25.6106 664.167L-37.8397 553.922ZM-184.19 300.534C-183.129 302.372 -181.919 304.123 -180.443 306.433C-153.232 269.556 -122.71 235.238 -89.2579 203.907C-56.2628 172.244 -21.3226 142.671 15.3582 115.361L51.525 178.004C107.553 99.3648 177.604 36.2741 253.591 -22.4103L290.029 40.7019C346.111 -38.3383 416.452 -101.568 492.509 -160.378L528.947 -97.2659C585.166 -176.414 655.623 -239.739 731.809 -298.623L768.173 -235.639C824.198 -314.333 894.258 -377.458 970.181 -436.105L1006.57 -373.078C1007.82 -374.568 1008.5 -375.272 1009.1 -376.049C1019.71 -389.866 1029.96 -404.104 1041.01 -417.461C1077.8 -461.831 1119.73 -500.995 1163.79 -537.944C1176.97 -548.997 1190.81 -559.24 1204.33 -569.894L1256.73 -479.135C1255.06 -477.63 1253.45 -476.019 1251.69 -474.63C1211.42 -443.192 1173.78 -408.539 1139.12 -371.014C1110.68 -339.804 1084.32 -307.095 1067.92 -267.548C1067.42 -266.859 1066.81 -266.248 1066.12 -265.737L1021.71 -342.651C1020.74 -342.347 1019.8 -341.939 1018.91 -341.432C1016.75 -339.843 1014.68 -338.193 1012.59 -336.53C970.051 -303.334 930.457 -266.53 894.248 -226.529C870.834 -200.277 849.213 -172.696 833.893 -140.72C832.112 -136.843 830.416 -133.015 828.01 -127.751L783.258 -205.264C781.33 -204.312 779.466 -203.236 777.677 -202.042C738.086 -170.382 699.965 -137.064 665.498 -99.7869C635.31 -67.1459 607.198 -32.8836 589.783 8.64871C589.665 8.888 589.121 9.03174 588.026 9.40731L543.62 -67.5073C540.217 -64.8589 537.467 -62.7588 534.763 -60.628C493.698 -28.5417 455.359 6.88596 420.137 45.2912C392.524 75.8755 367.024 107.946 351.045 146.484C350.502 147.13 349.865 147.691 349.154 148.146L304.452 70.719C301.122 73.2965 298.369 75.3415 295.665 77.4723C255.262 109.054 217.486 143.859 182.709 181.544C154.574 212.458 128.647 244.975 112.187 283.962C112.072 284.257 111.545 284.332 110.605 284.876L66.5558 208.581C64.5507 209.563 62.6149 210.681 60.7617 211.926C20.8561 243.882 -17.5239 277.493 -52.2257 315.104C-77.6556 342.605 -101.237 371.432 -118.817 404.827C-119.763 406.342 -120.241 408.102 -120.189 409.887C-120.138 411.672 -119.56 413.401 -118.528 414.858L-184.19 300.534ZM-330.791 47.2065C-329.829 48.873 -328.675 50.4279 -327.325 52.4689C-276.006 -26.1293 -209.776 -89.3211 -136.517 -147.2L-94.7497 -74.8572C-69.4226 -116.856 -39.1574 -153.757 -5.89392 -188.231C27.621 -222.905 63.6345 -255.075 101.856 -284.482L143.586 -212.204C195.355 -296.048 264.509 -362.124 340.8 -422.75L382.74 -350.109C408.2 -392.469 438.669 -429.66 472.192 -464.425C505.784 -499.23 541.929 -531.477 580.327 -560.899L621.909 -488.877C673.564 -572.227 742.382 -637.996 818.515 -698.502L860.232 -626.245C868.375 -638.41 875.696 -650.072 883.724 -661.201C931.086 -727.003 989.197 -782.233 1052.46 -832.345L1105.5 -740.475C1098.98 -735.174 1092.34 -730.03 1085.96 -724.549C1044.04 -688.525 1004.89 -649.773 972.124 -605.015C952.225 -577.858 934.907 -549.343 926.369 -516.383C925.971 -514.9 925.46 -513.465 924.493 -510.4L869.613 -605.453C867.337 -603.569 865.769 -602.237 864.198 -600.959C821.06 -565.713 780.81 -527.491 746.026 -483.849C720.173 -451.404 697.349 -417.117 686.719 -376.227C686.638 -375.923 686.078 -375.856 685.193 -375.117L631.461 -468.184C626.866 -464.391 622.911 -461.168 619.003 -457.914C575.85 -422.004 535.648 -383.154 501.269 -338.664C477.838 -308.244 457.561 -276.112 447.691 -238.252C447.573 -237.814 446.987 -237.447 446.125 -236.521L392.121 -330.058C385.915 -324.908 380.184 -320.317 374.61 -315.504C332.882 -280.188 293.88 -242.174 260.746 -198.488C237.871 -168.389 217.857 -136.693 208.707 -99.3625C208.589 -98.9244 207.944 -98.6091 207.087 -97.7725L153.195 -191.117C152.4 -190.914 152.155 -190.944 151.996 -190.824C146.449 -186.31 140.809 -181.858 135.357 -177.229C93.6811 -141.772 54.6423 -103.822 21.4716 -60.2004C-0.967403 -30.5804 -20.6476 0.608861 -29.9629 37.2087C-30.0804 37.6469 -30.7252 37.9621 -31.805 38.9558L-85.5865 -54.1964C-90.0229 -50.5241 -93.7726 -47.3904 -97.5561 -44.266C-139.166 -9.73103 -177.857 27.7342 -211.606 70.0085C-231.836 95.5046 -249.66 122.602 -261.996 152.884C-263.197 155.312 -263.742 158.012 -263.577 160.715C-263.411 163.418 -262.541 166.03 -261.053 168.293L-330.791 47.2065ZM-474.462 -201.689C-451.264 -242.467 -423.33 -280.367 -391.241 -314.601C-359.548 -348.98 -325.127 -380.743 -288.314 -409.577L-241.626 -328.711C-194.331 -416.551 -126.688 -485.145 -50.2028 -547.165L-3.19363 -465.743C44.2213 -554.165 112.193 -623.177 189.237 -685.463L236.111 -604.275C283.481 -692.529 351.527 -761.413 428.702 -823.718L475.415 -742.808C522.695 -830.526 590.427 -899.115 666.933 -961.147L713.807 -879.959C714.4 -880.624 714.945 -881.329 715.439 -882.07C743.149 -934.902 779.628 -981.287 821.835 -1023.03C847.253 -1048.13 874.481 -1071.09 900.92 -1095.01L953.962 -1003.14C944.056 -994.577 934.086 -985.972 924.429 -977.121C884.047 -939.819 847.173 -899.5 818.601 -852.21C803.646 -827.452 791.519 -801.45 786.145 -772.738C785.202 -767.607 784.529 -762.404 783.761 -757.118L782.501 -756.732L718.358 -867.831C708.321 -859.045 698.918 -851.138 689.987 -842.905C648.242 -804.902 610.257 -763.743 580.625 -715.327C565.854 -691.189 553.948 -665.741 548.06 -637.871C546.865 -632.139 546.148 -626.37 544.77 -618.88L480.294 -730.556C471.609 -723.034 463.468 -716.198 455.595 -709.145C415.895 -673.576 379.467 -635.053 349.95 -590.437C328.091 -557.392 310.781 -522.443 306.229 -482.383C306.328 -482.212 305.63 -482.037 304.69 -481.494L240.991 -591.824C239.266 -590.515 238.088 -589.692 237.035 -588.8C233.423 -585.774 229.798 -582.77 226.21 -579.701C184.004 -542.941 145.074 -502.974 113.654 -456.518C93.3692 -426.575 76.535 -394.949 69.5962 -358.924C68.6102 -353.768 67.9583 -348.578 66.8489 -341.414L1.69443 -454.264C-9.64143 -444.273 -20.4848 -435.107 -30.861 -425.527C-70.9755 -388.55 -107.611 -348.512 -136.112 -301.69C-153.555 -273.045 -167.269 -242.88 -171.011 -209.07C-171.097 -208.28 -171.749 -207.533 -172.585 -205.968L-236.407 -316.511C-240.13 -313.479 -243.477 -310.834 -246.696 -308.064C-288.639 -272.083 -327.11 -233.15 -359.05 -187.989C-379.812 -158.625 -397.301 -127.59 -406.055 -92.3393C-406.829 -89.1863 -406.512 -89.4268 -404.77 -82.1142L-474.462 -201.689Z" fill="#0066DE"/>
</g>
<defs>
<linearGradient id="paint0_linear_802_153" x1="1957.57" y1="-230.356" x2="985.025" y2="1269.35" gradientUnits="userSpaceOnUse">
<stop/>
<stop offset="1" stop-color="#231F20"/>
</linearGradient>
</defs>
</svg>
