<svg width="1440" height="579" viewBox="0 0 1440 579" fill="none" xmlns="http://www.w3.org/2000/svg">
<path d="M1526.96 576.176L-257.692 578.564C-257.692 578.564 -260.695 561.655 -296.621 512.683C-107.727 495.21 1336.72 371.833 1525.62 354.359C1536.18 366.315 1521.37 402.258 1532.1 415.133C1574.85 466.634 1526.96 576.176 1526.96 576.176Z" fill="#2E2EDE"/>
<path d="M1100.73 464.162C1083.54 455.201 1066.21 446.09 1048.88 436.979C1042.15 433.394 1035.28 429.81 1028.55 426.225C1047.53 424.433 1066.66 422.491 1085.93 420.55C1116.57 417.413 1146.9 413.978 1176.78 410.543C1201.14 420.55 1225.65 430.557 1250 440.564C1200.24 448.33 1150.49 456.246 1100.73 464.162Z" fill="#2D54A0"/>
<path d="M1100.73 458.038C1083.54 449.076 1066.21 439.966 1048.88 430.855C1042.15 427.27 1035.28 423.686 1028.55 420.101C1047.53 418.309 1066.66 416.367 1085.93 414.425C1116.57 411.289 1146.9 407.854 1176.78 404.419C1201.14 414.425 1225.65 424.432 1250 434.439C1200.24 442.206 1150.49 450.122 1100.73 458.038Z" fill="#0077FF"/>
<path d="M1198.6 420.549C1188.74 434.29 1149.44 428.167 1124.34 409.049C1111.04 398.893 1103.71 386.645 1099.83 378.58C1098.49 392.022 1097.14 405.464 1095.65 418.906C1096.24 416.218 1096.69 412.484 1094.75 409.945C1091.01 405.016 1081.45 409.049 1070.69 409.049C1054.11 409.198 1034.23 410.094 1007.63 404.419C999.864 402.776 993.439 400.984 989.255 399.639C990.002 402.328 991.795 410.841 987.312 418.757C986.267 420.549 984.473 423.537 980.588 425.777C976.703 428.017 972.818 428.167 971.175 428.167C947.864 424.134 928.439 420.998 914.393 418.757C899.749 416.367 887.197 413.38 868.818 412.484C858.358 412.036 846.855 413.5 840.878 413.799C836.097 374.369 841.623 340.643 845.508 316.895C846.852 308.83 848.347 301.362 850.289 294.044C858.657 261.036 867.921 224.443 895.715 210.403C901.99 207.267 912.749 203.384 929.036 204.877C930.83 195.617 938.151 189.344 945.772 189.344C952.646 189.344 957.278 194.721 958.025 195.617C969.68 196.513 980.738 197.409 991.048 198.306C1000.61 199.052 1010.32 200.098 1019.89 200.845C1031.09 201.741 1035.28 208.611 1041.85 206.072C1044.99 204.877 1046.93 202.637 1048.28 200.845C1048.73 200.994 1054.11 202.039 1056.35 207.267C1058.29 211.748 1056.2 215.78 1055.9 216.378C1058.29 216.826 1061.88 217.573 1066.36 218.618C1078.31 221.456 1087.58 224.592 1089.67 225.489C1108.5 233.106 1114.62 251.178 1141.82 295.239C1149.89 308.233 1155.57 317.792 1159.9 325.11C1171.26 344.078 1176.93 353.637 1180.67 360.806C1193.97 386.197 1206.67 409.348 1198.6 420.549Z" fill="#FF3985"/>
<path d="M934.566 211.15C927.543 210.105 920.67 209.507 914.095 209.059C913.497 207.117 913.049 204.877 912.601 202.487C912.003 198.604 912.003 195.169 912.302 192.331C912.451 189.941 912.899 186.655 914.693 183.071C919.474 173.512 943.083 166.044 970.727 164.999C979.244 164.7 991.049 164.849 1005.24 166.94C1006.59 167.986 1007.93 169.629 1009.13 171.57C1013.01 177.993 1011.67 184.863 1011.22 186.954C1013.91 185.759 1023.18 182.324 1032.44 186.357C1032.44 186.357 1036.32 188.149 1039.31 190.987C1047.08 198.903 1043.95 220.56 1032.14 244.756C1007.04 230.567 974.164 216.826 934.566 211.15Z" fill="#FF3985"/>
<path d="M918.129 183.817C917.83 180.083 923.21 175.901 926.198 173.512C931.727 169.18 937.704 167.239 943.83 166.044C963.405 162.459 987.014 166.641 993.589 167.836C1004.65 179.635 1015.55 191.434 1026.61 203.234C1024.97 210.104 1023.32 216.825 1021.53 223.696C1014.51 219.364 1006.29 214.734 996.727 210.403C986.118 205.623 976.256 202.188 967.589 199.799C927.543 194.571 918.428 188.597 918.129 183.817Z" fill="#212121"/>
<path d="M1065.31 151.406C1065.31 151.406 1084.29 145.88 1096.1 124.372C1103.42 110.93 1102.37 93.9034 1085.79 89.572C1084.74 76.1299 1068.45 69.5581 1048.43 78.5196C1007.34 60.8954 970.728 89.8707 1000.46 136.918C1012.87 156.484 1065.31 151.406 1065.31 151.406Z" fill="#FFFF4D"/>
<path d="M993.59 172.915C986.716 153.199 981.935 126.912 990.153 99.7294C990.9 97.489 991.498 95.2487 992.394 93.1577C1005.69 98.5345 1018.99 104.061 1032.29 109.438C1019.29 130.646 1006.44 151.855 993.59 172.915Z" fill="#FFFF4D"/>
<path d="M999.268 146.03C1015.26 162.46 1031.25 178.739 1047.23 195.169C1046.64 202.487 1045.14 211.299 1042.45 220.709C1040.66 226.982 1038.57 232.658 1036.47 237.736C1029.15 231.164 1019.29 223.397 1006.74 216.378C995.084 209.806 984.176 205.325 975.21 202.487C977.302 199.5 979.693 195.916 982.233 191.734C982.233 191.734 985.67 185.759 988.659 179.337C994.935 165.745 998.222 151.258 999.268 146.03Z" fill="#FFA9A9"/>
<path d="M996.278 138.413C1000.16 136.77 1003.75 142.296 1004.2 143.192C1008.83 146.627 1012.57 133.036 1015.85 125.419C1026.61 101.372 1037.67 102.866 1050.67 106.002C1070.54 110.931 1073.53 124.074 1069.65 169.18C1068 187.252 1062.77 204.279 1049.77 211.448C1037.67 218.02 1023.77 213.539 1019.89 212.195C1016.45 211 1005.69 206.968 999.118 195.766C989.106 178.888 997.623 160.368 998.37 158.725C997.623 158.427 996.577 158.128 995.382 157.381C991.796 154.693 984.623 143.491 996.278 138.413Z" fill="#FFA9A9"/>
<path d="M1042 168.583C1053.51 170.823 1062.77 168.583 1062.77 176.051C1062.77 183.518 1053.96 198.155 1039.46 195.019C1022.73 191.434 1017.35 173.063 1020.93 168.284C1024.52 163.505 1033.34 166.94 1042 168.583Z" fill="white"/>
<path d="M1046.19 140.653C1048.43 140.503 1051.57 152.452 1048.58 155.738C1045.59 159.024 1038.87 158.128 1038.72 156.485C1038.57 154.842 1044.69 155.439 1045.74 152.153C1048.13 145.731 1044.39 140.653 1046.19 140.653Z" fill="#E85353"/>
<path d="M1031.1 137.368C1033.64 138.115 1035.58 142.595 1033.64 144.089C1031.84 145.433 1025.87 144.238 1025.12 142.595C1024.37 140.803 1027.21 136.173 1031.1 137.368Z" fill="#212121"/>
<path d="M1061.13 143.043C1063.37 143.79 1065.31 147.972 1063.52 149.316C1061.73 150.511 1056.35 149.465 1055.6 147.972C1054.85 146.329 1057.54 141.848 1061.13 143.043Z" fill="#212121"/>
<path d="M1038.12 126.912C1039.61 133.335 1021.08 134.38 1020.34 130.198C1019.59 125.718 1036.32 118.847 1038.12 126.912Z" fill="#FFFF4D"/>
<path d="M1069.65 139.906C1067.56 143.939 1053.81 135.575 1056.65 131.393C1060.08 126.016 1071.74 135.873 1069.65 139.906Z" fill="#FFFF4D"/>
<path d="M1070.54 159.174C1068.9 159.622 1066.66 160.219 1063.97 160.667C1057.54 161.563 1052.61 161.265 1047.53 160.667C1037.22 159.622 1025.57 157.979 1014.81 153.647C1012.72 152.901 1009.88 151.556 1008.83 148.868C1007.78 146.18 1008.83 143.192 1010.18 139.458C1011.07 137.069 1011.97 135.276 1012.57 134.082C1013.76 128.854 1015.41 123.925 1017.65 119.594C1012.72 126.763 1007.64 133.932 1002.7 141.101C1003.15 141.848 1003.9 142.894 1004.35 144.387C1004.65 145.731 1004.95 147.524 1004.35 150.362C1003.45 154.394 1001.51 157.232 1001.36 157.531C1000.76 158.427 993.291 170.973 995.233 184.714C997.325 199.5 1009.73 212.195 1024.22 215.929C1026.76 216.527 1036.92 219.066 1047.08 214.735C1063.67 207.565 1073.83 185.012 1070.54 159.174ZM1036.77 198.753C1019.14 195.169 1010.33 168.284 1015.55 163.206C1016.15 162.609 1017.05 162.161 1022.88 162.609C1031.84 163.057 1036.92 164.401 1042.75 165.447C1057.24 167.836 1063.37 166.343 1066.06 170.973C1066.81 172.317 1066.96 173.661 1067.11 175.155C1067.7 183.818 1060.23 191.883 1053.36 195.766C1051.42 196.812 1044.69 200.396 1036.77 198.753Z" fill="#FFFF4D"/>
<path d="M1056.95 228.774C1050.97 237.138 1044.1 242.067 1043.65 241.619C1043.2 241.171 1049.77 235.794 1053.51 225.638C1054.85 221.904 1055.45 218.618 1055.75 216.228C1058.14 216.826 1060.68 217.274 1063.07 217.871C1062.03 220.56 1059.93 224.443 1056.95 228.774Z" fill="#212121"/>
<path d="M1385.15 53.5081C1369.91 54.2549 1326.88 58.1382 1302.07 89.2046C1288.92 105.634 1281.6 128.635 1277.12 143.272C1272.49 157.76 1270.1 170.156 1268.75 178.968C1273.98 173.591 1281 166.422 1289.97 158.805C1301.33 148.948 1310.29 142.077 1312.53 141.032C1338.08 128.336 1393.37 133.265 1410.11 104.738C1411.75 101.9 1417.13 94.4321 1415.04 85.9187C1413.1 77.704 1405.62 73.0739 1403.08 71.7297C1402.79 69.7881 1401.89 65.158 1398.15 60.8266C1393.07 54.8523 1386.8 53.8068 1385.15 53.5081Z" fill="#07AF68"/>
<path d="M1405.92 26.6235C1352.58 -13.1056 1260.53 -7.28065 1218.99 46.3387C1245.44 36.7798 1268.45 42.0073 1296.54 47.5335C1311.94 50.67 1329.72 51.7155 1345.71 50.5207C1365.13 49.0271 1383.96 43.7996 1403.38 48.4297C1411.6 50.3713 1418.48 55.3001 1420.72 45.2932C1423.86 32.7471 1407.57 24.6818 1405.92 26.6235Z" fill="#07AF68"/>
<path d="M1293.98 137C1312.51 121.168 1332.54 107.129 1353.76 95.1803C1375.12 83.2317 1397.54 73.3741 1420.85 65.7568C1433.85 61.5748 1447 57.9903 1460.3 55.3018C1460.74 55.1525 1460.59 54.4057 1460.15 54.555C1436.39 59.4838 1413.08 66.8024 1390.66 76.3612C1368.1 85.9201 1346.28 97.8687 1325.96 111.61C1314.76 119.227 1303.85 127.591 1293.54 136.552C1292.94 136.851 1293.54 137.299 1293.98 137Z" fill="#1D1D1B"/>
<path d="M1250.07 29.9096C1273.23 20.3507 1298.49 18.7078 1323.14 21.0975C1348.55 23.4872 1373.35 29.7603 1398.01 36.1826C1413.1 40.0659 1428.04 43.9492 1443.13 47.8325C1443.58 47.9819 1443.88 47.2351 1443.28 47.0857C1417.13 40.3646 1391.13 33.0461 1364.83 27.2212C1340.33 21.695 1315.07 17.8117 1289.97 19.7533C1276.22 20.7988 1262.48 23.786 1249.77 29.0135C1249.33 29.3122 1249.48 30.059 1250.07 29.9096Z" fill="#1D1D1B"/>
<path d="M914.095 209.358C942.038 211.747 969.382 219.962 994.187 233.106C999.865 236.093 1005.24 239.379 1010.62 242.963C1011.07 243.262 1011.37 242.515 1011.07 242.216C987.911 226.982 961.911 216.378 934.716 211.299C927.842 209.955 920.969 209.059 914.095 208.462C913.647 208.462 913.647 209.358 914.095 209.358Z" fill="#DE0055"/>
<path d="M1023.33 427.27C1023.48 427.27 1024.52 427.868 1026.16 428.764C1026.91 429.063 1027.81 429.511 1028.71 429.959C1030.05 430.556 1035.28 432.647 1043.65 433.394C1045.29 433.543 1049.77 433.394 1058.74 433.245C1068.15 433.095 1069.5 432.946 1072.04 433.842C1072.94 434.141 1073.53 434.439 1073.98 434.589C1077.57 436.381 1074.58 434.738 1077.57 436.381C1081.3 438.472 1082.05 438.92 1083.39 439.518C1087.73 441.758 1090.27 443.102 1093.41 442.953C1093.56 442.953 1098.04 442.654 1098.49 440.862C1098.64 440.264 1098.34 439.518 1093.26 435.037C1090.42 432.647 1089.07 431.452 1086.83 429.959C1084.74 428.465 1083.1 427.569 1080.85 426.225C1078.91 425.179 1076.22 423.686 1073.08 422.192C1074.28 422.64 1076.22 423.238 1078.76 423.984C1084.74 425.627 1086.38 425.627 1088.92 427.121C1090.42 427.868 1091.91 429.511 1094.9 432.797C1100.58 438.771 1101.62 441.161 1104.31 441.31C1105.96 441.459 1107.75 440.563 1108.8 439.518C1111.19 436.979 1109.1 434.141 1110.74 431.154C1113.28 426.524 1120.9 428.615 1123.14 424.582C1124.19 422.79 1124.04 419.504 1119.71 413.38C1118.21 411.737 1116.12 409.347 1112.98 407.107C1110.59 405.315 1109.39 404.867 1103.42 401.88C1092.81 396.652 1090.27 394.86 1085.79 394.561C1083.1 394.412 1080.26 394.561 1080.26 394.561C1079.51 394.561 1078.76 394.71 1073.98 395.308C1069.2 395.905 1069.05 396.055 1068 396.055C1065.76 396.204 1065.76 395.905 1062.03 396.055C1058.59 396.055 1057.39 396.353 1052.31 396.055C1046.34 395.756 1046.49 395.607 1038.42 395.158C1032.44 394.86 1030.5 394.86 1021.83 394.113C1012.57 393.366 1000.31 392.022 985.82 389.782C982.832 399.938 979.992 410.244 977.004 420.4C1008.83 424.433 1021.83 426.374 1023.33 427.27Z" fill="#FF8481"/>
<path d="M878.084 409.795C879.877 410.094 883.912 410.841 888.992 411.886C888.992 411.886 962.958 427.121 994.636 432.348C997.475 432.796 1004.2 433.842 1008.23 430.108C1009.43 429.062 1010.03 427.868 1010.33 426.972C1011.97 427.27 1014.66 427.569 1017.05 426.374C1020.34 424.731 1021.23 421.445 1024.52 406.958C1027.06 395.606 1027.96 390.976 1025.57 388.885C1024.07 387.69 1022.13 388.138 1020.64 386.346C1019.14 384.405 1019.29 381.567 1019.89 379.476C972.67 389.483 925.452 399.639 878.084 409.795Z" fill="#FF3985"/>
<path d="M930.681 470.584C929.485 464.012 928.888 411.587 928.738 393.366C928.738 386.346 992.692 384.852 992.842 393.963C992.842 394.411 992.842 394.71 993.141 395.158C993.29 395.606 993.589 395.905 993.888 396.203C994.187 396.502 994.486 396.652 994.934 396.801C995.382 396.95 995.681 396.95 996.129 396.95C1000.76 396.502 1005.39 397.249 1008.83 399.937C1013.76 403.821 1015.11 413.38 1015.41 418.756C1015.55 421.594 1016.9 455.349 996.876 465.207C994.635 466.252 992.692 466.85 991.348 467.148C991.348 468.493 991.198 469.389 991.198 469.837C990.302 474.915 981.187 476.558 960.865 476.558C938.451 476.558 931.129 474.019 930.681 470.584ZM1004.5 431.751C1005.84 422.938 1005.24 410.99 1000.91 409.347C1000.46 409.198 998.669 408.75 996.577 408.451C994.784 408.301 993.29 408.451 992.244 408.6C991.945 417.263 991.796 425.926 991.646 434.738C991.497 442.056 991.497 449.375 991.348 456.544C992.692 455.498 994.486 453.856 996.428 451.615C1002.55 444.297 1003.9 436.231 1004.5 431.751Z" fill="#8C1D80"/>
<path d="M936.36 392.619C935.912 393.814 943.831 394.71 960.866 395.009C976.406 395.307 985.073 395.158 986.567 393.067C988.509 390.379 937.555 389.632 936.36 392.619Z" fill="#212121"/>
<path d="M954.739 382.912C953.842 382.315 957.428 378.581 957.727 373.353C958.026 363.346 944.877 360.21 945.175 351.398C945.325 345.125 951.9 344.676 953.543 336.163C955.187 327.351 949.808 319.883 951.152 319.286C952.049 318.838 954.888 322.123 956.233 325.559C957.578 328.845 957.428 331.832 957.578 334.072C958.026 341.241 953.992 344.228 952.946 350.352C951.152 361.853 964.9 367.528 962.061 376.191C960.417 380.672 955.635 383.509 954.739 382.912Z" fill="white"/>
<path d="M973.865 334.071C972.669 326.005 966.244 324.811 966.543 318.836C966.692 315.252 969.083 315.252 970.876 308.531C972.072 303.901 971.773 300.465 972.37 300.465C972.819 300.465 973.715 303.751 973.715 307.186C973.566 313.161 970.876 314.057 970.577 318.239C969.98 325.707 977.6 328.096 976.853 336.012C976.405 339.746 974.313 343.032 973.715 342.883C972.968 342.733 974.612 339 973.865 334.071Z" fill="white"/>
<path d="M1105.36 431.451C1103.87 429.211 1102.22 426.971 1100.43 424.73C1098.64 422.639 1096.69 420.25 1094.45 418.607C1092.36 416.964 1089.82 416.217 1087.28 415.321C1084.29 414.275 1081.3 413.08 1078.31 412.035C1078.01 411.886 1077.87 412.334 1078.16 412.483C1080.85 413.379 1083.54 414.425 1086.23 415.321C1088.92 416.366 1091.91 417.113 1094.15 418.905C1096.24 420.548 1098.04 422.639 1099.68 424.73C1101.62 426.971 1103.27 429.211 1104.91 431.75C1105.06 431.899 1105.51 431.601 1105.36 431.451Z" fill="#D98E8F"/>
<path d="M1112.23 421.295C1107 416.964 1101.77 412.483 1096.25 408.6C1092.06 405.762 1087.28 404.119 1082.35 403.521C1082.05 403.521 1082.05 403.97 1082.35 403.97C1087.43 404.418 1092.21 406.21 1096.25 409.048C1101.62 412.931 1106.85 417.262 1111.93 421.444C1112.08 421.892 1112.38 421.594 1112.23 421.295Z" fill="#D98E8F"/>
<path d="M1286.91 321.077C1232.07 325.109 1177.38 329.292 1122.54 333.324C1118.96 333.623 1116.12 336.311 1115.67 339.896C1110.74 381.268 1105.66 422.64 1100.73 464.012C1160.5 459.531 1220.42 455.051 1280.19 450.719C1285.12 410.243 1290.05 369.917 1294.98 329.441C1295.43 324.811 1291.54 320.778 1286.91 321.077Z" fill="#0077FF"/>
<path d="M942.785 283.289C940.693 284.484 937.555 287.621 938.451 290.608C939.198 293.147 942.336 293.147 942.785 295.985C943.233 299.121 940.543 300.764 939.796 303.602C939.348 305.842 939.945 309.277 941.29 310.92C942.336 308.381 941.141 305.693 942.486 303.004C943.532 300.615 945.624 298.374 944.876 295.387C944.279 292.998 941.29 292.101 940.543 290.01C939.497 287.322 941.589 285.828 942.785 283.289Z" fill="white"/>
<path d="M1197.85 429.211C1180.82 429.958 1172.3 430.406 1167.67 425.477C1163.04 420.548 1164.08 412.035 1166.18 395.157L1166.62 392.021C1168.72 375.144 1169.76 366.63 1175.89 361.104C1181.87 355.578 1190.38 355.13 1207.42 354.383L1210.56 354.234C1227.59 353.487 1236.11 353.039 1240.89 357.967C1245.52 363.046 1244.47 371.41 1242.38 388.287L1241.93 391.424C1239.84 408.301 1238.8 416.814 1232.82 422.191C1226.84 427.717 1218.33 428.016 1201.14 428.912L1197.85 429.211Z" fill="white"/>
<path d="M1203.55 408.857L1205.99 397.598C1212.12 397.61 1215.65 401.863 1216.38 407.673L1225.33 406.875C1224.83 398.072 1219.65 393.706 1216.03 392.293C1220.46 389.655 1227.19 383.379 1230.15 375.544L1221.95 376.325C1218.96 382.816 1212.52 388.936 1207.61 389.942L1210.32 377.482L1201.97 378.266L1197.22 400.035C1192.42 399.246 1187.22 393.685 1190.03 379.28L1181.38 380.072C1177.49 399.73 1185.35 410.609 1202.35 408.884L1203.55 408.857Z" fill="#0077FF"/>
</svg>
