<svg width="751" height="568" viewBox="0 0 751 568" fill="none" xmlns="http://www.w3.org/2000/svg">
<g opacity="0.3">
<mask id="mask0_303_150" style="mask-type:alpha" maskUnits="userSpaceOnUse" x="0" y="247" width="432" height="321">
<rect y="247.409" width="431.605" height="320.591" fill="url(#paint0_linear_303_150)"/>
</mask>
<g mask="url(#mask0_303_150)">
<path d="M107.878 249.484C107.764 249.771 107.631 250.05 107.479 250.32C103.43 257.549 97.7945 263.537 91.6798 269.032C68.3752 289.997 41.48 304.711 11.7299 314.333C7.85596 315.588 3.90098 316.579 -2.45306e-06 317.705L0 373.688C39.5768 366.31 75.023 349.81 107.878 326.694L107.878 249.484Z" fill="url(#paint1_linear_303_150)" fill-opacity="0.4"/>
<path d="M107.878 363.634C107.676 364.127 107.435 364.603 107.156 365.056C102.485 372.609 96.249 378.752 89.5538 384.43C69.0906 401.787 45.9884 414.64 20.8817 423.932C14.0583 426.454 7.05956 428.483 -2.76538e-06 430.783L0 493.893C39.2595 486.523 74.7463 470.561 107.878 448.524L107.878 363.634Z" fill="url(#paint2_linear_303_150)" fill-opacity="0.4"/>
<path d="M215.735 249.484C215.621 249.771 215.488 250.05 215.337 250.32C211.287 257.549 205.652 263.537 199.537 269.032C176.226 289.997 149.337 304.711 119.587 314.333C115.713 315.588 111.758 316.579 107.851 317.705L107.851 373.688C147.434 366.31 182.88 349.81 215.735 326.694L215.735 249.484Z" fill="url(#paint3_linear_303_150)" fill-opacity="0.5"/>
<path d="M215.734 363.634C215.533 364.127 215.291 364.603 215.012 365.056C210.342 372.609 204.106 378.752 197.411 384.43C176.947 401.787 153.845 414.64 128.732 423.932C121.915 426.454 114.909 428.483 107.857 430.783L107.857 493.893C147.116 486.523 182.603 470.561 215.734 448.524L215.734 363.634Z" fill="url(#paint4_linear_303_150)" fill-opacity="0.5"/>
<path d="M323.611 249.484C323.492 249.77 323.357 250.049 323.206 250.32C319.157 257.549 313.521 263.537 307.413 269.032C284.102 289.997 257.207 304.711 227.456 314.333C223.582 315.588 219.628 316.579 215.727 317.705L215.727 373.688C255.303 366.31 290.756 349.81 323.611 326.694L323.611 249.484Z" fill="url(#paint5_linear_303_150)"/>
<path d="M323.611 363.634C323.405 364.126 323.161 364.601 322.882 365.056C318.219 372.609 311.976 378.752 305.281 384.43C284.817 401.787 261.715 414.64 236.608 423.932C229.785 426.454 222.786 428.483 215.727 430.783L215.727 493.893C254.986 486.523 290.473 470.561 323.611 448.524L323.611 363.634Z" fill="url(#paint6_linear_303_150)"/>
<path d="M431.437 249.484C431.324 249.771 431.191 250.05 431.039 250.32C426.99 257.549 421.354 263.537 415.239 269.032C391.928 289.997 365.039 304.711 335.289 314.333C331.415 315.588 327.46 316.579 323.553 317.705L323.553 373.688C363.136 366.31 398.583 349.81 431.437 326.694L431.437 249.484Z" fill="url(#paint7_linear_303_150)"/>
<path d="M431.43 363.634C431.229 364.127 430.987 364.603 430.708 365.056C426.038 372.609 419.802 378.752 413.107 384.43C392.643 401.787 369.541 414.64 344.434 423.932C337.611 426.454 330.612 428.483 323.553 430.783L323.553 493.893C362.812 486.523 398.299 470.561 431.43 448.524L431.43 363.634Z" fill="url(#paint8_linear_303_150)"/>
</g>
<mask id="mask1_303_150" style="mask-type:alpha" maskUnits="userSpaceOnUse" x="0" y="0" width="432" height="322">
<rect y="0.480713" width="431.605" height="320.591" fill="url(#paint9_linear_303_150)"/>
</mask>
<g mask="url(#mask1_303_150)">
<path d="M107.878 2.55578C107.764 2.84321 107.631 3.12258 107.479 3.39194C103.43 10.6207 97.7945 16.6087 91.6798 22.1045C68.3752 43.0692 41.48 57.7829 11.7299 67.4056C7.85596 68.6598 3.90098 69.6511 -2.45306e-06 70.7772L0 126.76C39.5768 119.383 75.023 102.882 107.878 79.766L107.878 2.55578Z" fill="url(#paint10_linear_303_150)" fill-opacity="0.4"/>
<path d="M107.878 116.706C107.676 117.199 107.435 117.675 107.156 118.129C102.485 125.681 96.249 131.824 89.5538 137.502C69.0906 154.859 45.9884 167.712 20.8817 177.004C14.0583 179.526 7.05956 181.556 -2.76538e-06 183.855L0 246.965C39.2595 239.595 74.7463 223.634 107.878 201.597L107.878 116.706Z" fill="url(#paint11_linear_303_150)" fill-opacity="0.4"/>
<path d="M215.735 2.55577C215.621 2.84321 215.488 3.12257 215.337 3.39193C211.287 10.6207 205.652 16.6087 199.537 22.1045C176.226 43.0692 149.337 57.7829 119.587 67.4056C115.713 68.6598 111.758 69.6511 107.851 70.7772L107.851 126.76C147.434 119.383 182.88 102.882 215.735 79.766L215.735 2.55577Z" fill="url(#paint12_linear_303_150)" fill-opacity="0.5"/>
<path d="M215.734 116.706C215.533 117.199 215.291 117.675 215.012 118.129C210.342 125.681 204.106 131.824 197.411 137.502C176.947 154.859 153.845 167.712 128.732 177.004C121.915 179.526 114.909 181.556 107.857 183.855L107.857 246.965C147.116 239.595 182.603 223.634 215.734 201.597L215.734 116.706Z" fill="url(#paint13_linear_303_150)" fill-opacity="0.5"/>
<path d="M323.611 2.55578C323.492 2.84211 323.357 3.1213 323.206 3.39194C319.157 10.6207 313.521 16.6087 307.413 22.1045C284.102 43.0692 257.207 57.7829 227.456 67.4056C223.582 68.6598 219.628 69.6511 215.727 70.7772L215.727 126.76C255.303 119.383 290.756 102.882 323.611 79.766L323.611 2.55578Z" fill="url(#paint14_linear_303_150)"/>
<path d="M323.611 116.706C323.405 117.198 323.161 117.674 322.882 118.129C318.219 125.681 311.976 131.824 305.281 137.502C284.817 154.859 261.715 167.712 236.608 177.004C229.785 179.526 222.786 181.556 215.727 183.855L215.727 246.965C254.986 239.595 290.473 223.634 323.611 201.597L323.611 116.706Z" fill="url(#paint15_linear_303_150)"/>
<path d="M431.437 2.55578C431.324 2.84321 431.191 3.12258 431.039 3.39194C426.99 10.6207 421.354 16.6087 415.239 22.1045C391.928 43.0692 365.039 57.7829 335.289 67.4056C331.415 68.6598 327.46 69.6511 323.553 70.7772L323.553 126.76C363.136 119.383 398.583 102.882 431.437 79.766L431.437 2.55578Z" fill="url(#paint16_linear_303_150)"/>
<path d="M431.43 116.706C431.229 117.199 430.987 117.675 430.708 118.129C426.038 125.681 419.802 131.824 413.107 137.502C392.643 154.859 369.541 167.712 344.434 177.004C337.611 179.526 330.612 181.556 323.553 183.855L323.553 246.965C362.812 239.595 398.299 223.634 431.43 201.597L431.43 116.706Z" fill="url(#paint17_linear_303_150)"/>
</g>
</g>
<g opacity="0.5">
<mask id="mask2_303_150" style="mask-type:alpha" maskUnits="userSpaceOnUse" x="433" y="247" width="432" height="321">
<rect x="433" y="247.409" width="431.605" height="320.591" fill="url(#paint18_linear_303_150)"/>
</mask>
<g mask="url(#mask2_303_150)">
<path d="M540.878 249.484C540.764 249.771 540.631 250.05 540.479 250.32C536.43 257.549 530.795 263.537 524.68 269.032C501.375 289.997 474.48 304.711 444.73 314.333C440.856 315.588 436.901 316.579 433 317.705L433 373.688C472.577 366.31 508.023 349.81 540.878 326.694L540.878 249.484Z" fill="url(#paint19_linear_303_150)"/>
<path d="M540.878 363.634C540.676 364.127 540.435 364.603 540.156 365.056C535.485 372.609 529.249 378.752 522.554 384.43C502.091 401.787 478.988 414.64 453.882 423.932C447.058 426.454 440.06 428.483 433 430.783L433 493.893C472.26 486.523 507.746 470.561 540.878 448.524L540.878 363.634Z" fill="url(#paint20_linear_303_150)"/>
<path d="M648.735 249.484C648.621 249.771 648.488 250.05 648.337 250.32C644.287 257.549 638.652 263.537 632.537 269.032C609.226 289.997 582.337 304.711 552.587 314.333C548.713 315.588 544.758 316.579 540.851 317.705L540.851 373.688C580.434 366.31 615.88 349.81 648.735 326.694L648.735 249.484Z" fill="url(#paint21_linear_303_150)"/>
<path d="M648.734 363.634C648.533 364.127 648.292 364.603 648.012 365.056C643.342 372.609 637.106 378.752 630.411 384.43C609.947 401.787 586.845 414.64 561.732 423.932C554.915 426.454 547.91 428.483 540.857 430.783L540.857 493.893C580.116 486.523 615.603 470.561 648.734 448.524L648.734 363.634Z" fill="url(#paint22_linear_303_150)"/>
<path d="M756.611 249.484C756.492 249.77 756.357 250.049 756.206 250.32C752.157 257.549 746.521 263.537 740.413 269.032C717.102 289.997 690.207 304.711 660.456 314.333C656.582 315.588 652.628 316.579 648.727 317.705L648.727 373.688C688.303 366.31 723.756 349.81 756.611 326.694L756.611 249.484Z" fill="url(#paint23_linear_303_150)"/>
<path d="M756.611 363.634C756.405 364.126 756.161 364.601 755.882 365.056C751.219 372.609 744.976 378.752 738.281 384.43C717.817 401.787 694.715 414.64 669.608 423.932C662.785 426.454 655.786 428.483 648.727 430.783L648.727 493.893C687.986 486.523 723.473 470.561 756.611 448.524L756.611 363.634Z" fill="url(#paint24_linear_303_150)"/>
</g>
<mask id="mask3_303_150" style="mask-type:alpha" maskUnits="userSpaceOnUse" x="433" y="0" width="432" height="322">
<rect x="433" y="0.480713" width="431.605" height="320.591" fill="url(#paint25_linear_303_150)"/>
</mask>
<g mask="url(#mask3_303_150)">
<path d="M540.878 2.55578C540.764 2.84321 540.631 3.12258 540.479 3.39194C536.43 10.6207 530.795 16.6087 524.68 22.1045C501.375 43.0692 474.48 57.7829 444.73 67.4056C440.856 68.6598 436.901 69.6511 433 70.7772L433 126.76C472.577 119.383 508.023 102.882 540.878 79.766L540.878 2.55578Z" fill="url(#paint26_linear_303_150)"/>
<path d="M540.878 116.706C540.676 117.199 540.435 117.675 540.156 118.129C535.485 125.681 529.249 131.824 522.554 137.502C502.091 154.859 478.988 167.712 453.882 177.004C447.058 179.526 440.06 181.556 433 183.855L433 246.965C472.26 239.595 507.746 223.634 540.878 201.597L540.878 116.706Z" fill="url(#paint27_linear_303_150)"/>
<path d="M648.735 2.55577C648.621 2.84321 648.488 3.12257 648.337 3.39193C644.287 10.6207 638.652 16.6087 632.537 22.1045C609.226 43.0692 582.337 57.7829 552.587 67.4056C548.713 68.6598 544.758 69.6511 540.851 70.7772L540.851 126.76C580.434 119.383 615.88 102.882 648.735 79.766L648.735 2.55577Z" fill="url(#paint28_linear_303_150)"/>
<path d="M648.734 116.706C648.533 117.199 648.292 117.675 648.012 118.129C643.342 125.681 637.106 131.824 630.411 137.502C609.947 154.859 586.845 167.712 561.732 177.004C554.915 179.526 547.91 181.556 540.857 183.855L540.857 246.965C580.116 239.595 615.603 223.634 648.734 201.597L648.734 116.706Z" fill="url(#paint29_linear_303_150)"/>
<path d="M756.611 2.55578C756.492 2.84211 756.357 3.1213 756.206 3.39194C752.157 10.6207 746.521 16.6087 740.413 22.1045C717.102 43.0692 690.207 57.7829 660.456 67.4056C656.582 68.6598 652.628 69.6511 648.727 70.7772L648.727 126.76C688.303 119.383 723.756 102.882 756.611 79.766L756.611 2.55578Z" fill="url(#paint30_linear_303_150)"/>
<path d="M756.611 116.706C756.405 117.198 756.161 117.674 755.882 118.129C751.219 125.681 744.976 131.824 738.281 137.502C717.817 154.859 694.715 167.712 669.608 177.004C662.785 179.526 655.786 181.556 648.727 183.855L648.727 246.965C687.986 239.595 723.473 223.634 756.611 201.597L756.611 116.706Z" fill="url(#paint31_linear_303_150)"/>
</g>
</g>
<defs>
<linearGradient id="paint0_linear_303_150" x1="210.096" y1="292.933" x2="417.165" y2="548.1" gradientUnits="userSpaceOnUse">
<stop stop-color="white"/>
<stop offset="1" stop-color="white" stop-opacity="0"/>
</linearGradient>
<linearGradient id="paint1_linear_303_150" x1="15.3189" y1="313.228" x2="90.2531" y2="242.122" gradientUnits="userSpaceOnUse">
<stop stop-color="#0077FF"/>
<stop offset="1" stop-color="#2E2EDE"/>
</linearGradient>
<linearGradient id="paint2_linear_303_150" x1="15.3189" y1="430.485" x2="93.6224" y2="359.637" gradientUnits="userSpaceOnUse">
<stop stop-color="#0077FF"/>
<stop offset="1" stop-color="#2E2EDE"/>
</linearGradient>
<linearGradient id="paint3_linear_303_150" x1="123.17" y1="313.228" x2="198.105" y2="242.118" gradientUnits="userSpaceOnUse">
<stop stop-color="#0077FF"/>
<stop offset="1" stop-color="#2E2EDE"/>
</linearGradient>
<linearGradient id="paint4_linear_303_150" x1="123.176" y1="430.485" x2="201.479" y2="359.637" gradientUnits="userSpaceOnUse">
<stop stop-color="#0077FF"/>
<stop offset="1" stop-color="#2E2EDE"/>
</linearGradient>
<linearGradient id="paint5_linear_303_150" x1="231.046" y1="313.228" x2="305.981" y2="242.118" gradientUnits="userSpaceOnUse">
<stop stop-color="#0077FF"/>
<stop offset="1" stop-color="#2E2EDE"/>
</linearGradient>
<linearGradient id="paint6_linear_303_150" x1="231.047" y1="430.485" x2="309.351" y2="359.632" gradientUnits="userSpaceOnUse">
<stop stop-color="#0077FF"/>
<stop offset="1" stop-color="#2E2EDE"/>
</linearGradient>
<linearGradient id="paint7_linear_303_150" x1="338.873" y1="313.228" x2="413.807" y2="242.118" gradientUnits="userSpaceOnUse">
<stop stop-color="#0077FF"/>
<stop offset="1" stop-color="#2E2EDE"/>
</linearGradient>
<linearGradient id="paint8_linear_303_150" x1="338.872" y1="430.485" x2="417.175" y2="359.637" gradientUnits="userSpaceOnUse">
<stop stop-color="#0077FF"/>
<stop offset="1" stop-color="#2E2EDE"/>
</linearGradient>
<linearGradient id="paint9_linear_303_150" x1="210.096" y1="46.0055" x2="417.165" y2="301.172" gradientUnits="userSpaceOnUse">
<stop stop-color="white"/>
<stop offset="1" stop-color="white" stop-opacity="0"/>
</linearGradient>
<linearGradient id="paint10_linear_303_150" x1="15.3189" y1="66.2998" x2="90.2531" y2="-4.80565" gradientUnits="userSpaceOnUse">
<stop stop-color="#0077FF"/>
<stop offset="1" stop-color="#2E2EDE"/>
</linearGradient>
<linearGradient id="paint11_linear_303_150" x1="15.3189" y1="183.558" x2="93.6224" y2="112.709" gradientUnits="userSpaceOnUse">
<stop stop-color="#0077FF"/>
<stop offset="1" stop-color="#2E2EDE"/>
</linearGradient>
<linearGradient id="paint12_linear_303_150" x1="123.17" y1="66.2998" x2="198.105" y2="-4.81035" gradientUnits="userSpaceOnUse">
<stop stop-color="#0077FF"/>
<stop offset="1" stop-color="#2E2EDE"/>
</linearGradient>
<linearGradient id="paint13_linear_303_150" x1="123.176" y1="183.558" x2="201.479" y2="112.709" gradientUnits="userSpaceOnUse">
<stop stop-color="#0077FF"/>
<stop offset="1" stop-color="#2E2EDE"/>
</linearGradient>
<linearGradient id="paint14_linear_303_150" x1="231.046" y1="66.2998" x2="305.981" y2="-4.81033" gradientUnits="userSpaceOnUse">
<stop stop-color="#0077FF"/>
<stop offset="1" stop-color="#2E2EDE"/>
</linearGradient>
<linearGradient id="paint15_linear_303_150" x1="231.047" y1="183.558" x2="309.351" y2="112.704" gradientUnits="userSpaceOnUse">
<stop stop-color="#0077FF"/>
<stop offset="1" stop-color="#2E2EDE"/>
</linearGradient>
<linearGradient id="paint16_linear_303_150" x1="338.873" y1="66.2998" x2="413.807" y2="-4.81033" gradientUnits="userSpaceOnUse">
<stop stop-color="#0077FF"/>
<stop offset="1" stop-color="#2E2EDE"/>
</linearGradient>
<linearGradient id="paint17_linear_303_150" x1="338.872" y1="183.558" x2="417.175" y2="112.709" gradientUnits="userSpaceOnUse">
<stop stop-color="#0077FF"/>
<stop offset="1" stop-color="#2E2EDE"/>
</linearGradient>
<linearGradient id="paint18_linear_303_150" x1="643.096" y1="292.933" x2="850.165" y2="548.1" gradientUnits="userSpaceOnUse">
<stop stop-color="white"/>
<stop offset="1" stop-color="white" stop-opacity="0"/>
</linearGradient>
<linearGradient id="paint19_linear_303_150" x1="448.319" y1="313.228" x2="523.253" y2="242.122" gradientUnits="userSpaceOnUse">
<stop stop-color="#0077FF"/>
<stop offset="1" stop-color="#2E2EDE"/>
</linearGradient>
<linearGradient id="paint20_linear_303_150" x1="448.319" y1="430.485" x2="526.622" y2="359.637" gradientUnits="userSpaceOnUse">
<stop stop-color="#0077FF"/>
<stop offset="1" stop-color="#2E2EDE"/>
</linearGradient>
<linearGradient id="paint21_linear_303_150" x1="556.17" y1="313.228" x2="631.105" y2="242.118" gradientUnits="userSpaceOnUse">
<stop stop-color="#0077FF"/>
<stop offset="1" stop-color="#2E2EDE"/>
</linearGradient>
<linearGradient id="paint22_linear_303_150" x1="556.176" y1="430.485" x2="634.479" y2="359.637" gradientUnits="userSpaceOnUse">
<stop stop-color="#0077FF"/>
<stop offset="1" stop-color="#2E2EDE"/>
</linearGradient>
<linearGradient id="paint23_linear_303_150" x1="664.046" y1="313.228" x2="738.981" y2="242.118" gradientUnits="userSpaceOnUse">
<stop stop-color="#0077FF"/>
<stop offset="1" stop-color="#2E2EDE"/>
</linearGradient>
<linearGradient id="paint24_linear_303_150" x1="664.047" y1="430.485" x2="742.351" y2="359.632" gradientUnits="userSpaceOnUse">
<stop stop-color="#0077FF"/>
<stop offset="1" stop-color="#2E2EDE"/>
</linearGradient>
<linearGradient id="paint25_linear_303_150" x1="643.096" y1="46.0055" x2="850.165" y2="301.172" gradientUnits="userSpaceOnUse">
<stop stop-color="white"/>
<stop offset="1" stop-color="white" stop-opacity="0"/>
</linearGradient>
<linearGradient id="paint26_linear_303_150" x1="448.319" y1="66.2998" x2="523.253" y2="-4.80565" gradientUnits="userSpaceOnUse">
<stop stop-color="#0077FF"/>
<stop offset="1" stop-color="#2E2EDE"/>
</linearGradient>
<linearGradient id="paint27_linear_303_150" x1="448.319" y1="183.558" x2="526.622" y2="112.709" gradientUnits="userSpaceOnUse">
<stop stop-color="#0077FF"/>
<stop offset="1" stop-color="#2E2EDE"/>
</linearGradient>
<linearGradient id="paint28_linear_303_150" x1="556.17" y1="66.2998" x2="631.105" y2="-4.81035" gradientUnits="userSpaceOnUse">
<stop stop-color="#0077FF"/>
<stop offset="1" stop-color="#2E2EDE"/>
</linearGradient>
<linearGradient id="paint29_linear_303_150" x1="556.176" y1="183.558" x2="634.479" y2="112.709" gradientUnits="userSpaceOnUse">
<stop stop-color="#0077FF"/>
<stop offset="1" stop-color="#2E2EDE"/>
</linearGradient>
<linearGradient id="paint30_linear_303_150" x1="664.046" y1="66.2998" x2="738.981" y2="-4.81033" gradientUnits="userSpaceOnUse">
<stop stop-color="#0077FF"/>
<stop offset="1" stop-color="#2E2EDE"/>
</linearGradient>
<linearGradient id="paint31_linear_303_150" x1="664.047" y1="183.558" x2="742.351" y2="112.704" gradientUnits="userSpaceOnUse">
<stop stop-color="#0077FF"/>
<stop offset="1" stop-color="#2E2EDE"/>
</linearGradient>
</defs>
</svg>
