<svg width="74" height="35" viewBox="0 0 74 35" fill="none" xmlns="http://www.w3.org/2000/svg">
<path d="M17.8377 34.46C12.5946 34.46 8.35701 32.9158 5.12495 29.8274C1.89289 26.6672 0.276855 22.5373 0.276855 17.4378C0.276855 12.3384 1.89289 8.24442 5.12495 5.15601C8.35701 1.99577 12.5946 0.415649 17.8377 0.415649C21.2134 0.415649 24.4455 1.31344 27.5339 3.10904C30.6223 4.90462 33.7467 7.70574 36.9069 11.5124C40.0671 7.70574 43.1915 4.90462 46.2799 3.10904C49.3683 1.31344 52.6003 0.415649 55.9761 0.415649C61.2192 0.415649 65.4568 1.99577 68.6888 5.15601C71.9209 8.24442 73.5369 12.3384 73.5369 17.4378C73.5369 22.5373 71.9209 26.6672 68.6888 29.8274C65.4568 32.9158 61.2192 34.46 55.9761 34.46C52.6003 34.46 49.3683 33.5622 46.2799 31.7667C43.1915 29.9711 40.0671 27.1699 36.9069 23.3633C33.7467 27.1699 30.6223 29.9711 27.5339 31.7667C24.4455 33.5622 21.2134 34.46 17.8377 34.46ZM17.8377 26.9186C20.2797 26.9186 22.8295 26.0567 25.4869 24.3329C28.2162 22.6091 30.5864 20.3108 32.5975 17.4378C30.5864 14.5649 28.2162 12.2665 25.4869 10.5428C22.8295 8.81901 20.2797 7.95713 17.8377 7.95713C14.9648 7.95713 12.6664 8.81901 10.9427 10.5428C9.21889 12.2665 8.35701 14.5649 8.35701 17.4378C8.35701 20.3108 9.21889 22.6091 10.9427 24.3329C12.6664 26.0567 14.9648 26.9186 17.8377 26.9186ZM55.9761 26.9186C58.849 26.9186 61.1474 26.0567 62.8711 24.3329C64.5949 22.6091 65.4568 20.3108 65.4568 17.4378C65.4568 14.5649 64.5949 12.2665 62.8711 10.5428C61.1474 8.81901 58.849 7.95713 55.9761 7.95713C53.5341 7.95713 50.9484 8.81901 48.2191 10.5428C45.5616 12.2665 43.2274 14.5649 41.2163 17.4378C43.2274 20.3108 45.5616 22.6091 48.2191 24.3329C50.9484 26.0567 53.5341 26.9186 55.9761 26.9186Z" fill="#0077FF"/>
</svg>
